G04 #@! TF.GenerationSoftware,KiCad,Pcbnew,5.1.2-f72e74a~84~ubuntu18.04.1*
G04 #@! TF.CreationDate,2019-07-18T22:23:35+09:00*
G04 #@! TF.ProjectId,WiredControllerPcb,57697265-6443-46f6-9e74-726f6c6c6572,rev?*
G04 #@! TF.SameCoordinates,Original*
G04 #@! TF.FileFunction,Soldermask,Top*
G04 #@! TF.FilePolarity,Negative*
%FSLAX46Y46*%
G04 Gerber Fmt 4.6, Leading zero omitted, Abs format (unit mm)*
G04 Created by KiCad (PCBNEW 5.1.2-f72e74a~84~ubuntu18.04.1) date 2019-07-18 22:23:35*
%MOMM*%
%LPD*%
G04 APERTURE LIST*
%ADD10C,0.100000*%
G04 APERTURE END LIST*
D10*
G36*
X132126000Y-80061000D02*
G01*
X129444000Y-80061000D01*
X129444000Y-78959000D01*
X132126000Y-78959000D01*
X132126000Y-80061000D01*
X132126000Y-80061000D01*
G37*
G36*
X127956000Y-80061000D02*
G01*
X125274000Y-80061000D01*
X125274000Y-78959000D01*
X127956000Y-78959000D01*
X127956000Y-80061000D01*
X127956000Y-80061000D01*
G37*
G36*
X127956000Y-78061000D02*
G01*
X125274000Y-78061000D01*
X125274000Y-76959000D01*
X127956000Y-76959000D01*
X127956000Y-78061000D01*
X127956000Y-78061000D01*
G37*
G36*
X132126000Y-78061000D02*
G01*
X129444000Y-78061000D01*
X129444000Y-76959000D01*
X132126000Y-76959000D01*
X132126000Y-78061000D01*
X132126000Y-78061000D01*
G37*
G36*
X163339694Y-75818633D02*
G01*
X163512095Y-75870931D01*
X163670983Y-75955858D01*
X163810249Y-76070151D01*
X163924542Y-76209417D01*
X164009469Y-76368305D01*
X164061767Y-76540706D01*
X164079425Y-76720000D01*
X164061767Y-76899294D01*
X164009469Y-77071695D01*
X163924542Y-77230583D01*
X163810249Y-77369849D01*
X163670983Y-77484142D01*
X163512095Y-77569069D01*
X163339694Y-77621367D01*
X163205331Y-77634600D01*
X161794669Y-77634600D01*
X161660306Y-77621367D01*
X161487905Y-77569069D01*
X161329017Y-77484142D01*
X161189751Y-77369849D01*
X161075458Y-77230583D01*
X160990531Y-77071695D01*
X160938233Y-76899294D01*
X160920575Y-76720000D01*
X160938233Y-76540706D01*
X160990531Y-76368305D01*
X161075458Y-76209417D01*
X161189751Y-76070151D01*
X161329017Y-75955858D01*
X161487905Y-75870931D01*
X161660306Y-75818633D01*
X161794669Y-75805400D01*
X163205331Y-75805400D01*
X163339694Y-75818633D01*
X163339694Y-75818633D01*
G37*
G36*
X175839694Y-75818633D02*
G01*
X176012095Y-75870931D01*
X176170983Y-75955858D01*
X176310249Y-76070151D01*
X176424542Y-76209417D01*
X176509469Y-76368305D01*
X176561767Y-76540706D01*
X176579425Y-76720000D01*
X176561767Y-76899294D01*
X176509469Y-77071695D01*
X176424542Y-77230583D01*
X176310249Y-77369849D01*
X176170983Y-77484142D01*
X176012095Y-77569069D01*
X175839694Y-77621367D01*
X175705331Y-77634600D01*
X174294669Y-77634600D01*
X174160306Y-77621367D01*
X173987905Y-77569069D01*
X173829017Y-77484142D01*
X173689751Y-77369849D01*
X173575458Y-77230583D01*
X173490531Y-77071695D01*
X173438233Y-76899294D01*
X173420575Y-76720000D01*
X173438233Y-76540706D01*
X173490531Y-76368305D01*
X173575458Y-76209417D01*
X173689751Y-76070151D01*
X173829017Y-75955858D01*
X173987905Y-75870931D01*
X174160306Y-75818633D01*
X174294669Y-75805400D01*
X175705331Y-75805400D01*
X175839694Y-75818633D01*
X175839694Y-75818633D01*
G37*
G36*
X140542199Y-74859954D02*
G01*
X140554450Y-74860556D01*
X140572869Y-74860556D01*
X140595149Y-74862750D01*
X140679233Y-74879476D01*
X140700660Y-74885976D01*
X140779858Y-74918780D01*
X140785303Y-74921691D01*
X140785309Y-74921693D01*
X140794169Y-74926429D01*
X140794172Y-74926431D01*
X140799614Y-74929340D01*
X140870899Y-74976971D01*
X140888204Y-74991172D01*
X140948828Y-75051796D01*
X140963029Y-75069101D01*
X141010660Y-75140386D01*
X141013568Y-75145827D01*
X141013571Y-75145831D01*
X141018307Y-75154691D01*
X141018309Y-75154697D01*
X141021220Y-75160142D01*
X141054024Y-75239340D01*
X141060524Y-75260767D01*
X141077250Y-75344851D01*
X141079444Y-75367131D01*
X141079444Y-75385550D01*
X141080046Y-75397801D01*
X141081852Y-75416139D01*
X141081852Y-75903860D01*
X141080263Y-75919999D01*
X141077348Y-75929608D01*
X141072610Y-75938472D01*
X141066237Y-75946237D01*
X141053794Y-75956448D01*
X141043425Y-75963378D01*
X141026098Y-75980705D01*
X141012485Y-76001080D01*
X141003109Y-76023720D01*
X140998329Y-76047753D01*
X140998330Y-76072257D01*
X141003112Y-76096290D01*
X141012490Y-76118929D01*
X141026105Y-76139302D01*
X141043432Y-76156629D01*
X141053802Y-76163558D01*
X141066237Y-76173763D01*
X141072610Y-76181528D01*
X141077348Y-76190392D01*
X141080263Y-76200001D01*
X141081852Y-76216140D01*
X141081852Y-76703862D01*
X141080046Y-76722199D01*
X141079444Y-76734450D01*
X141079444Y-76752869D01*
X141077250Y-76775149D01*
X141060524Y-76859233D01*
X141054024Y-76880660D01*
X141021220Y-76959858D01*
X141018309Y-76965303D01*
X141018307Y-76965309D01*
X141013571Y-76974169D01*
X141013568Y-76974173D01*
X141010660Y-76979614D01*
X140963029Y-77050899D01*
X140948828Y-77068204D01*
X140888204Y-77128828D01*
X140870899Y-77143029D01*
X140799614Y-77190660D01*
X140794173Y-77193568D01*
X140794169Y-77193571D01*
X140785309Y-77198307D01*
X140785303Y-77198309D01*
X140779858Y-77201220D01*
X140700660Y-77234024D01*
X140679233Y-77240524D01*
X140595149Y-77257250D01*
X140572869Y-77259444D01*
X140554450Y-77259444D01*
X140542199Y-77260046D01*
X140523862Y-77261852D01*
X140036138Y-77261852D01*
X140017801Y-77260046D01*
X140005550Y-77259444D01*
X139987131Y-77259444D01*
X139964851Y-77257250D01*
X139880767Y-77240524D01*
X139859340Y-77234024D01*
X139780142Y-77201220D01*
X139774697Y-77198309D01*
X139774691Y-77198307D01*
X139765831Y-77193571D01*
X139765827Y-77193568D01*
X139760386Y-77190660D01*
X139689101Y-77143029D01*
X139671796Y-77128828D01*
X139611172Y-77068204D01*
X139596971Y-77050899D01*
X139549340Y-76979614D01*
X139546432Y-76974173D01*
X139546429Y-76974169D01*
X139541693Y-76965309D01*
X139541691Y-76965303D01*
X139538780Y-76959858D01*
X139505976Y-76880660D01*
X139499476Y-76859233D01*
X139482750Y-76775149D01*
X139480556Y-76752869D01*
X139480556Y-76734450D01*
X139479954Y-76722199D01*
X139478148Y-76703862D01*
X139478148Y-76216140D01*
X139479737Y-76200001D01*
X139482652Y-76190392D01*
X139487390Y-76181528D01*
X139493763Y-76173763D01*
X139506206Y-76163552D01*
X139516575Y-76156622D01*
X139533902Y-76139295D01*
X139547515Y-76118920D01*
X139556891Y-76096280D01*
X139561671Y-76072247D01*
X139561670Y-76047743D01*
X139556888Y-76023710D01*
X139547510Y-76001071D01*
X139533895Y-75980698D01*
X139516568Y-75963371D01*
X139506198Y-75956442D01*
X139493763Y-75946237D01*
X139487390Y-75938472D01*
X139482652Y-75929608D01*
X139479737Y-75919999D01*
X139478148Y-75903860D01*
X139478148Y-75416139D01*
X139479954Y-75397801D01*
X139480556Y-75385550D01*
X139480556Y-75367131D01*
X139482750Y-75344851D01*
X139499476Y-75260767D01*
X139505976Y-75239340D01*
X139538780Y-75160142D01*
X139541691Y-75154697D01*
X139541693Y-75154691D01*
X139546429Y-75145831D01*
X139546432Y-75145827D01*
X139549340Y-75140386D01*
X139596971Y-75069101D01*
X139611172Y-75051796D01*
X139671796Y-74991172D01*
X139689101Y-74976971D01*
X139760386Y-74929340D01*
X139765828Y-74926431D01*
X139765831Y-74926429D01*
X139774691Y-74921693D01*
X139774697Y-74921691D01*
X139780142Y-74918780D01*
X139859340Y-74885976D01*
X139880767Y-74879476D01*
X139964851Y-74862750D01*
X139987131Y-74860556D01*
X140005550Y-74860556D01*
X140017801Y-74859954D01*
X140036139Y-74858148D01*
X140523861Y-74858148D01*
X140542199Y-74859954D01*
X140542199Y-74859954D01*
G37*
G36*
X127956000Y-76061000D02*
G01*
X125274000Y-76061000D01*
X125274000Y-74959000D01*
X127956000Y-74959000D01*
X127956000Y-76061000D01*
X127956000Y-76061000D01*
G37*
G36*
X132126000Y-76061000D02*
G01*
X129444000Y-76061000D01*
X129444000Y-74959000D01*
X132126000Y-74959000D01*
X132126000Y-76061000D01*
X132126000Y-76061000D01*
G37*
G36*
X120852591Y-74818085D02*
G01*
X120886569Y-74828393D01*
X120917890Y-74845134D01*
X120945339Y-74867661D01*
X120967866Y-74895110D01*
X120984607Y-74926431D01*
X120994915Y-74960409D01*
X120999000Y-75001890D01*
X120999000Y-75678110D01*
X120994915Y-75719591D01*
X120984607Y-75753569D01*
X120967866Y-75784890D01*
X120945339Y-75812339D01*
X120917890Y-75834866D01*
X120886569Y-75851607D01*
X120852591Y-75861915D01*
X120811110Y-75866000D01*
X120209890Y-75866000D01*
X120168409Y-75861915D01*
X120134431Y-75851607D01*
X120103110Y-75834866D01*
X120075661Y-75812339D01*
X120053134Y-75784890D01*
X120036393Y-75753569D01*
X120026085Y-75719591D01*
X120022000Y-75678110D01*
X120022000Y-75001890D01*
X120026085Y-74960409D01*
X120036393Y-74926431D01*
X120053134Y-74895110D01*
X120075661Y-74867661D01*
X120103110Y-74845134D01*
X120134431Y-74828393D01*
X120168409Y-74818085D01*
X120209890Y-74814000D01*
X120811110Y-74814000D01*
X120852591Y-74818085D01*
X120852591Y-74818085D01*
G37*
G36*
X122427591Y-74818085D02*
G01*
X122461569Y-74828393D01*
X122492890Y-74845134D01*
X122520339Y-74867661D01*
X122542866Y-74895110D01*
X122559607Y-74926431D01*
X122569915Y-74960409D01*
X122574000Y-75001890D01*
X122574000Y-75678110D01*
X122569915Y-75719591D01*
X122559607Y-75753569D01*
X122542866Y-75784890D01*
X122520339Y-75812339D01*
X122492890Y-75834866D01*
X122461569Y-75851607D01*
X122427591Y-75861915D01*
X122386110Y-75866000D01*
X121784890Y-75866000D01*
X121743409Y-75861915D01*
X121709431Y-75851607D01*
X121678110Y-75834866D01*
X121650661Y-75812339D01*
X121628134Y-75784890D01*
X121611393Y-75753569D01*
X121601085Y-75719591D01*
X121597000Y-75678110D01*
X121597000Y-75001890D01*
X121601085Y-74960409D01*
X121611393Y-74926431D01*
X121628134Y-74895110D01*
X121650661Y-74867661D01*
X121678110Y-74845134D01*
X121709431Y-74828393D01*
X121743409Y-74818085D01*
X121784890Y-74814000D01*
X122386110Y-74814000D01*
X122427591Y-74818085D01*
X122427591Y-74818085D01*
G37*
G36*
X120387142Y-71143242D02*
G01*
X120535101Y-71204529D01*
X120668255Y-71293499D01*
X120781501Y-71406745D01*
X120870471Y-71539899D01*
X120931758Y-71687858D01*
X120963000Y-71844925D01*
X120963000Y-72005075D01*
X120931758Y-72162142D01*
X120870471Y-72310101D01*
X120781501Y-72443255D01*
X120668255Y-72556501D01*
X120535101Y-72645471D01*
X120387142Y-72706758D01*
X120230075Y-72738000D01*
X120069925Y-72738000D01*
X119912858Y-72706758D01*
X119764899Y-72645471D01*
X119631745Y-72556501D01*
X119518499Y-72443255D01*
X119429529Y-72310101D01*
X119368242Y-72162142D01*
X119337000Y-72005075D01*
X119337000Y-71844925D01*
X119368242Y-71687858D01*
X119429529Y-71539899D01*
X119518499Y-71406745D01*
X119631745Y-71293499D01*
X119764899Y-71204529D01*
X119912858Y-71143242D01*
X120069925Y-71112000D01*
X120230075Y-71112000D01*
X120387142Y-71143242D01*
X120387142Y-71143242D01*
G37*
G36*
X118387142Y-71143242D02*
G01*
X118535101Y-71204529D01*
X118668255Y-71293499D01*
X118781501Y-71406745D01*
X118870471Y-71539899D01*
X118931758Y-71687858D01*
X118963000Y-71844925D01*
X118963000Y-72005075D01*
X118931758Y-72162142D01*
X118870471Y-72310101D01*
X118781501Y-72443255D01*
X118668255Y-72556501D01*
X118535101Y-72645471D01*
X118387142Y-72706758D01*
X118230075Y-72738000D01*
X118069925Y-72738000D01*
X117912858Y-72706758D01*
X117764899Y-72645471D01*
X117631745Y-72556501D01*
X117518499Y-72443255D01*
X117429529Y-72310101D01*
X117368242Y-72162142D01*
X117337000Y-72005075D01*
X117337000Y-71844925D01*
X117368242Y-71687858D01*
X117429529Y-71539899D01*
X117518499Y-71406745D01*
X117631745Y-71293499D01*
X117764899Y-71204529D01*
X117912858Y-71143242D01*
X118069925Y-71112000D01*
X118230075Y-71112000D01*
X118387142Y-71143242D01*
X118387142Y-71143242D01*
G37*
G36*
X116387142Y-71143242D02*
G01*
X116535101Y-71204529D01*
X116668255Y-71293499D01*
X116781501Y-71406745D01*
X116870471Y-71539899D01*
X116931758Y-71687858D01*
X116963000Y-71844925D01*
X116963000Y-72005075D01*
X116931758Y-72162142D01*
X116870471Y-72310101D01*
X116781501Y-72443255D01*
X116668255Y-72556501D01*
X116535101Y-72645471D01*
X116387142Y-72706758D01*
X116230075Y-72738000D01*
X116069925Y-72738000D01*
X115912858Y-72706758D01*
X115764899Y-72645471D01*
X115631745Y-72556501D01*
X115518499Y-72443255D01*
X115429529Y-72310101D01*
X115368242Y-72162142D01*
X115337000Y-72005075D01*
X115337000Y-71844925D01*
X115368242Y-71687858D01*
X115429529Y-71539899D01*
X115518499Y-71406745D01*
X115631745Y-71293499D01*
X115764899Y-71204529D01*
X115912858Y-71143242D01*
X116069925Y-71112000D01*
X116230075Y-71112000D01*
X116387142Y-71143242D01*
X116387142Y-71143242D01*
G37*
G36*
X175839694Y-70818633D02*
G01*
X176012095Y-70870931D01*
X176170983Y-70955858D01*
X176310249Y-71070151D01*
X176424542Y-71209417D01*
X176509469Y-71368305D01*
X176561767Y-71540706D01*
X176579425Y-71720000D01*
X176561767Y-71899294D01*
X176509469Y-72071695D01*
X176424542Y-72230583D01*
X176310249Y-72369849D01*
X176170983Y-72484142D01*
X176012095Y-72569069D01*
X175839694Y-72621367D01*
X175705331Y-72634600D01*
X174294669Y-72634600D01*
X174160306Y-72621367D01*
X173987905Y-72569069D01*
X173829017Y-72484142D01*
X173689751Y-72369849D01*
X173575458Y-72230583D01*
X173490531Y-72071695D01*
X173438233Y-71899294D01*
X173420575Y-71720000D01*
X173438233Y-71540706D01*
X173490531Y-71368305D01*
X173575458Y-71209417D01*
X173689751Y-71070151D01*
X173829017Y-70955858D01*
X173987905Y-70870931D01*
X174160306Y-70818633D01*
X174294669Y-70805400D01*
X175705331Y-70805400D01*
X175839694Y-70818633D01*
X175839694Y-70818633D01*
G37*
G36*
X163339694Y-70818633D02*
G01*
X163512095Y-70870931D01*
X163670983Y-70955858D01*
X163810249Y-71070151D01*
X163924542Y-71209417D01*
X164009469Y-71368305D01*
X164061767Y-71540706D01*
X164079425Y-71720000D01*
X164061767Y-71899294D01*
X164009469Y-72071695D01*
X163924542Y-72230583D01*
X163810249Y-72369849D01*
X163670983Y-72484142D01*
X163512095Y-72569069D01*
X163339694Y-72621367D01*
X163205331Y-72634600D01*
X161794669Y-72634600D01*
X161660306Y-72621367D01*
X161487905Y-72569069D01*
X161329017Y-72484142D01*
X161189751Y-72369849D01*
X161075458Y-72230583D01*
X160990531Y-72071695D01*
X160938233Y-71899294D01*
X160920575Y-71720000D01*
X160938233Y-71540706D01*
X160990531Y-71368305D01*
X161075458Y-71209417D01*
X161189751Y-71070151D01*
X161329017Y-70955858D01*
X161487905Y-70870931D01*
X161660306Y-70818633D01*
X161794669Y-70805400D01*
X163205331Y-70805400D01*
X163339694Y-70818633D01*
X163339694Y-70818633D01*
G37*
G36*
X146882591Y-69368085D02*
G01*
X146916569Y-69378393D01*
X146947890Y-69395134D01*
X146975339Y-69417661D01*
X146997866Y-69445110D01*
X147014607Y-69476431D01*
X147024915Y-69510409D01*
X147029000Y-69551890D01*
X147029000Y-70228110D01*
X147024915Y-70269591D01*
X147014607Y-70303569D01*
X146997866Y-70334890D01*
X146975339Y-70362339D01*
X146947890Y-70384866D01*
X146916569Y-70401607D01*
X146882591Y-70411915D01*
X146841110Y-70416000D01*
X146239890Y-70416000D01*
X146198409Y-70411915D01*
X146164431Y-70401607D01*
X146133110Y-70384866D01*
X146105661Y-70362339D01*
X146083134Y-70334890D01*
X146066393Y-70303569D01*
X146056085Y-70269591D01*
X146052000Y-70228110D01*
X146052000Y-69551890D01*
X146056085Y-69510409D01*
X146066393Y-69476431D01*
X146083134Y-69445110D01*
X146105661Y-69417661D01*
X146133110Y-69395134D01*
X146164431Y-69378393D01*
X146198409Y-69368085D01*
X146239890Y-69364000D01*
X146841110Y-69364000D01*
X146882591Y-69368085D01*
X146882591Y-69368085D01*
G37*
G36*
X148457591Y-69368085D02*
G01*
X148491569Y-69378393D01*
X148522890Y-69395134D01*
X148550339Y-69417661D01*
X148572866Y-69445110D01*
X148589607Y-69476431D01*
X148599915Y-69510409D01*
X148604000Y-69551890D01*
X148604000Y-70228110D01*
X148599915Y-70269591D01*
X148589607Y-70303569D01*
X148572866Y-70334890D01*
X148550339Y-70362339D01*
X148522890Y-70384866D01*
X148491569Y-70401607D01*
X148457591Y-70411915D01*
X148416110Y-70416000D01*
X147814890Y-70416000D01*
X147773409Y-70411915D01*
X147739431Y-70401607D01*
X147708110Y-70384866D01*
X147680661Y-70362339D01*
X147658134Y-70334890D01*
X147641393Y-70303569D01*
X147631085Y-70269591D01*
X147627000Y-70228110D01*
X147627000Y-69551890D01*
X147631085Y-69510409D01*
X147641393Y-69476431D01*
X147658134Y-69445110D01*
X147680661Y-69417661D01*
X147708110Y-69395134D01*
X147739431Y-69378393D01*
X147773409Y-69368085D01*
X147814890Y-69364000D01*
X148416110Y-69364000D01*
X148457591Y-69368085D01*
X148457591Y-69368085D01*
G37*
G36*
X143121000Y-69031000D02*
G01*
X141819000Y-69031000D01*
X141819000Y-67529000D01*
X143121000Y-67529000D01*
X143121000Y-69031000D01*
X143121000Y-69031000D01*
G37*
G36*
X141521000Y-69031000D02*
G01*
X140219000Y-69031000D01*
X140219000Y-67529000D01*
X141521000Y-67529000D01*
X141521000Y-69031000D01*
X141521000Y-69031000D01*
G37*
G36*
X148431591Y-67748085D02*
G01*
X148465569Y-67758393D01*
X148496890Y-67775134D01*
X148524339Y-67797661D01*
X148546866Y-67825110D01*
X148563607Y-67856431D01*
X148573915Y-67890409D01*
X148578000Y-67931890D01*
X148578000Y-68608110D01*
X148573915Y-68649591D01*
X148563607Y-68683569D01*
X148546866Y-68714890D01*
X148524339Y-68742339D01*
X148496890Y-68764866D01*
X148465569Y-68781607D01*
X148431591Y-68791915D01*
X148390110Y-68796000D01*
X147788890Y-68796000D01*
X147747409Y-68791915D01*
X147713431Y-68781607D01*
X147682110Y-68764866D01*
X147654661Y-68742339D01*
X147632134Y-68714890D01*
X147615393Y-68683569D01*
X147605085Y-68649591D01*
X147601000Y-68608110D01*
X147601000Y-67931890D01*
X147605085Y-67890409D01*
X147615393Y-67856431D01*
X147632134Y-67825110D01*
X147654661Y-67797661D01*
X147682110Y-67775134D01*
X147713431Y-67758393D01*
X147747409Y-67748085D01*
X147788890Y-67744000D01*
X148390110Y-67744000D01*
X148431591Y-67748085D01*
X148431591Y-67748085D01*
G37*
G36*
X146856591Y-67748085D02*
G01*
X146890569Y-67758393D01*
X146921890Y-67775134D01*
X146949339Y-67797661D01*
X146971866Y-67825110D01*
X146988607Y-67856431D01*
X146998915Y-67890409D01*
X147003000Y-67931890D01*
X147003000Y-68608110D01*
X146998915Y-68649591D01*
X146988607Y-68683569D01*
X146971866Y-68714890D01*
X146949339Y-68742339D01*
X146921890Y-68764866D01*
X146890569Y-68781607D01*
X146856591Y-68791915D01*
X146815110Y-68796000D01*
X146213890Y-68796000D01*
X146172409Y-68791915D01*
X146138431Y-68781607D01*
X146107110Y-68764866D01*
X146079661Y-68742339D01*
X146057134Y-68714890D01*
X146040393Y-68683569D01*
X146030085Y-68649591D01*
X146026000Y-68608110D01*
X146026000Y-67931890D01*
X146030085Y-67890409D01*
X146040393Y-67856431D01*
X146057134Y-67825110D01*
X146079661Y-67797661D01*
X146107110Y-67775134D01*
X146138431Y-67758393D01*
X146172409Y-67748085D01*
X146213890Y-67744000D01*
X146815110Y-67744000D01*
X146856591Y-67748085D01*
X146856591Y-67748085D01*
G37*
G36*
X148469591Y-66138085D02*
G01*
X148503569Y-66148393D01*
X148534890Y-66165134D01*
X148562339Y-66187661D01*
X148584866Y-66215110D01*
X148601607Y-66246431D01*
X148611915Y-66280409D01*
X148616000Y-66321890D01*
X148616000Y-66998110D01*
X148611915Y-67039591D01*
X148601607Y-67073569D01*
X148584866Y-67104890D01*
X148562339Y-67132339D01*
X148534890Y-67154866D01*
X148503569Y-67171607D01*
X148469591Y-67181915D01*
X148428110Y-67186000D01*
X147826890Y-67186000D01*
X147785409Y-67181915D01*
X147751431Y-67171607D01*
X147720110Y-67154866D01*
X147692661Y-67132339D01*
X147670134Y-67104890D01*
X147653393Y-67073569D01*
X147643085Y-67039591D01*
X147639000Y-66998110D01*
X147639000Y-66321890D01*
X147643085Y-66280409D01*
X147653393Y-66246431D01*
X147670134Y-66215110D01*
X147692661Y-66187661D01*
X147720110Y-66165134D01*
X147751431Y-66148393D01*
X147785409Y-66138085D01*
X147826890Y-66134000D01*
X148428110Y-66134000D01*
X148469591Y-66138085D01*
X148469591Y-66138085D01*
G37*
G36*
X146894591Y-66138085D02*
G01*
X146928569Y-66148393D01*
X146959890Y-66165134D01*
X146987339Y-66187661D01*
X147009866Y-66215110D01*
X147026607Y-66246431D01*
X147036915Y-66280409D01*
X147041000Y-66321890D01*
X147041000Y-66998110D01*
X147036915Y-67039591D01*
X147026607Y-67073569D01*
X147009866Y-67104890D01*
X146987339Y-67132339D01*
X146959890Y-67154866D01*
X146928569Y-67171607D01*
X146894591Y-67181915D01*
X146853110Y-67186000D01*
X146251890Y-67186000D01*
X146210409Y-67181915D01*
X146176431Y-67171607D01*
X146145110Y-67154866D01*
X146117661Y-67132339D01*
X146095134Y-67104890D01*
X146078393Y-67073569D01*
X146068085Y-67039591D01*
X146064000Y-66998110D01*
X146064000Y-66321890D01*
X146068085Y-66280409D01*
X146078393Y-66246431D01*
X146095134Y-66215110D01*
X146117661Y-66187661D01*
X146145110Y-66165134D01*
X146176431Y-66148393D01*
X146210409Y-66138085D01*
X146251890Y-66134000D01*
X146853110Y-66134000D01*
X146894591Y-66138085D01*
X146894591Y-66138085D01*
G37*
G36*
X143121000Y-66831000D02*
G01*
X141819000Y-66831000D01*
X141819000Y-65329000D01*
X143121000Y-65329000D01*
X143121000Y-66831000D01*
X143121000Y-66831000D01*
G37*
G36*
X141521000Y-66831000D02*
G01*
X140219000Y-66831000D01*
X140219000Y-65329000D01*
X141521000Y-65329000D01*
X141521000Y-66831000D01*
X141521000Y-66831000D01*
G37*
G36*
X127037142Y-64368242D02*
G01*
X127185101Y-64429529D01*
X127318255Y-64518499D01*
X127431501Y-64631745D01*
X127520471Y-64764899D01*
X127581758Y-64912858D01*
X127613000Y-65069925D01*
X127613000Y-65230075D01*
X127581758Y-65387142D01*
X127520471Y-65535101D01*
X127431501Y-65668255D01*
X127318255Y-65781501D01*
X127185101Y-65870471D01*
X127037142Y-65931758D01*
X126880075Y-65963000D01*
X126719925Y-65963000D01*
X126562858Y-65931758D01*
X126414899Y-65870471D01*
X126281745Y-65781501D01*
X126168499Y-65668255D01*
X126079529Y-65535101D01*
X126018242Y-65387142D01*
X125987000Y-65230075D01*
X125987000Y-65069925D01*
X126018242Y-64912858D01*
X126079529Y-64764899D01*
X126168499Y-64631745D01*
X126281745Y-64518499D01*
X126414899Y-64429529D01*
X126562858Y-64368242D01*
X126719925Y-64337000D01*
X126880075Y-64337000D01*
X127037142Y-64368242D01*
X127037142Y-64368242D01*
G37*
G36*
X146886591Y-64368085D02*
G01*
X146920569Y-64378393D01*
X146951890Y-64395134D01*
X146979339Y-64417661D01*
X147001866Y-64445110D01*
X147018607Y-64476431D01*
X147028915Y-64510409D01*
X147033000Y-64551890D01*
X147033000Y-65228110D01*
X147028915Y-65269591D01*
X147018607Y-65303569D01*
X147001866Y-65334890D01*
X146979339Y-65362339D01*
X146951890Y-65384866D01*
X146920569Y-65401607D01*
X146886591Y-65411915D01*
X146845110Y-65416000D01*
X146243890Y-65416000D01*
X146202409Y-65411915D01*
X146168431Y-65401607D01*
X146137110Y-65384866D01*
X146109661Y-65362339D01*
X146087134Y-65334890D01*
X146070393Y-65303569D01*
X146060085Y-65269591D01*
X146056000Y-65228110D01*
X146056000Y-64551890D01*
X146060085Y-64510409D01*
X146070393Y-64476431D01*
X146087134Y-64445110D01*
X146109661Y-64417661D01*
X146137110Y-64395134D01*
X146168431Y-64378393D01*
X146202409Y-64368085D01*
X146243890Y-64364000D01*
X146845110Y-64364000D01*
X146886591Y-64368085D01*
X146886591Y-64368085D01*
G37*
G36*
X148461591Y-64368085D02*
G01*
X148495569Y-64378393D01*
X148526890Y-64395134D01*
X148554339Y-64417661D01*
X148576866Y-64445110D01*
X148593607Y-64476431D01*
X148603915Y-64510409D01*
X148608000Y-64551890D01*
X148608000Y-65228110D01*
X148603915Y-65269591D01*
X148593607Y-65303569D01*
X148576866Y-65334890D01*
X148554339Y-65362339D01*
X148526890Y-65384866D01*
X148495569Y-65401607D01*
X148461591Y-65411915D01*
X148420110Y-65416000D01*
X147818890Y-65416000D01*
X147777409Y-65411915D01*
X147743431Y-65401607D01*
X147712110Y-65384866D01*
X147684661Y-65362339D01*
X147662134Y-65334890D01*
X147645393Y-65303569D01*
X147635085Y-65269591D01*
X147631000Y-65228110D01*
X147631000Y-64551890D01*
X147635085Y-64510409D01*
X147645393Y-64476431D01*
X147662134Y-64445110D01*
X147684661Y-64417661D01*
X147712110Y-64395134D01*
X147743431Y-64378393D01*
X147777409Y-64368085D01*
X147818890Y-64364000D01*
X148420110Y-64364000D01*
X148461591Y-64368085D01*
X148461591Y-64368085D01*
G37*
G36*
X143416938Y-64061716D02*
G01*
X143437557Y-64067971D01*
X143456553Y-64078124D01*
X143473208Y-64091792D01*
X143486876Y-64108447D01*
X143497029Y-64127443D01*
X143503284Y-64148062D01*
X143506000Y-64175640D01*
X143506000Y-64684360D01*
X143503284Y-64711938D01*
X143497029Y-64732557D01*
X143486876Y-64751553D01*
X143473208Y-64768208D01*
X143456553Y-64781876D01*
X143437557Y-64792029D01*
X143416938Y-64798284D01*
X143389360Y-64801000D01*
X142930640Y-64801000D01*
X142903062Y-64798284D01*
X142882443Y-64792029D01*
X142863447Y-64781876D01*
X142846792Y-64768208D01*
X142833124Y-64751553D01*
X142822971Y-64732557D01*
X142816716Y-64711938D01*
X142814000Y-64684360D01*
X142814000Y-64175640D01*
X142816716Y-64148062D01*
X142822971Y-64127443D01*
X142833124Y-64108447D01*
X142846792Y-64091792D01*
X142863447Y-64078124D01*
X142882443Y-64067971D01*
X142903062Y-64061716D01*
X142930640Y-64059000D01*
X143389360Y-64059000D01*
X143416938Y-64061716D01*
X143416938Y-64061716D01*
G37*
G36*
X142446938Y-64061716D02*
G01*
X142467557Y-64067971D01*
X142486553Y-64078124D01*
X142503208Y-64091792D01*
X142516876Y-64108447D01*
X142527029Y-64127443D01*
X142533284Y-64148062D01*
X142536000Y-64175640D01*
X142536000Y-64684360D01*
X142533284Y-64711938D01*
X142527029Y-64732557D01*
X142516876Y-64751553D01*
X142503208Y-64768208D01*
X142486553Y-64781876D01*
X142467557Y-64792029D01*
X142446938Y-64798284D01*
X142419360Y-64801000D01*
X141960640Y-64801000D01*
X141933062Y-64798284D01*
X141912443Y-64792029D01*
X141893447Y-64781876D01*
X141876792Y-64768208D01*
X141863124Y-64751553D01*
X141852971Y-64732557D01*
X141846716Y-64711938D01*
X141844000Y-64684360D01*
X141844000Y-64175640D01*
X141846716Y-64148062D01*
X141852971Y-64127443D01*
X141863124Y-64108447D01*
X141876792Y-64091792D01*
X141893447Y-64078124D01*
X141912443Y-64067971D01*
X141933062Y-64061716D01*
X141960640Y-64059000D01*
X142419360Y-64059000D01*
X142446938Y-64061716D01*
X142446938Y-64061716D01*
G37*
G36*
X141496938Y-64051716D02*
G01*
X141517557Y-64057971D01*
X141536553Y-64068124D01*
X141553208Y-64081792D01*
X141566876Y-64098447D01*
X141577029Y-64117443D01*
X141583284Y-64138062D01*
X141586000Y-64165640D01*
X141586000Y-64674360D01*
X141583284Y-64701938D01*
X141577029Y-64722557D01*
X141566876Y-64741553D01*
X141553208Y-64758208D01*
X141536553Y-64771876D01*
X141517557Y-64782029D01*
X141496938Y-64788284D01*
X141469360Y-64791000D01*
X141010640Y-64791000D01*
X140983062Y-64788284D01*
X140962443Y-64782029D01*
X140943447Y-64771876D01*
X140926792Y-64758208D01*
X140913124Y-64741553D01*
X140902971Y-64722557D01*
X140896716Y-64701938D01*
X140894000Y-64674360D01*
X140894000Y-64165640D01*
X140896716Y-64138062D01*
X140902971Y-64117443D01*
X140913124Y-64098447D01*
X140926792Y-64081792D01*
X140943447Y-64068124D01*
X140962443Y-64057971D01*
X140983062Y-64051716D01*
X141010640Y-64049000D01*
X141469360Y-64049000D01*
X141496938Y-64051716D01*
X141496938Y-64051716D01*
G37*
G36*
X140526938Y-64051716D02*
G01*
X140547557Y-64057971D01*
X140566553Y-64068124D01*
X140583208Y-64081792D01*
X140596876Y-64098447D01*
X140607029Y-64117443D01*
X140613284Y-64138062D01*
X140616000Y-64165640D01*
X140616000Y-64674360D01*
X140613284Y-64701938D01*
X140607029Y-64722557D01*
X140596876Y-64741553D01*
X140583208Y-64758208D01*
X140566553Y-64771876D01*
X140547557Y-64782029D01*
X140526938Y-64788284D01*
X140499360Y-64791000D01*
X140040640Y-64791000D01*
X140013062Y-64788284D01*
X139992443Y-64782029D01*
X139973447Y-64771876D01*
X139956792Y-64758208D01*
X139943124Y-64741553D01*
X139932971Y-64722557D01*
X139926716Y-64701938D01*
X139924000Y-64674360D01*
X139924000Y-64165640D01*
X139926716Y-64138062D01*
X139932971Y-64117443D01*
X139943124Y-64098447D01*
X139956792Y-64081792D01*
X139973447Y-64068124D01*
X139992443Y-64057971D01*
X140013062Y-64051716D01*
X140040640Y-64049000D01*
X140499360Y-64049000D01*
X140526938Y-64051716D01*
X140526938Y-64051716D01*
G37*
G36*
X188429694Y-62878633D02*
G01*
X188602095Y-62930931D01*
X188760983Y-63015858D01*
X188900249Y-63130151D01*
X189014542Y-63269417D01*
X189099469Y-63428305D01*
X189151767Y-63600706D01*
X189169425Y-63780000D01*
X189151767Y-63959294D01*
X189099469Y-64131695D01*
X189014542Y-64290583D01*
X188900249Y-64429849D01*
X188760983Y-64544142D01*
X188602095Y-64629069D01*
X188429694Y-64681367D01*
X188295331Y-64694600D01*
X186884669Y-64694600D01*
X186750306Y-64681367D01*
X186577905Y-64629069D01*
X186419017Y-64544142D01*
X186279751Y-64429849D01*
X186165458Y-64290583D01*
X186080531Y-64131695D01*
X186028233Y-63959294D01*
X186010575Y-63780000D01*
X186028233Y-63600706D01*
X186080531Y-63428305D01*
X186165458Y-63269417D01*
X186279751Y-63130151D01*
X186419017Y-63015858D01*
X186577905Y-62930931D01*
X186750306Y-62878633D01*
X186884669Y-62865400D01*
X188295331Y-62865400D01*
X188429694Y-62878633D01*
X188429694Y-62878633D01*
G37*
G36*
X166039694Y-62878633D02*
G01*
X166212095Y-62930931D01*
X166370983Y-63015858D01*
X166510249Y-63130151D01*
X166624542Y-63269417D01*
X166709469Y-63428305D01*
X166761767Y-63600706D01*
X166779425Y-63780000D01*
X166761767Y-63959294D01*
X166709469Y-64131695D01*
X166624542Y-64290583D01*
X166510249Y-64429849D01*
X166370983Y-64544142D01*
X166212095Y-64629069D01*
X166039694Y-64681367D01*
X165905331Y-64694600D01*
X164494669Y-64694600D01*
X164360306Y-64681367D01*
X164187905Y-64629069D01*
X164029017Y-64544142D01*
X163889751Y-64429849D01*
X163775458Y-64290583D01*
X163690531Y-64131695D01*
X163638233Y-63959294D01*
X163620575Y-63780000D01*
X163638233Y-63600706D01*
X163690531Y-63428305D01*
X163775458Y-63269417D01*
X163889751Y-63130151D01*
X164029017Y-63015858D01*
X164187905Y-62930931D01*
X164360306Y-62878633D01*
X164494669Y-62865400D01*
X165905331Y-62865400D01*
X166039694Y-62878633D01*
X166039694Y-62878633D01*
G37*
G36*
X153539694Y-62878633D02*
G01*
X153712095Y-62930931D01*
X153870983Y-63015858D01*
X154010249Y-63130151D01*
X154124542Y-63269417D01*
X154209469Y-63428305D01*
X154261767Y-63600706D01*
X154279425Y-63780000D01*
X154261767Y-63959294D01*
X154209469Y-64131695D01*
X154124542Y-64290583D01*
X154010249Y-64429849D01*
X153870983Y-64544142D01*
X153712095Y-64629069D01*
X153539694Y-64681367D01*
X153405331Y-64694600D01*
X151994669Y-64694600D01*
X151860306Y-64681367D01*
X151687905Y-64629069D01*
X151529017Y-64544142D01*
X151389751Y-64429849D01*
X151275458Y-64290583D01*
X151190531Y-64131695D01*
X151138233Y-63959294D01*
X151120575Y-63780000D01*
X151138233Y-63600706D01*
X151190531Y-63428305D01*
X151275458Y-63269417D01*
X151389751Y-63130151D01*
X151529017Y-63015858D01*
X151687905Y-62930931D01*
X151860306Y-62878633D01*
X151994669Y-62865400D01*
X153405331Y-62865400D01*
X153539694Y-62878633D01*
X153539694Y-62878633D01*
G37*
G36*
X175929694Y-62878633D02*
G01*
X176102095Y-62930931D01*
X176260983Y-63015858D01*
X176400249Y-63130151D01*
X176514542Y-63269417D01*
X176599469Y-63428305D01*
X176651767Y-63600706D01*
X176669425Y-63780000D01*
X176651767Y-63959294D01*
X176599469Y-64131695D01*
X176514542Y-64290583D01*
X176400249Y-64429849D01*
X176260983Y-64544142D01*
X176102095Y-64629069D01*
X175929694Y-64681367D01*
X175795331Y-64694600D01*
X174384669Y-64694600D01*
X174250306Y-64681367D01*
X174077905Y-64629069D01*
X173919017Y-64544142D01*
X173779751Y-64429849D01*
X173665458Y-64290583D01*
X173580531Y-64131695D01*
X173528233Y-63959294D01*
X173510575Y-63780000D01*
X173528233Y-63600706D01*
X173580531Y-63428305D01*
X173665458Y-63269417D01*
X173779751Y-63130151D01*
X173919017Y-63015858D01*
X174077905Y-62930931D01*
X174250306Y-62878633D01*
X174384669Y-62865400D01*
X175795331Y-62865400D01*
X175929694Y-62878633D01*
X175929694Y-62878633D01*
G37*
G36*
X127037142Y-62368242D02*
G01*
X127185101Y-62429529D01*
X127318255Y-62518499D01*
X127431501Y-62631745D01*
X127520471Y-62764899D01*
X127581758Y-62912858D01*
X127613000Y-63069925D01*
X127613000Y-63230075D01*
X127581758Y-63387142D01*
X127520471Y-63535101D01*
X127431501Y-63668255D01*
X127318255Y-63781501D01*
X127185101Y-63870471D01*
X127037142Y-63931758D01*
X126880075Y-63963000D01*
X126719925Y-63963000D01*
X126562858Y-63931758D01*
X126414899Y-63870471D01*
X126281745Y-63781501D01*
X126168499Y-63668255D01*
X126079529Y-63535101D01*
X126018242Y-63387142D01*
X125987000Y-63230075D01*
X125987000Y-63069925D01*
X126018242Y-62912858D01*
X126079529Y-62764899D01*
X126168499Y-62631745D01*
X126281745Y-62518499D01*
X126414899Y-62429529D01*
X126562858Y-62368242D01*
X126719925Y-62337000D01*
X126880075Y-62337000D01*
X127037142Y-62368242D01*
X127037142Y-62368242D01*
G37*
G36*
X138705355Y-57065083D02*
G01*
X138710029Y-57066501D01*
X138714330Y-57068800D01*
X138720702Y-57074029D01*
X138741076Y-57087643D01*
X138763715Y-57097020D01*
X138787749Y-57101800D01*
X138812253Y-57101800D01*
X138836286Y-57097019D01*
X138858925Y-57087642D01*
X138879298Y-57074029D01*
X138885670Y-57068800D01*
X138889971Y-57066501D01*
X138894645Y-57065083D01*
X138905641Y-57064000D01*
X139194359Y-57064000D01*
X139205355Y-57065083D01*
X139210029Y-57066501D01*
X139214330Y-57068800D01*
X139220702Y-57074029D01*
X139241076Y-57087643D01*
X139263715Y-57097020D01*
X139287749Y-57101800D01*
X139312253Y-57101800D01*
X139336286Y-57097019D01*
X139358925Y-57087642D01*
X139379298Y-57074029D01*
X139385670Y-57068800D01*
X139389971Y-57066501D01*
X139394645Y-57065083D01*
X139405641Y-57064000D01*
X139694359Y-57064000D01*
X139705355Y-57065083D01*
X139710029Y-57066501D01*
X139714330Y-57068800D01*
X139720702Y-57074029D01*
X139741076Y-57087643D01*
X139763715Y-57097020D01*
X139787749Y-57101800D01*
X139812253Y-57101800D01*
X139836286Y-57097019D01*
X139858925Y-57087642D01*
X139879298Y-57074029D01*
X139885670Y-57068800D01*
X139889971Y-57066501D01*
X139894645Y-57065083D01*
X139905641Y-57064000D01*
X140194359Y-57064000D01*
X140205355Y-57065083D01*
X140210029Y-57066501D01*
X140214330Y-57068800D01*
X140220702Y-57074029D01*
X140241076Y-57087643D01*
X140263715Y-57097020D01*
X140287749Y-57101800D01*
X140312253Y-57101800D01*
X140336286Y-57097019D01*
X140358925Y-57087642D01*
X140379298Y-57074029D01*
X140385670Y-57068800D01*
X140389971Y-57066501D01*
X140394645Y-57065083D01*
X140405641Y-57064000D01*
X140694359Y-57064000D01*
X140705355Y-57065083D01*
X140710029Y-57066501D01*
X140714330Y-57068800D01*
X140720702Y-57074029D01*
X140741076Y-57087643D01*
X140763715Y-57097020D01*
X140787749Y-57101800D01*
X140812253Y-57101800D01*
X140836286Y-57097019D01*
X140858925Y-57087642D01*
X140879298Y-57074029D01*
X140885670Y-57068800D01*
X140889971Y-57066501D01*
X140894645Y-57065083D01*
X140905641Y-57064000D01*
X141194359Y-57064000D01*
X141205355Y-57065083D01*
X141210029Y-57066501D01*
X141214330Y-57068800D01*
X141220702Y-57074029D01*
X141241076Y-57087643D01*
X141263715Y-57097020D01*
X141287749Y-57101800D01*
X141312253Y-57101800D01*
X141336286Y-57097019D01*
X141358925Y-57087642D01*
X141379298Y-57074029D01*
X141385670Y-57068800D01*
X141389971Y-57066501D01*
X141394645Y-57065083D01*
X141405641Y-57064000D01*
X141694359Y-57064000D01*
X141705355Y-57065083D01*
X141710029Y-57066501D01*
X141714330Y-57068800D01*
X141720702Y-57074029D01*
X141741076Y-57087643D01*
X141763715Y-57097020D01*
X141787749Y-57101800D01*
X141812253Y-57101800D01*
X141836286Y-57097019D01*
X141858925Y-57087642D01*
X141879298Y-57074029D01*
X141885670Y-57068800D01*
X141889971Y-57066501D01*
X141894645Y-57065083D01*
X141905641Y-57064000D01*
X142194359Y-57064000D01*
X142205355Y-57065083D01*
X142210029Y-57066501D01*
X142214331Y-57068800D01*
X142218104Y-57071896D01*
X142221200Y-57075669D01*
X142223499Y-57079971D01*
X142224917Y-57084645D01*
X142226000Y-57095641D01*
X142226000Y-57939001D01*
X142228402Y-57963387D01*
X142235515Y-57986836D01*
X142247066Y-58008447D01*
X142262611Y-58027389D01*
X142281553Y-58042934D01*
X142303164Y-58054485D01*
X142326613Y-58061598D01*
X142350999Y-58064000D01*
X143194359Y-58064000D01*
X143205355Y-58065083D01*
X143210029Y-58066501D01*
X143214331Y-58068800D01*
X143218104Y-58071896D01*
X143221200Y-58075669D01*
X143223499Y-58079971D01*
X143224917Y-58084645D01*
X143226000Y-58095641D01*
X143226000Y-58384359D01*
X143224917Y-58395355D01*
X143223499Y-58400029D01*
X143221200Y-58404330D01*
X143215971Y-58410702D01*
X143202357Y-58431076D01*
X143192980Y-58453715D01*
X143188200Y-58477749D01*
X143188200Y-58502253D01*
X143192981Y-58526286D01*
X143202358Y-58548925D01*
X143215971Y-58569298D01*
X143221200Y-58575670D01*
X143223499Y-58579971D01*
X143224917Y-58584645D01*
X143226000Y-58595641D01*
X143226000Y-58884359D01*
X143224917Y-58895355D01*
X143223499Y-58900029D01*
X143221200Y-58904330D01*
X143215971Y-58910702D01*
X143202357Y-58931076D01*
X143192980Y-58953715D01*
X143188200Y-58977749D01*
X143188200Y-59002253D01*
X143192981Y-59026286D01*
X143202358Y-59048925D01*
X143215971Y-59069298D01*
X143221200Y-59075670D01*
X143223499Y-59079971D01*
X143224917Y-59084645D01*
X143226000Y-59095641D01*
X143226000Y-59384359D01*
X143224917Y-59395355D01*
X143223499Y-59400029D01*
X143221200Y-59404330D01*
X143215971Y-59410702D01*
X143202357Y-59431076D01*
X143192980Y-59453715D01*
X143188200Y-59477749D01*
X143188200Y-59502253D01*
X143192981Y-59526286D01*
X143202358Y-59548925D01*
X143215971Y-59569298D01*
X143221200Y-59575670D01*
X143223499Y-59579971D01*
X143224917Y-59584645D01*
X143226000Y-59595641D01*
X143226000Y-59884359D01*
X143224917Y-59895355D01*
X143223499Y-59900029D01*
X143221200Y-59904330D01*
X143215971Y-59910702D01*
X143202357Y-59931076D01*
X143192980Y-59953715D01*
X143188200Y-59977749D01*
X143188200Y-60002253D01*
X143192981Y-60026286D01*
X143202358Y-60048925D01*
X143215971Y-60069298D01*
X143221200Y-60075670D01*
X143223499Y-60079971D01*
X143224917Y-60084645D01*
X143226000Y-60095641D01*
X143226000Y-60384359D01*
X143224917Y-60395355D01*
X143223499Y-60400029D01*
X143221200Y-60404330D01*
X143215971Y-60410702D01*
X143202357Y-60431076D01*
X143192980Y-60453715D01*
X143188200Y-60477749D01*
X143188200Y-60502253D01*
X143192981Y-60526286D01*
X143202358Y-60548925D01*
X143215971Y-60569298D01*
X143221200Y-60575670D01*
X143223499Y-60579971D01*
X143224917Y-60584645D01*
X143226000Y-60595641D01*
X143226000Y-60884359D01*
X143224917Y-60895355D01*
X143223499Y-60900029D01*
X143221200Y-60904330D01*
X143215971Y-60910702D01*
X143202357Y-60931076D01*
X143192980Y-60953715D01*
X143188200Y-60977749D01*
X143188200Y-61002253D01*
X143192981Y-61026286D01*
X143202358Y-61048925D01*
X143215971Y-61069298D01*
X143221200Y-61075670D01*
X143223499Y-61079971D01*
X143224917Y-61084645D01*
X143226000Y-61095641D01*
X143226000Y-61384359D01*
X143224917Y-61395355D01*
X143223499Y-61400029D01*
X143221200Y-61404330D01*
X143215971Y-61410702D01*
X143202357Y-61431076D01*
X143192980Y-61453715D01*
X143188200Y-61477749D01*
X143188200Y-61502253D01*
X143192981Y-61526286D01*
X143202358Y-61548925D01*
X143215971Y-61569298D01*
X143221200Y-61575670D01*
X143223499Y-61579971D01*
X143224917Y-61584645D01*
X143226000Y-61595641D01*
X143226000Y-61884359D01*
X143224917Y-61895355D01*
X143223499Y-61900029D01*
X143221200Y-61904331D01*
X143218104Y-61908104D01*
X143214331Y-61911200D01*
X143210029Y-61913499D01*
X143205355Y-61914917D01*
X143194359Y-61916000D01*
X142350999Y-61916000D01*
X142326613Y-61918402D01*
X142303164Y-61925515D01*
X142281553Y-61937066D01*
X142262611Y-61952611D01*
X142247066Y-61971553D01*
X142235515Y-61993164D01*
X142228402Y-62016613D01*
X142226000Y-62040999D01*
X142226000Y-62884359D01*
X142224917Y-62895355D01*
X142223499Y-62900029D01*
X142221200Y-62904331D01*
X142218104Y-62908104D01*
X142214331Y-62911200D01*
X142210029Y-62913499D01*
X142205355Y-62914917D01*
X142194359Y-62916000D01*
X141905641Y-62916000D01*
X141894645Y-62914917D01*
X141889971Y-62913499D01*
X141885670Y-62911200D01*
X141879298Y-62905971D01*
X141858924Y-62892357D01*
X141836285Y-62882980D01*
X141812251Y-62878200D01*
X141787747Y-62878200D01*
X141763714Y-62882981D01*
X141741075Y-62892358D01*
X141720702Y-62905971D01*
X141714330Y-62911200D01*
X141710029Y-62913499D01*
X141705355Y-62914917D01*
X141694359Y-62916000D01*
X141405641Y-62916000D01*
X141394645Y-62914917D01*
X141389971Y-62913499D01*
X141385670Y-62911200D01*
X141379298Y-62905971D01*
X141358924Y-62892357D01*
X141336285Y-62882980D01*
X141312251Y-62878200D01*
X141287747Y-62878200D01*
X141263714Y-62882981D01*
X141241075Y-62892358D01*
X141220702Y-62905971D01*
X141214330Y-62911200D01*
X141210029Y-62913499D01*
X141205355Y-62914917D01*
X141194359Y-62916000D01*
X140905641Y-62916000D01*
X140894645Y-62914917D01*
X140889971Y-62913499D01*
X140885670Y-62911200D01*
X140879298Y-62905971D01*
X140858924Y-62892357D01*
X140836285Y-62882980D01*
X140812251Y-62878200D01*
X140787747Y-62878200D01*
X140763714Y-62882981D01*
X140741075Y-62892358D01*
X140720702Y-62905971D01*
X140714330Y-62911200D01*
X140710029Y-62913499D01*
X140705355Y-62914917D01*
X140694359Y-62916000D01*
X140405641Y-62916000D01*
X140394645Y-62914917D01*
X140389971Y-62913499D01*
X140385670Y-62911200D01*
X140379298Y-62905971D01*
X140358924Y-62892357D01*
X140336285Y-62882980D01*
X140312251Y-62878200D01*
X140287747Y-62878200D01*
X140263714Y-62882981D01*
X140241075Y-62892358D01*
X140220702Y-62905971D01*
X140214330Y-62911200D01*
X140210029Y-62913499D01*
X140205355Y-62914917D01*
X140194359Y-62916000D01*
X139905641Y-62916000D01*
X139894645Y-62914917D01*
X139889971Y-62913499D01*
X139885670Y-62911200D01*
X139879298Y-62905971D01*
X139858924Y-62892357D01*
X139836285Y-62882980D01*
X139812251Y-62878200D01*
X139787747Y-62878200D01*
X139763714Y-62882981D01*
X139741075Y-62892358D01*
X139720702Y-62905971D01*
X139714330Y-62911200D01*
X139710029Y-62913499D01*
X139705355Y-62914917D01*
X139694359Y-62916000D01*
X139405641Y-62916000D01*
X139394645Y-62914917D01*
X139389971Y-62913499D01*
X139385670Y-62911200D01*
X139379298Y-62905971D01*
X139358924Y-62892357D01*
X139336285Y-62882980D01*
X139312251Y-62878200D01*
X139287747Y-62878200D01*
X139263714Y-62882981D01*
X139241075Y-62892358D01*
X139220702Y-62905971D01*
X139214330Y-62911200D01*
X139210029Y-62913499D01*
X139205355Y-62914917D01*
X139194359Y-62916000D01*
X138905641Y-62916000D01*
X138894645Y-62914917D01*
X138889971Y-62913499D01*
X138885670Y-62911200D01*
X138879298Y-62905971D01*
X138858924Y-62892357D01*
X138836285Y-62882980D01*
X138812251Y-62878200D01*
X138787747Y-62878200D01*
X138763714Y-62882981D01*
X138741075Y-62892358D01*
X138720702Y-62905971D01*
X138714330Y-62911200D01*
X138710029Y-62913499D01*
X138705355Y-62914917D01*
X138694359Y-62916000D01*
X138405641Y-62916000D01*
X138394645Y-62914917D01*
X138389971Y-62913499D01*
X138385669Y-62911200D01*
X138381896Y-62908104D01*
X138378800Y-62904331D01*
X138376501Y-62900029D01*
X138375083Y-62895355D01*
X138374000Y-62884359D01*
X138374000Y-62040999D01*
X138371598Y-62016613D01*
X138364485Y-61993164D01*
X138352934Y-61971553D01*
X138337389Y-61952611D01*
X138318447Y-61937066D01*
X138296836Y-61925515D01*
X138273387Y-61918402D01*
X138249001Y-61916000D01*
X137405641Y-61916000D01*
X137394645Y-61914917D01*
X137389971Y-61913499D01*
X137385669Y-61911200D01*
X137381896Y-61908104D01*
X137378800Y-61904331D01*
X137376501Y-61900029D01*
X137375083Y-61895355D01*
X137374000Y-61884359D01*
X137374000Y-61595641D01*
X137375083Y-61584645D01*
X137376501Y-61579971D01*
X137378800Y-61575670D01*
X137384029Y-61569298D01*
X137397643Y-61548924D01*
X137407020Y-61526285D01*
X137411800Y-61502251D01*
X137411800Y-61477747D01*
X137407019Y-61453714D01*
X137397642Y-61431075D01*
X137384029Y-61410702D01*
X137378800Y-61404330D01*
X137376501Y-61400029D01*
X137375083Y-61395355D01*
X137374000Y-61384359D01*
X137374000Y-61095641D01*
X137375083Y-61084645D01*
X137376501Y-61079971D01*
X137378800Y-61075670D01*
X137384029Y-61069298D01*
X137397643Y-61048924D01*
X137407020Y-61026285D01*
X137411800Y-61002251D01*
X137411800Y-60977747D01*
X137407019Y-60953714D01*
X137397642Y-60931075D01*
X137384029Y-60910702D01*
X137378800Y-60904330D01*
X137376501Y-60900029D01*
X137375083Y-60895355D01*
X137374000Y-60884359D01*
X137374000Y-60595641D01*
X137375083Y-60584645D01*
X137376501Y-60579971D01*
X137378800Y-60575670D01*
X137384029Y-60569298D01*
X137397643Y-60548924D01*
X137407020Y-60526285D01*
X137411800Y-60502251D01*
X137411800Y-60477747D01*
X137407019Y-60453714D01*
X137397642Y-60431075D01*
X137384029Y-60410702D01*
X137378800Y-60404330D01*
X137376501Y-60400029D01*
X137375083Y-60395355D01*
X137374000Y-60384359D01*
X137374000Y-60095641D01*
X137375083Y-60084645D01*
X137376501Y-60079971D01*
X137378800Y-60075670D01*
X137384029Y-60069298D01*
X137397643Y-60048924D01*
X137407020Y-60026285D01*
X137411800Y-60002251D01*
X137411800Y-59977747D01*
X137407019Y-59953714D01*
X137397642Y-59931075D01*
X137384029Y-59910702D01*
X137378800Y-59904330D01*
X137376501Y-59900029D01*
X137375083Y-59895355D01*
X137374000Y-59884359D01*
X137374000Y-59595641D01*
X137375083Y-59584645D01*
X137376501Y-59579971D01*
X137378800Y-59575670D01*
X137384029Y-59569298D01*
X137397643Y-59548924D01*
X137407020Y-59526285D01*
X137411800Y-59502251D01*
X137411800Y-59477747D01*
X137407019Y-59453714D01*
X137397642Y-59431075D01*
X137384029Y-59410702D01*
X137378800Y-59404330D01*
X137376501Y-59400029D01*
X137375083Y-59395355D01*
X137374000Y-59384359D01*
X137374000Y-59095641D01*
X137375083Y-59084645D01*
X137376501Y-59079971D01*
X137378800Y-59075670D01*
X137384029Y-59069298D01*
X137397643Y-59048924D01*
X137407020Y-59026285D01*
X137411800Y-59002251D01*
X137411800Y-58977747D01*
X137407019Y-58953714D01*
X137397642Y-58931075D01*
X137384029Y-58910702D01*
X137378800Y-58904330D01*
X137376501Y-58900029D01*
X137375083Y-58895355D01*
X137374000Y-58884359D01*
X137374000Y-58595641D01*
X137375083Y-58584645D01*
X137376501Y-58579971D01*
X137378800Y-58575670D01*
X137384029Y-58569298D01*
X137397643Y-58548924D01*
X137407020Y-58526285D01*
X137411800Y-58502251D01*
X137411800Y-58477749D01*
X138313200Y-58477749D01*
X138313200Y-58502253D01*
X138317981Y-58526286D01*
X138327358Y-58548925D01*
X138340971Y-58569298D01*
X138346200Y-58575670D01*
X138348499Y-58579971D01*
X138349917Y-58584645D01*
X138351000Y-58595641D01*
X138351000Y-58884359D01*
X138349917Y-58895355D01*
X138348499Y-58900029D01*
X138346200Y-58904330D01*
X138340971Y-58910702D01*
X138327357Y-58931076D01*
X138317980Y-58953715D01*
X138313200Y-58977749D01*
X138313200Y-59002253D01*
X138317981Y-59026286D01*
X138327358Y-59048925D01*
X138340971Y-59069298D01*
X138346200Y-59075670D01*
X138348499Y-59079971D01*
X138349917Y-59084645D01*
X138351000Y-59095641D01*
X138351000Y-59384359D01*
X138349917Y-59395355D01*
X138348499Y-59400029D01*
X138346200Y-59404330D01*
X138340971Y-59410702D01*
X138327357Y-59431076D01*
X138317980Y-59453715D01*
X138313200Y-59477749D01*
X138313200Y-59502253D01*
X138317981Y-59526286D01*
X138327358Y-59548925D01*
X138340971Y-59569298D01*
X138346200Y-59575670D01*
X138348499Y-59579971D01*
X138349917Y-59584645D01*
X138351000Y-59595641D01*
X138351000Y-59884359D01*
X138349917Y-59895355D01*
X138348499Y-59900029D01*
X138346200Y-59904330D01*
X138340971Y-59910702D01*
X138327357Y-59931076D01*
X138317980Y-59953715D01*
X138313200Y-59977749D01*
X138313200Y-60002253D01*
X138317981Y-60026286D01*
X138327358Y-60048925D01*
X138340971Y-60069298D01*
X138346200Y-60075670D01*
X138348499Y-60079971D01*
X138349917Y-60084645D01*
X138351000Y-60095641D01*
X138351000Y-60384359D01*
X138349917Y-60395355D01*
X138348499Y-60400029D01*
X138346200Y-60404330D01*
X138340971Y-60410702D01*
X138327357Y-60431076D01*
X138317980Y-60453715D01*
X138313200Y-60477749D01*
X138313200Y-60502253D01*
X138317981Y-60526286D01*
X138327358Y-60548925D01*
X138340971Y-60569298D01*
X138346200Y-60575670D01*
X138348499Y-60579971D01*
X138349917Y-60584645D01*
X138351000Y-60595641D01*
X138351000Y-60884359D01*
X138349917Y-60895355D01*
X138348499Y-60900029D01*
X138346200Y-60904330D01*
X138340971Y-60910702D01*
X138327357Y-60931076D01*
X138317980Y-60953715D01*
X138313200Y-60977749D01*
X138313200Y-61002253D01*
X138317981Y-61026286D01*
X138327358Y-61048925D01*
X138340971Y-61069298D01*
X138346200Y-61075670D01*
X138348499Y-61079971D01*
X138349917Y-61084645D01*
X138351000Y-61095641D01*
X138351000Y-61384359D01*
X138349917Y-61395355D01*
X138348499Y-61400029D01*
X138346200Y-61404330D01*
X138340971Y-61410702D01*
X138327357Y-61431076D01*
X138317980Y-61453715D01*
X138313200Y-61477749D01*
X138313200Y-61502253D01*
X138317981Y-61526286D01*
X138327358Y-61548925D01*
X138340971Y-61569298D01*
X138346200Y-61575670D01*
X138348499Y-61579971D01*
X138349917Y-61584645D01*
X138351000Y-61595641D01*
X138351000Y-61814001D01*
X138353402Y-61838387D01*
X138360515Y-61861836D01*
X138372066Y-61883447D01*
X138387611Y-61902389D01*
X138406553Y-61917934D01*
X138428164Y-61929485D01*
X138451613Y-61936598D01*
X138475999Y-61939000D01*
X138694359Y-61939000D01*
X138705355Y-61940083D01*
X138710029Y-61941501D01*
X138714330Y-61943800D01*
X138720702Y-61949029D01*
X138741076Y-61962643D01*
X138763715Y-61972020D01*
X138787749Y-61976800D01*
X138812253Y-61976800D01*
X138836286Y-61972019D01*
X138858925Y-61962642D01*
X138879298Y-61949029D01*
X138885670Y-61943800D01*
X138889971Y-61941501D01*
X138894645Y-61940083D01*
X138905641Y-61939000D01*
X139194359Y-61939000D01*
X139205355Y-61940083D01*
X139210029Y-61941501D01*
X139214330Y-61943800D01*
X139220702Y-61949029D01*
X139241076Y-61962643D01*
X139263715Y-61972020D01*
X139287749Y-61976800D01*
X139312253Y-61976800D01*
X139336286Y-61972019D01*
X139358925Y-61962642D01*
X139379298Y-61949029D01*
X139385670Y-61943800D01*
X139389971Y-61941501D01*
X139394645Y-61940083D01*
X139405641Y-61939000D01*
X139694359Y-61939000D01*
X139705355Y-61940083D01*
X139710029Y-61941501D01*
X139714330Y-61943800D01*
X139720702Y-61949029D01*
X139741076Y-61962643D01*
X139763715Y-61972020D01*
X139787749Y-61976800D01*
X139812253Y-61976800D01*
X139836286Y-61972019D01*
X139858925Y-61962642D01*
X139879298Y-61949029D01*
X139885670Y-61943800D01*
X139889971Y-61941501D01*
X139894645Y-61940083D01*
X139905641Y-61939000D01*
X140194359Y-61939000D01*
X140205355Y-61940083D01*
X140210029Y-61941501D01*
X140214330Y-61943800D01*
X140220702Y-61949029D01*
X140241076Y-61962643D01*
X140263715Y-61972020D01*
X140287749Y-61976800D01*
X140312253Y-61976800D01*
X140336286Y-61972019D01*
X140358925Y-61962642D01*
X140379298Y-61949029D01*
X140385670Y-61943800D01*
X140389971Y-61941501D01*
X140394645Y-61940083D01*
X140405641Y-61939000D01*
X140694359Y-61939000D01*
X140705355Y-61940083D01*
X140710029Y-61941501D01*
X140714330Y-61943800D01*
X140720702Y-61949029D01*
X140741076Y-61962643D01*
X140763715Y-61972020D01*
X140787749Y-61976800D01*
X140812253Y-61976800D01*
X140836286Y-61972019D01*
X140858925Y-61962642D01*
X140879298Y-61949029D01*
X140885670Y-61943800D01*
X140889971Y-61941501D01*
X140894645Y-61940083D01*
X140905641Y-61939000D01*
X141194359Y-61939000D01*
X141205355Y-61940083D01*
X141210029Y-61941501D01*
X141214330Y-61943800D01*
X141220702Y-61949029D01*
X141241076Y-61962643D01*
X141263715Y-61972020D01*
X141287749Y-61976800D01*
X141312253Y-61976800D01*
X141336286Y-61972019D01*
X141358925Y-61962642D01*
X141379298Y-61949029D01*
X141385670Y-61943800D01*
X141389971Y-61941501D01*
X141394645Y-61940083D01*
X141405641Y-61939000D01*
X141694359Y-61939000D01*
X141705355Y-61940083D01*
X141710029Y-61941501D01*
X141714330Y-61943800D01*
X141720702Y-61949029D01*
X141741076Y-61962643D01*
X141763715Y-61972020D01*
X141787749Y-61976800D01*
X141812253Y-61976800D01*
X141836286Y-61972019D01*
X141858925Y-61962642D01*
X141879298Y-61949029D01*
X141885670Y-61943800D01*
X141889971Y-61941501D01*
X141894645Y-61940083D01*
X141905641Y-61939000D01*
X142124001Y-61939000D01*
X142148387Y-61936598D01*
X142171836Y-61929485D01*
X142193447Y-61917934D01*
X142212389Y-61902389D01*
X142227934Y-61883447D01*
X142239485Y-61861836D01*
X142246598Y-61838387D01*
X142249000Y-61814001D01*
X142249000Y-61595641D01*
X142250083Y-61584645D01*
X142251501Y-61579971D01*
X142253800Y-61575670D01*
X142259029Y-61569298D01*
X142272643Y-61548924D01*
X142282020Y-61526285D01*
X142286800Y-61502251D01*
X142286800Y-61477747D01*
X142282019Y-61453714D01*
X142272642Y-61431075D01*
X142259029Y-61410702D01*
X142253800Y-61404330D01*
X142251501Y-61400029D01*
X142250083Y-61395355D01*
X142249000Y-61384359D01*
X142249000Y-61095641D01*
X142250083Y-61084645D01*
X142251501Y-61079971D01*
X142253800Y-61075670D01*
X142259029Y-61069298D01*
X142272643Y-61048924D01*
X142282020Y-61026285D01*
X142286800Y-61002251D01*
X142286800Y-60977747D01*
X142282019Y-60953714D01*
X142272642Y-60931075D01*
X142259029Y-60910702D01*
X142253800Y-60904330D01*
X142251501Y-60900029D01*
X142250083Y-60895355D01*
X142249000Y-60884359D01*
X142249000Y-60595641D01*
X142250083Y-60584645D01*
X142251501Y-60579971D01*
X142253800Y-60575670D01*
X142259029Y-60569298D01*
X142272643Y-60548924D01*
X142282020Y-60526285D01*
X142286800Y-60502251D01*
X142286800Y-60477747D01*
X142282019Y-60453714D01*
X142272642Y-60431075D01*
X142259029Y-60410702D01*
X142253800Y-60404330D01*
X142251501Y-60400029D01*
X142250083Y-60395355D01*
X142249000Y-60384359D01*
X142249000Y-60095641D01*
X142250083Y-60084645D01*
X142251501Y-60079971D01*
X142253800Y-60075670D01*
X142259029Y-60069298D01*
X142272643Y-60048924D01*
X142282020Y-60026285D01*
X142286800Y-60002251D01*
X142286800Y-59977747D01*
X142282019Y-59953714D01*
X142272642Y-59931075D01*
X142259029Y-59910702D01*
X142253800Y-59904330D01*
X142251501Y-59900029D01*
X142250083Y-59895355D01*
X142249000Y-59884359D01*
X142249000Y-59595641D01*
X142250083Y-59584645D01*
X142251501Y-59579971D01*
X142253800Y-59575670D01*
X142259029Y-59569298D01*
X142272643Y-59548924D01*
X142282020Y-59526285D01*
X142286800Y-59502251D01*
X142286800Y-59477747D01*
X142282019Y-59453714D01*
X142272642Y-59431075D01*
X142259029Y-59410702D01*
X142253800Y-59404330D01*
X142251501Y-59400029D01*
X142250083Y-59395355D01*
X142249000Y-59384359D01*
X142249000Y-59095641D01*
X142250083Y-59084645D01*
X142251501Y-59079971D01*
X142253800Y-59075670D01*
X142259029Y-59069298D01*
X142272643Y-59048924D01*
X142282020Y-59026285D01*
X142286800Y-59002251D01*
X142286800Y-58977747D01*
X142282019Y-58953714D01*
X142272642Y-58931075D01*
X142259029Y-58910702D01*
X142253800Y-58904330D01*
X142251501Y-58900029D01*
X142250083Y-58895355D01*
X142249000Y-58884359D01*
X142249000Y-58595641D01*
X142250083Y-58584645D01*
X142251501Y-58579971D01*
X142253800Y-58575670D01*
X142259029Y-58569298D01*
X142272643Y-58548924D01*
X142282020Y-58526285D01*
X142286800Y-58502251D01*
X142286800Y-58477747D01*
X142282019Y-58453714D01*
X142272642Y-58431075D01*
X142259029Y-58410702D01*
X142253800Y-58404330D01*
X142251501Y-58400029D01*
X142250083Y-58395355D01*
X142249000Y-58384359D01*
X142249000Y-58165999D01*
X142246598Y-58141613D01*
X142239485Y-58118164D01*
X142227934Y-58096553D01*
X142212389Y-58077611D01*
X142193447Y-58062066D01*
X142171836Y-58050515D01*
X142148387Y-58043402D01*
X142124001Y-58041000D01*
X141905641Y-58041000D01*
X141894645Y-58039917D01*
X141889971Y-58038499D01*
X141885670Y-58036200D01*
X141879298Y-58030971D01*
X141858924Y-58017357D01*
X141836285Y-58007980D01*
X141812251Y-58003200D01*
X141787747Y-58003200D01*
X141763714Y-58007981D01*
X141741075Y-58017358D01*
X141720702Y-58030971D01*
X141714330Y-58036200D01*
X141710029Y-58038499D01*
X141705355Y-58039917D01*
X141694359Y-58041000D01*
X141405641Y-58041000D01*
X141394645Y-58039917D01*
X141389971Y-58038499D01*
X141385670Y-58036200D01*
X141379298Y-58030971D01*
X141358924Y-58017357D01*
X141336285Y-58007980D01*
X141312251Y-58003200D01*
X141287747Y-58003200D01*
X141263714Y-58007981D01*
X141241075Y-58017358D01*
X141220702Y-58030971D01*
X141214330Y-58036200D01*
X141210029Y-58038499D01*
X141205355Y-58039917D01*
X141194359Y-58041000D01*
X140905641Y-58041000D01*
X140894645Y-58039917D01*
X140889971Y-58038499D01*
X140885670Y-58036200D01*
X140879298Y-58030971D01*
X140858924Y-58017357D01*
X140836285Y-58007980D01*
X140812251Y-58003200D01*
X140787747Y-58003200D01*
X140763714Y-58007981D01*
X140741075Y-58017358D01*
X140720702Y-58030971D01*
X140714330Y-58036200D01*
X140710029Y-58038499D01*
X140705355Y-58039917D01*
X140694359Y-58041000D01*
X140405641Y-58041000D01*
X140394645Y-58039917D01*
X140389971Y-58038499D01*
X140385670Y-58036200D01*
X140379298Y-58030971D01*
X140358924Y-58017357D01*
X140336285Y-58007980D01*
X140312251Y-58003200D01*
X140287747Y-58003200D01*
X140263714Y-58007981D01*
X140241075Y-58017358D01*
X140220702Y-58030971D01*
X140214330Y-58036200D01*
X140210029Y-58038499D01*
X140205355Y-58039917D01*
X140194359Y-58041000D01*
X139905641Y-58041000D01*
X139894645Y-58039917D01*
X139889971Y-58038499D01*
X139885670Y-58036200D01*
X139879298Y-58030971D01*
X139858924Y-58017357D01*
X139836285Y-58007980D01*
X139812251Y-58003200D01*
X139787747Y-58003200D01*
X139763714Y-58007981D01*
X139741075Y-58017358D01*
X139720702Y-58030971D01*
X139714330Y-58036200D01*
X139710029Y-58038499D01*
X139705355Y-58039917D01*
X139694359Y-58041000D01*
X139405641Y-58041000D01*
X139394645Y-58039917D01*
X139389971Y-58038499D01*
X139385670Y-58036200D01*
X139379298Y-58030971D01*
X139358924Y-58017357D01*
X139336285Y-58007980D01*
X139312251Y-58003200D01*
X139287747Y-58003200D01*
X139263714Y-58007981D01*
X139241075Y-58017358D01*
X139220702Y-58030971D01*
X139214330Y-58036200D01*
X139210029Y-58038499D01*
X139205355Y-58039917D01*
X139194359Y-58041000D01*
X138905641Y-58041000D01*
X138894645Y-58039917D01*
X138889971Y-58038499D01*
X138885670Y-58036200D01*
X138879298Y-58030971D01*
X138858924Y-58017357D01*
X138836285Y-58007980D01*
X138812251Y-58003200D01*
X138787747Y-58003200D01*
X138763714Y-58007981D01*
X138741075Y-58017358D01*
X138720702Y-58030971D01*
X138714330Y-58036200D01*
X138710029Y-58038499D01*
X138705355Y-58039917D01*
X138694359Y-58041000D01*
X138475999Y-58041000D01*
X138451613Y-58043402D01*
X138428164Y-58050515D01*
X138406553Y-58062066D01*
X138387611Y-58077611D01*
X138372066Y-58096553D01*
X138360515Y-58118164D01*
X138353402Y-58141613D01*
X138351000Y-58165999D01*
X138351000Y-58384359D01*
X138349917Y-58395355D01*
X138348499Y-58400029D01*
X138346200Y-58404330D01*
X138340971Y-58410702D01*
X138327357Y-58431076D01*
X138317980Y-58453715D01*
X138313200Y-58477749D01*
X137411800Y-58477749D01*
X137411800Y-58477747D01*
X137407019Y-58453714D01*
X137397642Y-58431075D01*
X137384029Y-58410702D01*
X137378800Y-58404330D01*
X137376501Y-58400029D01*
X137375083Y-58395355D01*
X137374000Y-58384359D01*
X137374000Y-58095641D01*
X137375083Y-58084645D01*
X137376501Y-58079971D01*
X137378800Y-58075669D01*
X137381896Y-58071896D01*
X137385669Y-58068800D01*
X137389971Y-58066501D01*
X137394645Y-58065083D01*
X137405641Y-58064000D01*
X138249001Y-58064000D01*
X138273387Y-58061598D01*
X138296836Y-58054485D01*
X138318447Y-58042934D01*
X138337389Y-58027389D01*
X138352934Y-58008447D01*
X138364485Y-57986836D01*
X138371598Y-57963387D01*
X138374000Y-57939001D01*
X138374000Y-57095641D01*
X138375083Y-57084645D01*
X138376501Y-57079971D01*
X138378800Y-57075669D01*
X138381896Y-57071896D01*
X138385669Y-57068800D01*
X138389971Y-57066501D01*
X138394645Y-57065083D01*
X138405641Y-57064000D01*
X138694359Y-57064000D01*
X138705355Y-57065083D01*
X138705355Y-57065083D01*
G37*
G36*
X141777417Y-58392540D02*
G01*
X141806081Y-58401235D01*
X141832495Y-58415354D01*
X141855646Y-58434354D01*
X141874646Y-58457505D01*
X141888765Y-58483919D01*
X141897460Y-58512583D01*
X141901000Y-58548527D01*
X141901000Y-61431473D01*
X141897460Y-61467417D01*
X141888765Y-61496081D01*
X141874646Y-61522495D01*
X141855646Y-61545646D01*
X141832495Y-61564646D01*
X141806081Y-61578765D01*
X141777417Y-61587460D01*
X141741473Y-61591000D01*
X138858527Y-61591000D01*
X138822583Y-61587460D01*
X138793919Y-61578765D01*
X138767505Y-61564646D01*
X138744354Y-61545646D01*
X138725354Y-61522495D01*
X138711235Y-61496081D01*
X138702540Y-61467417D01*
X138699000Y-61431473D01*
X138699000Y-58548527D01*
X138702540Y-58512583D01*
X138711235Y-58483919D01*
X138725354Y-58457505D01*
X138744354Y-58434354D01*
X138767505Y-58415354D01*
X138793919Y-58401235D01*
X138822583Y-58392540D01*
X138858527Y-58389000D01*
X141741473Y-58389000D01*
X141777417Y-58392540D01*
X141777417Y-58392540D01*
G37*
G36*
X127037142Y-60368242D02*
G01*
X127185101Y-60429529D01*
X127318255Y-60518499D01*
X127431501Y-60631745D01*
X127520471Y-60764899D01*
X127581758Y-60912858D01*
X127613000Y-61069925D01*
X127613000Y-61230075D01*
X127581758Y-61387142D01*
X127520471Y-61535101D01*
X127431501Y-61668255D01*
X127318255Y-61781501D01*
X127185101Y-61870471D01*
X127037142Y-61931758D01*
X126880075Y-61963000D01*
X126719925Y-61963000D01*
X126562858Y-61931758D01*
X126414899Y-61870471D01*
X126281745Y-61781501D01*
X126168499Y-61668255D01*
X126079529Y-61535101D01*
X126018242Y-61387142D01*
X125987000Y-61230075D01*
X125987000Y-61069925D01*
X126018242Y-60912858D01*
X126079529Y-60764899D01*
X126168499Y-60631745D01*
X126281745Y-60518499D01*
X126414899Y-60429529D01*
X126562858Y-60368242D01*
X126719925Y-60337000D01*
X126880075Y-60337000D01*
X127037142Y-60368242D01*
X127037142Y-60368242D01*
G37*
G36*
X129446591Y-60198085D02*
G01*
X129480569Y-60208393D01*
X129511890Y-60225134D01*
X129539339Y-60247661D01*
X129561866Y-60275110D01*
X129578607Y-60306431D01*
X129588915Y-60340409D01*
X129593000Y-60381890D01*
X129593000Y-61058110D01*
X129588915Y-61099591D01*
X129578607Y-61133569D01*
X129561866Y-61164890D01*
X129539339Y-61192339D01*
X129511890Y-61214866D01*
X129480569Y-61231607D01*
X129446591Y-61241915D01*
X129405110Y-61246000D01*
X128803890Y-61246000D01*
X128762409Y-61241915D01*
X128728431Y-61231607D01*
X128697110Y-61214866D01*
X128669661Y-61192339D01*
X128647134Y-61164890D01*
X128630393Y-61133569D01*
X128620085Y-61099591D01*
X128616000Y-61058110D01*
X128616000Y-60381890D01*
X128620085Y-60340409D01*
X128630393Y-60306431D01*
X128647134Y-60275110D01*
X128669661Y-60247661D01*
X128697110Y-60225134D01*
X128728431Y-60208393D01*
X128762409Y-60198085D01*
X128803890Y-60194000D01*
X129405110Y-60194000D01*
X129446591Y-60198085D01*
X129446591Y-60198085D01*
G37*
G36*
X131021591Y-60198085D02*
G01*
X131055569Y-60208393D01*
X131086890Y-60225134D01*
X131114339Y-60247661D01*
X131136866Y-60275110D01*
X131153607Y-60306431D01*
X131163915Y-60340409D01*
X131168000Y-60381890D01*
X131168000Y-61058110D01*
X131163915Y-61099591D01*
X131153607Y-61133569D01*
X131136866Y-61164890D01*
X131114339Y-61192339D01*
X131086890Y-61214866D01*
X131055569Y-61231607D01*
X131021591Y-61241915D01*
X130980110Y-61246000D01*
X130378890Y-61246000D01*
X130337409Y-61241915D01*
X130303431Y-61231607D01*
X130272110Y-61214866D01*
X130244661Y-61192339D01*
X130222134Y-61164890D01*
X130205393Y-61133569D01*
X130195085Y-61099591D01*
X130191000Y-61058110D01*
X130191000Y-60381890D01*
X130195085Y-60340409D01*
X130205393Y-60306431D01*
X130222134Y-60275110D01*
X130244661Y-60247661D01*
X130272110Y-60225134D01*
X130303431Y-60208393D01*
X130337409Y-60198085D01*
X130378890Y-60194000D01*
X130980110Y-60194000D01*
X131021591Y-60198085D01*
X131021591Y-60198085D01*
G37*
G36*
X153539694Y-57878633D02*
G01*
X153712095Y-57930931D01*
X153870983Y-58015858D01*
X154010249Y-58130151D01*
X154124542Y-58269417D01*
X154209469Y-58428305D01*
X154261767Y-58600706D01*
X154279425Y-58780000D01*
X154261767Y-58959294D01*
X154209469Y-59131695D01*
X154124542Y-59290583D01*
X154010249Y-59429849D01*
X153870983Y-59544142D01*
X153712095Y-59629069D01*
X153539694Y-59681367D01*
X153405331Y-59694600D01*
X151994669Y-59694600D01*
X151860306Y-59681367D01*
X151687905Y-59629069D01*
X151529017Y-59544142D01*
X151389751Y-59429849D01*
X151275458Y-59290583D01*
X151190531Y-59131695D01*
X151138233Y-58959294D01*
X151120575Y-58780000D01*
X151138233Y-58600706D01*
X151190531Y-58428305D01*
X151275458Y-58269417D01*
X151389751Y-58130151D01*
X151529017Y-58015858D01*
X151687905Y-57930931D01*
X151860306Y-57878633D01*
X151994669Y-57865400D01*
X153405331Y-57865400D01*
X153539694Y-57878633D01*
X153539694Y-57878633D01*
G37*
G36*
X166039694Y-57878633D02*
G01*
X166212095Y-57930931D01*
X166370983Y-58015858D01*
X166510249Y-58130151D01*
X166624542Y-58269417D01*
X166709469Y-58428305D01*
X166761767Y-58600706D01*
X166779425Y-58780000D01*
X166761767Y-58959294D01*
X166709469Y-59131695D01*
X166624542Y-59290583D01*
X166510249Y-59429849D01*
X166370983Y-59544142D01*
X166212095Y-59629069D01*
X166039694Y-59681367D01*
X165905331Y-59694600D01*
X164494669Y-59694600D01*
X164360306Y-59681367D01*
X164187905Y-59629069D01*
X164029017Y-59544142D01*
X163889751Y-59429849D01*
X163775458Y-59290583D01*
X163690531Y-59131695D01*
X163638233Y-58959294D01*
X163620575Y-58780000D01*
X163638233Y-58600706D01*
X163690531Y-58428305D01*
X163775458Y-58269417D01*
X163889751Y-58130151D01*
X164029017Y-58015858D01*
X164187905Y-57930931D01*
X164360306Y-57878633D01*
X164494669Y-57865400D01*
X165905331Y-57865400D01*
X166039694Y-57878633D01*
X166039694Y-57878633D01*
G37*
G36*
X175929694Y-57878633D02*
G01*
X176102095Y-57930931D01*
X176260983Y-58015858D01*
X176400249Y-58130151D01*
X176514542Y-58269417D01*
X176599469Y-58428305D01*
X176651767Y-58600706D01*
X176669425Y-58780000D01*
X176651767Y-58959294D01*
X176599469Y-59131695D01*
X176514542Y-59290583D01*
X176400249Y-59429849D01*
X176260983Y-59544142D01*
X176102095Y-59629069D01*
X175929694Y-59681367D01*
X175795331Y-59694600D01*
X174384669Y-59694600D01*
X174250306Y-59681367D01*
X174077905Y-59629069D01*
X173919017Y-59544142D01*
X173779751Y-59429849D01*
X173665458Y-59290583D01*
X173580531Y-59131695D01*
X173528233Y-58959294D01*
X173510575Y-58780000D01*
X173528233Y-58600706D01*
X173580531Y-58428305D01*
X173665458Y-58269417D01*
X173779751Y-58130151D01*
X173919017Y-58015858D01*
X174077905Y-57930931D01*
X174250306Y-57878633D01*
X174384669Y-57865400D01*
X175795331Y-57865400D01*
X175929694Y-57878633D01*
X175929694Y-57878633D01*
G37*
G36*
X188429694Y-57878633D02*
G01*
X188602095Y-57930931D01*
X188760983Y-58015858D01*
X188900249Y-58130151D01*
X189014542Y-58269417D01*
X189099469Y-58428305D01*
X189151767Y-58600706D01*
X189169425Y-58780000D01*
X189151767Y-58959294D01*
X189099469Y-59131695D01*
X189014542Y-59290583D01*
X188900249Y-59429849D01*
X188760983Y-59544142D01*
X188602095Y-59629069D01*
X188429694Y-59681367D01*
X188295331Y-59694600D01*
X186884669Y-59694600D01*
X186750306Y-59681367D01*
X186577905Y-59629069D01*
X186419017Y-59544142D01*
X186279751Y-59429849D01*
X186165458Y-59290583D01*
X186080531Y-59131695D01*
X186028233Y-58959294D01*
X186010575Y-58780000D01*
X186028233Y-58600706D01*
X186080531Y-58428305D01*
X186165458Y-58269417D01*
X186279751Y-58130151D01*
X186419017Y-58015858D01*
X186577905Y-57930931D01*
X186750306Y-57878633D01*
X186884669Y-57865400D01*
X188295331Y-57865400D01*
X188429694Y-57878633D01*
X188429694Y-57878633D01*
G37*
G36*
X140989591Y-55445585D02*
G01*
X141023569Y-55455893D01*
X141054890Y-55472634D01*
X141082339Y-55495161D01*
X141104866Y-55522610D01*
X141121607Y-55553931D01*
X141131915Y-55587909D01*
X141136000Y-55629390D01*
X141136000Y-56230610D01*
X141131915Y-56272091D01*
X141121607Y-56306069D01*
X141104866Y-56337390D01*
X141082339Y-56364839D01*
X141054890Y-56387366D01*
X141023569Y-56404107D01*
X140989591Y-56414415D01*
X140948110Y-56418500D01*
X140271890Y-56418500D01*
X140230409Y-56414415D01*
X140196431Y-56404107D01*
X140165110Y-56387366D01*
X140137661Y-56364839D01*
X140115134Y-56337390D01*
X140098393Y-56306069D01*
X140088085Y-56272091D01*
X140084000Y-56230610D01*
X140084000Y-55629390D01*
X140088085Y-55587909D01*
X140098393Y-55553931D01*
X140115134Y-55522610D01*
X140137661Y-55495161D01*
X140165110Y-55472634D01*
X140196431Y-55455893D01*
X140230409Y-55445585D01*
X140271890Y-55441500D01*
X140948110Y-55441500D01*
X140989591Y-55445585D01*
X140989591Y-55445585D01*
G37*
G36*
X140989591Y-53870585D02*
G01*
X141023569Y-53880893D01*
X141054890Y-53897634D01*
X141082339Y-53920161D01*
X141104866Y-53947610D01*
X141121607Y-53978931D01*
X141131915Y-54012909D01*
X141136000Y-54054390D01*
X141136000Y-54655610D01*
X141131915Y-54697091D01*
X141121607Y-54731069D01*
X141104866Y-54762390D01*
X141082339Y-54789839D01*
X141054890Y-54812366D01*
X141023569Y-54829107D01*
X140989591Y-54839415D01*
X140948110Y-54843500D01*
X140271890Y-54843500D01*
X140230409Y-54839415D01*
X140196431Y-54829107D01*
X140165110Y-54812366D01*
X140137661Y-54789839D01*
X140115134Y-54762390D01*
X140098393Y-54731069D01*
X140088085Y-54697091D01*
X140084000Y-54655610D01*
X140084000Y-54054390D01*
X140088085Y-54012909D01*
X140098393Y-53978931D01*
X140115134Y-53947610D01*
X140137661Y-53920161D01*
X140165110Y-53897634D01*
X140196431Y-53880893D01*
X140230409Y-53870585D01*
X140271890Y-53866500D01*
X140948110Y-53866500D01*
X140989591Y-53870585D01*
X140989591Y-53870585D01*
G37*
G36*
X126017410Y-51953250D02*
G01*
X126106627Y-51962037D01*
X126276466Y-52013557D01*
X126432991Y-52097222D01*
X126468729Y-52126552D01*
X126570186Y-52209814D01*
X126646116Y-52302336D01*
X126682778Y-52347009D01*
X126766443Y-52503534D01*
X126817963Y-52673373D01*
X126835359Y-52850000D01*
X126817963Y-53026627D01*
X126766443Y-53196466D01*
X126682778Y-53352991D01*
X126653448Y-53388729D01*
X126570186Y-53490186D01*
X126468729Y-53573448D01*
X126432991Y-53602778D01*
X126276466Y-53686443D01*
X126106627Y-53737963D01*
X126040442Y-53744482D01*
X125974260Y-53751000D01*
X125885740Y-53751000D01*
X125819558Y-53744482D01*
X125753373Y-53737963D01*
X125583534Y-53686443D01*
X125427009Y-53602778D01*
X125391271Y-53573448D01*
X125289814Y-53490186D01*
X125206552Y-53388729D01*
X125177222Y-53352991D01*
X125093557Y-53196466D01*
X125042037Y-53026627D01*
X125024641Y-52850000D01*
X125042037Y-52673373D01*
X125093557Y-52503534D01*
X125177222Y-52347009D01*
X125213884Y-52302336D01*
X125289814Y-52209814D01*
X125391271Y-52126552D01*
X125427009Y-52097222D01*
X125583534Y-52013557D01*
X125753373Y-51962037D01*
X125842590Y-51953250D01*
X125885740Y-51949000D01*
X125974260Y-51949000D01*
X126017410Y-51953250D01*
X126017410Y-51953250D01*
G37*
G36*
X140359591Y-51713085D02*
G01*
X140393569Y-51723393D01*
X140424890Y-51740134D01*
X140452339Y-51762661D01*
X140474866Y-51790110D01*
X140491607Y-51821431D01*
X140501915Y-51855409D01*
X140506000Y-51896890D01*
X140506000Y-52498110D01*
X140501915Y-52539591D01*
X140491607Y-52573569D01*
X140474866Y-52604890D01*
X140452339Y-52632339D01*
X140424890Y-52654866D01*
X140393569Y-52671607D01*
X140359591Y-52681915D01*
X140318110Y-52686000D01*
X139641890Y-52686000D01*
X139600409Y-52681915D01*
X139566431Y-52671607D01*
X139535110Y-52654866D01*
X139507661Y-52632339D01*
X139485134Y-52604890D01*
X139468393Y-52573569D01*
X139458085Y-52539591D01*
X139454000Y-52498110D01*
X139454000Y-51896890D01*
X139458085Y-51855409D01*
X139468393Y-51821431D01*
X139485134Y-51790110D01*
X139507661Y-51762661D01*
X139535110Y-51740134D01*
X139566431Y-51723393D01*
X139600409Y-51713085D01*
X139641890Y-51709000D01*
X140318110Y-51709000D01*
X140359591Y-51713085D01*
X140359591Y-51713085D01*
G37*
G36*
X138649591Y-51680585D02*
G01*
X138683569Y-51690893D01*
X138714890Y-51707634D01*
X138742339Y-51730161D01*
X138764866Y-51757610D01*
X138781607Y-51788931D01*
X138791915Y-51822909D01*
X138796000Y-51864390D01*
X138796000Y-52465610D01*
X138791915Y-52507091D01*
X138781607Y-52541069D01*
X138764866Y-52572390D01*
X138742339Y-52599839D01*
X138714890Y-52622366D01*
X138683569Y-52639107D01*
X138649591Y-52649415D01*
X138608110Y-52653500D01*
X137931890Y-52653500D01*
X137890409Y-52649415D01*
X137856431Y-52639107D01*
X137825110Y-52622366D01*
X137797661Y-52599839D01*
X137775134Y-52572390D01*
X137758393Y-52541069D01*
X137748085Y-52507091D01*
X137744000Y-52465610D01*
X137744000Y-51864390D01*
X137748085Y-51822909D01*
X137758393Y-51788931D01*
X137775134Y-51757610D01*
X137797661Y-51730161D01*
X137825110Y-51707634D01*
X137856431Y-51690893D01*
X137890409Y-51680585D01*
X137931890Y-51676500D01*
X138608110Y-51676500D01*
X138649591Y-51680585D01*
X138649591Y-51680585D01*
G37*
G36*
X135059591Y-51650585D02*
G01*
X135093569Y-51660893D01*
X135124890Y-51677634D01*
X135152339Y-51700161D01*
X135174866Y-51727610D01*
X135191607Y-51758931D01*
X135201915Y-51792909D01*
X135206000Y-51834390D01*
X135206000Y-52435610D01*
X135201915Y-52477091D01*
X135191607Y-52511069D01*
X135174866Y-52542390D01*
X135152339Y-52569839D01*
X135124890Y-52592366D01*
X135093569Y-52609107D01*
X135059591Y-52619415D01*
X135018110Y-52623500D01*
X134341890Y-52623500D01*
X134300409Y-52619415D01*
X134266431Y-52609107D01*
X134235110Y-52592366D01*
X134207661Y-52569839D01*
X134185134Y-52542390D01*
X134168393Y-52511069D01*
X134158085Y-52477091D01*
X134154000Y-52435610D01*
X134154000Y-51834390D01*
X134158085Y-51792909D01*
X134168393Y-51758931D01*
X134185134Y-51727610D01*
X134207661Y-51700161D01*
X134235110Y-51677634D01*
X134266431Y-51660893D01*
X134300409Y-51650585D01*
X134341890Y-51646500D01*
X135018110Y-51646500D01*
X135059591Y-51650585D01*
X135059591Y-51650585D01*
G37*
G36*
X133379591Y-51650585D02*
G01*
X133413569Y-51660893D01*
X133444890Y-51677634D01*
X133472339Y-51700161D01*
X133494866Y-51727610D01*
X133511607Y-51758931D01*
X133521915Y-51792909D01*
X133526000Y-51834390D01*
X133526000Y-52435610D01*
X133521915Y-52477091D01*
X133511607Y-52511069D01*
X133494866Y-52542390D01*
X133472339Y-52569839D01*
X133444890Y-52592366D01*
X133413569Y-52609107D01*
X133379591Y-52619415D01*
X133338110Y-52623500D01*
X132661890Y-52623500D01*
X132620409Y-52619415D01*
X132586431Y-52609107D01*
X132555110Y-52592366D01*
X132527661Y-52569839D01*
X132505134Y-52542390D01*
X132488393Y-52511069D01*
X132478085Y-52477091D01*
X132474000Y-52435610D01*
X132474000Y-51834390D01*
X132478085Y-51792909D01*
X132488393Y-51758931D01*
X132505134Y-51727610D01*
X132527661Y-51700161D01*
X132555110Y-51677634D01*
X132586431Y-51660893D01*
X132620409Y-51650585D01*
X132661890Y-51646500D01*
X133338110Y-51646500D01*
X133379591Y-51650585D01*
X133379591Y-51650585D01*
G37*
G36*
X150219591Y-51580585D02*
G01*
X150253569Y-51590893D01*
X150284890Y-51607634D01*
X150312339Y-51630161D01*
X150334866Y-51657610D01*
X150351607Y-51688931D01*
X150361915Y-51722909D01*
X150366000Y-51764390D01*
X150366000Y-52365610D01*
X150361915Y-52407091D01*
X150351607Y-52441069D01*
X150334866Y-52472390D01*
X150312339Y-52499839D01*
X150284890Y-52522366D01*
X150253569Y-52539107D01*
X150219591Y-52549415D01*
X150178110Y-52553500D01*
X149501890Y-52553500D01*
X149460409Y-52549415D01*
X149426431Y-52539107D01*
X149395110Y-52522366D01*
X149367661Y-52499839D01*
X149345134Y-52472390D01*
X149328393Y-52441069D01*
X149318085Y-52407091D01*
X149314000Y-52365610D01*
X149314000Y-51764390D01*
X149318085Y-51722909D01*
X149328393Y-51688931D01*
X149345134Y-51657610D01*
X149367661Y-51630161D01*
X149395110Y-51607634D01*
X149426431Y-51590893D01*
X149460409Y-51580585D01*
X149501890Y-51576500D01*
X150178110Y-51576500D01*
X150219591Y-51580585D01*
X150219591Y-51580585D01*
G37*
G36*
X148709591Y-51580585D02*
G01*
X148743569Y-51590893D01*
X148774890Y-51607634D01*
X148802339Y-51630161D01*
X148824866Y-51657610D01*
X148841607Y-51688931D01*
X148851915Y-51722909D01*
X148856000Y-51764390D01*
X148856000Y-52365610D01*
X148851915Y-52407091D01*
X148841607Y-52441069D01*
X148824866Y-52472390D01*
X148802339Y-52499839D01*
X148774890Y-52522366D01*
X148743569Y-52539107D01*
X148709591Y-52549415D01*
X148668110Y-52553500D01*
X147991890Y-52553500D01*
X147950409Y-52549415D01*
X147916431Y-52539107D01*
X147885110Y-52522366D01*
X147857661Y-52499839D01*
X147835134Y-52472390D01*
X147818393Y-52441069D01*
X147808085Y-52407091D01*
X147804000Y-52365610D01*
X147804000Y-51764390D01*
X147808085Y-51722909D01*
X147818393Y-51688931D01*
X147835134Y-51657610D01*
X147857661Y-51630161D01*
X147885110Y-51607634D01*
X147916431Y-51590893D01*
X147950409Y-51580585D01*
X147991890Y-51576500D01*
X148668110Y-51576500D01*
X148709591Y-51580585D01*
X148709591Y-51580585D01*
G37*
G36*
X143709591Y-51450585D02*
G01*
X143743569Y-51460893D01*
X143774890Y-51477634D01*
X143802339Y-51500161D01*
X143824866Y-51527610D01*
X143841607Y-51558931D01*
X143851915Y-51592909D01*
X143856000Y-51634390D01*
X143856000Y-52235610D01*
X143851915Y-52277091D01*
X143841607Y-52311069D01*
X143824866Y-52342390D01*
X143802339Y-52369839D01*
X143774890Y-52392366D01*
X143743569Y-52409107D01*
X143709591Y-52419415D01*
X143668110Y-52423500D01*
X142991890Y-52423500D01*
X142950409Y-52419415D01*
X142916431Y-52409107D01*
X142885110Y-52392366D01*
X142857661Y-52369839D01*
X142835134Y-52342390D01*
X142818393Y-52311069D01*
X142808085Y-52277091D01*
X142804000Y-52235610D01*
X142804000Y-51634390D01*
X142808085Y-51592909D01*
X142818393Y-51558931D01*
X142835134Y-51527610D01*
X142857661Y-51500161D01*
X142885110Y-51477634D01*
X142916431Y-51460893D01*
X142950409Y-51450585D01*
X142991890Y-51446500D01*
X143668110Y-51446500D01*
X143709591Y-51450585D01*
X143709591Y-51450585D01*
G37*
G36*
X145259591Y-51370585D02*
G01*
X145293569Y-51380893D01*
X145324890Y-51397634D01*
X145352339Y-51420161D01*
X145374866Y-51447610D01*
X145391607Y-51478931D01*
X145401915Y-51512909D01*
X145406000Y-51554390D01*
X145406000Y-52155610D01*
X145401915Y-52197091D01*
X145391607Y-52231069D01*
X145374866Y-52262390D01*
X145352339Y-52289839D01*
X145324890Y-52312366D01*
X145293569Y-52329107D01*
X145259591Y-52339415D01*
X145218110Y-52343500D01*
X144541890Y-52343500D01*
X144500409Y-52339415D01*
X144466431Y-52329107D01*
X144435110Y-52312366D01*
X144407661Y-52289839D01*
X144385134Y-52262390D01*
X144368393Y-52231069D01*
X144358085Y-52197091D01*
X144354000Y-52155610D01*
X144354000Y-51554390D01*
X144358085Y-51512909D01*
X144368393Y-51478931D01*
X144385134Y-51447610D01*
X144407661Y-51420161D01*
X144435110Y-51397634D01*
X144466431Y-51380893D01*
X144500409Y-51370585D01*
X144541890Y-51366500D01*
X145218110Y-51366500D01*
X145259591Y-51370585D01*
X145259591Y-51370585D01*
G37*
G36*
X176379694Y-49888633D02*
G01*
X176552095Y-49940931D01*
X176710983Y-50025858D01*
X176850249Y-50140151D01*
X176964542Y-50279417D01*
X177049469Y-50438305D01*
X177101767Y-50610706D01*
X177119425Y-50790000D01*
X177101767Y-50969294D01*
X177049469Y-51141695D01*
X176964542Y-51300583D01*
X176850249Y-51439849D01*
X176710983Y-51554142D01*
X176552095Y-51639069D01*
X176379694Y-51691367D01*
X176245331Y-51704600D01*
X174834669Y-51704600D01*
X174700306Y-51691367D01*
X174527905Y-51639069D01*
X174369017Y-51554142D01*
X174229751Y-51439849D01*
X174115458Y-51300583D01*
X174030531Y-51141695D01*
X173978233Y-50969294D01*
X173960575Y-50790000D01*
X173978233Y-50610706D01*
X174030531Y-50438305D01*
X174115458Y-50279417D01*
X174229751Y-50140151D01*
X174369017Y-50025858D01*
X174527905Y-49940931D01*
X174700306Y-49888633D01*
X174834669Y-49875400D01*
X176245331Y-49875400D01*
X176379694Y-49888633D01*
X176379694Y-49888633D01*
G37*
G36*
X163879694Y-49888633D02*
G01*
X164052095Y-49940931D01*
X164210983Y-50025858D01*
X164350249Y-50140151D01*
X164464542Y-50279417D01*
X164549469Y-50438305D01*
X164601767Y-50610706D01*
X164619425Y-50790000D01*
X164601767Y-50969294D01*
X164549469Y-51141695D01*
X164464542Y-51300583D01*
X164350249Y-51439849D01*
X164210983Y-51554142D01*
X164052095Y-51639069D01*
X163879694Y-51691367D01*
X163745331Y-51704600D01*
X162334669Y-51704600D01*
X162200306Y-51691367D01*
X162027905Y-51639069D01*
X161869017Y-51554142D01*
X161729751Y-51439849D01*
X161615458Y-51300583D01*
X161530531Y-51141695D01*
X161478233Y-50969294D01*
X161460575Y-50790000D01*
X161478233Y-50610706D01*
X161530531Y-50438305D01*
X161615458Y-50279417D01*
X161729751Y-50140151D01*
X161869017Y-50025858D01*
X162027905Y-49940931D01*
X162200306Y-49888633D01*
X162334669Y-49875400D01*
X163745331Y-49875400D01*
X163879694Y-49888633D01*
X163879694Y-49888633D01*
G37*
G36*
X126040442Y-49415518D02*
G01*
X126106627Y-49422037D01*
X126276466Y-49473557D01*
X126432991Y-49557222D01*
X126468729Y-49586552D01*
X126570186Y-49669814D01*
X126653448Y-49771271D01*
X126682778Y-49807009D01*
X126766443Y-49963534D01*
X126817963Y-50133373D01*
X126835359Y-50310000D01*
X126817963Y-50486627D01*
X126766443Y-50656466D01*
X126682778Y-50812991D01*
X126670690Y-50827720D01*
X126570186Y-50950186D01*
X126473065Y-51029890D01*
X126432991Y-51062778D01*
X126276466Y-51146443D01*
X126106627Y-51197963D01*
X126040443Y-51204481D01*
X125974260Y-51211000D01*
X125885740Y-51211000D01*
X125819558Y-51204482D01*
X125753373Y-51197963D01*
X125583534Y-51146443D01*
X125427009Y-51062778D01*
X125386935Y-51029890D01*
X125289814Y-50950186D01*
X125189310Y-50827720D01*
X125177222Y-50812991D01*
X125093557Y-50656466D01*
X125042037Y-50486627D01*
X125024641Y-50310000D01*
X125042037Y-50133373D01*
X125093557Y-49963534D01*
X125177222Y-49807009D01*
X125206552Y-49771271D01*
X125289814Y-49669814D01*
X125391271Y-49586552D01*
X125427009Y-49557222D01*
X125583534Y-49473557D01*
X125753373Y-49422037D01*
X125819558Y-49415518D01*
X125885740Y-49409000D01*
X125974260Y-49409000D01*
X126040442Y-49415518D01*
X126040442Y-49415518D01*
G37*
G36*
X140359591Y-50138085D02*
G01*
X140393569Y-50148393D01*
X140424890Y-50165134D01*
X140452339Y-50187661D01*
X140474866Y-50215110D01*
X140491607Y-50246431D01*
X140501915Y-50280409D01*
X140506000Y-50321890D01*
X140506000Y-50923110D01*
X140501915Y-50964591D01*
X140491607Y-50998569D01*
X140474866Y-51029890D01*
X140452339Y-51057339D01*
X140424890Y-51079866D01*
X140393569Y-51096607D01*
X140359591Y-51106915D01*
X140318110Y-51111000D01*
X139641890Y-51111000D01*
X139600409Y-51106915D01*
X139566431Y-51096607D01*
X139535110Y-51079866D01*
X139507661Y-51057339D01*
X139485134Y-51029890D01*
X139468393Y-50998569D01*
X139458085Y-50964591D01*
X139454000Y-50923110D01*
X139454000Y-50321890D01*
X139458085Y-50280409D01*
X139468393Y-50246431D01*
X139485134Y-50215110D01*
X139507661Y-50187661D01*
X139535110Y-50165134D01*
X139566431Y-50148393D01*
X139600409Y-50138085D01*
X139641890Y-50134000D01*
X140318110Y-50134000D01*
X140359591Y-50138085D01*
X140359591Y-50138085D01*
G37*
G36*
X138649591Y-50105585D02*
G01*
X138683569Y-50115893D01*
X138714890Y-50132634D01*
X138742339Y-50155161D01*
X138764866Y-50182610D01*
X138781607Y-50213931D01*
X138791915Y-50247909D01*
X138796000Y-50289390D01*
X138796000Y-50890610D01*
X138791915Y-50932091D01*
X138781607Y-50966069D01*
X138764866Y-50997390D01*
X138742339Y-51024839D01*
X138714890Y-51047366D01*
X138683569Y-51064107D01*
X138649591Y-51074415D01*
X138608110Y-51078500D01*
X137931890Y-51078500D01*
X137890409Y-51074415D01*
X137856431Y-51064107D01*
X137825110Y-51047366D01*
X137797661Y-51024839D01*
X137775134Y-50997390D01*
X137758393Y-50966069D01*
X137748085Y-50932091D01*
X137744000Y-50890610D01*
X137744000Y-50289390D01*
X137748085Y-50247909D01*
X137758393Y-50213931D01*
X137775134Y-50182610D01*
X137797661Y-50155161D01*
X137825110Y-50132634D01*
X137856431Y-50115893D01*
X137890409Y-50105585D01*
X137931890Y-50101500D01*
X138608110Y-50101500D01*
X138649591Y-50105585D01*
X138649591Y-50105585D01*
G37*
G36*
X135059591Y-50075585D02*
G01*
X135093569Y-50085893D01*
X135124890Y-50102634D01*
X135152339Y-50125161D01*
X135174866Y-50152610D01*
X135191607Y-50183931D01*
X135201915Y-50217909D01*
X135206000Y-50259390D01*
X135206000Y-50860610D01*
X135201915Y-50902091D01*
X135191607Y-50936069D01*
X135174866Y-50967390D01*
X135152339Y-50994839D01*
X135124890Y-51017366D01*
X135093569Y-51034107D01*
X135059591Y-51044415D01*
X135018110Y-51048500D01*
X134341890Y-51048500D01*
X134300409Y-51044415D01*
X134266431Y-51034107D01*
X134235110Y-51017366D01*
X134207661Y-50994839D01*
X134185134Y-50967390D01*
X134168393Y-50936069D01*
X134158085Y-50902091D01*
X134154000Y-50860610D01*
X134154000Y-50259390D01*
X134158085Y-50217909D01*
X134168393Y-50183931D01*
X134185134Y-50152610D01*
X134207661Y-50125161D01*
X134235110Y-50102634D01*
X134266431Y-50085893D01*
X134300409Y-50075585D01*
X134341890Y-50071500D01*
X135018110Y-50071500D01*
X135059591Y-50075585D01*
X135059591Y-50075585D01*
G37*
G36*
X133379591Y-50075585D02*
G01*
X133413569Y-50085893D01*
X133444890Y-50102634D01*
X133472339Y-50125161D01*
X133494866Y-50152610D01*
X133511607Y-50183931D01*
X133521915Y-50217909D01*
X133526000Y-50259390D01*
X133526000Y-50860610D01*
X133521915Y-50902091D01*
X133511607Y-50936069D01*
X133494866Y-50967390D01*
X133472339Y-50994839D01*
X133444890Y-51017366D01*
X133413569Y-51034107D01*
X133379591Y-51044415D01*
X133338110Y-51048500D01*
X132661890Y-51048500D01*
X132620409Y-51044415D01*
X132586431Y-51034107D01*
X132555110Y-51017366D01*
X132527661Y-50994839D01*
X132505134Y-50967390D01*
X132488393Y-50936069D01*
X132478085Y-50902091D01*
X132474000Y-50860610D01*
X132474000Y-50259390D01*
X132478085Y-50217909D01*
X132488393Y-50183931D01*
X132505134Y-50152610D01*
X132527661Y-50125161D01*
X132555110Y-50102634D01*
X132586431Y-50085893D01*
X132620409Y-50075585D01*
X132661890Y-50071500D01*
X133338110Y-50071500D01*
X133379591Y-50075585D01*
X133379591Y-50075585D01*
G37*
G36*
X148709591Y-50005585D02*
G01*
X148743569Y-50015893D01*
X148774890Y-50032634D01*
X148802339Y-50055161D01*
X148824866Y-50082610D01*
X148841607Y-50113931D01*
X148851915Y-50147909D01*
X148856000Y-50189390D01*
X148856000Y-50790610D01*
X148851915Y-50832091D01*
X148841607Y-50866069D01*
X148824866Y-50897390D01*
X148802339Y-50924839D01*
X148774890Y-50947366D01*
X148743569Y-50964107D01*
X148709591Y-50974415D01*
X148668110Y-50978500D01*
X147991890Y-50978500D01*
X147950409Y-50974415D01*
X147916431Y-50964107D01*
X147885110Y-50947366D01*
X147857661Y-50924839D01*
X147835134Y-50897390D01*
X147818393Y-50866069D01*
X147808085Y-50832091D01*
X147804000Y-50790610D01*
X147804000Y-50189390D01*
X147808085Y-50147909D01*
X147818393Y-50113931D01*
X147835134Y-50082610D01*
X147857661Y-50055161D01*
X147885110Y-50032634D01*
X147916431Y-50015893D01*
X147950409Y-50005585D01*
X147991890Y-50001500D01*
X148668110Y-50001500D01*
X148709591Y-50005585D01*
X148709591Y-50005585D01*
G37*
G36*
X150219591Y-50005585D02*
G01*
X150253569Y-50015893D01*
X150284890Y-50032634D01*
X150312339Y-50055161D01*
X150334866Y-50082610D01*
X150351607Y-50113931D01*
X150361915Y-50147909D01*
X150366000Y-50189390D01*
X150366000Y-50790610D01*
X150361915Y-50832091D01*
X150351607Y-50866069D01*
X150334866Y-50897390D01*
X150312339Y-50924839D01*
X150284890Y-50947366D01*
X150253569Y-50964107D01*
X150219591Y-50974415D01*
X150178110Y-50978500D01*
X149501890Y-50978500D01*
X149460409Y-50974415D01*
X149426431Y-50964107D01*
X149395110Y-50947366D01*
X149367661Y-50924839D01*
X149345134Y-50897390D01*
X149328393Y-50866069D01*
X149318085Y-50832091D01*
X149314000Y-50790610D01*
X149314000Y-50189390D01*
X149318085Y-50147909D01*
X149328393Y-50113931D01*
X149345134Y-50082610D01*
X149367661Y-50055161D01*
X149395110Y-50032634D01*
X149426431Y-50015893D01*
X149460409Y-50005585D01*
X149501890Y-50001500D01*
X150178110Y-50001500D01*
X150219591Y-50005585D01*
X150219591Y-50005585D01*
G37*
G36*
X143709591Y-49875585D02*
G01*
X143743569Y-49885893D01*
X143774890Y-49902634D01*
X143802339Y-49925161D01*
X143824866Y-49952610D01*
X143841607Y-49983931D01*
X143851915Y-50017909D01*
X143856000Y-50059390D01*
X143856000Y-50660610D01*
X143851915Y-50702091D01*
X143841607Y-50736069D01*
X143824866Y-50767390D01*
X143802339Y-50794839D01*
X143774890Y-50817366D01*
X143743569Y-50834107D01*
X143709591Y-50844415D01*
X143668110Y-50848500D01*
X142991890Y-50848500D01*
X142950409Y-50844415D01*
X142916431Y-50834107D01*
X142885110Y-50817366D01*
X142857661Y-50794839D01*
X142835134Y-50767390D01*
X142818393Y-50736069D01*
X142808085Y-50702091D01*
X142804000Y-50660610D01*
X142804000Y-50059390D01*
X142808085Y-50017909D01*
X142818393Y-49983931D01*
X142835134Y-49952610D01*
X142857661Y-49925161D01*
X142885110Y-49902634D01*
X142916431Y-49885893D01*
X142950409Y-49875585D01*
X142991890Y-49871500D01*
X143668110Y-49871500D01*
X143709591Y-49875585D01*
X143709591Y-49875585D01*
G37*
G36*
X145259591Y-49795585D02*
G01*
X145293569Y-49805893D01*
X145324890Y-49822634D01*
X145352339Y-49845161D01*
X145374866Y-49872610D01*
X145391607Y-49903931D01*
X145401915Y-49937909D01*
X145406000Y-49979390D01*
X145406000Y-50580610D01*
X145401915Y-50622091D01*
X145391607Y-50656069D01*
X145374866Y-50687390D01*
X145352339Y-50714839D01*
X145324890Y-50737366D01*
X145293569Y-50754107D01*
X145259591Y-50764415D01*
X145218110Y-50768500D01*
X144541890Y-50768500D01*
X144500409Y-50764415D01*
X144466431Y-50754107D01*
X144435110Y-50737366D01*
X144407661Y-50714839D01*
X144385134Y-50687390D01*
X144368393Y-50656069D01*
X144358085Y-50622091D01*
X144354000Y-50580610D01*
X144354000Y-49979390D01*
X144358085Y-49937909D01*
X144368393Y-49903931D01*
X144385134Y-49872610D01*
X144407661Y-49845161D01*
X144435110Y-49822634D01*
X144466431Y-49805893D01*
X144500409Y-49795585D01*
X144541890Y-49791500D01*
X145218110Y-49791500D01*
X145259591Y-49795585D01*
X145259591Y-49795585D01*
G37*
G36*
X117961000Y-50641000D02*
G01*
X115659000Y-50641000D01*
X115659000Y-48739000D01*
X117961000Y-48739000D01*
X117961000Y-50641000D01*
X117961000Y-50641000D01*
G37*
G36*
X126040442Y-46875518D02*
G01*
X126106627Y-46882037D01*
X126276466Y-46933557D01*
X126432991Y-47017222D01*
X126468729Y-47046552D01*
X126570186Y-47129814D01*
X126653448Y-47231271D01*
X126682778Y-47267009D01*
X126766443Y-47423534D01*
X126817963Y-47593373D01*
X126835359Y-47770000D01*
X126817963Y-47946627D01*
X126766443Y-48116466D01*
X126682778Y-48272991D01*
X126653448Y-48308729D01*
X126570186Y-48410186D01*
X126468729Y-48493448D01*
X126432991Y-48522778D01*
X126276466Y-48606443D01*
X126106627Y-48657963D01*
X126040443Y-48664481D01*
X125974260Y-48671000D01*
X125885740Y-48671000D01*
X125819558Y-48664482D01*
X125753373Y-48657963D01*
X125583534Y-48606443D01*
X125427009Y-48522778D01*
X125391271Y-48493448D01*
X125289814Y-48410186D01*
X125206552Y-48308729D01*
X125177222Y-48272991D01*
X125093557Y-48116466D01*
X125042037Y-47946627D01*
X125024641Y-47770000D01*
X125042037Y-47593373D01*
X125093557Y-47423534D01*
X125177222Y-47267009D01*
X125206552Y-47231271D01*
X125289814Y-47129814D01*
X125391271Y-47046552D01*
X125427009Y-47017222D01*
X125583534Y-46933557D01*
X125753373Y-46882037D01*
X125819558Y-46875518D01*
X125885740Y-46869000D01*
X125974260Y-46869000D01*
X126040442Y-46875518D01*
X126040442Y-46875518D01*
G37*
G36*
X120761000Y-47991000D02*
G01*
X119359000Y-47991000D01*
X119359000Y-45589000D01*
X120761000Y-45589000D01*
X120761000Y-47991000D01*
X120761000Y-47991000D01*
G37*
G36*
X130499591Y-46923085D02*
G01*
X130533569Y-46933393D01*
X130564890Y-46950134D01*
X130592339Y-46972661D01*
X130614866Y-47000110D01*
X130631607Y-47031431D01*
X130641915Y-47065409D01*
X130646000Y-47106890D01*
X130646000Y-47708110D01*
X130641915Y-47749591D01*
X130631607Y-47783569D01*
X130614866Y-47814890D01*
X130592339Y-47842339D01*
X130564890Y-47864866D01*
X130533569Y-47881607D01*
X130499591Y-47891915D01*
X130458110Y-47896000D01*
X129781890Y-47896000D01*
X129740409Y-47891915D01*
X129706431Y-47881607D01*
X129675110Y-47864866D01*
X129647661Y-47842339D01*
X129625134Y-47814890D01*
X129608393Y-47783569D01*
X129598085Y-47749591D01*
X129594000Y-47708110D01*
X129594000Y-47106890D01*
X129598085Y-47065409D01*
X129608393Y-47031431D01*
X129625134Y-47000110D01*
X129647661Y-46972661D01*
X129675110Y-46950134D01*
X129706431Y-46933393D01*
X129740409Y-46923085D01*
X129781890Y-46919000D01*
X130458110Y-46919000D01*
X130499591Y-46923085D01*
X130499591Y-46923085D01*
G37*
G36*
X132352591Y-46588085D02*
G01*
X132386569Y-46598393D01*
X132417890Y-46615134D01*
X132445339Y-46637661D01*
X132467866Y-46665110D01*
X132484607Y-46696431D01*
X132494915Y-46730409D01*
X132499000Y-46771890D01*
X132499000Y-47448110D01*
X132494915Y-47489591D01*
X132484607Y-47523569D01*
X132467866Y-47554890D01*
X132445339Y-47582339D01*
X132417890Y-47604866D01*
X132386569Y-47621607D01*
X132352591Y-47631915D01*
X132311110Y-47636000D01*
X131709890Y-47636000D01*
X131668409Y-47631915D01*
X131634431Y-47621607D01*
X131603110Y-47604866D01*
X131575661Y-47582339D01*
X131553134Y-47554890D01*
X131536393Y-47523569D01*
X131526085Y-47489591D01*
X131522000Y-47448110D01*
X131522000Y-46771890D01*
X131526085Y-46730409D01*
X131536393Y-46696431D01*
X131553134Y-46665110D01*
X131575661Y-46637661D01*
X131603110Y-46615134D01*
X131634431Y-46598393D01*
X131668409Y-46588085D01*
X131709890Y-46584000D01*
X132311110Y-46584000D01*
X132352591Y-46588085D01*
X132352591Y-46588085D01*
G37*
G36*
X133927591Y-46588085D02*
G01*
X133961569Y-46598393D01*
X133992890Y-46615134D01*
X134020339Y-46637661D01*
X134042866Y-46665110D01*
X134059607Y-46696431D01*
X134069915Y-46730409D01*
X134074000Y-46771890D01*
X134074000Y-47448110D01*
X134069915Y-47489591D01*
X134059607Y-47523569D01*
X134042866Y-47554890D01*
X134020339Y-47582339D01*
X133992890Y-47604866D01*
X133961569Y-47621607D01*
X133927591Y-47631915D01*
X133886110Y-47636000D01*
X133284890Y-47636000D01*
X133243409Y-47631915D01*
X133209431Y-47621607D01*
X133178110Y-47604866D01*
X133150661Y-47582339D01*
X133128134Y-47554890D01*
X133111393Y-47523569D01*
X133101085Y-47489591D01*
X133097000Y-47448110D01*
X133097000Y-46771890D01*
X133101085Y-46730409D01*
X133111393Y-46696431D01*
X133128134Y-46665110D01*
X133150661Y-46637661D01*
X133178110Y-46615134D01*
X133209431Y-46598393D01*
X133243409Y-46588085D01*
X133284890Y-46584000D01*
X133886110Y-46584000D01*
X133927591Y-46588085D01*
X133927591Y-46588085D01*
G37*
G36*
X154436000Y-47141000D02*
G01*
X151754000Y-47141000D01*
X151754000Y-46039000D01*
X154436000Y-46039000D01*
X154436000Y-47141000D01*
X154436000Y-47141000D01*
G37*
G36*
X158606000Y-47141000D02*
G01*
X155924000Y-47141000D01*
X155924000Y-46039000D01*
X158606000Y-46039000D01*
X158606000Y-47141000D01*
X158606000Y-47141000D01*
G37*
G36*
X176379694Y-44888633D02*
G01*
X176552095Y-44940931D01*
X176710983Y-45025858D01*
X176850249Y-45140151D01*
X176964542Y-45279417D01*
X177049469Y-45438305D01*
X177101767Y-45610706D01*
X177119425Y-45790000D01*
X177101767Y-45969294D01*
X177049469Y-46141695D01*
X176964542Y-46300583D01*
X176850249Y-46439849D01*
X176710983Y-46554142D01*
X176552095Y-46639069D01*
X176379694Y-46691367D01*
X176245331Y-46704600D01*
X174834669Y-46704600D01*
X174700306Y-46691367D01*
X174527905Y-46639069D01*
X174369017Y-46554142D01*
X174229751Y-46439849D01*
X174115458Y-46300583D01*
X174030531Y-46141695D01*
X173978233Y-45969294D01*
X173960575Y-45790000D01*
X173978233Y-45610706D01*
X174030531Y-45438305D01*
X174115458Y-45279417D01*
X174229751Y-45140151D01*
X174369017Y-45025858D01*
X174527905Y-44940931D01*
X174700306Y-44888633D01*
X174834669Y-44875400D01*
X176245331Y-44875400D01*
X176379694Y-44888633D01*
X176379694Y-44888633D01*
G37*
G36*
X163879694Y-44888633D02*
G01*
X164052095Y-44940931D01*
X164210983Y-45025858D01*
X164350249Y-45140151D01*
X164464542Y-45279417D01*
X164549469Y-45438305D01*
X164601767Y-45610706D01*
X164619425Y-45790000D01*
X164601767Y-45969294D01*
X164549469Y-46141695D01*
X164464542Y-46300583D01*
X164350249Y-46439849D01*
X164210983Y-46554142D01*
X164052095Y-46639069D01*
X163879694Y-46691367D01*
X163745331Y-46704600D01*
X162334669Y-46704600D01*
X162200306Y-46691367D01*
X162027905Y-46639069D01*
X161869017Y-46554142D01*
X161729751Y-46439849D01*
X161615458Y-46300583D01*
X161530531Y-46141695D01*
X161478233Y-45969294D01*
X161460575Y-45790000D01*
X161478233Y-45610706D01*
X161530531Y-45438305D01*
X161615458Y-45279417D01*
X161729751Y-45140151D01*
X161869017Y-45025858D01*
X162027905Y-44940931D01*
X162200306Y-44888633D01*
X162334669Y-44875400D01*
X163745331Y-44875400D01*
X163879694Y-44888633D01*
X163879694Y-44888633D01*
G37*
G36*
X130499591Y-45348085D02*
G01*
X130533569Y-45358393D01*
X130564890Y-45375134D01*
X130592339Y-45397661D01*
X130614866Y-45425110D01*
X130631607Y-45456431D01*
X130641915Y-45490409D01*
X130646000Y-45531890D01*
X130646000Y-46133110D01*
X130641915Y-46174591D01*
X130631607Y-46208569D01*
X130614866Y-46239890D01*
X130592339Y-46267339D01*
X130564890Y-46289866D01*
X130533569Y-46306607D01*
X130499591Y-46316915D01*
X130458110Y-46321000D01*
X129781890Y-46321000D01*
X129740409Y-46316915D01*
X129706431Y-46306607D01*
X129675110Y-46289866D01*
X129647661Y-46267339D01*
X129625134Y-46239890D01*
X129608393Y-46208569D01*
X129598085Y-46174591D01*
X129594000Y-46133110D01*
X129594000Y-45531890D01*
X129598085Y-45490409D01*
X129608393Y-45456431D01*
X129625134Y-45425110D01*
X129647661Y-45397661D01*
X129675110Y-45375134D01*
X129706431Y-45358393D01*
X129740409Y-45348085D01*
X129781890Y-45344000D01*
X130458110Y-45344000D01*
X130499591Y-45348085D01*
X130499591Y-45348085D01*
G37*
G36*
X126040442Y-44335518D02*
G01*
X126106627Y-44342037D01*
X126276466Y-44393557D01*
X126432991Y-44477222D01*
X126468729Y-44506552D01*
X126570186Y-44589814D01*
X126631754Y-44664836D01*
X126682778Y-44727009D01*
X126766443Y-44883534D01*
X126817963Y-45053373D01*
X126835359Y-45230000D01*
X126817963Y-45406627D01*
X126766443Y-45576466D01*
X126682778Y-45732991D01*
X126653448Y-45768729D01*
X126570186Y-45870186D01*
X126468729Y-45953448D01*
X126432991Y-45982778D01*
X126276466Y-46066443D01*
X126106627Y-46117963D01*
X126041260Y-46124401D01*
X125974260Y-46131000D01*
X125885740Y-46131000D01*
X125818740Y-46124401D01*
X125753373Y-46117963D01*
X125583534Y-46066443D01*
X125427009Y-45982778D01*
X125391271Y-45953448D01*
X125289814Y-45870186D01*
X125206552Y-45768729D01*
X125177222Y-45732991D01*
X125093557Y-45576466D01*
X125042037Y-45406627D01*
X125024641Y-45230000D01*
X125042037Y-45053373D01*
X125093557Y-44883534D01*
X125177222Y-44727009D01*
X125228246Y-44664836D01*
X125289814Y-44589814D01*
X125391271Y-44506552D01*
X125427009Y-44477222D01*
X125583534Y-44393557D01*
X125753373Y-44342037D01*
X125819558Y-44335518D01*
X125885740Y-44329000D01*
X125974260Y-44329000D01*
X126040442Y-44335518D01*
X126040442Y-44335518D01*
G37*
G36*
X134186000Y-45851000D02*
G01*
X133434000Y-45851000D01*
X133434000Y-44689000D01*
X134186000Y-44689000D01*
X134186000Y-45851000D01*
X134186000Y-45851000D01*
G37*
G36*
X132286000Y-45851000D02*
G01*
X131534000Y-45851000D01*
X131534000Y-44689000D01*
X132286000Y-44689000D01*
X132286000Y-45851000D01*
X132286000Y-45851000D01*
G37*
G36*
X139463000Y-45703000D02*
G01*
X137837000Y-45703000D01*
X137837000Y-44077000D01*
X139463000Y-44077000D01*
X139463000Y-45703000D01*
X139463000Y-45703000D01*
G37*
G36*
X140887142Y-44108242D02*
G01*
X141035101Y-44169529D01*
X141168255Y-44258499D01*
X141281501Y-44371745D01*
X141370471Y-44504899D01*
X141431758Y-44652858D01*
X141463000Y-44809925D01*
X141463000Y-44970075D01*
X141431758Y-45127142D01*
X141370471Y-45275101D01*
X141281501Y-45408255D01*
X141168255Y-45521501D01*
X141035101Y-45610471D01*
X140887142Y-45671758D01*
X140730075Y-45703000D01*
X140569925Y-45703000D01*
X140412858Y-45671758D01*
X140264899Y-45610471D01*
X140131745Y-45521501D01*
X140018499Y-45408255D01*
X139929529Y-45275101D01*
X139868242Y-45127142D01*
X139837000Y-44970075D01*
X139837000Y-44809925D01*
X139868242Y-44652858D01*
X139929529Y-44504899D01*
X140018499Y-44371745D01*
X140131745Y-44258499D01*
X140264899Y-44169529D01*
X140412858Y-44108242D01*
X140569925Y-44077000D01*
X140730075Y-44077000D01*
X140887142Y-44108242D01*
X140887142Y-44108242D01*
G37*
G36*
X144887142Y-44108242D02*
G01*
X145035101Y-44169529D01*
X145168255Y-44258499D01*
X145281501Y-44371745D01*
X145370471Y-44504899D01*
X145431758Y-44652858D01*
X145463000Y-44809925D01*
X145463000Y-44970075D01*
X145431758Y-45127142D01*
X145370471Y-45275101D01*
X145281501Y-45408255D01*
X145168255Y-45521501D01*
X145035101Y-45610471D01*
X144887142Y-45671758D01*
X144730075Y-45703000D01*
X144569925Y-45703000D01*
X144412858Y-45671758D01*
X144264899Y-45610471D01*
X144131745Y-45521501D01*
X144018499Y-45408255D01*
X143929529Y-45275101D01*
X143868242Y-45127142D01*
X143837000Y-44970075D01*
X143837000Y-44809925D01*
X143868242Y-44652858D01*
X143929529Y-44504899D01*
X144018499Y-44371745D01*
X144131745Y-44258499D01*
X144264899Y-44169529D01*
X144412858Y-44108242D01*
X144569925Y-44077000D01*
X144730075Y-44077000D01*
X144887142Y-44108242D01*
X144887142Y-44108242D01*
G37*
G36*
X142887142Y-44108242D02*
G01*
X143035101Y-44169529D01*
X143168255Y-44258499D01*
X143281501Y-44371745D01*
X143370471Y-44504899D01*
X143431758Y-44652858D01*
X143463000Y-44809925D01*
X143463000Y-44970075D01*
X143431758Y-45127142D01*
X143370471Y-45275101D01*
X143281501Y-45408255D01*
X143168255Y-45521501D01*
X143035101Y-45610471D01*
X142887142Y-45671758D01*
X142730075Y-45703000D01*
X142569925Y-45703000D01*
X142412858Y-45671758D01*
X142264899Y-45610471D01*
X142131745Y-45521501D01*
X142018499Y-45408255D01*
X141929529Y-45275101D01*
X141868242Y-45127142D01*
X141837000Y-44970075D01*
X141837000Y-44809925D01*
X141868242Y-44652858D01*
X141929529Y-44504899D01*
X142018499Y-44371745D01*
X142131745Y-44258499D01*
X142264899Y-44169529D01*
X142412858Y-44108242D01*
X142569925Y-44077000D01*
X142730075Y-44077000D01*
X142887142Y-44108242D01*
X142887142Y-44108242D01*
G37*
G36*
X154436000Y-45141000D02*
G01*
X151754000Y-45141000D01*
X151754000Y-44039000D01*
X154436000Y-44039000D01*
X154436000Y-45141000D01*
X154436000Y-45141000D01*
G37*
G36*
X158606000Y-45141000D02*
G01*
X155924000Y-45141000D01*
X155924000Y-44039000D01*
X158606000Y-44039000D01*
X158606000Y-45141000D01*
X158606000Y-45141000D01*
G37*
G36*
X117961000Y-44841000D02*
G01*
X115659000Y-44841000D01*
X115659000Y-42939000D01*
X117961000Y-42939000D01*
X117961000Y-44841000D01*
X117961000Y-44841000D01*
G37*
G36*
X130439591Y-43733085D02*
G01*
X130473569Y-43743393D01*
X130504890Y-43760134D01*
X130532339Y-43782661D01*
X130554866Y-43810110D01*
X130571607Y-43841431D01*
X130581915Y-43875409D01*
X130586000Y-43916890D01*
X130586000Y-44518110D01*
X130581915Y-44559591D01*
X130571607Y-44593569D01*
X130554866Y-44624890D01*
X130532339Y-44652339D01*
X130504890Y-44674866D01*
X130473569Y-44691607D01*
X130439591Y-44701915D01*
X130398110Y-44706000D01*
X129721890Y-44706000D01*
X129680409Y-44701915D01*
X129646431Y-44691607D01*
X129615110Y-44674866D01*
X129587661Y-44652339D01*
X129565134Y-44624890D01*
X129548393Y-44593569D01*
X129538085Y-44559591D01*
X129534000Y-44518110D01*
X129534000Y-43916890D01*
X129538085Y-43875409D01*
X129548393Y-43841431D01*
X129565134Y-43810110D01*
X129587661Y-43782661D01*
X129615110Y-43760134D01*
X129646431Y-43743393D01*
X129680409Y-43733085D01*
X129721890Y-43729000D01*
X130398110Y-43729000D01*
X130439591Y-43733085D01*
X130439591Y-43733085D01*
G37*
G36*
X134186000Y-43651000D02*
G01*
X131534000Y-43651000D01*
X131534000Y-42489000D01*
X134186000Y-42489000D01*
X134186000Y-43651000D01*
X134186000Y-43651000D01*
G37*
G36*
X126831000Y-43591000D02*
G01*
X125029000Y-43591000D01*
X125029000Y-41789000D01*
X126831000Y-41789000D01*
X126831000Y-43591000D01*
X126831000Y-43591000D01*
G37*
G36*
X158606000Y-43141000D02*
G01*
X155924000Y-43141000D01*
X155924000Y-42039000D01*
X158606000Y-42039000D01*
X158606000Y-43141000D01*
X158606000Y-43141000D01*
G37*
G36*
X154436000Y-43141000D02*
G01*
X151754000Y-43141000D01*
X151754000Y-42039000D01*
X154436000Y-42039000D01*
X154436000Y-43141000D01*
X154436000Y-43141000D01*
G37*
G36*
X130439591Y-42158085D02*
G01*
X130473569Y-42168393D01*
X130504890Y-42185134D01*
X130532339Y-42207661D01*
X130554866Y-42235110D01*
X130571607Y-42266431D01*
X130581915Y-42300409D01*
X130586000Y-42341890D01*
X130586000Y-42943110D01*
X130581915Y-42984591D01*
X130571607Y-43018569D01*
X130554866Y-43049890D01*
X130532339Y-43077339D01*
X130504890Y-43099866D01*
X130473569Y-43116607D01*
X130439591Y-43126915D01*
X130398110Y-43131000D01*
X129721890Y-43131000D01*
X129680409Y-43126915D01*
X129646431Y-43116607D01*
X129615110Y-43099866D01*
X129587661Y-43077339D01*
X129565134Y-43049890D01*
X129548393Y-43018569D01*
X129538085Y-42984591D01*
X129534000Y-42943110D01*
X129534000Y-42341890D01*
X129538085Y-42300409D01*
X129548393Y-42266431D01*
X129565134Y-42235110D01*
X129587661Y-42207661D01*
X129615110Y-42185134D01*
X129646431Y-42168393D01*
X129680409Y-42158085D01*
X129721890Y-42154000D01*
X130398110Y-42154000D01*
X130439591Y-42158085D01*
X130439591Y-42158085D01*
G37*
M02*
