G04 #@! TF.GenerationSoftware,KiCad,Pcbnew,5.1.2-f72e74a~84~ubuntu18.04.1*
G04 #@! TF.CreationDate,2019-07-18T22:23:35+09:00*
G04 #@! TF.ProjectId,WiredControllerPcb,57697265-6443-46f6-9e74-726f6c6c6572,rev?*
G04 #@! TF.SameCoordinates,Original*
G04 #@! TF.FileFunction,Soldermask,Bot*
G04 #@! TF.FilePolarity,Negative*
%FSLAX46Y46*%
G04 Gerber Fmt 4.6, Leading zero omitted, Abs format (unit mm)*
G04 Created by KiCad (PCBNEW 5.1.2-f72e74a~84~ubuntu18.04.1) date 2019-07-18 22:23:35*
%MOMM*%
%LPD*%
G04 APERTURE LIST*
%ADD10C,0.100000*%
G04 APERTURE END LIST*
D10*
G36*
X175839694Y-75818633D02*
G01*
X176012095Y-75870931D01*
X176170983Y-75955858D01*
X176310249Y-76070151D01*
X176424542Y-76209417D01*
X176509469Y-76368305D01*
X176561767Y-76540706D01*
X176579425Y-76720000D01*
X176561767Y-76899294D01*
X176509469Y-77071695D01*
X176424542Y-77230583D01*
X176310249Y-77369849D01*
X176170983Y-77484142D01*
X176012095Y-77569069D01*
X175839694Y-77621367D01*
X175705331Y-77634600D01*
X174294669Y-77634600D01*
X174160306Y-77621367D01*
X173987905Y-77569069D01*
X173829017Y-77484142D01*
X173689751Y-77369849D01*
X173575458Y-77230583D01*
X173490531Y-77071695D01*
X173438233Y-76899294D01*
X173420575Y-76720000D01*
X173438233Y-76540706D01*
X173490531Y-76368305D01*
X173575458Y-76209417D01*
X173689751Y-76070151D01*
X173829017Y-75955858D01*
X173987905Y-75870931D01*
X174160306Y-75818633D01*
X174294669Y-75805400D01*
X175705331Y-75805400D01*
X175839694Y-75818633D01*
X175839694Y-75818633D01*
G37*
G36*
X163339694Y-75818633D02*
G01*
X163512095Y-75870931D01*
X163670983Y-75955858D01*
X163810249Y-76070151D01*
X163924542Y-76209417D01*
X164009469Y-76368305D01*
X164061767Y-76540706D01*
X164079425Y-76720000D01*
X164061767Y-76899294D01*
X164009469Y-77071695D01*
X163924542Y-77230583D01*
X163810249Y-77369849D01*
X163670983Y-77484142D01*
X163512095Y-77569069D01*
X163339694Y-77621367D01*
X163205331Y-77634600D01*
X161794669Y-77634600D01*
X161660306Y-77621367D01*
X161487905Y-77569069D01*
X161329017Y-77484142D01*
X161189751Y-77369849D01*
X161075458Y-77230583D01*
X160990531Y-77071695D01*
X160938233Y-76899294D01*
X160920575Y-76720000D01*
X160938233Y-76540706D01*
X160990531Y-76368305D01*
X161075458Y-76209417D01*
X161189751Y-76070151D01*
X161329017Y-75955858D01*
X161487905Y-75870931D01*
X161660306Y-75818633D01*
X161794669Y-75805400D01*
X163205331Y-75805400D01*
X163339694Y-75818633D01*
X163339694Y-75818633D01*
G37*
G36*
X116387142Y-71143242D02*
G01*
X116535101Y-71204529D01*
X116668255Y-71293499D01*
X116781501Y-71406745D01*
X116870471Y-71539899D01*
X116931758Y-71687858D01*
X116963000Y-71844925D01*
X116963000Y-72005075D01*
X116931758Y-72162142D01*
X116870471Y-72310101D01*
X116781501Y-72443255D01*
X116668255Y-72556501D01*
X116535101Y-72645471D01*
X116387142Y-72706758D01*
X116230075Y-72738000D01*
X116069925Y-72738000D01*
X115912858Y-72706758D01*
X115764899Y-72645471D01*
X115631745Y-72556501D01*
X115518499Y-72443255D01*
X115429529Y-72310101D01*
X115368242Y-72162142D01*
X115337000Y-72005075D01*
X115337000Y-71844925D01*
X115368242Y-71687858D01*
X115429529Y-71539899D01*
X115518499Y-71406745D01*
X115631745Y-71293499D01*
X115764899Y-71204529D01*
X115912858Y-71143242D01*
X116069925Y-71112000D01*
X116230075Y-71112000D01*
X116387142Y-71143242D01*
X116387142Y-71143242D01*
G37*
G36*
X118387142Y-71143242D02*
G01*
X118535101Y-71204529D01*
X118668255Y-71293499D01*
X118781501Y-71406745D01*
X118870471Y-71539899D01*
X118931758Y-71687858D01*
X118963000Y-71844925D01*
X118963000Y-72005075D01*
X118931758Y-72162142D01*
X118870471Y-72310101D01*
X118781501Y-72443255D01*
X118668255Y-72556501D01*
X118535101Y-72645471D01*
X118387142Y-72706758D01*
X118230075Y-72738000D01*
X118069925Y-72738000D01*
X117912858Y-72706758D01*
X117764899Y-72645471D01*
X117631745Y-72556501D01*
X117518499Y-72443255D01*
X117429529Y-72310101D01*
X117368242Y-72162142D01*
X117337000Y-72005075D01*
X117337000Y-71844925D01*
X117368242Y-71687858D01*
X117429529Y-71539899D01*
X117518499Y-71406745D01*
X117631745Y-71293499D01*
X117764899Y-71204529D01*
X117912858Y-71143242D01*
X118069925Y-71112000D01*
X118230075Y-71112000D01*
X118387142Y-71143242D01*
X118387142Y-71143242D01*
G37*
G36*
X120387142Y-71143242D02*
G01*
X120535101Y-71204529D01*
X120668255Y-71293499D01*
X120781501Y-71406745D01*
X120870471Y-71539899D01*
X120931758Y-71687858D01*
X120963000Y-71844925D01*
X120963000Y-72005075D01*
X120931758Y-72162142D01*
X120870471Y-72310101D01*
X120781501Y-72443255D01*
X120668255Y-72556501D01*
X120535101Y-72645471D01*
X120387142Y-72706758D01*
X120230075Y-72738000D01*
X120069925Y-72738000D01*
X119912858Y-72706758D01*
X119764899Y-72645471D01*
X119631745Y-72556501D01*
X119518499Y-72443255D01*
X119429529Y-72310101D01*
X119368242Y-72162142D01*
X119337000Y-72005075D01*
X119337000Y-71844925D01*
X119368242Y-71687858D01*
X119429529Y-71539899D01*
X119518499Y-71406745D01*
X119631745Y-71293499D01*
X119764899Y-71204529D01*
X119912858Y-71143242D01*
X120069925Y-71112000D01*
X120230075Y-71112000D01*
X120387142Y-71143242D01*
X120387142Y-71143242D01*
G37*
G36*
X175839694Y-70818633D02*
G01*
X176012095Y-70870931D01*
X176170983Y-70955858D01*
X176310249Y-71070151D01*
X176424542Y-71209417D01*
X176509469Y-71368305D01*
X176561767Y-71540706D01*
X176579425Y-71720000D01*
X176561767Y-71899294D01*
X176509469Y-72071695D01*
X176424542Y-72230583D01*
X176310249Y-72369849D01*
X176170983Y-72484142D01*
X176012095Y-72569069D01*
X175839694Y-72621367D01*
X175705331Y-72634600D01*
X174294669Y-72634600D01*
X174160306Y-72621367D01*
X173987905Y-72569069D01*
X173829017Y-72484142D01*
X173689751Y-72369849D01*
X173575458Y-72230583D01*
X173490531Y-72071695D01*
X173438233Y-71899294D01*
X173420575Y-71720000D01*
X173438233Y-71540706D01*
X173490531Y-71368305D01*
X173575458Y-71209417D01*
X173689751Y-71070151D01*
X173829017Y-70955858D01*
X173987905Y-70870931D01*
X174160306Y-70818633D01*
X174294669Y-70805400D01*
X175705331Y-70805400D01*
X175839694Y-70818633D01*
X175839694Y-70818633D01*
G37*
G36*
X163339694Y-70818633D02*
G01*
X163512095Y-70870931D01*
X163670983Y-70955858D01*
X163810249Y-71070151D01*
X163924542Y-71209417D01*
X164009469Y-71368305D01*
X164061767Y-71540706D01*
X164079425Y-71720000D01*
X164061767Y-71899294D01*
X164009469Y-72071695D01*
X163924542Y-72230583D01*
X163810249Y-72369849D01*
X163670983Y-72484142D01*
X163512095Y-72569069D01*
X163339694Y-72621367D01*
X163205331Y-72634600D01*
X161794669Y-72634600D01*
X161660306Y-72621367D01*
X161487905Y-72569069D01*
X161329017Y-72484142D01*
X161189751Y-72369849D01*
X161075458Y-72230583D01*
X160990531Y-72071695D01*
X160938233Y-71899294D01*
X160920575Y-71720000D01*
X160938233Y-71540706D01*
X160990531Y-71368305D01*
X161075458Y-71209417D01*
X161189751Y-71070151D01*
X161329017Y-70955858D01*
X161487905Y-70870931D01*
X161660306Y-70818633D01*
X161794669Y-70805400D01*
X163205331Y-70805400D01*
X163339694Y-70818633D01*
X163339694Y-70818633D01*
G37*
G36*
X127037142Y-64368242D02*
G01*
X127185101Y-64429529D01*
X127318255Y-64518499D01*
X127431501Y-64631745D01*
X127520471Y-64764899D01*
X127581758Y-64912858D01*
X127613000Y-65069925D01*
X127613000Y-65230075D01*
X127581758Y-65387142D01*
X127520471Y-65535101D01*
X127431501Y-65668255D01*
X127318255Y-65781501D01*
X127185101Y-65870471D01*
X127037142Y-65931758D01*
X126880075Y-65963000D01*
X126719925Y-65963000D01*
X126562858Y-65931758D01*
X126414899Y-65870471D01*
X126281745Y-65781501D01*
X126168499Y-65668255D01*
X126079529Y-65535101D01*
X126018242Y-65387142D01*
X125987000Y-65230075D01*
X125987000Y-65069925D01*
X126018242Y-64912858D01*
X126079529Y-64764899D01*
X126168499Y-64631745D01*
X126281745Y-64518499D01*
X126414899Y-64429529D01*
X126562858Y-64368242D01*
X126719925Y-64337000D01*
X126880075Y-64337000D01*
X127037142Y-64368242D01*
X127037142Y-64368242D01*
G37*
G36*
X188429694Y-62878633D02*
G01*
X188602095Y-62930931D01*
X188760983Y-63015858D01*
X188900249Y-63130151D01*
X189014542Y-63269417D01*
X189099469Y-63428305D01*
X189151767Y-63600706D01*
X189169425Y-63780000D01*
X189151767Y-63959294D01*
X189099469Y-64131695D01*
X189014542Y-64290583D01*
X188900249Y-64429849D01*
X188760983Y-64544142D01*
X188602095Y-64629069D01*
X188429694Y-64681367D01*
X188295331Y-64694600D01*
X186884669Y-64694600D01*
X186750306Y-64681367D01*
X186577905Y-64629069D01*
X186419017Y-64544142D01*
X186279751Y-64429849D01*
X186165458Y-64290583D01*
X186080531Y-64131695D01*
X186028233Y-63959294D01*
X186010575Y-63780000D01*
X186028233Y-63600706D01*
X186080531Y-63428305D01*
X186165458Y-63269417D01*
X186279751Y-63130151D01*
X186419017Y-63015858D01*
X186577905Y-62930931D01*
X186750306Y-62878633D01*
X186884669Y-62865400D01*
X188295331Y-62865400D01*
X188429694Y-62878633D01*
X188429694Y-62878633D01*
G37*
G36*
X153539694Y-62878633D02*
G01*
X153712095Y-62930931D01*
X153870983Y-63015858D01*
X154010249Y-63130151D01*
X154124542Y-63269417D01*
X154209469Y-63428305D01*
X154261767Y-63600706D01*
X154279425Y-63780000D01*
X154261767Y-63959294D01*
X154209469Y-64131695D01*
X154124542Y-64290583D01*
X154010249Y-64429849D01*
X153870983Y-64544142D01*
X153712095Y-64629069D01*
X153539694Y-64681367D01*
X153405331Y-64694600D01*
X151994669Y-64694600D01*
X151860306Y-64681367D01*
X151687905Y-64629069D01*
X151529017Y-64544142D01*
X151389751Y-64429849D01*
X151275458Y-64290583D01*
X151190531Y-64131695D01*
X151138233Y-63959294D01*
X151120575Y-63780000D01*
X151138233Y-63600706D01*
X151190531Y-63428305D01*
X151275458Y-63269417D01*
X151389751Y-63130151D01*
X151529017Y-63015858D01*
X151687905Y-62930931D01*
X151860306Y-62878633D01*
X151994669Y-62865400D01*
X153405331Y-62865400D01*
X153539694Y-62878633D01*
X153539694Y-62878633D01*
G37*
G36*
X166039694Y-62878633D02*
G01*
X166212095Y-62930931D01*
X166370983Y-63015858D01*
X166510249Y-63130151D01*
X166624542Y-63269417D01*
X166709469Y-63428305D01*
X166761767Y-63600706D01*
X166779425Y-63780000D01*
X166761767Y-63959294D01*
X166709469Y-64131695D01*
X166624542Y-64290583D01*
X166510249Y-64429849D01*
X166370983Y-64544142D01*
X166212095Y-64629069D01*
X166039694Y-64681367D01*
X165905331Y-64694600D01*
X164494669Y-64694600D01*
X164360306Y-64681367D01*
X164187905Y-64629069D01*
X164029017Y-64544142D01*
X163889751Y-64429849D01*
X163775458Y-64290583D01*
X163690531Y-64131695D01*
X163638233Y-63959294D01*
X163620575Y-63780000D01*
X163638233Y-63600706D01*
X163690531Y-63428305D01*
X163775458Y-63269417D01*
X163889751Y-63130151D01*
X164029017Y-63015858D01*
X164187905Y-62930931D01*
X164360306Y-62878633D01*
X164494669Y-62865400D01*
X165905331Y-62865400D01*
X166039694Y-62878633D01*
X166039694Y-62878633D01*
G37*
G36*
X175929694Y-62878633D02*
G01*
X176102095Y-62930931D01*
X176260983Y-63015858D01*
X176400249Y-63130151D01*
X176514542Y-63269417D01*
X176599469Y-63428305D01*
X176651767Y-63600706D01*
X176669425Y-63780000D01*
X176651767Y-63959294D01*
X176599469Y-64131695D01*
X176514542Y-64290583D01*
X176400249Y-64429849D01*
X176260983Y-64544142D01*
X176102095Y-64629069D01*
X175929694Y-64681367D01*
X175795331Y-64694600D01*
X174384669Y-64694600D01*
X174250306Y-64681367D01*
X174077905Y-64629069D01*
X173919017Y-64544142D01*
X173779751Y-64429849D01*
X173665458Y-64290583D01*
X173580531Y-64131695D01*
X173528233Y-63959294D01*
X173510575Y-63780000D01*
X173528233Y-63600706D01*
X173580531Y-63428305D01*
X173665458Y-63269417D01*
X173779751Y-63130151D01*
X173919017Y-63015858D01*
X174077905Y-62930931D01*
X174250306Y-62878633D01*
X174384669Y-62865400D01*
X175795331Y-62865400D01*
X175929694Y-62878633D01*
X175929694Y-62878633D01*
G37*
G36*
X127037142Y-62368242D02*
G01*
X127185101Y-62429529D01*
X127318255Y-62518499D01*
X127431501Y-62631745D01*
X127520471Y-62764899D01*
X127581758Y-62912858D01*
X127613000Y-63069925D01*
X127613000Y-63230075D01*
X127581758Y-63387142D01*
X127520471Y-63535101D01*
X127431501Y-63668255D01*
X127318255Y-63781501D01*
X127185101Y-63870471D01*
X127037142Y-63931758D01*
X126880075Y-63963000D01*
X126719925Y-63963000D01*
X126562858Y-63931758D01*
X126414899Y-63870471D01*
X126281745Y-63781501D01*
X126168499Y-63668255D01*
X126079529Y-63535101D01*
X126018242Y-63387142D01*
X125987000Y-63230075D01*
X125987000Y-63069925D01*
X126018242Y-62912858D01*
X126079529Y-62764899D01*
X126168499Y-62631745D01*
X126281745Y-62518499D01*
X126414899Y-62429529D01*
X126562858Y-62368242D01*
X126719925Y-62337000D01*
X126880075Y-62337000D01*
X127037142Y-62368242D01*
X127037142Y-62368242D01*
G37*
G36*
X127037142Y-60368242D02*
G01*
X127185101Y-60429529D01*
X127318255Y-60518499D01*
X127431501Y-60631745D01*
X127520471Y-60764899D01*
X127581758Y-60912858D01*
X127613000Y-61069925D01*
X127613000Y-61230075D01*
X127581758Y-61387142D01*
X127520471Y-61535101D01*
X127431501Y-61668255D01*
X127318255Y-61781501D01*
X127185101Y-61870471D01*
X127037142Y-61931758D01*
X126880075Y-61963000D01*
X126719925Y-61963000D01*
X126562858Y-61931758D01*
X126414899Y-61870471D01*
X126281745Y-61781501D01*
X126168499Y-61668255D01*
X126079529Y-61535101D01*
X126018242Y-61387142D01*
X125987000Y-61230075D01*
X125987000Y-61069925D01*
X126018242Y-60912858D01*
X126079529Y-60764899D01*
X126168499Y-60631745D01*
X126281745Y-60518499D01*
X126414899Y-60429529D01*
X126562858Y-60368242D01*
X126719925Y-60337000D01*
X126880075Y-60337000D01*
X127037142Y-60368242D01*
X127037142Y-60368242D01*
G37*
G36*
X175929694Y-57878633D02*
G01*
X176102095Y-57930931D01*
X176260983Y-58015858D01*
X176400249Y-58130151D01*
X176514542Y-58269417D01*
X176599469Y-58428305D01*
X176651767Y-58600706D01*
X176669425Y-58780000D01*
X176651767Y-58959294D01*
X176599469Y-59131695D01*
X176514542Y-59290583D01*
X176400249Y-59429849D01*
X176260983Y-59544142D01*
X176102095Y-59629069D01*
X175929694Y-59681367D01*
X175795331Y-59694600D01*
X174384669Y-59694600D01*
X174250306Y-59681367D01*
X174077905Y-59629069D01*
X173919017Y-59544142D01*
X173779751Y-59429849D01*
X173665458Y-59290583D01*
X173580531Y-59131695D01*
X173528233Y-58959294D01*
X173510575Y-58780000D01*
X173528233Y-58600706D01*
X173580531Y-58428305D01*
X173665458Y-58269417D01*
X173779751Y-58130151D01*
X173919017Y-58015858D01*
X174077905Y-57930931D01*
X174250306Y-57878633D01*
X174384669Y-57865400D01*
X175795331Y-57865400D01*
X175929694Y-57878633D01*
X175929694Y-57878633D01*
G37*
G36*
X153539694Y-57878633D02*
G01*
X153712095Y-57930931D01*
X153870983Y-58015858D01*
X154010249Y-58130151D01*
X154124542Y-58269417D01*
X154209469Y-58428305D01*
X154261767Y-58600706D01*
X154279425Y-58780000D01*
X154261767Y-58959294D01*
X154209469Y-59131695D01*
X154124542Y-59290583D01*
X154010249Y-59429849D01*
X153870983Y-59544142D01*
X153712095Y-59629069D01*
X153539694Y-59681367D01*
X153405331Y-59694600D01*
X151994669Y-59694600D01*
X151860306Y-59681367D01*
X151687905Y-59629069D01*
X151529017Y-59544142D01*
X151389751Y-59429849D01*
X151275458Y-59290583D01*
X151190531Y-59131695D01*
X151138233Y-58959294D01*
X151120575Y-58780000D01*
X151138233Y-58600706D01*
X151190531Y-58428305D01*
X151275458Y-58269417D01*
X151389751Y-58130151D01*
X151529017Y-58015858D01*
X151687905Y-57930931D01*
X151860306Y-57878633D01*
X151994669Y-57865400D01*
X153405331Y-57865400D01*
X153539694Y-57878633D01*
X153539694Y-57878633D01*
G37*
G36*
X166039694Y-57878633D02*
G01*
X166212095Y-57930931D01*
X166370983Y-58015858D01*
X166510249Y-58130151D01*
X166624542Y-58269417D01*
X166709469Y-58428305D01*
X166761767Y-58600706D01*
X166779425Y-58780000D01*
X166761767Y-58959294D01*
X166709469Y-59131695D01*
X166624542Y-59290583D01*
X166510249Y-59429849D01*
X166370983Y-59544142D01*
X166212095Y-59629069D01*
X166039694Y-59681367D01*
X165905331Y-59694600D01*
X164494669Y-59694600D01*
X164360306Y-59681367D01*
X164187905Y-59629069D01*
X164029017Y-59544142D01*
X163889751Y-59429849D01*
X163775458Y-59290583D01*
X163690531Y-59131695D01*
X163638233Y-58959294D01*
X163620575Y-58780000D01*
X163638233Y-58600706D01*
X163690531Y-58428305D01*
X163775458Y-58269417D01*
X163889751Y-58130151D01*
X164029017Y-58015858D01*
X164187905Y-57930931D01*
X164360306Y-57878633D01*
X164494669Y-57865400D01*
X165905331Y-57865400D01*
X166039694Y-57878633D01*
X166039694Y-57878633D01*
G37*
G36*
X188429694Y-57878633D02*
G01*
X188602095Y-57930931D01*
X188760983Y-58015858D01*
X188900249Y-58130151D01*
X189014542Y-58269417D01*
X189099469Y-58428305D01*
X189151767Y-58600706D01*
X189169425Y-58780000D01*
X189151767Y-58959294D01*
X189099469Y-59131695D01*
X189014542Y-59290583D01*
X188900249Y-59429849D01*
X188760983Y-59544142D01*
X188602095Y-59629069D01*
X188429694Y-59681367D01*
X188295331Y-59694600D01*
X186884669Y-59694600D01*
X186750306Y-59681367D01*
X186577905Y-59629069D01*
X186419017Y-59544142D01*
X186279751Y-59429849D01*
X186165458Y-59290583D01*
X186080531Y-59131695D01*
X186028233Y-58959294D01*
X186010575Y-58780000D01*
X186028233Y-58600706D01*
X186080531Y-58428305D01*
X186165458Y-58269417D01*
X186279751Y-58130151D01*
X186419017Y-58015858D01*
X186577905Y-57930931D01*
X186750306Y-57878633D01*
X186884669Y-57865400D01*
X188295331Y-57865400D01*
X188429694Y-57878633D01*
X188429694Y-57878633D01*
G37*
G36*
X126040442Y-51955518D02*
G01*
X126106627Y-51962037D01*
X126276466Y-52013557D01*
X126432991Y-52097222D01*
X126468729Y-52126552D01*
X126570186Y-52209814D01*
X126653448Y-52311271D01*
X126682778Y-52347009D01*
X126766443Y-52503534D01*
X126817963Y-52673373D01*
X126835359Y-52850000D01*
X126817963Y-53026627D01*
X126766443Y-53196466D01*
X126682778Y-53352991D01*
X126653448Y-53388729D01*
X126570186Y-53490186D01*
X126468729Y-53573448D01*
X126432991Y-53602778D01*
X126276466Y-53686443D01*
X126106627Y-53737963D01*
X126040442Y-53744482D01*
X125974260Y-53751000D01*
X125885740Y-53751000D01*
X125819558Y-53744482D01*
X125753373Y-53737963D01*
X125583534Y-53686443D01*
X125427009Y-53602778D01*
X125391271Y-53573448D01*
X125289814Y-53490186D01*
X125206552Y-53388729D01*
X125177222Y-53352991D01*
X125093557Y-53196466D01*
X125042037Y-53026627D01*
X125024641Y-52850000D01*
X125042037Y-52673373D01*
X125093557Y-52503534D01*
X125177222Y-52347009D01*
X125206552Y-52311271D01*
X125289814Y-52209814D01*
X125391271Y-52126552D01*
X125427009Y-52097222D01*
X125583534Y-52013557D01*
X125753373Y-51962037D01*
X125819557Y-51955519D01*
X125885740Y-51949000D01*
X125974260Y-51949000D01*
X126040442Y-51955518D01*
X126040442Y-51955518D01*
G37*
G36*
X176379694Y-49888633D02*
G01*
X176552095Y-49940931D01*
X176710983Y-50025858D01*
X176850249Y-50140151D01*
X176964542Y-50279417D01*
X177049469Y-50438305D01*
X177101767Y-50610706D01*
X177119425Y-50790000D01*
X177101767Y-50969294D01*
X177049469Y-51141695D01*
X176964542Y-51300583D01*
X176850249Y-51439849D01*
X176710983Y-51554142D01*
X176552095Y-51639069D01*
X176379694Y-51691367D01*
X176245331Y-51704600D01*
X174834669Y-51704600D01*
X174700306Y-51691367D01*
X174527905Y-51639069D01*
X174369017Y-51554142D01*
X174229751Y-51439849D01*
X174115458Y-51300583D01*
X174030531Y-51141695D01*
X173978233Y-50969294D01*
X173960575Y-50790000D01*
X173978233Y-50610706D01*
X174030531Y-50438305D01*
X174115458Y-50279417D01*
X174229751Y-50140151D01*
X174369017Y-50025858D01*
X174527905Y-49940931D01*
X174700306Y-49888633D01*
X174834669Y-49875400D01*
X176245331Y-49875400D01*
X176379694Y-49888633D01*
X176379694Y-49888633D01*
G37*
G36*
X163879694Y-49888633D02*
G01*
X164052095Y-49940931D01*
X164210983Y-50025858D01*
X164350249Y-50140151D01*
X164464542Y-50279417D01*
X164549469Y-50438305D01*
X164601767Y-50610706D01*
X164619425Y-50790000D01*
X164601767Y-50969294D01*
X164549469Y-51141695D01*
X164464542Y-51300583D01*
X164350249Y-51439849D01*
X164210983Y-51554142D01*
X164052095Y-51639069D01*
X163879694Y-51691367D01*
X163745331Y-51704600D01*
X162334669Y-51704600D01*
X162200306Y-51691367D01*
X162027905Y-51639069D01*
X161869017Y-51554142D01*
X161729751Y-51439849D01*
X161615458Y-51300583D01*
X161530531Y-51141695D01*
X161478233Y-50969294D01*
X161460575Y-50790000D01*
X161478233Y-50610706D01*
X161530531Y-50438305D01*
X161615458Y-50279417D01*
X161729751Y-50140151D01*
X161869017Y-50025858D01*
X162027905Y-49940931D01*
X162200306Y-49888633D01*
X162334669Y-49875400D01*
X163745331Y-49875400D01*
X163879694Y-49888633D01*
X163879694Y-49888633D01*
G37*
G36*
X126040442Y-49415518D02*
G01*
X126106627Y-49422037D01*
X126276466Y-49473557D01*
X126432991Y-49557222D01*
X126468729Y-49586552D01*
X126570186Y-49669814D01*
X126653448Y-49771271D01*
X126682778Y-49807009D01*
X126766443Y-49963534D01*
X126817963Y-50133373D01*
X126835359Y-50310000D01*
X126817963Y-50486627D01*
X126766443Y-50656466D01*
X126682778Y-50812991D01*
X126653448Y-50848729D01*
X126570186Y-50950186D01*
X126468729Y-51033448D01*
X126432991Y-51062778D01*
X126276466Y-51146443D01*
X126106627Y-51197963D01*
X126040443Y-51204481D01*
X125974260Y-51211000D01*
X125885740Y-51211000D01*
X125819558Y-51204482D01*
X125753373Y-51197963D01*
X125583534Y-51146443D01*
X125427009Y-51062778D01*
X125391271Y-51033448D01*
X125289814Y-50950186D01*
X125206552Y-50848729D01*
X125177222Y-50812991D01*
X125093557Y-50656466D01*
X125042037Y-50486627D01*
X125024641Y-50310000D01*
X125042037Y-50133373D01*
X125093557Y-49963534D01*
X125177222Y-49807009D01*
X125206552Y-49771271D01*
X125289814Y-49669814D01*
X125391271Y-49586552D01*
X125427009Y-49557222D01*
X125583534Y-49473557D01*
X125753373Y-49422037D01*
X125819558Y-49415518D01*
X125885740Y-49409000D01*
X125974260Y-49409000D01*
X126040442Y-49415518D01*
X126040442Y-49415518D01*
G37*
G36*
X117951000Y-50641000D02*
G01*
X115649000Y-50641000D01*
X115649000Y-48739000D01*
X117951000Y-48739000D01*
X117951000Y-50641000D01*
X117951000Y-50641000D01*
G37*
G36*
X126040442Y-46875518D02*
G01*
X126106627Y-46882037D01*
X126276466Y-46933557D01*
X126432991Y-47017222D01*
X126468729Y-47046552D01*
X126570186Y-47129814D01*
X126653448Y-47231271D01*
X126682778Y-47267009D01*
X126766443Y-47423534D01*
X126817963Y-47593373D01*
X126835359Y-47770000D01*
X126817963Y-47946627D01*
X126766443Y-48116466D01*
X126682778Y-48272991D01*
X126653448Y-48308729D01*
X126570186Y-48410186D01*
X126468729Y-48493448D01*
X126432991Y-48522778D01*
X126276466Y-48606443D01*
X126106627Y-48657963D01*
X126040443Y-48664481D01*
X125974260Y-48671000D01*
X125885740Y-48671000D01*
X125819558Y-48664482D01*
X125753373Y-48657963D01*
X125583534Y-48606443D01*
X125427009Y-48522778D01*
X125391271Y-48493448D01*
X125289814Y-48410186D01*
X125206552Y-48308729D01*
X125177222Y-48272991D01*
X125093557Y-48116466D01*
X125042037Y-47946627D01*
X125024641Y-47770000D01*
X125042037Y-47593373D01*
X125093557Y-47423534D01*
X125177222Y-47267009D01*
X125206552Y-47231271D01*
X125289814Y-47129814D01*
X125391271Y-47046552D01*
X125427009Y-47017222D01*
X125583534Y-46933557D01*
X125753373Y-46882037D01*
X125819558Y-46875518D01*
X125885740Y-46869000D01*
X125974260Y-46869000D01*
X126040442Y-46875518D01*
X126040442Y-46875518D01*
G37*
G36*
X120751000Y-47991000D02*
G01*
X119349000Y-47991000D01*
X119349000Y-45589000D01*
X120751000Y-45589000D01*
X120751000Y-47991000D01*
X120751000Y-47991000D01*
G37*
G36*
X176379694Y-44888633D02*
G01*
X176552095Y-44940931D01*
X176710983Y-45025858D01*
X176850249Y-45140151D01*
X176964542Y-45279417D01*
X177049469Y-45438305D01*
X177101767Y-45610706D01*
X177119425Y-45790000D01*
X177101767Y-45969294D01*
X177049469Y-46141695D01*
X176964542Y-46300583D01*
X176850249Y-46439849D01*
X176710983Y-46554142D01*
X176552095Y-46639069D01*
X176379694Y-46691367D01*
X176245331Y-46704600D01*
X174834669Y-46704600D01*
X174700306Y-46691367D01*
X174527905Y-46639069D01*
X174369017Y-46554142D01*
X174229751Y-46439849D01*
X174115458Y-46300583D01*
X174030531Y-46141695D01*
X173978233Y-45969294D01*
X173960575Y-45790000D01*
X173978233Y-45610706D01*
X174030531Y-45438305D01*
X174115458Y-45279417D01*
X174229751Y-45140151D01*
X174369017Y-45025858D01*
X174527905Y-44940931D01*
X174700306Y-44888633D01*
X174834669Y-44875400D01*
X176245331Y-44875400D01*
X176379694Y-44888633D01*
X176379694Y-44888633D01*
G37*
G36*
X163879694Y-44888633D02*
G01*
X164052095Y-44940931D01*
X164210983Y-45025858D01*
X164350249Y-45140151D01*
X164464542Y-45279417D01*
X164549469Y-45438305D01*
X164601767Y-45610706D01*
X164619425Y-45790000D01*
X164601767Y-45969294D01*
X164549469Y-46141695D01*
X164464542Y-46300583D01*
X164350249Y-46439849D01*
X164210983Y-46554142D01*
X164052095Y-46639069D01*
X163879694Y-46691367D01*
X163745331Y-46704600D01*
X162334669Y-46704600D01*
X162200306Y-46691367D01*
X162027905Y-46639069D01*
X161869017Y-46554142D01*
X161729751Y-46439849D01*
X161615458Y-46300583D01*
X161530531Y-46141695D01*
X161478233Y-45969294D01*
X161460575Y-45790000D01*
X161478233Y-45610706D01*
X161530531Y-45438305D01*
X161615458Y-45279417D01*
X161729751Y-45140151D01*
X161869017Y-45025858D01*
X162027905Y-44940931D01*
X162200306Y-44888633D01*
X162334669Y-44875400D01*
X163745331Y-44875400D01*
X163879694Y-44888633D01*
X163879694Y-44888633D01*
G37*
G36*
X126040442Y-44335518D02*
G01*
X126106627Y-44342037D01*
X126276466Y-44393557D01*
X126432991Y-44477222D01*
X126468729Y-44506552D01*
X126570186Y-44589814D01*
X126653448Y-44691271D01*
X126682778Y-44727009D01*
X126766443Y-44883534D01*
X126817963Y-45053373D01*
X126835359Y-45230000D01*
X126817963Y-45406627D01*
X126766443Y-45576466D01*
X126682778Y-45732991D01*
X126653448Y-45768729D01*
X126570186Y-45870186D01*
X126468729Y-45953448D01*
X126432991Y-45982778D01*
X126276466Y-46066443D01*
X126106627Y-46117963D01*
X126040442Y-46124482D01*
X125974260Y-46131000D01*
X125885740Y-46131000D01*
X125819558Y-46124482D01*
X125753373Y-46117963D01*
X125583534Y-46066443D01*
X125427009Y-45982778D01*
X125391271Y-45953448D01*
X125289814Y-45870186D01*
X125206552Y-45768729D01*
X125177222Y-45732991D01*
X125093557Y-45576466D01*
X125042037Y-45406627D01*
X125024641Y-45230000D01*
X125042037Y-45053373D01*
X125093557Y-44883534D01*
X125177222Y-44727009D01*
X125206552Y-44691271D01*
X125289814Y-44589814D01*
X125391271Y-44506552D01*
X125427009Y-44477222D01*
X125583534Y-44393557D01*
X125753373Y-44342037D01*
X125819558Y-44335518D01*
X125885740Y-44329000D01*
X125974260Y-44329000D01*
X126040442Y-44335518D01*
X126040442Y-44335518D01*
G37*
G36*
X144887142Y-44108242D02*
G01*
X145035101Y-44169529D01*
X145168255Y-44258499D01*
X145281501Y-44371745D01*
X145370471Y-44504899D01*
X145431758Y-44652858D01*
X145463000Y-44809925D01*
X145463000Y-44970075D01*
X145431758Y-45127142D01*
X145370471Y-45275101D01*
X145281501Y-45408255D01*
X145168255Y-45521501D01*
X145035101Y-45610471D01*
X144887142Y-45671758D01*
X144730075Y-45703000D01*
X144569925Y-45703000D01*
X144412858Y-45671758D01*
X144264899Y-45610471D01*
X144131745Y-45521501D01*
X144018499Y-45408255D01*
X143929529Y-45275101D01*
X143868242Y-45127142D01*
X143837000Y-44970075D01*
X143837000Y-44809925D01*
X143868242Y-44652858D01*
X143929529Y-44504899D01*
X144018499Y-44371745D01*
X144131745Y-44258499D01*
X144264899Y-44169529D01*
X144412858Y-44108242D01*
X144569925Y-44077000D01*
X144730075Y-44077000D01*
X144887142Y-44108242D01*
X144887142Y-44108242D01*
G37*
G36*
X142887142Y-44108242D02*
G01*
X143035101Y-44169529D01*
X143168255Y-44258499D01*
X143281501Y-44371745D01*
X143370471Y-44504899D01*
X143431758Y-44652858D01*
X143463000Y-44809925D01*
X143463000Y-44970075D01*
X143431758Y-45127142D01*
X143370471Y-45275101D01*
X143281501Y-45408255D01*
X143168255Y-45521501D01*
X143035101Y-45610471D01*
X142887142Y-45671758D01*
X142730075Y-45703000D01*
X142569925Y-45703000D01*
X142412858Y-45671758D01*
X142264899Y-45610471D01*
X142131745Y-45521501D01*
X142018499Y-45408255D01*
X141929529Y-45275101D01*
X141868242Y-45127142D01*
X141837000Y-44970075D01*
X141837000Y-44809925D01*
X141868242Y-44652858D01*
X141929529Y-44504899D01*
X142018499Y-44371745D01*
X142131745Y-44258499D01*
X142264899Y-44169529D01*
X142412858Y-44108242D01*
X142569925Y-44077000D01*
X142730075Y-44077000D01*
X142887142Y-44108242D01*
X142887142Y-44108242D01*
G37*
G36*
X140887142Y-44108242D02*
G01*
X141035101Y-44169529D01*
X141168255Y-44258499D01*
X141281501Y-44371745D01*
X141370471Y-44504899D01*
X141431758Y-44652858D01*
X141463000Y-44809925D01*
X141463000Y-44970075D01*
X141431758Y-45127142D01*
X141370471Y-45275101D01*
X141281501Y-45408255D01*
X141168255Y-45521501D01*
X141035101Y-45610471D01*
X140887142Y-45671758D01*
X140730075Y-45703000D01*
X140569925Y-45703000D01*
X140412858Y-45671758D01*
X140264899Y-45610471D01*
X140131745Y-45521501D01*
X140018499Y-45408255D01*
X139929529Y-45275101D01*
X139868242Y-45127142D01*
X139837000Y-44970075D01*
X139837000Y-44809925D01*
X139868242Y-44652858D01*
X139929529Y-44504899D01*
X140018499Y-44371745D01*
X140131745Y-44258499D01*
X140264899Y-44169529D01*
X140412858Y-44108242D01*
X140569925Y-44077000D01*
X140730075Y-44077000D01*
X140887142Y-44108242D01*
X140887142Y-44108242D01*
G37*
G36*
X139463000Y-45703000D02*
G01*
X137837000Y-45703000D01*
X137837000Y-44077000D01*
X139463000Y-44077000D01*
X139463000Y-45703000D01*
X139463000Y-45703000D01*
G37*
G36*
X117951000Y-44841000D02*
G01*
X115649000Y-44841000D01*
X115649000Y-42939000D01*
X117951000Y-42939000D01*
X117951000Y-44841000D01*
X117951000Y-44841000D01*
G37*
G36*
X126831000Y-43591000D02*
G01*
X125029000Y-43591000D01*
X125029000Y-41789000D01*
X126831000Y-41789000D01*
X126831000Y-43591000D01*
X126831000Y-43591000D01*
G37*
M02*
