M48
; DRILL file {KiCad 5.1.2-f72e74a~84~ubuntu18.04.1} date 2019年07月18日 22時24分30秒
; FORMAT={-:-/ absolute / metric / decimal}
; #@! TF.CreationDate,2019-07-18T22:24:30+09:00
; #@! TF.GenerationSoftware,Kicad,Pcbnew,5.1.2-f72e74a~84~ubuntu18.04.1
FMAT,2
METRIC
T1C0.400
T2C0.762
T3C0.813
T4C1.000
%
G90
G05
T1
X131.01Y-70.14
X133.585Y-48.195
X133.585Y-60.72
X135.28Y-70.51
X135.563Y-59.924
X135.639Y-61.265
X135.81Y-78.34
X136.552Y-59.199
X137.391Y-62.667
X140.28Y-74.277
X140.462Y-63.482
X141.154Y-53.128
X141.705Y-52.029
X144.009Y-58.99
X144.149Y-60.475
X144.741Y-64.487
X144.966Y-59.74
X145.467Y-69.89
X146.042Y-48.92
T2
X116.15Y-71.925
X118.15Y-71.925
X120.15Y-71.925
X126.8Y-61.15
X126.8Y-63.15
X126.8Y-65.15
X138.65Y-44.89
X140.65Y-44.89
X142.65Y-44.89
X144.65Y-44.89
T3
X175.09Y-58.78
X175.09Y-63.78
X187.59Y-58.78
X187.59Y-63.78
X163.04Y-45.79
X163.04Y-50.79
X175.54Y-45.79
X175.54Y-50.79
X162.5Y-71.72
X162.5Y-76.72
X175.0Y-71.72
X175.0Y-76.72
X152.7Y-58.78
X152.7Y-63.78
X165.2Y-58.78
X165.2Y-63.78
T4
X125.93Y-42.69
X125.93Y-45.23
X125.93Y-47.77
X125.93Y-50.31
X125.93Y-52.85
T0
M30
