G04 #@! TF.GenerationSoftware,KiCad,Pcbnew,5.1.2-f72e74a~84~ubuntu18.04.1*
G04 #@! TF.CreationDate,2019-07-18T22:23:35+09:00*
G04 #@! TF.ProjectId,WiredControllerPcb,57697265-6443-46f6-9e74-726f6c6c6572,rev?*
G04 #@! TF.SameCoordinates,Original*
G04 #@! TF.FileFunction,Legend,Top*
G04 #@! TF.FilePolarity,Positive*
%FSLAX46Y46*%
G04 Gerber Fmt 4.6, Leading zero omitted, Abs format (unit mm)*
G04 Created by KiCad (PCBNEW 5.1.2-f72e74a~84~ubuntu18.04.1) date 2019-07-18 22:23:35*
%MOMM*%
%LPD*%
G04 APERTURE LIST*
%ADD10C,0.150000*%
%ADD11C,0.325000*%
%ADD12C,0.120000*%
G04 APERTURE END LIST*
D10*
X134859999Y-82292380D02*
X134859999Y-81292380D01*
X135288571Y-82292380D02*
X135288571Y-81768571D01*
X135240952Y-81673333D01*
X135145714Y-81625714D01*
X135002857Y-81625714D01*
X134907619Y-81673333D01*
X134859999Y-81720952D01*
X135621904Y-81625714D02*
X136002857Y-81625714D01*
X135764761Y-81292380D02*
X135764761Y-82149523D01*
X135812380Y-82244761D01*
X135907619Y-82292380D01*
X136002857Y-82292380D01*
X136193333Y-81625714D02*
X136574285Y-81625714D01*
X136336190Y-81292380D02*
X136336190Y-82149523D01*
X136383809Y-82244761D01*
X136479047Y-82292380D01*
X136574285Y-82292380D01*
X136907619Y-81625714D02*
X136907619Y-82625714D01*
X136907619Y-81673333D02*
X137002857Y-81625714D01*
X137193333Y-81625714D01*
X137288571Y-81673333D01*
X137336190Y-81720952D01*
X137383809Y-81816190D01*
X137383809Y-82101904D01*
X137336190Y-82197142D01*
X137288571Y-82244761D01*
X137193333Y-82292380D01*
X137002857Y-82292380D01*
X136907619Y-82244761D01*
X137764761Y-82244761D02*
X137859999Y-82292380D01*
X138050476Y-82292380D01*
X138145714Y-82244761D01*
X138193333Y-82149523D01*
X138193333Y-82101904D01*
X138145714Y-82006666D01*
X138050476Y-81959047D01*
X137907619Y-81959047D01*
X137812380Y-81911428D01*
X137764761Y-81816190D01*
X137764761Y-81768571D01*
X137812380Y-81673333D01*
X137907619Y-81625714D01*
X138050476Y-81625714D01*
X138145714Y-81673333D01*
X138621904Y-82197142D02*
X138669523Y-82244761D01*
X138621904Y-82292380D01*
X138574285Y-82244761D01*
X138621904Y-82197142D01*
X138621904Y-82292380D01*
X138621904Y-81673333D02*
X138669523Y-81720952D01*
X138621904Y-81768571D01*
X138574285Y-81720952D01*
X138621904Y-81673333D01*
X138621904Y-81768571D01*
X139812380Y-81244761D02*
X138955238Y-82530476D01*
X140859999Y-81244761D02*
X140002857Y-82530476D01*
X141621904Y-81625714D02*
X141621904Y-82435238D01*
X141574285Y-82530476D01*
X141526666Y-82578095D01*
X141431428Y-82625714D01*
X141288571Y-82625714D01*
X141193333Y-82578095D01*
X141621904Y-82244761D02*
X141526666Y-82292380D01*
X141336190Y-82292380D01*
X141240952Y-82244761D01*
X141193333Y-82197142D01*
X141145714Y-82101904D01*
X141145714Y-81816190D01*
X141193333Y-81720952D01*
X141240952Y-81673333D01*
X141336190Y-81625714D01*
X141526666Y-81625714D01*
X141621904Y-81673333D01*
X142098095Y-82292380D02*
X142098095Y-81625714D01*
X142098095Y-81292380D02*
X142050476Y-81340000D01*
X142098095Y-81387619D01*
X142145714Y-81340000D01*
X142098095Y-81292380D01*
X142098095Y-81387619D01*
X142431428Y-81625714D02*
X142812380Y-81625714D01*
X142574285Y-81292380D02*
X142574285Y-82149523D01*
X142621904Y-82244761D01*
X142717142Y-82292380D01*
X142812380Y-82292380D01*
X143145714Y-82292380D02*
X143145714Y-81292380D01*
X143574285Y-82292380D02*
X143574285Y-81768571D01*
X143526666Y-81673333D01*
X143431428Y-81625714D01*
X143288571Y-81625714D01*
X143193333Y-81673333D01*
X143145714Y-81720952D01*
X144479047Y-81625714D02*
X144479047Y-82292380D01*
X144050476Y-81625714D02*
X144050476Y-82149523D01*
X144098095Y-82244761D01*
X144193333Y-82292380D01*
X144336190Y-82292380D01*
X144431428Y-82244761D01*
X144479047Y-82197142D01*
X144955238Y-82292380D02*
X144955238Y-81292380D01*
X144955238Y-81673333D02*
X145050476Y-81625714D01*
X145240952Y-81625714D01*
X145336190Y-81673333D01*
X145383809Y-81720952D01*
X145431428Y-81816190D01*
X145431428Y-82101904D01*
X145383809Y-82197142D01*
X145336190Y-82244761D01*
X145240952Y-82292380D01*
X145050476Y-82292380D01*
X144955238Y-82244761D01*
X145860000Y-82197142D02*
X145907619Y-82244761D01*
X145860000Y-82292380D01*
X145812380Y-82244761D01*
X145860000Y-82197142D01*
X145860000Y-82292380D01*
X146764761Y-82244761D02*
X146669523Y-82292380D01*
X146479047Y-82292380D01*
X146383809Y-82244761D01*
X146336190Y-82197142D01*
X146288571Y-82101904D01*
X146288571Y-81816190D01*
X146336190Y-81720952D01*
X146383809Y-81673333D01*
X146479047Y-81625714D01*
X146669523Y-81625714D01*
X146764761Y-81673333D01*
X147336190Y-82292380D02*
X147240952Y-82244761D01*
X147193333Y-82197142D01*
X147145714Y-82101904D01*
X147145714Y-81816190D01*
X147193333Y-81720952D01*
X147240952Y-81673333D01*
X147336190Y-81625714D01*
X147479047Y-81625714D01*
X147574285Y-81673333D01*
X147621904Y-81720952D01*
X147669523Y-81816190D01*
X147669523Y-82101904D01*
X147621904Y-82197142D01*
X147574285Y-82244761D01*
X147479047Y-82292380D01*
X147336190Y-82292380D01*
X148098095Y-82292380D02*
X148098095Y-81625714D01*
X148098095Y-81720952D02*
X148145714Y-81673333D01*
X148240952Y-81625714D01*
X148383809Y-81625714D01*
X148479047Y-81673333D01*
X148526666Y-81768571D01*
X148526666Y-82292380D01*
X148526666Y-81768571D02*
X148574285Y-81673333D01*
X148669523Y-81625714D01*
X148812380Y-81625714D01*
X148907619Y-81673333D01*
X148955238Y-81768571D01*
X148955238Y-82292380D01*
X150145714Y-81244761D02*
X149288571Y-82530476D01*
X150907619Y-82292380D02*
X150907619Y-81768571D01*
X150859999Y-81673333D01*
X150764761Y-81625714D01*
X150574285Y-81625714D01*
X150479047Y-81673333D01*
X150907619Y-82244761D02*
X150812380Y-82292380D01*
X150574285Y-82292380D01*
X150479047Y-82244761D01*
X150431428Y-82149523D01*
X150431428Y-82054285D01*
X150479047Y-81959047D01*
X150574285Y-81911428D01*
X150812380Y-81911428D01*
X150907619Y-81863809D01*
X151336190Y-82244761D02*
X151431428Y-82292380D01*
X151621904Y-82292380D01*
X151717142Y-82244761D01*
X151764761Y-82149523D01*
X151764761Y-82101904D01*
X151717142Y-82006666D01*
X151621904Y-81959047D01*
X151479047Y-81959047D01*
X151383809Y-81911428D01*
X151336190Y-81816190D01*
X151336190Y-81768571D01*
X151383809Y-81673333D01*
X151479047Y-81625714D01*
X151621904Y-81625714D01*
X151717142Y-81673333D01*
X152621904Y-81625714D02*
X152621904Y-82292380D01*
X152193333Y-81625714D02*
X152193333Y-82149523D01*
X152240952Y-82244761D01*
X152336190Y-82292380D01*
X152479047Y-82292380D01*
X152574285Y-82244761D01*
X152621904Y-82197142D01*
X153098095Y-82292380D02*
X153098095Y-81292380D01*
X153193333Y-81911428D02*
X153479047Y-82292380D01*
X153479047Y-81625714D02*
X153098095Y-82006666D01*
X153907619Y-82292380D02*
X153907619Y-81625714D01*
X153907619Y-81292380D02*
X153859999Y-81340000D01*
X153907619Y-81387619D01*
X153955238Y-81340000D01*
X153907619Y-81292380D01*
X153907619Y-81387619D01*
X154812380Y-82292380D02*
X154812380Y-81768571D01*
X154764761Y-81673333D01*
X154669523Y-81625714D01*
X154479047Y-81625714D01*
X154383809Y-81673333D01*
X154812380Y-82244761D02*
X154717142Y-82292380D01*
X154479047Y-82292380D01*
X154383809Y-82244761D01*
X154336190Y-82149523D01*
X154336190Y-82054285D01*
X154383809Y-81959047D01*
X154479047Y-81911428D01*
X154717142Y-81911428D01*
X154812380Y-81863809D01*
X155717142Y-82292380D02*
X155717142Y-81768571D01*
X155669523Y-81673333D01*
X155574285Y-81625714D01*
X155383809Y-81625714D01*
X155288571Y-81673333D01*
X155717142Y-82244761D02*
X155621904Y-82292380D01*
X155383809Y-82292380D01*
X155288571Y-82244761D01*
X155240952Y-82149523D01*
X155240952Y-82054285D01*
X155288571Y-81959047D01*
X155383809Y-81911428D01*
X155621904Y-81911428D01*
X155717142Y-81863809D01*
X156621904Y-82292380D02*
X156621904Y-81768571D01*
X156574285Y-81673333D01*
X156479047Y-81625714D01*
X156288571Y-81625714D01*
X156193333Y-81673333D01*
X156621904Y-82244761D02*
X156526666Y-82292380D01*
X156288571Y-82292380D01*
X156193333Y-82244761D01*
X156145714Y-82149523D01*
X156145714Y-82054285D01*
X156193333Y-81959047D01*
X156288571Y-81911428D01*
X156526666Y-81911428D01*
X156621904Y-81863809D01*
X157812380Y-81244761D02*
X156955238Y-82530476D01*
X158050476Y-81292380D02*
X158288571Y-82292380D01*
X158479047Y-81578095D01*
X158669523Y-82292380D01*
X158907619Y-81292380D01*
X159288571Y-82292380D02*
X159288571Y-81625714D01*
X159288571Y-81292380D02*
X159240952Y-81340000D01*
X159288571Y-81387619D01*
X159336190Y-81340000D01*
X159288571Y-81292380D01*
X159288571Y-81387619D01*
X159764761Y-82292380D02*
X159764761Y-81625714D01*
X159764761Y-81816190D02*
X159812380Y-81720952D01*
X159859999Y-81673333D01*
X159955238Y-81625714D01*
X160050476Y-81625714D01*
X160764761Y-82244761D02*
X160669523Y-82292380D01*
X160479047Y-82292380D01*
X160383809Y-82244761D01*
X160336190Y-82149523D01*
X160336190Y-81768571D01*
X160383809Y-81673333D01*
X160479047Y-81625714D01*
X160669523Y-81625714D01*
X160764761Y-81673333D01*
X160812380Y-81768571D01*
X160812380Y-81863809D01*
X160336190Y-81959047D01*
X161669523Y-82292380D02*
X161669523Y-81292380D01*
X161669523Y-82244761D02*
X161574285Y-82292380D01*
X161383809Y-82292380D01*
X161288571Y-82244761D01*
X161240952Y-82197142D01*
X161193333Y-82101904D01*
X161193333Y-81816190D01*
X161240952Y-81720952D01*
X161288571Y-81673333D01*
X161383809Y-81625714D01*
X161574285Y-81625714D01*
X161669523Y-81673333D01*
X162717142Y-82197142D02*
X162669523Y-82244761D01*
X162526666Y-82292380D01*
X162431428Y-82292380D01*
X162288571Y-82244761D01*
X162193333Y-82149523D01*
X162145714Y-82054285D01*
X162098095Y-81863809D01*
X162098095Y-81720952D01*
X162145714Y-81530476D01*
X162193333Y-81435238D01*
X162288571Y-81340000D01*
X162431428Y-81292380D01*
X162526666Y-81292380D01*
X162669523Y-81340000D01*
X162717142Y-81387619D01*
X163288571Y-82292380D02*
X163193333Y-82244761D01*
X163145714Y-82197142D01*
X163098095Y-82101904D01*
X163098095Y-81816190D01*
X163145714Y-81720952D01*
X163193333Y-81673333D01*
X163288571Y-81625714D01*
X163431428Y-81625714D01*
X163526666Y-81673333D01*
X163574285Y-81720952D01*
X163621904Y-81816190D01*
X163621904Y-82101904D01*
X163574285Y-82197142D01*
X163526666Y-82244761D01*
X163431428Y-82292380D01*
X163288571Y-82292380D01*
X164050476Y-81625714D02*
X164050476Y-82292380D01*
X164050476Y-81720952D02*
X164098095Y-81673333D01*
X164193333Y-81625714D01*
X164336190Y-81625714D01*
X164431428Y-81673333D01*
X164479047Y-81768571D01*
X164479047Y-82292380D01*
X164812380Y-81625714D02*
X165193333Y-81625714D01*
X164955238Y-81292380D02*
X164955238Y-82149523D01*
X165002857Y-82244761D01*
X165098095Y-82292380D01*
X165193333Y-82292380D01*
X165526666Y-82292380D02*
X165526666Y-81625714D01*
X165526666Y-81816190D02*
X165574285Y-81720952D01*
X165621904Y-81673333D01*
X165717142Y-81625714D01*
X165812380Y-81625714D01*
X166288571Y-82292380D02*
X166193333Y-82244761D01*
X166145714Y-82197142D01*
X166098095Y-82101904D01*
X166098095Y-81816190D01*
X166145714Y-81720952D01*
X166193333Y-81673333D01*
X166288571Y-81625714D01*
X166431428Y-81625714D01*
X166526666Y-81673333D01*
X166574285Y-81720952D01*
X166621904Y-81816190D01*
X166621904Y-82101904D01*
X166574285Y-82197142D01*
X166526666Y-82244761D01*
X166431428Y-82292380D01*
X166288571Y-82292380D01*
X167193333Y-82292380D02*
X167098095Y-82244761D01*
X167050476Y-82149523D01*
X167050476Y-81292380D01*
X167717142Y-82292380D02*
X167621904Y-82244761D01*
X167574285Y-82149523D01*
X167574285Y-81292380D01*
X168479047Y-82244761D02*
X168383809Y-82292380D01*
X168193333Y-82292380D01*
X168098095Y-82244761D01*
X168050476Y-82149523D01*
X168050476Y-81768571D01*
X168098095Y-81673333D01*
X168193333Y-81625714D01*
X168383809Y-81625714D01*
X168479047Y-81673333D01*
X168526666Y-81768571D01*
X168526666Y-81863809D01*
X168050476Y-81959047D01*
X168955238Y-82292380D02*
X168955238Y-81625714D01*
X168955238Y-81816190D02*
X169002857Y-81720952D01*
X169050476Y-81673333D01*
X169145714Y-81625714D01*
X169240952Y-81625714D01*
X169574285Y-82292380D02*
X169574285Y-81292380D01*
X169955238Y-81292380D01*
X170050476Y-81340000D01*
X170098095Y-81387619D01*
X170145714Y-81482857D01*
X170145714Y-81625714D01*
X170098095Y-81720952D01*
X170050476Y-81768571D01*
X169955238Y-81816190D01*
X169574285Y-81816190D01*
X171002857Y-82244761D02*
X170907619Y-82292380D01*
X170717142Y-82292380D01*
X170621904Y-82244761D01*
X170574285Y-82197142D01*
X170526666Y-82101904D01*
X170526666Y-81816190D01*
X170574285Y-81720952D01*
X170621904Y-81673333D01*
X170717142Y-81625714D01*
X170907619Y-81625714D01*
X171002857Y-81673333D01*
X171431428Y-82292380D02*
X171431428Y-81292380D01*
X171431428Y-81673333D02*
X171526666Y-81625714D01*
X171717142Y-81625714D01*
X171812380Y-81673333D01*
X171859999Y-81720952D01*
X171907619Y-81816190D01*
X171907619Y-82101904D01*
X171859999Y-82197142D01*
X171812380Y-82244761D01*
X171717142Y-82292380D01*
X171526666Y-82292380D01*
X171431428Y-82244761D01*
X150904761Y-80362380D02*
X150571428Y-79886190D01*
X150333333Y-80362380D02*
X150333333Y-79362380D01*
X150714285Y-79362380D01*
X150809523Y-79410000D01*
X150857142Y-79457619D01*
X150904761Y-79552857D01*
X150904761Y-79695714D01*
X150857142Y-79790952D01*
X150809523Y-79838571D01*
X150714285Y-79886190D01*
X150333333Y-79886190D01*
X151714285Y-80314761D02*
X151619047Y-80362380D01*
X151428571Y-80362380D01*
X151333333Y-80314761D01*
X151285714Y-80219523D01*
X151285714Y-79838571D01*
X151333333Y-79743333D01*
X151428571Y-79695714D01*
X151619047Y-79695714D01*
X151714285Y-79743333D01*
X151761904Y-79838571D01*
X151761904Y-79933809D01*
X151285714Y-80029047D01*
X152095238Y-79695714D02*
X152333333Y-80362380D01*
X152571428Y-79695714D01*
X152904761Y-79457619D02*
X152952380Y-79410000D01*
X153047619Y-79362380D01*
X153285714Y-79362380D01*
X153380952Y-79410000D01*
X153428571Y-79457619D01*
X153476190Y-79552857D01*
X153476190Y-79648095D01*
X153428571Y-79790952D01*
X152857142Y-80362380D01*
X153476190Y-80362380D01*
X154095238Y-79362380D02*
X154190476Y-79362380D01*
X154285714Y-79410000D01*
X154333333Y-79457619D01*
X154380952Y-79552857D01*
X154428571Y-79743333D01*
X154428571Y-79981428D01*
X154380952Y-80171904D01*
X154333333Y-80267142D01*
X154285714Y-80314761D01*
X154190476Y-80362380D01*
X154095238Y-80362380D01*
X154000000Y-80314761D01*
X153952380Y-80267142D01*
X153904761Y-80171904D01*
X153857142Y-79981428D01*
X153857142Y-79743333D01*
X153904761Y-79552857D01*
X153952380Y-79457619D01*
X154000000Y-79410000D01*
X154095238Y-79362380D01*
X155380952Y-80362380D02*
X154809523Y-80362380D01*
X155095238Y-80362380D02*
X155095238Y-79362380D01*
X155000000Y-79505238D01*
X154904761Y-79600476D01*
X154809523Y-79648095D01*
X155857142Y-80362380D02*
X156047619Y-80362380D01*
X156142857Y-80314761D01*
X156190476Y-80267142D01*
X156285714Y-80124285D01*
X156333333Y-79933809D01*
X156333333Y-79552857D01*
X156285714Y-79457619D01*
X156238095Y-79410000D01*
X156142857Y-79362380D01*
X155952380Y-79362380D01*
X155857142Y-79410000D01*
X155809523Y-79457619D01*
X155761904Y-79552857D01*
X155761904Y-79790952D01*
X155809523Y-79886190D01*
X155857142Y-79933809D01*
X155952380Y-79981428D01*
X156142857Y-79981428D01*
X156238095Y-79933809D01*
X156285714Y-79886190D01*
X156333333Y-79790952D01*
X156761904Y-80267142D02*
X156809523Y-80314761D01*
X156761904Y-80362380D01*
X156714285Y-80314761D01*
X156761904Y-80267142D01*
X156761904Y-80362380D01*
X157428571Y-79362380D02*
X157523809Y-79362380D01*
X157619047Y-79410000D01*
X157666666Y-79457619D01*
X157714285Y-79552857D01*
X157761904Y-79743333D01*
X157761904Y-79981428D01*
X157714285Y-80171904D01*
X157666666Y-80267142D01*
X157619047Y-80314761D01*
X157523809Y-80362380D01*
X157428571Y-80362380D01*
X157333333Y-80314761D01*
X157285714Y-80267142D01*
X157238095Y-80171904D01*
X157190476Y-79981428D01*
X157190476Y-79743333D01*
X157238095Y-79552857D01*
X157285714Y-79457619D01*
X157333333Y-79410000D01*
X157428571Y-79362380D01*
X158095238Y-79362380D02*
X158761904Y-79362380D01*
X158333333Y-80362380D01*
D11*
X135037142Y-78958095D02*
X135346666Y-80258095D01*
X135594285Y-79329523D01*
X135841904Y-80258095D01*
X136151428Y-78958095D01*
X136646666Y-80258095D02*
X136646666Y-79391428D01*
X136646666Y-78958095D02*
X136584761Y-79020000D01*
X136646666Y-79081904D01*
X136708571Y-79020000D01*
X136646666Y-78958095D01*
X136646666Y-79081904D01*
X137265714Y-80258095D02*
X137265714Y-79391428D01*
X137265714Y-79639047D02*
X137327619Y-79515238D01*
X137389523Y-79453333D01*
X137513333Y-79391428D01*
X137637142Y-79391428D01*
X138565714Y-80196190D02*
X138441904Y-80258095D01*
X138194285Y-80258095D01*
X138070476Y-80196190D01*
X138008571Y-80072380D01*
X138008571Y-79577142D01*
X138070476Y-79453333D01*
X138194285Y-79391428D01*
X138441904Y-79391428D01*
X138565714Y-79453333D01*
X138627619Y-79577142D01*
X138627619Y-79700952D01*
X138008571Y-79824761D01*
X139741904Y-80258095D02*
X139741904Y-78958095D01*
X139741904Y-80196190D02*
X139618095Y-80258095D01*
X139370476Y-80258095D01*
X139246666Y-80196190D01*
X139184761Y-80134285D01*
X139122857Y-80010476D01*
X139122857Y-79639047D01*
X139184761Y-79515238D01*
X139246666Y-79453333D01*
X139370476Y-79391428D01*
X139618095Y-79391428D01*
X139741904Y-79453333D01*
X141103809Y-80134285D02*
X141041904Y-80196190D01*
X140856190Y-80258095D01*
X140732380Y-80258095D01*
X140546666Y-80196190D01*
X140422857Y-80072380D01*
X140360952Y-79948571D01*
X140299047Y-79700952D01*
X140299047Y-79515238D01*
X140360952Y-79267619D01*
X140422857Y-79143809D01*
X140546666Y-79020000D01*
X140732380Y-78958095D01*
X140856190Y-78958095D01*
X141041904Y-79020000D01*
X141103809Y-79081904D01*
X141846666Y-80258095D02*
X141722857Y-80196190D01*
X141660952Y-80134285D01*
X141599047Y-80010476D01*
X141599047Y-79639047D01*
X141660952Y-79515238D01*
X141722857Y-79453333D01*
X141846666Y-79391428D01*
X142032380Y-79391428D01*
X142156190Y-79453333D01*
X142218095Y-79515238D01*
X142280000Y-79639047D01*
X142280000Y-80010476D01*
X142218095Y-80134285D01*
X142156190Y-80196190D01*
X142032380Y-80258095D01*
X141846666Y-80258095D01*
X142837142Y-79391428D02*
X142837142Y-80258095D01*
X142837142Y-79515238D02*
X142899047Y-79453333D01*
X143022857Y-79391428D01*
X143208571Y-79391428D01*
X143332380Y-79453333D01*
X143394285Y-79577142D01*
X143394285Y-80258095D01*
X143827619Y-79391428D02*
X144322857Y-79391428D01*
X144013333Y-78958095D02*
X144013333Y-80072380D01*
X144075238Y-80196190D01*
X144199047Y-80258095D01*
X144322857Y-80258095D01*
X144756190Y-80258095D02*
X144756190Y-79391428D01*
X144756190Y-79639047D02*
X144818095Y-79515238D01*
X144880000Y-79453333D01*
X145003809Y-79391428D01*
X145127619Y-79391428D01*
X145746666Y-80258095D02*
X145622857Y-80196190D01*
X145560952Y-80134285D01*
X145499047Y-80010476D01*
X145499047Y-79639047D01*
X145560952Y-79515238D01*
X145622857Y-79453333D01*
X145746666Y-79391428D01*
X145932380Y-79391428D01*
X146056190Y-79453333D01*
X146118095Y-79515238D01*
X146180000Y-79639047D01*
X146180000Y-80010476D01*
X146118095Y-80134285D01*
X146056190Y-80196190D01*
X145932380Y-80258095D01*
X145746666Y-80258095D01*
X146922857Y-80258095D02*
X146799047Y-80196190D01*
X146737142Y-80072380D01*
X146737142Y-78958095D01*
X147603809Y-80258095D02*
X147480000Y-80196190D01*
X147418095Y-80072380D01*
X147418095Y-78958095D01*
X148594285Y-80196190D02*
X148470476Y-80258095D01*
X148222857Y-80258095D01*
X148099047Y-80196190D01*
X148037142Y-80072380D01*
X148037142Y-79577142D01*
X148099047Y-79453333D01*
X148222857Y-79391428D01*
X148470476Y-79391428D01*
X148594285Y-79453333D01*
X148656190Y-79577142D01*
X148656190Y-79700952D01*
X148037142Y-79824761D01*
X149213333Y-80258095D02*
X149213333Y-79391428D01*
X149213333Y-79639047D02*
X149275238Y-79515238D01*
X149337142Y-79453333D01*
X149460952Y-79391428D01*
X149584761Y-79391428D01*
D10*
X149552380Y-47132380D02*
X149219047Y-46656190D01*
X148980952Y-47132380D02*
X148980952Y-46132380D01*
X149361904Y-46132380D01*
X149457142Y-46180000D01*
X149504761Y-46227619D01*
X149552380Y-46322857D01*
X149552380Y-46465714D01*
X149504761Y-46560952D01*
X149457142Y-46608571D01*
X149361904Y-46656190D01*
X148980952Y-46656190D01*
X149933333Y-47084761D02*
X150076190Y-47132380D01*
X150314285Y-47132380D01*
X150409523Y-47084761D01*
X150457142Y-47037142D01*
X150504761Y-46941904D01*
X150504761Y-46846666D01*
X150457142Y-46751428D01*
X150409523Y-46703809D01*
X150314285Y-46656190D01*
X150123809Y-46608571D01*
X150028571Y-46560952D01*
X149980952Y-46513333D01*
X149933333Y-46418095D01*
X149933333Y-46322857D01*
X149980952Y-46227619D01*
X150028571Y-46180000D01*
X150123809Y-46132380D01*
X150361904Y-46132380D01*
X150504761Y-46180000D01*
X150790476Y-46132380D02*
X151361904Y-46132380D01*
X151076190Y-47132380D02*
X151076190Y-46132380D01*
X148814285Y-45104761D02*
X148957142Y-45152380D01*
X149195238Y-45152380D01*
X149290476Y-45104761D01*
X149338095Y-45057142D01*
X149385714Y-44961904D01*
X149385714Y-44866666D01*
X149338095Y-44771428D01*
X149290476Y-44723809D01*
X149195238Y-44676190D01*
X149004761Y-44628571D01*
X148909523Y-44580952D01*
X148861904Y-44533333D01*
X148814285Y-44438095D01*
X148814285Y-44342857D01*
X148861904Y-44247619D01*
X148909523Y-44200000D01*
X149004761Y-44152380D01*
X149242857Y-44152380D01*
X149385714Y-44200000D01*
X150385714Y-45057142D02*
X150338095Y-45104761D01*
X150195238Y-45152380D01*
X150100000Y-45152380D01*
X149957142Y-45104761D01*
X149861904Y-45009523D01*
X149814285Y-44914285D01*
X149766666Y-44723809D01*
X149766666Y-44580952D01*
X149814285Y-44390476D01*
X149861904Y-44295238D01*
X149957142Y-44200000D01*
X150100000Y-44152380D01*
X150195238Y-44152380D01*
X150338095Y-44200000D01*
X150385714Y-44247619D01*
X150814285Y-45152380D02*
X150814285Y-44152380D01*
X151385714Y-45152380D02*
X150957142Y-44580952D01*
X151385714Y-44152380D02*
X150814285Y-44723809D01*
X148188571Y-43172380D02*
X148188571Y-42172380D01*
X148521904Y-42886666D01*
X148855238Y-42172380D01*
X148855238Y-43172380D01*
X149521904Y-42172380D02*
X149712380Y-42172380D01*
X149807619Y-42220000D01*
X149902857Y-42315238D01*
X149950476Y-42505714D01*
X149950476Y-42839047D01*
X149902857Y-43029523D01*
X149807619Y-43124761D01*
X149712380Y-43172380D01*
X149521904Y-43172380D01*
X149426666Y-43124761D01*
X149331428Y-43029523D01*
X149283809Y-42839047D01*
X149283809Y-42505714D01*
X149331428Y-42315238D01*
X149426666Y-42220000D01*
X149521904Y-42172380D01*
X150331428Y-43124761D02*
X150474285Y-43172380D01*
X150712380Y-43172380D01*
X150807619Y-43124761D01*
X150855238Y-43077142D01*
X150902857Y-42981904D01*
X150902857Y-42886666D01*
X150855238Y-42791428D01*
X150807619Y-42743809D01*
X150712380Y-42696190D01*
X150521904Y-42648571D01*
X150426666Y-42600952D01*
X150379047Y-42553333D01*
X150331428Y-42458095D01*
X150331428Y-42362857D01*
X150379047Y-42267619D01*
X150426666Y-42220000D01*
X150521904Y-42172380D01*
X150760000Y-42172380D01*
X150902857Y-42220000D01*
X151331428Y-43172380D02*
X151331428Y-42172380D01*
X159478095Y-46150000D02*
X159382857Y-46102380D01*
X159240000Y-46102380D01*
X159097142Y-46150000D01*
X159001904Y-46245238D01*
X158954285Y-46340476D01*
X158906666Y-46530952D01*
X158906666Y-46673809D01*
X158954285Y-46864285D01*
X159001904Y-46959523D01*
X159097142Y-47054761D01*
X159240000Y-47102380D01*
X159335238Y-47102380D01*
X159478095Y-47054761D01*
X159525714Y-47007142D01*
X159525714Y-46673809D01*
X159335238Y-46673809D01*
X159954285Y-47102380D02*
X159954285Y-46102380D01*
X160525714Y-47102380D01*
X160525714Y-46102380D01*
X161001904Y-47102380D02*
X161001904Y-46102380D01*
X161240000Y-46102380D01*
X161382857Y-46150000D01*
X161478095Y-46245238D01*
X161525714Y-46340476D01*
X161573333Y-46530952D01*
X161573333Y-46673809D01*
X161525714Y-46864285D01*
X161478095Y-46959523D01*
X161382857Y-47054761D01*
X161240000Y-47102380D01*
X161001904Y-47102380D01*
X158848571Y-45022380D02*
X158848571Y-44022380D01*
X159181904Y-44736666D01*
X159515238Y-44022380D01*
X159515238Y-45022380D01*
X159991428Y-45022380D02*
X159991428Y-44022380D01*
X160420000Y-44974761D02*
X160562857Y-45022380D01*
X160800952Y-45022380D01*
X160896190Y-44974761D01*
X160943809Y-44927142D01*
X160991428Y-44831904D01*
X160991428Y-44736666D01*
X160943809Y-44641428D01*
X160896190Y-44593809D01*
X160800952Y-44546190D01*
X160610476Y-44498571D01*
X160515238Y-44450952D01*
X160467619Y-44403333D01*
X160420000Y-44308095D01*
X160420000Y-44212857D01*
X160467619Y-44117619D01*
X160515238Y-44070000D01*
X160610476Y-44022380D01*
X160848571Y-44022380D01*
X160991428Y-44070000D01*
X161610476Y-44022380D02*
X161800952Y-44022380D01*
X161896190Y-44070000D01*
X161991428Y-44165238D01*
X162039047Y-44355714D01*
X162039047Y-44689047D01*
X161991428Y-44879523D01*
X161896190Y-44974761D01*
X161800952Y-45022380D01*
X161610476Y-45022380D01*
X161515238Y-44974761D01*
X161420000Y-44879523D01*
X161372380Y-44689047D01*
X161372380Y-44355714D01*
X161420000Y-44165238D01*
X161515238Y-44070000D01*
X161610476Y-44022380D01*
X159046666Y-42032380D02*
X159380000Y-43032380D01*
X159713333Y-42032380D01*
X160618095Y-42937142D02*
X160570476Y-42984761D01*
X160427619Y-43032380D01*
X160332380Y-43032380D01*
X160189523Y-42984761D01*
X160094285Y-42889523D01*
X160046666Y-42794285D01*
X159999047Y-42603809D01*
X159999047Y-42460952D01*
X160046666Y-42270476D01*
X160094285Y-42175238D01*
X160189523Y-42080000D01*
X160332380Y-42032380D01*
X160427619Y-42032380D01*
X160570476Y-42080000D01*
X160618095Y-42127619D01*
X161618095Y-42937142D02*
X161570476Y-42984761D01*
X161427619Y-43032380D01*
X161332380Y-43032380D01*
X161189523Y-42984761D01*
X161094285Y-42889523D01*
X161046666Y-42794285D01*
X160999047Y-42603809D01*
X160999047Y-42460952D01*
X161046666Y-42270476D01*
X161094285Y-42175238D01*
X161189523Y-42080000D01*
X161332380Y-42032380D01*
X161427619Y-42032380D01*
X161570476Y-42080000D01*
X161618095Y-42127619D01*
X127738095Y-81000000D02*
X127642857Y-80952380D01*
X127500000Y-80952380D01*
X127357142Y-81000000D01*
X127261904Y-81095238D01*
X127214285Y-81190476D01*
X127166666Y-81380952D01*
X127166666Y-81523809D01*
X127214285Y-81714285D01*
X127261904Y-81809523D01*
X127357142Y-81904761D01*
X127500000Y-81952380D01*
X127595238Y-81952380D01*
X127738095Y-81904761D01*
X127785714Y-81857142D01*
X127785714Y-81523809D01*
X127595238Y-81523809D01*
X128214285Y-81952380D02*
X128214285Y-80952380D01*
X128785714Y-81952380D01*
X128785714Y-80952380D01*
X129261904Y-81952380D02*
X129261904Y-80952380D01*
X129500000Y-80952380D01*
X129642857Y-81000000D01*
X129738095Y-81095238D01*
X129785714Y-81190476D01*
X129833333Y-81380952D01*
X129833333Y-81523809D01*
X129785714Y-81714285D01*
X129738095Y-81809523D01*
X129642857Y-81904761D01*
X129500000Y-81952380D01*
X129261904Y-81952380D01*
X123492380Y-76042380D02*
X123159047Y-75566190D01*
X122920952Y-76042380D02*
X122920952Y-75042380D01*
X123301904Y-75042380D01*
X123397142Y-75090000D01*
X123444761Y-75137619D01*
X123492380Y-75232857D01*
X123492380Y-75375714D01*
X123444761Y-75470952D01*
X123397142Y-75518571D01*
X123301904Y-75566190D01*
X122920952Y-75566190D01*
X123873333Y-75994761D02*
X124016190Y-76042380D01*
X124254285Y-76042380D01*
X124349523Y-75994761D01*
X124397142Y-75947142D01*
X124444761Y-75851904D01*
X124444761Y-75756666D01*
X124397142Y-75661428D01*
X124349523Y-75613809D01*
X124254285Y-75566190D01*
X124063809Y-75518571D01*
X123968571Y-75470952D01*
X123920952Y-75423333D01*
X123873333Y-75328095D01*
X123873333Y-75232857D01*
X123920952Y-75137619D01*
X123968571Y-75090000D01*
X124063809Y-75042380D01*
X124301904Y-75042380D01*
X124444761Y-75090000D01*
X124730476Y-75042380D02*
X125301904Y-75042380D01*
X125016190Y-76042380D02*
X125016190Y-75042380D01*
X123448095Y-77102380D02*
X124019523Y-77102380D01*
X123733809Y-78102380D02*
X123733809Y-77102380D01*
X124257619Y-77102380D02*
X124924285Y-78102380D01*
X124924285Y-77102380D02*
X124257619Y-78102380D01*
X132426666Y-77182380D02*
X132760000Y-78182380D01*
X133093333Y-77182380D01*
X133998095Y-78087142D02*
X133950476Y-78134761D01*
X133807619Y-78182380D01*
X133712380Y-78182380D01*
X133569523Y-78134761D01*
X133474285Y-78039523D01*
X133426666Y-77944285D01*
X133379047Y-77753809D01*
X133379047Y-77610952D01*
X133426666Y-77420476D01*
X133474285Y-77325238D01*
X133569523Y-77230000D01*
X133712380Y-77182380D01*
X133807619Y-77182380D01*
X133950476Y-77230000D01*
X133998095Y-77277619D01*
X134998095Y-78087142D02*
X134950476Y-78134761D01*
X134807619Y-78182380D01*
X134712380Y-78182380D01*
X134569523Y-78134761D01*
X134474285Y-78039523D01*
X134426666Y-77944285D01*
X134379047Y-77753809D01*
X134379047Y-77610952D01*
X134426666Y-77420476D01*
X134474285Y-77325238D01*
X134569523Y-77230000D01*
X134712380Y-77182380D01*
X134807619Y-77182380D01*
X134950476Y-77230000D01*
X134998095Y-77277619D01*
X133193333Y-76022380D02*
X132860000Y-75546190D01*
X132621904Y-76022380D02*
X132621904Y-75022380D01*
X133002857Y-75022380D01*
X133098095Y-75070000D01*
X133145714Y-75117619D01*
X133193333Y-75212857D01*
X133193333Y-75355714D01*
X133145714Y-75450952D01*
X133098095Y-75498571D01*
X133002857Y-75546190D01*
X132621904Y-75546190D01*
X133526666Y-75022380D02*
X134193333Y-76022380D01*
X134193333Y-75022380D02*
X133526666Y-76022380D01*
D12*
X187490000Y-55130000D02*
X187490000Y-57850000D01*
X187490000Y-64710000D02*
X187490000Y-67430000D01*
X175190000Y-62850000D02*
X175190000Y-59710000D01*
X175190000Y-67430000D02*
X175190000Y-64710000D01*
X186019050Y-61320000D02*
G75*
G03X186019050Y-61320000I-4579050J0D01*
G01*
X175190000Y-57850000D02*
X175190000Y-55130000D01*
X187490000Y-67430000D02*
X175190000Y-67430000D01*
X187490000Y-59710000D02*
X187490000Y-62850000D01*
X175190000Y-55130000D02*
X187490000Y-55130000D01*
X174900000Y-68070000D02*
X174900000Y-70790000D01*
X174900000Y-77650000D02*
X174900000Y-80370000D01*
X162600000Y-75790000D02*
X162600000Y-72650000D01*
X162600000Y-80370000D02*
X162600000Y-77650000D01*
X173429050Y-74260000D02*
G75*
G03X173429050Y-74260000I-4579050J0D01*
G01*
X162600000Y-70790000D02*
X162600000Y-68070000D01*
X174900000Y-80370000D02*
X162600000Y-80370000D01*
X174900000Y-72650000D02*
X174900000Y-75790000D01*
X162600000Y-68070000D02*
X174900000Y-68070000D01*
X165100000Y-55130000D02*
X165100000Y-57850000D01*
X165100000Y-64710000D02*
X165100000Y-67430000D01*
X152800000Y-62850000D02*
X152800000Y-59710000D01*
X152800000Y-67430000D02*
X152800000Y-64710000D01*
X163629050Y-61320000D02*
G75*
G03X163629050Y-61320000I-4579050J0D01*
G01*
X152800000Y-57850000D02*
X152800000Y-55130000D01*
X165100000Y-67430000D02*
X152800000Y-67430000D01*
X165100000Y-59710000D02*
X165100000Y-62850000D01*
X152800000Y-55130000D02*
X165100000Y-55130000D01*
X147169221Y-65400000D02*
X147494779Y-65400000D01*
X147169221Y-64380000D02*
X147494779Y-64380000D01*
X147177221Y-67170000D02*
X147502779Y-67170000D01*
X147177221Y-66150000D02*
X147502779Y-66150000D01*
X147139221Y-68780000D02*
X147464779Y-68780000D01*
X147139221Y-67760000D02*
X147464779Y-67760000D01*
X147165221Y-70400000D02*
X147490779Y-70400000D01*
X147165221Y-69380000D02*
X147490779Y-69380000D01*
X150350000Y-51440279D02*
X150350000Y-51114721D01*
X149330000Y-51440279D02*
X149330000Y-51114721D01*
X139280000Y-76760000D02*
X139280000Y-75360000D01*
X139980000Y-74660000D02*
X140580000Y-74660000D01*
X141280000Y-75360000D02*
X141280000Y-76760000D01*
X140580000Y-77460000D02*
X139980000Y-77460000D01*
X139980000Y-77460000D02*
G75*
G02X139280000Y-76760000I0J700000D01*
G01*
X141280000Y-76760000D02*
G75*
G02X140580000Y-77460000I-700000J0D01*
G01*
X140580000Y-74660000D02*
G75*
G02X141280000Y-75360000I0J-700000D01*
G01*
X139280000Y-75360000D02*
G75*
G02X139980000Y-74660000I700000J0D01*
G01*
X124600000Y-41360000D02*
X125930000Y-41360000D01*
X124600000Y-42690000D02*
X124600000Y-41360000D01*
X124600000Y-43960000D02*
X127260000Y-43960000D01*
X127260000Y-43960000D02*
X127260000Y-54180000D01*
X124600000Y-43960000D02*
X124600000Y-54180000D01*
X124600000Y-54180000D02*
X127260000Y-54180000D01*
X119510000Y-45380000D02*
X120710000Y-45380000D01*
X113710000Y-49690000D02*
X115450000Y-49690000D01*
X113710000Y-43890000D02*
X113710000Y-49690000D01*
X115450000Y-43890000D02*
X113710000Y-43890000D01*
X119510000Y-49690000D02*
X118170000Y-49690000D01*
X119510000Y-48700000D02*
X119510000Y-49690000D01*
X119510000Y-43890000D02*
X118170000Y-43890000D01*
X119510000Y-45380000D02*
X119510000Y-43890000D01*
X149065000Y-52762500D02*
X149065000Y-50477500D01*
X147595000Y-52762500D02*
X149065000Y-52762500D01*
X147595000Y-50477500D02*
X147595000Y-52762500D01*
X130570000Y-43267221D02*
X130570000Y-43592779D01*
X129550000Y-43267221D02*
X129550000Y-43592779D01*
X129610000Y-46457221D02*
X129610000Y-46782779D01*
X130630000Y-46457221D02*
X130630000Y-46782779D01*
X132960779Y-47620000D02*
X132635221Y-47620000D01*
X132960779Y-46600000D02*
X132635221Y-46600000D01*
X140100000Y-54979721D02*
X140100000Y-55305279D01*
X141120000Y-54979721D02*
X141120000Y-55305279D01*
X132265000Y-50547500D02*
X132265000Y-52832500D01*
X132265000Y-52832500D02*
X133735000Y-52832500D01*
X133735000Y-52832500D02*
X133735000Y-50547500D01*
X139005000Y-52862500D02*
X139005000Y-50577500D01*
X137535000Y-52862500D02*
X139005000Y-52862500D01*
X137535000Y-50577500D02*
X137535000Y-52862500D01*
X142595000Y-50347500D02*
X142595000Y-52632500D01*
X142595000Y-52632500D02*
X144065000Y-52632500D01*
X144065000Y-52632500D02*
X144065000Y-50347500D01*
X157240000Y-45350000D02*
X157240000Y-45830000D01*
X153120000Y-45350000D02*
X153120000Y-45830000D01*
X157240000Y-43350000D02*
X157240000Y-43830000D01*
X153120000Y-43350000D02*
X153120000Y-43830000D01*
X157240000Y-47350000D02*
X157240000Y-47650000D01*
X153120000Y-47350000D02*
X153120000Y-47650000D01*
X157240000Y-41530000D02*
X157240000Y-41830000D01*
X153120000Y-41530000D02*
X153120000Y-41830000D01*
X151865000Y-41830000D02*
X153120000Y-41830000D01*
X153120000Y-47650000D02*
X157240000Y-47650000D01*
X153120000Y-41530000D02*
X157240000Y-41530000D01*
X135650000Y-41890000D02*
X138650000Y-41890000D01*
X135650000Y-44890000D02*
X135650000Y-41890000D01*
X143650000Y-48190000D02*
X144250000Y-48190000D01*
X139050000Y-48190000D02*
X139650000Y-48190000D01*
X136150000Y-42340000D02*
X147200000Y-42340000D01*
X136150000Y-48190000D02*
X136150000Y-42340000D01*
X139900000Y-48190000D02*
X143400000Y-48190000D01*
X147200000Y-48190000D02*
X147200000Y-42340000D01*
X136150000Y-48190000D02*
X138800000Y-48190000D01*
X144550000Y-48190000D02*
X147200000Y-48190000D01*
X126640000Y-74450000D02*
X130760000Y-74450000D01*
X126640000Y-80570000D02*
X130760000Y-80570000D01*
X125385000Y-74750000D02*
X126640000Y-74750000D01*
X126640000Y-74450000D02*
X126640000Y-74750000D01*
X130760000Y-74450000D02*
X130760000Y-74750000D01*
X126640000Y-80270000D02*
X126640000Y-80570000D01*
X130760000Y-80270000D02*
X130760000Y-80570000D01*
X126640000Y-76270000D02*
X126640000Y-76750000D01*
X130760000Y-76270000D02*
X130760000Y-76750000D01*
X126640000Y-78270000D02*
X126640000Y-78750000D01*
X130760000Y-78270000D02*
X130760000Y-78750000D01*
X134170000Y-51510279D02*
X134170000Y-51184721D01*
X135190000Y-51510279D02*
X135190000Y-51184721D01*
X140490000Y-51572779D02*
X140490000Y-51247221D01*
X139470000Y-51572779D02*
X139470000Y-51247221D01*
X145390000Y-51230279D02*
X145390000Y-50904721D01*
X144370000Y-51230279D02*
X144370000Y-50904721D01*
X130054779Y-61230000D02*
X129729221Y-61230000D01*
X130054779Y-60210000D02*
X129729221Y-60210000D01*
X121460779Y-75850000D02*
X121135221Y-75850000D01*
X121460779Y-74830000D02*
X121135221Y-74830000D01*
X163140000Y-42140000D02*
X175440000Y-42140000D01*
X175440000Y-46720000D02*
X175440000Y-49860000D01*
X175440000Y-54440000D02*
X163140000Y-54440000D01*
X163140000Y-44860000D02*
X163140000Y-42140000D01*
X173969050Y-48330000D02*
G75*
G03X173969050Y-48330000I-4579050J0D01*
G01*
X163140000Y-54440000D02*
X163140000Y-51720000D01*
X163140000Y-49860000D02*
X163140000Y-46720000D01*
X175440000Y-51720000D02*
X175440000Y-54440000D01*
X175440000Y-42140000D02*
X175440000Y-44860000D01*
X131250000Y-43270000D02*
X131250000Y-45070000D01*
X134470000Y-45070000D02*
X134470000Y-42620000D01*
X137690000Y-57855000D02*
X137690000Y-57380000D01*
X137690000Y-57380000D02*
X138165000Y-57380000D01*
X142910000Y-62125000D02*
X142910000Y-62600000D01*
X142910000Y-62600000D02*
X142435000Y-62600000D01*
X142910000Y-57855000D02*
X142910000Y-57380000D01*
X142910000Y-57380000D02*
X142435000Y-57380000D01*
X137690000Y-62125000D02*
X137690000Y-62600000D01*
X143270000Y-65180000D02*
X140070000Y-65180000D01*
X140070000Y-65180000D02*
X140070000Y-69180000D01*
D10*
X179836666Y-54524761D02*
X179979523Y-54572380D01*
X180217619Y-54572380D01*
X180312857Y-54524761D01*
X180360476Y-54477142D01*
X180408095Y-54381904D01*
X180408095Y-54286666D01*
X180360476Y-54191428D01*
X180312857Y-54143809D01*
X180217619Y-54096190D01*
X180027142Y-54048571D01*
X179931904Y-54000952D01*
X179884285Y-53953333D01*
X179836666Y-53858095D01*
X179836666Y-53762857D01*
X179884285Y-53667619D01*
X179931904Y-53620000D01*
X180027142Y-53572380D01*
X180265238Y-53572380D01*
X180408095Y-53620000D01*
X180741428Y-53572380D02*
X180979523Y-54572380D01*
X181170000Y-53858095D01*
X181360476Y-54572380D01*
X181598571Y-53572380D01*
X182408095Y-53905714D02*
X182408095Y-54572380D01*
X182170000Y-53524761D02*
X181931904Y-54239047D01*
X182550952Y-54239047D01*
X167246666Y-67464761D02*
X167389523Y-67512380D01*
X167627619Y-67512380D01*
X167722857Y-67464761D01*
X167770476Y-67417142D01*
X167818095Y-67321904D01*
X167818095Y-67226666D01*
X167770476Y-67131428D01*
X167722857Y-67083809D01*
X167627619Y-67036190D01*
X167437142Y-66988571D01*
X167341904Y-66940952D01*
X167294285Y-66893333D01*
X167246666Y-66798095D01*
X167246666Y-66702857D01*
X167294285Y-66607619D01*
X167341904Y-66560000D01*
X167437142Y-66512380D01*
X167675238Y-66512380D01*
X167818095Y-66560000D01*
X168151428Y-66512380D02*
X168389523Y-67512380D01*
X168580000Y-66798095D01*
X168770476Y-67512380D01*
X169008571Y-66512380D01*
X169294285Y-66512380D02*
X169913333Y-66512380D01*
X169580000Y-66893333D01*
X169722857Y-66893333D01*
X169818095Y-66940952D01*
X169865714Y-66988571D01*
X169913333Y-67083809D01*
X169913333Y-67321904D01*
X169865714Y-67417142D01*
X169818095Y-67464761D01*
X169722857Y-67512380D01*
X169437142Y-67512380D01*
X169341904Y-67464761D01*
X169294285Y-67417142D01*
X157446666Y-54524761D02*
X157589523Y-54572380D01*
X157827619Y-54572380D01*
X157922857Y-54524761D01*
X157970476Y-54477142D01*
X158018095Y-54381904D01*
X158018095Y-54286666D01*
X157970476Y-54191428D01*
X157922857Y-54143809D01*
X157827619Y-54096190D01*
X157637142Y-54048571D01*
X157541904Y-54000952D01*
X157494285Y-53953333D01*
X157446666Y-53858095D01*
X157446666Y-53762857D01*
X157494285Y-53667619D01*
X157541904Y-53620000D01*
X157637142Y-53572380D01*
X157875238Y-53572380D01*
X158018095Y-53620000D01*
X158351428Y-53572380D02*
X158589523Y-54572380D01*
X158780000Y-53858095D01*
X158970476Y-54572380D01*
X159208571Y-53572380D01*
X159541904Y-53667619D02*
X159589523Y-53620000D01*
X159684761Y-53572380D01*
X159922857Y-53572380D01*
X160018095Y-53620000D01*
X160065714Y-53667619D01*
X160113333Y-53762857D01*
X160113333Y-53858095D01*
X160065714Y-54000952D01*
X159494285Y-54572380D01*
X160113333Y-54572380D01*
X149597142Y-65477142D02*
X149549523Y-65524761D01*
X149406666Y-65572380D01*
X149311428Y-65572380D01*
X149168571Y-65524761D01*
X149073333Y-65429523D01*
X149025714Y-65334285D01*
X148978095Y-65143809D01*
X148978095Y-65000952D01*
X149025714Y-64810476D01*
X149073333Y-64715238D01*
X149168571Y-64620000D01*
X149311428Y-64572380D01*
X149406666Y-64572380D01*
X149549523Y-64620000D01*
X149597142Y-64667619D01*
X150549523Y-65572380D02*
X149978095Y-65572380D01*
X150263809Y-65572380D02*
X150263809Y-64572380D01*
X150168571Y-64715238D01*
X150073333Y-64810476D01*
X149978095Y-64858095D01*
X151168571Y-64572380D02*
X151263809Y-64572380D01*
X151359047Y-64620000D01*
X151406666Y-64667619D01*
X151454285Y-64762857D01*
X151501904Y-64953333D01*
X151501904Y-65191428D01*
X151454285Y-65381904D01*
X151406666Y-65477142D01*
X151359047Y-65524761D01*
X151263809Y-65572380D01*
X151168571Y-65572380D01*
X151073333Y-65524761D01*
X151025714Y-65477142D01*
X150978095Y-65381904D01*
X150930476Y-65191428D01*
X150930476Y-64953333D01*
X150978095Y-64762857D01*
X151025714Y-64667619D01*
X151073333Y-64620000D01*
X151168571Y-64572380D01*
X149563333Y-66987142D02*
X149515714Y-67034761D01*
X149372857Y-67082380D01*
X149277619Y-67082380D01*
X149134761Y-67034761D01*
X149039523Y-66939523D01*
X148991904Y-66844285D01*
X148944285Y-66653809D01*
X148944285Y-66510952D01*
X148991904Y-66320476D01*
X149039523Y-66225238D01*
X149134761Y-66130000D01*
X149277619Y-66082380D01*
X149372857Y-66082380D01*
X149515714Y-66130000D01*
X149563333Y-66177619D01*
X150039523Y-67082380D02*
X150230000Y-67082380D01*
X150325238Y-67034761D01*
X150372857Y-66987142D01*
X150468095Y-66844285D01*
X150515714Y-66653809D01*
X150515714Y-66272857D01*
X150468095Y-66177619D01*
X150420476Y-66130000D01*
X150325238Y-66082380D01*
X150134761Y-66082380D01*
X150039523Y-66130000D01*
X149991904Y-66177619D01*
X149944285Y-66272857D01*
X149944285Y-66510952D01*
X149991904Y-66606190D01*
X150039523Y-66653809D01*
X150134761Y-66701428D01*
X150325238Y-66701428D01*
X150420476Y-66653809D01*
X150468095Y-66606190D01*
X150515714Y-66510952D01*
X149563333Y-68607142D02*
X149515714Y-68654761D01*
X149372857Y-68702380D01*
X149277619Y-68702380D01*
X149134761Y-68654761D01*
X149039523Y-68559523D01*
X148991904Y-68464285D01*
X148944285Y-68273809D01*
X148944285Y-68130952D01*
X148991904Y-67940476D01*
X149039523Y-67845238D01*
X149134761Y-67750000D01*
X149277619Y-67702380D01*
X149372857Y-67702380D01*
X149515714Y-67750000D01*
X149563333Y-67797619D01*
X150134761Y-68130952D02*
X150039523Y-68083333D01*
X149991904Y-68035714D01*
X149944285Y-67940476D01*
X149944285Y-67892857D01*
X149991904Y-67797619D01*
X150039523Y-67750000D01*
X150134761Y-67702380D01*
X150325238Y-67702380D01*
X150420476Y-67750000D01*
X150468095Y-67797619D01*
X150515714Y-67892857D01*
X150515714Y-67940476D01*
X150468095Y-68035714D01*
X150420476Y-68083333D01*
X150325238Y-68130952D01*
X150134761Y-68130952D01*
X150039523Y-68178571D01*
X149991904Y-68226190D01*
X149944285Y-68321428D01*
X149944285Y-68511904D01*
X149991904Y-68607142D01*
X150039523Y-68654761D01*
X150134761Y-68702380D01*
X150325238Y-68702380D01*
X150420476Y-68654761D01*
X150468095Y-68607142D01*
X150515714Y-68511904D01*
X150515714Y-68321428D01*
X150468095Y-68226190D01*
X150420476Y-68178571D01*
X150325238Y-68130952D01*
X149593333Y-70377142D02*
X149545714Y-70424761D01*
X149402857Y-70472380D01*
X149307619Y-70472380D01*
X149164761Y-70424761D01*
X149069523Y-70329523D01*
X149021904Y-70234285D01*
X148974285Y-70043809D01*
X148974285Y-69900952D01*
X149021904Y-69710476D01*
X149069523Y-69615238D01*
X149164761Y-69520000D01*
X149307619Y-69472380D01*
X149402857Y-69472380D01*
X149545714Y-69520000D01*
X149593333Y-69567619D01*
X149926666Y-69472380D02*
X150593333Y-69472380D01*
X150164761Y-70472380D01*
X144273333Y-63907142D02*
X144225714Y-63954761D01*
X144082857Y-64002380D01*
X143987619Y-64002380D01*
X143844761Y-63954761D01*
X143749523Y-63859523D01*
X143701904Y-63764285D01*
X143654285Y-63573809D01*
X143654285Y-63430952D01*
X143701904Y-63240476D01*
X143749523Y-63145238D01*
X143844761Y-63050000D01*
X143987619Y-63002380D01*
X144082857Y-63002380D01*
X144225714Y-63050000D01*
X144273333Y-63097619D01*
X145130476Y-63002380D02*
X144940000Y-63002380D01*
X144844761Y-63050000D01*
X144797142Y-63097619D01*
X144701904Y-63240476D01*
X144654285Y-63430952D01*
X144654285Y-63811904D01*
X144701904Y-63907142D01*
X144749523Y-63954761D01*
X144844761Y-64002380D01*
X145035238Y-64002380D01*
X145130476Y-63954761D01*
X145178095Y-63907142D01*
X145225714Y-63811904D01*
X145225714Y-63573809D01*
X145178095Y-63478571D01*
X145130476Y-63430952D01*
X145035238Y-63383333D01*
X144844761Y-63383333D01*
X144749523Y-63430952D01*
X144701904Y-63478571D01*
X144654285Y-63573809D01*
X138633333Y-64767142D02*
X138585714Y-64814761D01*
X138442857Y-64862380D01*
X138347619Y-64862380D01*
X138204761Y-64814761D01*
X138109523Y-64719523D01*
X138061904Y-64624285D01*
X138014285Y-64433809D01*
X138014285Y-64290952D01*
X138061904Y-64100476D01*
X138109523Y-64005238D01*
X138204761Y-63910000D01*
X138347619Y-63862380D01*
X138442857Y-63862380D01*
X138585714Y-63910000D01*
X138633333Y-63957619D01*
X139538095Y-63862380D02*
X139061904Y-63862380D01*
X139014285Y-64338571D01*
X139061904Y-64290952D01*
X139157142Y-64243333D01*
X139395238Y-64243333D01*
X139490476Y-64290952D01*
X139538095Y-64338571D01*
X139585714Y-64433809D01*
X139585714Y-64671904D01*
X139538095Y-64767142D01*
X139490476Y-64814761D01*
X139395238Y-64862380D01*
X139157142Y-64862380D01*
X139061904Y-64814761D01*
X139014285Y-64767142D01*
X150332380Y-53966666D02*
X149856190Y-54300000D01*
X150332380Y-54538095D02*
X149332380Y-54538095D01*
X149332380Y-54157142D01*
X149380000Y-54061904D01*
X149427619Y-54014285D01*
X149522857Y-53966666D01*
X149665714Y-53966666D01*
X149760952Y-54014285D01*
X149808571Y-54061904D01*
X149856190Y-54157142D01*
X149856190Y-54538095D01*
X149332380Y-53109523D02*
X149332380Y-53300000D01*
X149380000Y-53395238D01*
X149427619Y-53442857D01*
X149570476Y-53538095D01*
X149760952Y-53585714D01*
X150141904Y-53585714D01*
X150237142Y-53538095D01*
X150284761Y-53490476D01*
X150332380Y-53395238D01*
X150332380Y-53204761D01*
X150284761Y-53109523D01*
X150237142Y-53061904D01*
X150141904Y-53014285D01*
X149903809Y-53014285D01*
X149808571Y-53061904D01*
X149760952Y-53109523D01*
X149713333Y-53204761D01*
X149713333Y-53395238D01*
X149760952Y-53490476D01*
X149808571Y-53538095D01*
X149903809Y-53585714D01*
X137932380Y-76893333D02*
X138646666Y-76893333D01*
X138789523Y-76940952D01*
X138884761Y-77036190D01*
X138932380Y-77179047D01*
X138932380Y-77274285D01*
X138932380Y-76417142D02*
X137932380Y-76417142D01*
X137932380Y-76036190D01*
X137980000Y-75940952D01*
X138027619Y-75893333D01*
X138122857Y-75845714D01*
X138265714Y-75845714D01*
X138360952Y-75893333D01*
X138408571Y-75940952D01*
X138456190Y-76036190D01*
X138456190Y-76417142D01*
X138932380Y-74893333D02*
X138932380Y-75464761D01*
X138932380Y-75179047D02*
X137932380Y-75179047D01*
X138075238Y-75274285D01*
X138170476Y-75369523D01*
X138218095Y-75464761D01*
X125596666Y-39812380D02*
X125596666Y-40526666D01*
X125549047Y-40669523D01*
X125453809Y-40764761D01*
X125310952Y-40812380D01*
X125215714Y-40812380D01*
X126501428Y-39812380D02*
X126310952Y-39812380D01*
X126215714Y-39860000D01*
X126168095Y-39907619D01*
X126072857Y-40050476D01*
X126025238Y-40240952D01*
X126025238Y-40621904D01*
X126072857Y-40717142D01*
X126120476Y-40764761D01*
X126215714Y-40812380D01*
X126406190Y-40812380D01*
X126501428Y-40764761D01*
X126549047Y-40717142D01*
X126596666Y-40621904D01*
X126596666Y-40383809D01*
X126549047Y-40288571D01*
X126501428Y-40240952D01*
X126406190Y-40193333D01*
X126215714Y-40193333D01*
X126120476Y-40240952D01*
X126072857Y-40288571D01*
X126025238Y-40383809D01*
X121362380Y-47373333D02*
X122076666Y-47373333D01*
X122219523Y-47420952D01*
X122314761Y-47516190D01*
X122362380Y-47659047D01*
X122362380Y-47754285D01*
X121362380Y-46420952D02*
X121362380Y-46897142D01*
X121838571Y-46944761D01*
X121790952Y-46897142D01*
X121743333Y-46801904D01*
X121743333Y-46563809D01*
X121790952Y-46468571D01*
X121838571Y-46420952D01*
X121933809Y-46373333D01*
X122171904Y-46373333D01*
X122267142Y-46420952D01*
X122314761Y-46468571D01*
X122362380Y-46563809D01*
X122362380Y-46801904D01*
X122314761Y-46897142D01*
X122267142Y-46944761D01*
X148802380Y-54598095D02*
X147802380Y-54598095D01*
X147802380Y-54360000D01*
X147850000Y-54217142D01*
X147945238Y-54121904D01*
X148040476Y-54074285D01*
X148230952Y-54026666D01*
X148373809Y-54026666D01*
X148564285Y-54074285D01*
X148659523Y-54121904D01*
X148754761Y-54217142D01*
X148802380Y-54360000D01*
X148802380Y-54598095D01*
X148135714Y-53169523D02*
X148802380Y-53169523D01*
X147754761Y-53407619D02*
X148469047Y-53645714D01*
X148469047Y-53026666D01*
X128987142Y-43716666D02*
X129034761Y-43764285D01*
X129082380Y-43907142D01*
X129082380Y-44002380D01*
X129034761Y-44145238D01*
X128939523Y-44240476D01*
X128844285Y-44288095D01*
X128653809Y-44335714D01*
X128510952Y-44335714D01*
X128320476Y-44288095D01*
X128225238Y-44240476D01*
X128130000Y-44145238D01*
X128082380Y-44002380D01*
X128082380Y-43907142D01*
X128130000Y-43764285D01*
X128177619Y-43716666D01*
X129082380Y-42764285D02*
X129082380Y-43335714D01*
X129082380Y-43050000D02*
X128082380Y-43050000D01*
X128225238Y-43145238D01*
X128320476Y-43240476D01*
X128368095Y-43335714D01*
X129177142Y-46746666D02*
X129224761Y-46794285D01*
X129272380Y-46937142D01*
X129272380Y-47032380D01*
X129224761Y-47175238D01*
X129129523Y-47270476D01*
X129034285Y-47318095D01*
X128843809Y-47365714D01*
X128700952Y-47365714D01*
X128510476Y-47318095D01*
X128415238Y-47270476D01*
X128320000Y-47175238D01*
X128272380Y-47032380D01*
X128272380Y-46937142D01*
X128320000Y-46794285D01*
X128367619Y-46746666D01*
X128367619Y-46365714D02*
X128320000Y-46318095D01*
X128272380Y-46222857D01*
X128272380Y-45984761D01*
X128320000Y-45889523D01*
X128367619Y-45841904D01*
X128462857Y-45794285D01*
X128558095Y-45794285D01*
X128700952Y-45841904D01*
X129272380Y-46413333D01*
X129272380Y-45794285D01*
X132631333Y-48897142D02*
X132583714Y-48944761D01*
X132440857Y-48992380D01*
X132345619Y-48992380D01*
X132202761Y-48944761D01*
X132107523Y-48849523D01*
X132059904Y-48754285D01*
X132012285Y-48563809D01*
X132012285Y-48420952D01*
X132059904Y-48230476D01*
X132107523Y-48135238D01*
X132202761Y-48040000D01*
X132345619Y-47992380D01*
X132440857Y-47992380D01*
X132583714Y-48040000D01*
X132631333Y-48087619D01*
X132964666Y-47992380D02*
X133583714Y-47992380D01*
X133250380Y-48373333D01*
X133393238Y-48373333D01*
X133488476Y-48420952D01*
X133536095Y-48468571D01*
X133583714Y-48563809D01*
X133583714Y-48801904D01*
X133536095Y-48897142D01*
X133488476Y-48944761D01*
X133393238Y-48992380D01*
X133107523Y-48992380D01*
X133012285Y-48944761D01*
X132964666Y-48897142D01*
X142397142Y-55309166D02*
X142444761Y-55356785D01*
X142492380Y-55499642D01*
X142492380Y-55594880D01*
X142444761Y-55737738D01*
X142349523Y-55832976D01*
X142254285Y-55880595D01*
X142063809Y-55928214D01*
X141920952Y-55928214D01*
X141730476Y-55880595D01*
X141635238Y-55832976D01*
X141540000Y-55737738D01*
X141492380Y-55594880D01*
X141492380Y-55499642D01*
X141540000Y-55356785D01*
X141587619Y-55309166D01*
X141825714Y-54452023D02*
X142492380Y-54452023D01*
X141444761Y-54690119D02*
X142159047Y-54928214D01*
X142159047Y-54309166D01*
X133532380Y-54508095D02*
X132532380Y-54508095D01*
X132532380Y-54270000D01*
X132580000Y-54127142D01*
X132675238Y-54031904D01*
X132770476Y-53984285D01*
X132960952Y-53936666D01*
X133103809Y-53936666D01*
X133294285Y-53984285D01*
X133389523Y-54031904D01*
X133484761Y-54127142D01*
X133532380Y-54270000D01*
X133532380Y-54508095D01*
X133532380Y-52984285D02*
X133532380Y-53555714D01*
X133532380Y-53270000D02*
X132532380Y-53270000D01*
X132675238Y-53365238D01*
X132770476Y-53460476D01*
X132818095Y-53555714D01*
X138802380Y-54608095D02*
X137802380Y-54608095D01*
X137802380Y-54370000D01*
X137850000Y-54227142D01*
X137945238Y-54131904D01*
X138040476Y-54084285D01*
X138230952Y-54036666D01*
X138373809Y-54036666D01*
X138564285Y-54084285D01*
X138659523Y-54131904D01*
X138754761Y-54227142D01*
X138802380Y-54370000D01*
X138802380Y-54608095D01*
X137897619Y-53655714D02*
X137850000Y-53608095D01*
X137802380Y-53512857D01*
X137802380Y-53274761D01*
X137850000Y-53179523D01*
X137897619Y-53131904D01*
X137992857Y-53084285D01*
X138088095Y-53084285D01*
X138230952Y-53131904D01*
X138802380Y-53703333D01*
X138802380Y-53084285D01*
X143842380Y-54368095D02*
X142842380Y-54368095D01*
X142842380Y-54130000D01*
X142890000Y-53987142D01*
X142985238Y-53891904D01*
X143080476Y-53844285D01*
X143270952Y-53796666D01*
X143413809Y-53796666D01*
X143604285Y-53844285D01*
X143699523Y-53891904D01*
X143794761Y-53987142D01*
X143842380Y-54130000D01*
X143842380Y-54368095D01*
X142842380Y-53463333D02*
X142842380Y-52844285D01*
X143223333Y-53177619D01*
X143223333Y-53034761D01*
X143270952Y-52939523D01*
X143318571Y-52891904D01*
X143413809Y-52844285D01*
X143651904Y-52844285D01*
X143747142Y-52891904D01*
X143794761Y-52939523D01*
X143842380Y-53034761D01*
X143842380Y-53320476D01*
X143794761Y-53415714D01*
X143747142Y-53463333D01*
X117867466Y-52594780D02*
X117867466Y-53309066D01*
X117819847Y-53451923D01*
X117724609Y-53547161D01*
X117581752Y-53594780D01*
X117486514Y-53594780D01*
X118867466Y-53594780D02*
X118296038Y-53594780D01*
X118581752Y-53594780D02*
X118581752Y-52594780D01*
X118486514Y-52737638D01*
X118391276Y-52832876D01*
X118296038Y-52880495D01*
X154846666Y-39982380D02*
X154846666Y-40696666D01*
X154799047Y-40839523D01*
X154703809Y-40934761D01*
X154560952Y-40982380D01*
X154465714Y-40982380D01*
X155275238Y-40077619D02*
X155322857Y-40030000D01*
X155418095Y-39982380D01*
X155656190Y-39982380D01*
X155751428Y-40030000D01*
X155799047Y-40077619D01*
X155846666Y-40172857D01*
X155846666Y-40268095D01*
X155799047Y-40410952D01*
X155227619Y-40982380D01*
X155846666Y-40982380D01*
X134932380Y-47913333D02*
X135646666Y-47913333D01*
X135789523Y-47960952D01*
X135884761Y-48056190D01*
X135932380Y-48199047D01*
X135932380Y-48294285D01*
X134932380Y-47532380D02*
X134932380Y-46913333D01*
X135313333Y-47246666D01*
X135313333Y-47103809D01*
X135360952Y-47008571D01*
X135408571Y-46960952D01*
X135503809Y-46913333D01*
X135741904Y-46913333D01*
X135837142Y-46960952D01*
X135884761Y-47008571D01*
X135932380Y-47103809D01*
X135932380Y-47389523D01*
X135884761Y-47484761D01*
X135837142Y-47532380D01*
X128366666Y-72902380D02*
X128366666Y-73616666D01*
X128319047Y-73759523D01*
X128223809Y-73854761D01*
X128080952Y-73902380D01*
X127985714Y-73902380D01*
X129271428Y-73235714D02*
X129271428Y-73902380D01*
X129033333Y-72854761D02*
X128795238Y-73569047D01*
X129414285Y-73569047D01*
X135092380Y-54006666D02*
X134616190Y-54340000D01*
X135092380Y-54578095D02*
X134092380Y-54578095D01*
X134092380Y-54197142D01*
X134140000Y-54101904D01*
X134187619Y-54054285D01*
X134282857Y-54006666D01*
X134425714Y-54006666D01*
X134520952Y-54054285D01*
X134568571Y-54101904D01*
X134616190Y-54197142D01*
X134616190Y-54578095D01*
X135092380Y-53054285D02*
X135092380Y-53625714D01*
X135092380Y-53340000D02*
X134092380Y-53340000D01*
X134235238Y-53435238D01*
X134330476Y-53530476D01*
X134378095Y-53625714D01*
X141862380Y-50856666D02*
X141386190Y-51190000D01*
X141862380Y-51428095D02*
X140862380Y-51428095D01*
X140862380Y-51047142D01*
X140910000Y-50951904D01*
X140957619Y-50904285D01*
X141052857Y-50856666D01*
X141195714Y-50856666D01*
X141290952Y-50904285D01*
X141338571Y-50951904D01*
X141386190Y-51047142D01*
X141386190Y-51428095D01*
X140957619Y-50475714D02*
X140910000Y-50428095D01*
X140862380Y-50332857D01*
X140862380Y-50094761D01*
X140910000Y-49999523D01*
X140957619Y-49951904D01*
X141052857Y-49904285D01*
X141148095Y-49904285D01*
X141290952Y-49951904D01*
X141862380Y-50523333D01*
X141862380Y-49904285D01*
X145352380Y-53826666D02*
X144876190Y-54160000D01*
X145352380Y-54398095D02*
X144352380Y-54398095D01*
X144352380Y-54017142D01*
X144400000Y-53921904D01*
X144447619Y-53874285D01*
X144542857Y-53826666D01*
X144685714Y-53826666D01*
X144780952Y-53874285D01*
X144828571Y-53921904D01*
X144876190Y-54017142D01*
X144876190Y-54398095D01*
X144352380Y-53493333D02*
X144352380Y-52874285D01*
X144733333Y-53207619D01*
X144733333Y-53064761D01*
X144780952Y-52969523D01*
X144828571Y-52921904D01*
X144923809Y-52874285D01*
X145161904Y-52874285D01*
X145257142Y-52921904D01*
X145304761Y-52969523D01*
X145352380Y-53064761D01*
X145352380Y-53350476D01*
X145304761Y-53445714D01*
X145257142Y-53493333D01*
X129725333Y-62602380D02*
X129392000Y-62126190D01*
X129153904Y-62602380D02*
X129153904Y-61602380D01*
X129534857Y-61602380D01*
X129630095Y-61650000D01*
X129677714Y-61697619D01*
X129725333Y-61792857D01*
X129725333Y-61935714D01*
X129677714Y-62030952D01*
X129630095Y-62078571D01*
X129534857Y-62126190D01*
X129153904Y-62126190D01*
X130582476Y-61935714D02*
X130582476Y-62602380D01*
X130344380Y-61554761D02*
X130106285Y-62269047D01*
X130725333Y-62269047D01*
X121131333Y-77222380D02*
X120798000Y-76746190D01*
X120559904Y-77222380D02*
X120559904Y-76222380D01*
X120940857Y-76222380D01*
X121036095Y-76270000D01*
X121083714Y-76317619D01*
X121131333Y-76412857D01*
X121131333Y-76555714D01*
X121083714Y-76650952D01*
X121036095Y-76698571D01*
X120940857Y-76746190D01*
X120559904Y-76746190D01*
X122036095Y-76222380D02*
X121559904Y-76222380D01*
X121512285Y-76698571D01*
X121559904Y-76650952D01*
X121655142Y-76603333D01*
X121893238Y-76603333D01*
X121988476Y-76650952D01*
X122036095Y-76698571D01*
X122083714Y-76793809D01*
X122083714Y-77031904D01*
X122036095Y-77127142D01*
X121988476Y-77174761D01*
X121893238Y-77222380D01*
X121655142Y-77222380D01*
X121559904Y-77174761D01*
X121512285Y-77127142D01*
X167786666Y-41534761D02*
X167929523Y-41582380D01*
X168167619Y-41582380D01*
X168262857Y-41534761D01*
X168310476Y-41487142D01*
X168358095Y-41391904D01*
X168358095Y-41296666D01*
X168310476Y-41201428D01*
X168262857Y-41153809D01*
X168167619Y-41106190D01*
X167977142Y-41058571D01*
X167881904Y-41010952D01*
X167834285Y-40963333D01*
X167786666Y-40868095D01*
X167786666Y-40772857D01*
X167834285Y-40677619D01*
X167881904Y-40630000D01*
X167977142Y-40582380D01*
X168215238Y-40582380D01*
X168358095Y-40630000D01*
X168691428Y-40582380D02*
X168929523Y-41582380D01*
X169120000Y-40868095D01*
X169310476Y-41582380D01*
X169548571Y-40582380D01*
X170453333Y-41582380D02*
X169881904Y-41582380D01*
X170167619Y-41582380D02*
X170167619Y-40582380D01*
X170072380Y-40725238D01*
X169977142Y-40820476D01*
X169881904Y-40868095D01*
X132512380Y-42031904D02*
X133321904Y-42031904D01*
X133417142Y-41984285D01*
X133464761Y-41936666D01*
X133512380Y-41841428D01*
X133512380Y-41650952D01*
X133464761Y-41555714D01*
X133417142Y-41508095D01*
X133321904Y-41460476D01*
X132512380Y-41460476D01*
X133512380Y-40460476D02*
X133512380Y-41031904D01*
X133512380Y-40746190D02*
X132512380Y-40746190D01*
X132655238Y-40841428D01*
X132750476Y-40936666D01*
X132798095Y-41031904D01*
X135932380Y-60751904D02*
X136741904Y-60751904D01*
X136837142Y-60704285D01*
X136884761Y-60656666D01*
X136932380Y-60561428D01*
X136932380Y-60370952D01*
X136884761Y-60275714D01*
X136837142Y-60228095D01*
X136741904Y-60180476D01*
X135932380Y-60180476D01*
X136027619Y-59751904D02*
X135980000Y-59704285D01*
X135932380Y-59609047D01*
X135932380Y-59370952D01*
X135980000Y-59275714D01*
X136027619Y-59228095D01*
X136122857Y-59180476D01*
X136218095Y-59180476D01*
X136360952Y-59228095D01*
X136932380Y-59799523D01*
X136932380Y-59180476D01*
X144096190Y-67656190D02*
X144572380Y-67656190D01*
X143572380Y-67989523D02*
X144096190Y-67656190D01*
X143572380Y-67322857D01*
X144572380Y-66465714D02*
X144572380Y-67037142D01*
X144572380Y-66751428D02*
X143572380Y-66751428D01*
X143715238Y-66846666D01*
X143810476Y-66941904D01*
X143858095Y-67037142D01*
M02*
