G04 #@! TF.GenerationSoftware,KiCad,Pcbnew,5.1.2-f72e74a~84~ubuntu18.04.1*
G04 #@! TF.CreationDate,2019-07-18T22:23:35+09:00*
G04 #@! TF.ProjectId,WiredControllerPcb,57697265-6443-46f6-9e74-726f6c6c6572,rev?*
G04 #@! TF.SameCoordinates,Original*
G04 #@! TF.FileFunction,Paste,Top*
G04 #@! TF.FilePolarity,Positive*
%FSLAX46Y46*%
G04 Gerber Fmt 4.6, Leading zero omitted, Abs format (unit mm)*
G04 Created by KiCad (PCBNEW 5.1.2-f72e74a~84~ubuntu18.04.1) date 2019-07-18 22:23:35*
%MOMM*%
%LPD*%
G04 APERTURE LIST*
%ADD10C,0.100000*%
%ADD11C,0.875000*%
%ADD12C,0.590000*%
%ADD13R,1.300000X0.300000*%
%ADD14R,2.200000X1.800000*%
%ADD15R,2.580000X1.000000*%
%ADD16R,0.650000X1.060000*%
%ADD17C,0.830000*%
%ADD18C,0.250000*%
%ADD19R,1.200000X1.400000*%
G04 APERTURE END LIST*
D10*
G36*
X148359691Y-64416053D02*
G01*
X148380926Y-64419203D01*
X148401750Y-64424419D01*
X148421962Y-64431651D01*
X148441368Y-64440830D01*
X148459781Y-64451866D01*
X148477024Y-64464654D01*
X148492930Y-64479070D01*
X148507346Y-64494976D01*
X148520134Y-64512219D01*
X148531170Y-64530632D01*
X148540349Y-64550038D01*
X148547581Y-64570250D01*
X148552797Y-64591074D01*
X148555947Y-64612309D01*
X148557000Y-64633750D01*
X148557000Y-65146250D01*
X148555947Y-65167691D01*
X148552797Y-65188926D01*
X148547581Y-65209750D01*
X148540349Y-65229962D01*
X148531170Y-65249368D01*
X148520134Y-65267781D01*
X148507346Y-65285024D01*
X148492930Y-65300930D01*
X148477024Y-65315346D01*
X148459781Y-65328134D01*
X148441368Y-65339170D01*
X148421962Y-65348349D01*
X148401750Y-65355581D01*
X148380926Y-65360797D01*
X148359691Y-65363947D01*
X148338250Y-65365000D01*
X147900750Y-65365000D01*
X147879309Y-65363947D01*
X147858074Y-65360797D01*
X147837250Y-65355581D01*
X147817038Y-65348349D01*
X147797632Y-65339170D01*
X147779219Y-65328134D01*
X147761976Y-65315346D01*
X147746070Y-65300930D01*
X147731654Y-65285024D01*
X147718866Y-65267781D01*
X147707830Y-65249368D01*
X147698651Y-65229962D01*
X147691419Y-65209750D01*
X147686203Y-65188926D01*
X147683053Y-65167691D01*
X147682000Y-65146250D01*
X147682000Y-64633750D01*
X147683053Y-64612309D01*
X147686203Y-64591074D01*
X147691419Y-64570250D01*
X147698651Y-64550038D01*
X147707830Y-64530632D01*
X147718866Y-64512219D01*
X147731654Y-64494976D01*
X147746070Y-64479070D01*
X147761976Y-64464654D01*
X147779219Y-64451866D01*
X147797632Y-64440830D01*
X147817038Y-64431651D01*
X147837250Y-64424419D01*
X147858074Y-64419203D01*
X147879309Y-64416053D01*
X147900750Y-64415000D01*
X148338250Y-64415000D01*
X148359691Y-64416053D01*
X148359691Y-64416053D01*
G37*
D11*
X148119500Y-64890000D03*
D10*
G36*
X146784691Y-64416053D02*
G01*
X146805926Y-64419203D01*
X146826750Y-64424419D01*
X146846962Y-64431651D01*
X146866368Y-64440830D01*
X146884781Y-64451866D01*
X146902024Y-64464654D01*
X146917930Y-64479070D01*
X146932346Y-64494976D01*
X146945134Y-64512219D01*
X146956170Y-64530632D01*
X146965349Y-64550038D01*
X146972581Y-64570250D01*
X146977797Y-64591074D01*
X146980947Y-64612309D01*
X146982000Y-64633750D01*
X146982000Y-65146250D01*
X146980947Y-65167691D01*
X146977797Y-65188926D01*
X146972581Y-65209750D01*
X146965349Y-65229962D01*
X146956170Y-65249368D01*
X146945134Y-65267781D01*
X146932346Y-65285024D01*
X146917930Y-65300930D01*
X146902024Y-65315346D01*
X146884781Y-65328134D01*
X146866368Y-65339170D01*
X146846962Y-65348349D01*
X146826750Y-65355581D01*
X146805926Y-65360797D01*
X146784691Y-65363947D01*
X146763250Y-65365000D01*
X146325750Y-65365000D01*
X146304309Y-65363947D01*
X146283074Y-65360797D01*
X146262250Y-65355581D01*
X146242038Y-65348349D01*
X146222632Y-65339170D01*
X146204219Y-65328134D01*
X146186976Y-65315346D01*
X146171070Y-65300930D01*
X146156654Y-65285024D01*
X146143866Y-65267781D01*
X146132830Y-65249368D01*
X146123651Y-65229962D01*
X146116419Y-65209750D01*
X146111203Y-65188926D01*
X146108053Y-65167691D01*
X146107000Y-65146250D01*
X146107000Y-64633750D01*
X146108053Y-64612309D01*
X146111203Y-64591074D01*
X146116419Y-64570250D01*
X146123651Y-64550038D01*
X146132830Y-64530632D01*
X146143866Y-64512219D01*
X146156654Y-64494976D01*
X146171070Y-64479070D01*
X146186976Y-64464654D01*
X146204219Y-64451866D01*
X146222632Y-64440830D01*
X146242038Y-64431651D01*
X146262250Y-64424419D01*
X146283074Y-64419203D01*
X146304309Y-64416053D01*
X146325750Y-64415000D01*
X146763250Y-64415000D01*
X146784691Y-64416053D01*
X146784691Y-64416053D01*
G37*
D11*
X146544500Y-64890000D03*
D10*
G36*
X148367691Y-66186053D02*
G01*
X148388926Y-66189203D01*
X148409750Y-66194419D01*
X148429962Y-66201651D01*
X148449368Y-66210830D01*
X148467781Y-66221866D01*
X148485024Y-66234654D01*
X148500930Y-66249070D01*
X148515346Y-66264976D01*
X148528134Y-66282219D01*
X148539170Y-66300632D01*
X148548349Y-66320038D01*
X148555581Y-66340250D01*
X148560797Y-66361074D01*
X148563947Y-66382309D01*
X148565000Y-66403750D01*
X148565000Y-66916250D01*
X148563947Y-66937691D01*
X148560797Y-66958926D01*
X148555581Y-66979750D01*
X148548349Y-66999962D01*
X148539170Y-67019368D01*
X148528134Y-67037781D01*
X148515346Y-67055024D01*
X148500930Y-67070930D01*
X148485024Y-67085346D01*
X148467781Y-67098134D01*
X148449368Y-67109170D01*
X148429962Y-67118349D01*
X148409750Y-67125581D01*
X148388926Y-67130797D01*
X148367691Y-67133947D01*
X148346250Y-67135000D01*
X147908750Y-67135000D01*
X147887309Y-67133947D01*
X147866074Y-67130797D01*
X147845250Y-67125581D01*
X147825038Y-67118349D01*
X147805632Y-67109170D01*
X147787219Y-67098134D01*
X147769976Y-67085346D01*
X147754070Y-67070930D01*
X147739654Y-67055024D01*
X147726866Y-67037781D01*
X147715830Y-67019368D01*
X147706651Y-66999962D01*
X147699419Y-66979750D01*
X147694203Y-66958926D01*
X147691053Y-66937691D01*
X147690000Y-66916250D01*
X147690000Y-66403750D01*
X147691053Y-66382309D01*
X147694203Y-66361074D01*
X147699419Y-66340250D01*
X147706651Y-66320038D01*
X147715830Y-66300632D01*
X147726866Y-66282219D01*
X147739654Y-66264976D01*
X147754070Y-66249070D01*
X147769976Y-66234654D01*
X147787219Y-66221866D01*
X147805632Y-66210830D01*
X147825038Y-66201651D01*
X147845250Y-66194419D01*
X147866074Y-66189203D01*
X147887309Y-66186053D01*
X147908750Y-66185000D01*
X148346250Y-66185000D01*
X148367691Y-66186053D01*
X148367691Y-66186053D01*
G37*
D11*
X148127500Y-66660000D03*
D10*
G36*
X146792691Y-66186053D02*
G01*
X146813926Y-66189203D01*
X146834750Y-66194419D01*
X146854962Y-66201651D01*
X146874368Y-66210830D01*
X146892781Y-66221866D01*
X146910024Y-66234654D01*
X146925930Y-66249070D01*
X146940346Y-66264976D01*
X146953134Y-66282219D01*
X146964170Y-66300632D01*
X146973349Y-66320038D01*
X146980581Y-66340250D01*
X146985797Y-66361074D01*
X146988947Y-66382309D01*
X146990000Y-66403750D01*
X146990000Y-66916250D01*
X146988947Y-66937691D01*
X146985797Y-66958926D01*
X146980581Y-66979750D01*
X146973349Y-66999962D01*
X146964170Y-67019368D01*
X146953134Y-67037781D01*
X146940346Y-67055024D01*
X146925930Y-67070930D01*
X146910024Y-67085346D01*
X146892781Y-67098134D01*
X146874368Y-67109170D01*
X146854962Y-67118349D01*
X146834750Y-67125581D01*
X146813926Y-67130797D01*
X146792691Y-67133947D01*
X146771250Y-67135000D01*
X146333750Y-67135000D01*
X146312309Y-67133947D01*
X146291074Y-67130797D01*
X146270250Y-67125581D01*
X146250038Y-67118349D01*
X146230632Y-67109170D01*
X146212219Y-67098134D01*
X146194976Y-67085346D01*
X146179070Y-67070930D01*
X146164654Y-67055024D01*
X146151866Y-67037781D01*
X146140830Y-67019368D01*
X146131651Y-66999962D01*
X146124419Y-66979750D01*
X146119203Y-66958926D01*
X146116053Y-66937691D01*
X146115000Y-66916250D01*
X146115000Y-66403750D01*
X146116053Y-66382309D01*
X146119203Y-66361074D01*
X146124419Y-66340250D01*
X146131651Y-66320038D01*
X146140830Y-66300632D01*
X146151866Y-66282219D01*
X146164654Y-66264976D01*
X146179070Y-66249070D01*
X146194976Y-66234654D01*
X146212219Y-66221866D01*
X146230632Y-66210830D01*
X146250038Y-66201651D01*
X146270250Y-66194419D01*
X146291074Y-66189203D01*
X146312309Y-66186053D01*
X146333750Y-66185000D01*
X146771250Y-66185000D01*
X146792691Y-66186053D01*
X146792691Y-66186053D01*
G37*
D11*
X146552500Y-66660000D03*
D10*
G36*
X148329691Y-67796053D02*
G01*
X148350926Y-67799203D01*
X148371750Y-67804419D01*
X148391962Y-67811651D01*
X148411368Y-67820830D01*
X148429781Y-67831866D01*
X148447024Y-67844654D01*
X148462930Y-67859070D01*
X148477346Y-67874976D01*
X148490134Y-67892219D01*
X148501170Y-67910632D01*
X148510349Y-67930038D01*
X148517581Y-67950250D01*
X148522797Y-67971074D01*
X148525947Y-67992309D01*
X148527000Y-68013750D01*
X148527000Y-68526250D01*
X148525947Y-68547691D01*
X148522797Y-68568926D01*
X148517581Y-68589750D01*
X148510349Y-68609962D01*
X148501170Y-68629368D01*
X148490134Y-68647781D01*
X148477346Y-68665024D01*
X148462930Y-68680930D01*
X148447024Y-68695346D01*
X148429781Y-68708134D01*
X148411368Y-68719170D01*
X148391962Y-68728349D01*
X148371750Y-68735581D01*
X148350926Y-68740797D01*
X148329691Y-68743947D01*
X148308250Y-68745000D01*
X147870750Y-68745000D01*
X147849309Y-68743947D01*
X147828074Y-68740797D01*
X147807250Y-68735581D01*
X147787038Y-68728349D01*
X147767632Y-68719170D01*
X147749219Y-68708134D01*
X147731976Y-68695346D01*
X147716070Y-68680930D01*
X147701654Y-68665024D01*
X147688866Y-68647781D01*
X147677830Y-68629368D01*
X147668651Y-68609962D01*
X147661419Y-68589750D01*
X147656203Y-68568926D01*
X147653053Y-68547691D01*
X147652000Y-68526250D01*
X147652000Y-68013750D01*
X147653053Y-67992309D01*
X147656203Y-67971074D01*
X147661419Y-67950250D01*
X147668651Y-67930038D01*
X147677830Y-67910632D01*
X147688866Y-67892219D01*
X147701654Y-67874976D01*
X147716070Y-67859070D01*
X147731976Y-67844654D01*
X147749219Y-67831866D01*
X147767632Y-67820830D01*
X147787038Y-67811651D01*
X147807250Y-67804419D01*
X147828074Y-67799203D01*
X147849309Y-67796053D01*
X147870750Y-67795000D01*
X148308250Y-67795000D01*
X148329691Y-67796053D01*
X148329691Y-67796053D01*
G37*
D11*
X148089500Y-68270000D03*
D10*
G36*
X146754691Y-67796053D02*
G01*
X146775926Y-67799203D01*
X146796750Y-67804419D01*
X146816962Y-67811651D01*
X146836368Y-67820830D01*
X146854781Y-67831866D01*
X146872024Y-67844654D01*
X146887930Y-67859070D01*
X146902346Y-67874976D01*
X146915134Y-67892219D01*
X146926170Y-67910632D01*
X146935349Y-67930038D01*
X146942581Y-67950250D01*
X146947797Y-67971074D01*
X146950947Y-67992309D01*
X146952000Y-68013750D01*
X146952000Y-68526250D01*
X146950947Y-68547691D01*
X146947797Y-68568926D01*
X146942581Y-68589750D01*
X146935349Y-68609962D01*
X146926170Y-68629368D01*
X146915134Y-68647781D01*
X146902346Y-68665024D01*
X146887930Y-68680930D01*
X146872024Y-68695346D01*
X146854781Y-68708134D01*
X146836368Y-68719170D01*
X146816962Y-68728349D01*
X146796750Y-68735581D01*
X146775926Y-68740797D01*
X146754691Y-68743947D01*
X146733250Y-68745000D01*
X146295750Y-68745000D01*
X146274309Y-68743947D01*
X146253074Y-68740797D01*
X146232250Y-68735581D01*
X146212038Y-68728349D01*
X146192632Y-68719170D01*
X146174219Y-68708134D01*
X146156976Y-68695346D01*
X146141070Y-68680930D01*
X146126654Y-68665024D01*
X146113866Y-68647781D01*
X146102830Y-68629368D01*
X146093651Y-68609962D01*
X146086419Y-68589750D01*
X146081203Y-68568926D01*
X146078053Y-68547691D01*
X146077000Y-68526250D01*
X146077000Y-68013750D01*
X146078053Y-67992309D01*
X146081203Y-67971074D01*
X146086419Y-67950250D01*
X146093651Y-67930038D01*
X146102830Y-67910632D01*
X146113866Y-67892219D01*
X146126654Y-67874976D01*
X146141070Y-67859070D01*
X146156976Y-67844654D01*
X146174219Y-67831866D01*
X146192632Y-67820830D01*
X146212038Y-67811651D01*
X146232250Y-67804419D01*
X146253074Y-67799203D01*
X146274309Y-67796053D01*
X146295750Y-67795000D01*
X146733250Y-67795000D01*
X146754691Y-67796053D01*
X146754691Y-67796053D01*
G37*
D11*
X146514500Y-68270000D03*
D10*
G36*
X148355691Y-69416053D02*
G01*
X148376926Y-69419203D01*
X148397750Y-69424419D01*
X148417962Y-69431651D01*
X148437368Y-69440830D01*
X148455781Y-69451866D01*
X148473024Y-69464654D01*
X148488930Y-69479070D01*
X148503346Y-69494976D01*
X148516134Y-69512219D01*
X148527170Y-69530632D01*
X148536349Y-69550038D01*
X148543581Y-69570250D01*
X148548797Y-69591074D01*
X148551947Y-69612309D01*
X148553000Y-69633750D01*
X148553000Y-70146250D01*
X148551947Y-70167691D01*
X148548797Y-70188926D01*
X148543581Y-70209750D01*
X148536349Y-70229962D01*
X148527170Y-70249368D01*
X148516134Y-70267781D01*
X148503346Y-70285024D01*
X148488930Y-70300930D01*
X148473024Y-70315346D01*
X148455781Y-70328134D01*
X148437368Y-70339170D01*
X148417962Y-70348349D01*
X148397750Y-70355581D01*
X148376926Y-70360797D01*
X148355691Y-70363947D01*
X148334250Y-70365000D01*
X147896750Y-70365000D01*
X147875309Y-70363947D01*
X147854074Y-70360797D01*
X147833250Y-70355581D01*
X147813038Y-70348349D01*
X147793632Y-70339170D01*
X147775219Y-70328134D01*
X147757976Y-70315346D01*
X147742070Y-70300930D01*
X147727654Y-70285024D01*
X147714866Y-70267781D01*
X147703830Y-70249368D01*
X147694651Y-70229962D01*
X147687419Y-70209750D01*
X147682203Y-70188926D01*
X147679053Y-70167691D01*
X147678000Y-70146250D01*
X147678000Y-69633750D01*
X147679053Y-69612309D01*
X147682203Y-69591074D01*
X147687419Y-69570250D01*
X147694651Y-69550038D01*
X147703830Y-69530632D01*
X147714866Y-69512219D01*
X147727654Y-69494976D01*
X147742070Y-69479070D01*
X147757976Y-69464654D01*
X147775219Y-69451866D01*
X147793632Y-69440830D01*
X147813038Y-69431651D01*
X147833250Y-69424419D01*
X147854074Y-69419203D01*
X147875309Y-69416053D01*
X147896750Y-69415000D01*
X148334250Y-69415000D01*
X148355691Y-69416053D01*
X148355691Y-69416053D01*
G37*
D11*
X148115500Y-69890000D03*
D10*
G36*
X146780691Y-69416053D02*
G01*
X146801926Y-69419203D01*
X146822750Y-69424419D01*
X146842962Y-69431651D01*
X146862368Y-69440830D01*
X146880781Y-69451866D01*
X146898024Y-69464654D01*
X146913930Y-69479070D01*
X146928346Y-69494976D01*
X146941134Y-69512219D01*
X146952170Y-69530632D01*
X146961349Y-69550038D01*
X146968581Y-69570250D01*
X146973797Y-69591074D01*
X146976947Y-69612309D01*
X146978000Y-69633750D01*
X146978000Y-70146250D01*
X146976947Y-70167691D01*
X146973797Y-70188926D01*
X146968581Y-70209750D01*
X146961349Y-70229962D01*
X146952170Y-70249368D01*
X146941134Y-70267781D01*
X146928346Y-70285024D01*
X146913930Y-70300930D01*
X146898024Y-70315346D01*
X146880781Y-70328134D01*
X146862368Y-70339170D01*
X146842962Y-70348349D01*
X146822750Y-70355581D01*
X146801926Y-70360797D01*
X146780691Y-70363947D01*
X146759250Y-70365000D01*
X146321750Y-70365000D01*
X146300309Y-70363947D01*
X146279074Y-70360797D01*
X146258250Y-70355581D01*
X146238038Y-70348349D01*
X146218632Y-70339170D01*
X146200219Y-70328134D01*
X146182976Y-70315346D01*
X146167070Y-70300930D01*
X146152654Y-70285024D01*
X146139866Y-70267781D01*
X146128830Y-70249368D01*
X146119651Y-70229962D01*
X146112419Y-70209750D01*
X146107203Y-70188926D01*
X146104053Y-70167691D01*
X146103000Y-70146250D01*
X146103000Y-69633750D01*
X146104053Y-69612309D01*
X146107203Y-69591074D01*
X146112419Y-69570250D01*
X146119651Y-69550038D01*
X146128830Y-69530632D01*
X146139866Y-69512219D01*
X146152654Y-69494976D01*
X146167070Y-69479070D01*
X146182976Y-69464654D01*
X146200219Y-69451866D01*
X146218632Y-69440830D01*
X146238038Y-69431651D01*
X146258250Y-69424419D01*
X146279074Y-69419203D01*
X146300309Y-69416053D01*
X146321750Y-69415000D01*
X146759250Y-69415000D01*
X146780691Y-69416053D01*
X146780691Y-69416053D01*
G37*
D11*
X146540500Y-69890000D03*
D10*
G36*
X143321958Y-64110710D02*
G01*
X143336276Y-64112834D01*
X143350317Y-64116351D01*
X143363946Y-64121228D01*
X143377031Y-64127417D01*
X143389447Y-64134858D01*
X143401073Y-64143481D01*
X143411798Y-64153202D01*
X143421519Y-64163927D01*
X143430142Y-64175553D01*
X143437583Y-64187969D01*
X143443772Y-64201054D01*
X143448649Y-64214683D01*
X143452166Y-64228724D01*
X143454290Y-64243042D01*
X143455000Y-64257500D01*
X143455000Y-64602500D01*
X143454290Y-64616958D01*
X143452166Y-64631276D01*
X143448649Y-64645317D01*
X143443772Y-64658946D01*
X143437583Y-64672031D01*
X143430142Y-64684447D01*
X143421519Y-64696073D01*
X143411798Y-64706798D01*
X143401073Y-64716519D01*
X143389447Y-64725142D01*
X143377031Y-64732583D01*
X143363946Y-64738772D01*
X143350317Y-64743649D01*
X143336276Y-64747166D01*
X143321958Y-64749290D01*
X143307500Y-64750000D01*
X143012500Y-64750000D01*
X142998042Y-64749290D01*
X142983724Y-64747166D01*
X142969683Y-64743649D01*
X142956054Y-64738772D01*
X142942969Y-64732583D01*
X142930553Y-64725142D01*
X142918927Y-64716519D01*
X142908202Y-64706798D01*
X142898481Y-64696073D01*
X142889858Y-64684447D01*
X142882417Y-64672031D01*
X142876228Y-64658946D01*
X142871351Y-64645317D01*
X142867834Y-64631276D01*
X142865710Y-64616958D01*
X142865000Y-64602500D01*
X142865000Y-64257500D01*
X142865710Y-64243042D01*
X142867834Y-64228724D01*
X142871351Y-64214683D01*
X142876228Y-64201054D01*
X142882417Y-64187969D01*
X142889858Y-64175553D01*
X142898481Y-64163927D01*
X142908202Y-64153202D01*
X142918927Y-64143481D01*
X142930553Y-64134858D01*
X142942969Y-64127417D01*
X142956054Y-64121228D01*
X142969683Y-64116351D01*
X142983724Y-64112834D01*
X142998042Y-64110710D01*
X143012500Y-64110000D01*
X143307500Y-64110000D01*
X143321958Y-64110710D01*
X143321958Y-64110710D01*
G37*
D12*
X143160000Y-64430000D03*
D10*
G36*
X142351958Y-64110710D02*
G01*
X142366276Y-64112834D01*
X142380317Y-64116351D01*
X142393946Y-64121228D01*
X142407031Y-64127417D01*
X142419447Y-64134858D01*
X142431073Y-64143481D01*
X142441798Y-64153202D01*
X142451519Y-64163927D01*
X142460142Y-64175553D01*
X142467583Y-64187969D01*
X142473772Y-64201054D01*
X142478649Y-64214683D01*
X142482166Y-64228724D01*
X142484290Y-64243042D01*
X142485000Y-64257500D01*
X142485000Y-64602500D01*
X142484290Y-64616958D01*
X142482166Y-64631276D01*
X142478649Y-64645317D01*
X142473772Y-64658946D01*
X142467583Y-64672031D01*
X142460142Y-64684447D01*
X142451519Y-64696073D01*
X142441798Y-64706798D01*
X142431073Y-64716519D01*
X142419447Y-64725142D01*
X142407031Y-64732583D01*
X142393946Y-64738772D01*
X142380317Y-64743649D01*
X142366276Y-64747166D01*
X142351958Y-64749290D01*
X142337500Y-64750000D01*
X142042500Y-64750000D01*
X142028042Y-64749290D01*
X142013724Y-64747166D01*
X141999683Y-64743649D01*
X141986054Y-64738772D01*
X141972969Y-64732583D01*
X141960553Y-64725142D01*
X141948927Y-64716519D01*
X141938202Y-64706798D01*
X141928481Y-64696073D01*
X141919858Y-64684447D01*
X141912417Y-64672031D01*
X141906228Y-64658946D01*
X141901351Y-64645317D01*
X141897834Y-64631276D01*
X141895710Y-64616958D01*
X141895000Y-64602500D01*
X141895000Y-64257500D01*
X141895710Y-64243042D01*
X141897834Y-64228724D01*
X141901351Y-64214683D01*
X141906228Y-64201054D01*
X141912417Y-64187969D01*
X141919858Y-64175553D01*
X141928481Y-64163927D01*
X141938202Y-64153202D01*
X141948927Y-64143481D01*
X141960553Y-64134858D01*
X141972969Y-64127417D01*
X141986054Y-64121228D01*
X141999683Y-64116351D01*
X142013724Y-64112834D01*
X142028042Y-64110710D01*
X142042500Y-64110000D01*
X142337500Y-64110000D01*
X142351958Y-64110710D01*
X142351958Y-64110710D01*
G37*
D12*
X142190000Y-64430000D03*
D10*
G36*
X141401958Y-64100710D02*
G01*
X141416276Y-64102834D01*
X141430317Y-64106351D01*
X141443946Y-64111228D01*
X141457031Y-64117417D01*
X141469447Y-64124858D01*
X141481073Y-64133481D01*
X141491798Y-64143202D01*
X141501519Y-64153927D01*
X141510142Y-64165553D01*
X141517583Y-64177969D01*
X141523772Y-64191054D01*
X141528649Y-64204683D01*
X141532166Y-64218724D01*
X141534290Y-64233042D01*
X141535000Y-64247500D01*
X141535000Y-64592500D01*
X141534290Y-64606958D01*
X141532166Y-64621276D01*
X141528649Y-64635317D01*
X141523772Y-64648946D01*
X141517583Y-64662031D01*
X141510142Y-64674447D01*
X141501519Y-64686073D01*
X141491798Y-64696798D01*
X141481073Y-64706519D01*
X141469447Y-64715142D01*
X141457031Y-64722583D01*
X141443946Y-64728772D01*
X141430317Y-64733649D01*
X141416276Y-64737166D01*
X141401958Y-64739290D01*
X141387500Y-64740000D01*
X141092500Y-64740000D01*
X141078042Y-64739290D01*
X141063724Y-64737166D01*
X141049683Y-64733649D01*
X141036054Y-64728772D01*
X141022969Y-64722583D01*
X141010553Y-64715142D01*
X140998927Y-64706519D01*
X140988202Y-64696798D01*
X140978481Y-64686073D01*
X140969858Y-64674447D01*
X140962417Y-64662031D01*
X140956228Y-64648946D01*
X140951351Y-64635317D01*
X140947834Y-64621276D01*
X140945710Y-64606958D01*
X140945000Y-64592500D01*
X140945000Y-64247500D01*
X140945710Y-64233042D01*
X140947834Y-64218724D01*
X140951351Y-64204683D01*
X140956228Y-64191054D01*
X140962417Y-64177969D01*
X140969858Y-64165553D01*
X140978481Y-64153927D01*
X140988202Y-64143202D01*
X140998927Y-64133481D01*
X141010553Y-64124858D01*
X141022969Y-64117417D01*
X141036054Y-64111228D01*
X141049683Y-64106351D01*
X141063724Y-64102834D01*
X141078042Y-64100710D01*
X141092500Y-64100000D01*
X141387500Y-64100000D01*
X141401958Y-64100710D01*
X141401958Y-64100710D01*
G37*
D12*
X141240000Y-64420000D03*
D10*
G36*
X140431958Y-64100710D02*
G01*
X140446276Y-64102834D01*
X140460317Y-64106351D01*
X140473946Y-64111228D01*
X140487031Y-64117417D01*
X140499447Y-64124858D01*
X140511073Y-64133481D01*
X140521798Y-64143202D01*
X140531519Y-64153927D01*
X140540142Y-64165553D01*
X140547583Y-64177969D01*
X140553772Y-64191054D01*
X140558649Y-64204683D01*
X140562166Y-64218724D01*
X140564290Y-64233042D01*
X140565000Y-64247500D01*
X140565000Y-64592500D01*
X140564290Y-64606958D01*
X140562166Y-64621276D01*
X140558649Y-64635317D01*
X140553772Y-64648946D01*
X140547583Y-64662031D01*
X140540142Y-64674447D01*
X140531519Y-64686073D01*
X140521798Y-64696798D01*
X140511073Y-64706519D01*
X140499447Y-64715142D01*
X140487031Y-64722583D01*
X140473946Y-64728772D01*
X140460317Y-64733649D01*
X140446276Y-64737166D01*
X140431958Y-64739290D01*
X140417500Y-64740000D01*
X140122500Y-64740000D01*
X140108042Y-64739290D01*
X140093724Y-64737166D01*
X140079683Y-64733649D01*
X140066054Y-64728772D01*
X140052969Y-64722583D01*
X140040553Y-64715142D01*
X140028927Y-64706519D01*
X140018202Y-64696798D01*
X140008481Y-64686073D01*
X139999858Y-64674447D01*
X139992417Y-64662031D01*
X139986228Y-64648946D01*
X139981351Y-64635317D01*
X139977834Y-64621276D01*
X139975710Y-64606958D01*
X139975000Y-64592500D01*
X139975000Y-64247500D01*
X139975710Y-64233042D01*
X139977834Y-64218724D01*
X139981351Y-64204683D01*
X139986228Y-64191054D01*
X139992417Y-64177969D01*
X139999858Y-64165553D01*
X140008481Y-64153927D01*
X140018202Y-64143202D01*
X140028927Y-64133481D01*
X140040553Y-64124858D01*
X140052969Y-64117417D01*
X140066054Y-64111228D01*
X140079683Y-64106351D01*
X140093724Y-64102834D01*
X140108042Y-64100710D01*
X140122500Y-64100000D01*
X140417500Y-64100000D01*
X140431958Y-64100710D01*
X140431958Y-64100710D01*
G37*
D12*
X140270000Y-64420000D03*
D10*
G36*
X150117691Y-50053553D02*
G01*
X150138926Y-50056703D01*
X150159750Y-50061919D01*
X150179962Y-50069151D01*
X150199368Y-50078330D01*
X150217781Y-50089366D01*
X150235024Y-50102154D01*
X150250930Y-50116570D01*
X150265346Y-50132476D01*
X150278134Y-50149719D01*
X150289170Y-50168132D01*
X150298349Y-50187538D01*
X150305581Y-50207750D01*
X150310797Y-50228574D01*
X150313947Y-50249809D01*
X150315000Y-50271250D01*
X150315000Y-50708750D01*
X150313947Y-50730191D01*
X150310797Y-50751426D01*
X150305581Y-50772250D01*
X150298349Y-50792462D01*
X150289170Y-50811868D01*
X150278134Y-50830281D01*
X150265346Y-50847524D01*
X150250930Y-50863430D01*
X150235024Y-50877846D01*
X150217781Y-50890634D01*
X150199368Y-50901670D01*
X150179962Y-50910849D01*
X150159750Y-50918081D01*
X150138926Y-50923297D01*
X150117691Y-50926447D01*
X150096250Y-50927500D01*
X149583750Y-50927500D01*
X149562309Y-50926447D01*
X149541074Y-50923297D01*
X149520250Y-50918081D01*
X149500038Y-50910849D01*
X149480632Y-50901670D01*
X149462219Y-50890634D01*
X149444976Y-50877846D01*
X149429070Y-50863430D01*
X149414654Y-50847524D01*
X149401866Y-50830281D01*
X149390830Y-50811868D01*
X149381651Y-50792462D01*
X149374419Y-50772250D01*
X149369203Y-50751426D01*
X149366053Y-50730191D01*
X149365000Y-50708750D01*
X149365000Y-50271250D01*
X149366053Y-50249809D01*
X149369203Y-50228574D01*
X149374419Y-50207750D01*
X149381651Y-50187538D01*
X149390830Y-50168132D01*
X149401866Y-50149719D01*
X149414654Y-50132476D01*
X149429070Y-50116570D01*
X149444976Y-50102154D01*
X149462219Y-50089366D01*
X149480632Y-50078330D01*
X149500038Y-50069151D01*
X149520250Y-50061919D01*
X149541074Y-50056703D01*
X149562309Y-50053553D01*
X149583750Y-50052500D01*
X150096250Y-50052500D01*
X150117691Y-50053553D01*
X150117691Y-50053553D01*
G37*
D11*
X149840000Y-50490000D03*
D10*
G36*
X150117691Y-51628553D02*
G01*
X150138926Y-51631703D01*
X150159750Y-51636919D01*
X150179962Y-51644151D01*
X150199368Y-51653330D01*
X150217781Y-51664366D01*
X150235024Y-51677154D01*
X150250930Y-51691570D01*
X150265346Y-51707476D01*
X150278134Y-51724719D01*
X150289170Y-51743132D01*
X150298349Y-51762538D01*
X150305581Y-51782750D01*
X150310797Y-51803574D01*
X150313947Y-51824809D01*
X150315000Y-51846250D01*
X150315000Y-52283750D01*
X150313947Y-52305191D01*
X150310797Y-52326426D01*
X150305581Y-52347250D01*
X150298349Y-52367462D01*
X150289170Y-52386868D01*
X150278134Y-52405281D01*
X150265346Y-52422524D01*
X150250930Y-52438430D01*
X150235024Y-52452846D01*
X150217781Y-52465634D01*
X150199368Y-52476670D01*
X150179962Y-52485849D01*
X150159750Y-52493081D01*
X150138926Y-52498297D01*
X150117691Y-52501447D01*
X150096250Y-52502500D01*
X149583750Y-52502500D01*
X149562309Y-52501447D01*
X149541074Y-52498297D01*
X149520250Y-52493081D01*
X149500038Y-52485849D01*
X149480632Y-52476670D01*
X149462219Y-52465634D01*
X149444976Y-52452846D01*
X149429070Y-52438430D01*
X149414654Y-52422524D01*
X149401866Y-52405281D01*
X149390830Y-52386868D01*
X149381651Y-52367462D01*
X149374419Y-52347250D01*
X149369203Y-52326426D01*
X149366053Y-52305191D01*
X149365000Y-52283750D01*
X149365000Y-51846250D01*
X149366053Y-51824809D01*
X149369203Y-51803574D01*
X149374419Y-51782750D01*
X149381651Y-51762538D01*
X149390830Y-51743132D01*
X149401866Y-51724719D01*
X149414654Y-51707476D01*
X149429070Y-51691570D01*
X149444976Y-51677154D01*
X149462219Y-51664366D01*
X149480632Y-51653330D01*
X149500038Y-51644151D01*
X149520250Y-51636919D01*
X149541074Y-51631703D01*
X149562309Y-51628553D01*
X149583750Y-51627500D01*
X150096250Y-51627500D01*
X150117691Y-51628553D01*
X150117691Y-51628553D01*
G37*
D11*
X149840000Y-52065000D03*
D13*
X120060000Y-47790000D03*
X120060000Y-47290000D03*
X120060000Y-46790000D03*
X120060000Y-46290000D03*
X120060000Y-45790000D03*
D14*
X116810000Y-43890000D03*
X116810000Y-49690000D03*
D10*
G36*
X148607691Y-50053553D02*
G01*
X148628926Y-50056703D01*
X148649750Y-50061919D01*
X148669962Y-50069151D01*
X148689368Y-50078330D01*
X148707781Y-50089366D01*
X148725024Y-50102154D01*
X148740930Y-50116570D01*
X148755346Y-50132476D01*
X148768134Y-50149719D01*
X148779170Y-50168132D01*
X148788349Y-50187538D01*
X148795581Y-50207750D01*
X148800797Y-50228574D01*
X148803947Y-50249809D01*
X148805000Y-50271250D01*
X148805000Y-50708750D01*
X148803947Y-50730191D01*
X148800797Y-50751426D01*
X148795581Y-50772250D01*
X148788349Y-50792462D01*
X148779170Y-50811868D01*
X148768134Y-50830281D01*
X148755346Y-50847524D01*
X148740930Y-50863430D01*
X148725024Y-50877846D01*
X148707781Y-50890634D01*
X148689368Y-50901670D01*
X148669962Y-50910849D01*
X148649750Y-50918081D01*
X148628926Y-50923297D01*
X148607691Y-50926447D01*
X148586250Y-50927500D01*
X148073750Y-50927500D01*
X148052309Y-50926447D01*
X148031074Y-50923297D01*
X148010250Y-50918081D01*
X147990038Y-50910849D01*
X147970632Y-50901670D01*
X147952219Y-50890634D01*
X147934976Y-50877846D01*
X147919070Y-50863430D01*
X147904654Y-50847524D01*
X147891866Y-50830281D01*
X147880830Y-50811868D01*
X147871651Y-50792462D01*
X147864419Y-50772250D01*
X147859203Y-50751426D01*
X147856053Y-50730191D01*
X147855000Y-50708750D01*
X147855000Y-50271250D01*
X147856053Y-50249809D01*
X147859203Y-50228574D01*
X147864419Y-50207750D01*
X147871651Y-50187538D01*
X147880830Y-50168132D01*
X147891866Y-50149719D01*
X147904654Y-50132476D01*
X147919070Y-50116570D01*
X147934976Y-50102154D01*
X147952219Y-50089366D01*
X147970632Y-50078330D01*
X147990038Y-50069151D01*
X148010250Y-50061919D01*
X148031074Y-50056703D01*
X148052309Y-50053553D01*
X148073750Y-50052500D01*
X148586250Y-50052500D01*
X148607691Y-50053553D01*
X148607691Y-50053553D01*
G37*
D11*
X148330000Y-50490000D03*
D10*
G36*
X148607691Y-51628553D02*
G01*
X148628926Y-51631703D01*
X148649750Y-51636919D01*
X148669962Y-51644151D01*
X148689368Y-51653330D01*
X148707781Y-51664366D01*
X148725024Y-51677154D01*
X148740930Y-51691570D01*
X148755346Y-51707476D01*
X148768134Y-51724719D01*
X148779170Y-51743132D01*
X148788349Y-51762538D01*
X148795581Y-51782750D01*
X148800797Y-51803574D01*
X148803947Y-51824809D01*
X148805000Y-51846250D01*
X148805000Y-52283750D01*
X148803947Y-52305191D01*
X148800797Y-52326426D01*
X148795581Y-52347250D01*
X148788349Y-52367462D01*
X148779170Y-52386868D01*
X148768134Y-52405281D01*
X148755346Y-52422524D01*
X148740930Y-52438430D01*
X148725024Y-52452846D01*
X148707781Y-52465634D01*
X148689368Y-52476670D01*
X148669962Y-52485849D01*
X148649750Y-52493081D01*
X148628926Y-52498297D01*
X148607691Y-52501447D01*
X148586250Y-52502500D01*
X148073750Y-52502500D01*
X148052309Y-52501447D01*
X148031074Y-52498297D01*
X148010250Y-52493081D01*
X147990038Y-52485849D01*
X147970632Y-52476670D01*
X147952219Y-52465634D01*
X147934976Y-52452846D01*
X147919070Y-52438430D01*
X147904654Y-52422524D01*
X147891866Y-52405281D01*
X147880830Y-52386868D01*
X147871651Y-52367462D01*
X147864419Y-52347250D01*
X147859203Y-52326426D01*
X147856053Y-52305191D01*
X147855000Y-52283750D01*
X147855000Y-51846250D01*
X147856053Y-51824809D01*
X147859203Y-51803574D01*
X147864419Y-51782750D01*
X147871651Y-51762538D01*
X147880830Y-51743132D01*
X147891866Y-51724719D01*
X147904654Y-51707476D01*
X147919070Y-51691570D01*
X147934976Y-51677154D01*
X147952219Y-51664366D01*
X147970632Y-51653330D01*
X147990038Y-51644151D01*
X148010250Y-51636919D01*
X148031074Y-51631703D01*
X148052309Y-51628553D01*
X148073750Y-51627500D01*
X148586250Y-51627500D01*
X148607691Y-51628553D01*
X148607691Y-51628553D01*
G37*
D11*
X148330000Y-52065000D03*
D10*
G36*
X130337691Y-42206053D02*
G01*
X130358926Y-42209203D01*
X130379750Y-42214419D01*
X130399962Y-42221651D01*
X130419368Y-42230830D01*
X130437781Y-42241866D01*
X130455024Y-42254654D01*
X130470930Y-42269070D01*
X130485346Y-42284976D01*
X130498134Y-42302219D01*
X130509170Y-42320632D01*
X130518349Y-42340038D01*
X130525581Y-42360250D01*
X130530797Y-42381074D01*
X130533947Y-42402309D01*
X130535000Y-42423750D01*
X130535000Y-42861250D01*
X130533947Y-42882691D01*
X130530797Y-42903926D01*
X130525581Y-42924750D01*
X130518349Y-42944962D01*
X130509170Y-42964368D01*
X130498134Y-42982781D01*
X130485346Y-43000024D01*
X130470930Y-43015930D01*
X130455024Y-43030346D01*
X130437781Y-43043134D01*
X130419368Y-43054170D01*
X130399962Y-43063349D01*
X130379750Y-43070581D01*
X130358926Y-43075797D01*
X130337691Y-43078947D01*
X130316250Y-43080000D01*
X129803750Y-43080000D01*
X129782309Y-43078947D01*
X129761074Y-43075797D01*
X129740250Y-43070581D01*
X129720038Y-43063349D01*
X129700632Y-43054170D01*
X129682219Y-43043134D01*
X129664976Y-43030346D01*
X129649070Y-43015930D01*
X129634654Y-43000024D01*
X129621866Y-42982781D01*
X129610830Y-42964368D01*
X129601651Y-42944962D01*
X129594419Y-42924750D01*
X129589203Y-42903926D01*
X129586053Y-42882691D01*
X129585000Y-42861250D01*
X129585000Y-42423750D01*
X129586053Y-42402309D01*
X129589203Y-42381074D01*
X129594419Y-42360250D01*
X129601651Y-42340038D01*
X129610830Y-42320632D01*
X129621866Y-42302219D01*
X129634654Y-42284976D01*
X129649070Y-42269070D01*
X129664976Y-42254654D01*
X129682219Y-42241866D01*
X129700632Y-42230830D01*
X129720038Y-42221651D01*
X129740250Y-42214419D01*
X129761074Y-42209203D01*
X129782309Y-42206053D01*
X129803750Y-42205000D01*
X130316250Y-42205000D01*
X130337691Y-42206053D01*
X130337691Y-42206053D01*
G37*
D11*
X130060000Y-42642500D03*
D10*
G36*
X130337691Y-43781053D02*
G01*
X130358926Y-43784203D01*
X130379750Y-43789419D01*
X130399962Y-43796651D01*
X130419368Y-43805830D01*
X130437781Y-43816866D01*
X130455024Y-43829654D01*
X130470930Y-43844070D01*
X130485346Y-43859976D01*
X130498134Y-43877219D01*
X130509170Y-43895632D01*
X130518349Y-43915038D01*
X130525581Y-43935250D01*
X130530797Y-43956074D01*
X130533947Y-43977309D01*
X130535000Y-43998750D01*
X130535000Y-44436250D01*
X130533947Y-44457691D01*
X130530797Y-44478926D01*
X130525581Y-44499750D01*
X130518349Y-44519962D01*
X130509170Y-44539368D01*
X130498134Y-44557781D01*
X130485346Y-44575024D01*
X130470930Y-44590930D01*
X130455024Y-44605346D01*
X130437781Y-44618134D01*
X130419368Y-44629170D01*
X130399962Y-44638349D01*
X130379750Y-44645581D01*
X130358926Y-44650797D01*
X130337691Y-44653947D01*
X130316250Y-44655000D01*
X129803750Y-44655000D01*
X129782309Y-44653947D01*
X129761074Y-44650797D01*
X129740250Y-44645581D01*
X129720038Y-44638349D01*
X129700632Y-44629170D01*
X129682219Y-44618134D01*
X129664976Y-44605346D01*
X129649070Y-44590930D01*
X129634654Y-44575024D01*
X129621866Y-44557781D01*
X129610830Y-44539368D01*
X129601651Y-44519962D01*
X129594419Y-44499750D01*
X129589203Y-44478926D01*
X129586053Y-44457691D01*
X129585000Y-44436250D01*
X129585000Y-43998750D01*
X129586053Y-43977309D01*
X129589203Y-43956074D01*
X129594419Y-43935250D01*
X129601651Y-43915038D01*
X129610830Y-43895632D01*
X129621866Y-43877219D01*
X129634654Y-43859976D01*
X129649070Y-43844070D01*
X129664976Y-43829654D01*
X129682219Y-43816866D01*
X129700632Y-43805830D01*
X129720038Y-43796651D01*
X129740250Y-43789419D01*
X129761074Y-43784203D01*
X129782309Y-43781053D01*
X129803750Y-43780000D01*
X130316250Y-43780000D01*
X130337691Y-43781053D01*
X130337691Y-43781053D01*
G37*
D11*
X130060000Y-44217500D03*
D10*
G36*
X130397691Y-46971053D02*
G01*
X130418926Y-46974203D01*
X130439750Y-46979419D01*
X130459962Y-46986651D01*
X130479368Y-46995830D01*
X130497781Y-47006866D01*
X130515024Y-47019654D01*
X130530930Y-47034070D01*
X130545346Y-47049976D01*
X130558134Y-47067219D01*
X130569170Y-47085632D01*
X130578349Y-47105038D01*
X130585581Y-47125250D01*
X130590797Y-47146074D01*
X130593947Y-47167309D01*
X130595000Y-47188750D01*
X130595000Y-47626250D01*
X130593947Y-47647691D01*
X130590797Y-47668926D01*
X130585581Y-47689750D01*
X130578349Y-47709962D01*
X130569170Y-47729368D01*
X130558134Y-47747781D01*
X130545346Y-47765024D01*
X130530930Y-47780930D01*
X130515024Y-47795346D01*
X130497781Y-47808134D01*
X130479368Y-47819170D01*
X130459962Y-47828349D01*
X130439750Y-47835581D01*
X130418926Y-47840797D01*
X130397691Y-47843947D01*
X130376250Y-47845000D01*
X129863750Y-47845000D01*
X129842309Y-47843947D01*
X129821074Y-47840797D01*
X129800250Y-47835581D01*
X129780038Y-47828349D01*
X129760632Y-47819170D01*
X129742219Y-47808134D01*
X129724976Y-47795346D01*
X129709070Y-47780930D01*
X129694654Y-47765024D01*
X129681866Y-47747781D01*
X129670830Y-47729368D01*
X129661651Y-47709962D01*
X129654419Y-47689750D01*
X129649203Y-47668926D01*
X129646053Y-47647691D01*
X129645000Y-47626250D01*
X129645000Y-47188750D01*
X129646053Y-47167309D01*
X129649203Y-47146074D01*
X129654419Y-47125250D01*
X129661651Y-47105038D01*
X129670830Y-47085632D01*
X129681866Y-47067219D01*
X129694654Y-47049976D01*
X129709070Y-47034070D01*
X129724976Y-47019654D01*
X129742219Y-47006866D01*
X129760632Y-46995830D01*
X129780038Y-46986651D01*
X129800250Y-46979419D01*
X129821074Y-46974203D01*
X129842309Y-46971053D01*
X129863750Y-46970000D01*
X130376250Y-46970000D01*
X130397691Y-46971053D01*
X130397691Y-46971053D01*
G37*
D11*
X130120000Y-47407500D03*
D10*
G36*
X130397691Y-45396053D02*
G01*
X130418926Y-45399203D01*
X130439750Y-45404419D01*
X130459962Y-45411651D01*
X130479368Y-45420830D01*
X130497781Y-45431866D01*
X130515024Y-45444654D01*
X130530930Y-45459070D01*
X130545346Y-45474976D01*
X130558134Y-45492219D01*
X130569170Y-45510632D01*
X130578349Y-45530038D01*
X130585581Y-45550250D01*
X130590797Y-45571074D01*
X130593947Y-45592309D01*
X130595000Y-45613750D01*
X130595000Y-46051250D01*
X130593947Y-46072691D01*
X130590797Y-46093926D01*
X130585581Y-46114750D01*
X130578349Y-46134962D01*
X130569170Y-46154368D01*
X130558134Y-46172781D01*
X130545346Y-46190024D01*
X130530930Y-46205930D01*
X130515024Y-46220346D01*
X130497781Y-46233134D01*
X130479368Y-46244170D01*
X130459962Y-46253349D01*
X130439750Y-46260581D01*
X130418926Y-46265797D01*
X130397691Y-46268947D01*
X130376250Y-46270000D01*
X129863750Y-46270000D01*
X129842309Y-46268947D01*
X129821074Y-46265797D01*
X129800250Y-46260581D01*
X129780038Y-46253349D01*
X129760632Y-46244170D01*
X129742219Y-46233134D01*
X129724976Y-46220346D01*
X129709070Y-46205930D01*
X129694654Y-46190024D01*
X129681866Y-46172781D01*
X129670830Y-46154368D01*
X129661651Y-46134962D01*
X129654419Y-46114750D01*
X129649203Y-46093926D01*
X129646053Y-46072691D01*
X129645000Y-46051250D01*
X129645000Y-45613750D01*
X129646053Y-45592309D01*
X129649203Y-45571074D01*
X129654419Y-45550250D01*
X129661651Y-45530038D01*
X129670830Y-45510632D01*
X129681866Y-45492219D01*
X129694654Y-45474976D01*
X129709070Y-45459070D01*
X129724976Y-45444654D01*
X129742219Y-45431866D01*
X129760632Y-45420830D01*
X129780038Y-45411651D01*
X129800250Y-45404419D01*
X129821074Y-45399203D01*
X129842309Y-45396053D01*
X129863750Y-45395000D01*
X130376250Y-45395000D01*
X130397691Y-45396053D01*
X130397691Y-45396053D01*
G37*
D11*
X130120000Y-45832500D03*
D10*
G36*
X133825691Y-46636053D02*
G01*
X133846926Y-46639203D01*
X133867750Y-46644419D01*
X133887962Y-46651651D01*
X133907368Y-46660830D01*
X133925781Y-46671866D01*
X133943024Y-46684654D01*
X133958930Y-46699070D01*
X133973346Y-46714976D01*
X133986134Y-46732219D01*
X133997170Y-46750632D01*
X134006349Y-46770038D01*
X134013581Y-46790250D01*
X134018797Y-46811074D01*
X134021947Y-46832309D01*
X134023000Y-46853750D01*
X134023000Y-47366250D01*
X134021947Y-47387691D01*
X134018797Y-47408926D01*
X134013581Y-47429750D01*
X134006349Y-47449962D01*
X133997170Y-47469368D01*
X133986134Y-47487781D01*
X133973346Y-47505024D01*
X133958930Y-47520930D01*
X133943024Y-47535346D01*
X133925781Y-47548134D01*
X133907368Y-47559170D01*
X133887962Y-47568349D01*
X133867750Y-47575581D01*
X133846926Y-47580797D01*
X133825691Y-47583947D01*
X133804250Y-47585000D01*
X133366750Y-47585000D01*
X133345309Y-47583947D01*
X133324074Y-47580797D01*
X133303250Y-47575581D01*
X133283038Y-47568349D01*
X133263632Y-47559170D01*
X133245219Y-47548134D01*
X133227976Y-47535346D01*
X133212070Y-47520930D01*
X133197654Y-47505024D01*
X133184866Y-47487781D01*
X133173830Y-47469368D01*
X133164651Y-47449962D01*
X133157419Y-47429750D01*
X133152203Y-47408926D01*
X133149053Y-47387691D01*
X133148000Y-47366250D01*
X133148000Y-46853750D01*
X133149053Y-46832309D01*
X133152203Y-46811074D01*
X133157419Y-46790250D01*
X133164651Y-46770038D01*
X133173830Y-46750632D01*
X133184866Y-46732219D01*
X133197654Y-46714976D01*
X133212070Y-46699070D01*
X133227976Y-46684654D01*
X133245219Y-46671866D01*
X133263632Y-46660830D01*
X133283038Y-46651651D01*
X133303250Y-46644419D01*
X133324074Y-46639203D01*
X133345309Y-46636053D01*
X133366750Y-46635000D01*
X133804250Y-46635000D01*
X133825691Y-46636053D01*
X133825691Y-46636053D01*
G37*
D11*
X133585500Y-47110000D03*
D10*
G36*
X132250691Y-46636053D02*
G01*
X132271926Y-46639203D01*
X132292750Y-46644419D01*
X132312962Y-46651651D01*
X132332368Y-46660830D01*
X132350781Y-46671866D01*
X132368024Y-46684654D01*
X132383930Y-46699070D01*
X132398346Y-46714976D01*
X132411134Y-46732219D01*
X132422170Y-46750632D01*
X132431349Y-46770038D01*
X132438581Y-46790250D01*
X132443797Y-46811074D01*
X132446947Y-46832309D01*
X132448000Y-46853750D01*
X132448000Y-47366250D01*
X132446947Y-47387691D01*
X132443797Y-47408926D01*
X132438581Y-47429750D01*
X132431349Y-47449962D01*
X132422170Y-47469368D01*
X132411134Y-47487781D01*
X132398346Y-47505024D01*
X132383930Y-47520930D01*
X132368024Y-47535346D01*
X132350781Y-47548134D01*
X132332368Y-47559170D01*
X132312962Y-47568349D01*
X132292750Y-47575581D01*
X132271926Y-47580797D01*
X132250691Y-47583947D01*
X132229250Y-47585000D01*
X131791750Y-47585000D01*
X131770309Y-47583947D01*
X131749074Y-47580797D01*
X131728250Y-47575581D01*
X131708038Y-47568349D01*
X131688632Y-47559170D01*
X131670219Y-47548134D01*
X131652976Y-47535346D01*
X131637070Y-47520930D01*
X131622654Y-47505024D01*
X131609866Y-47487781D01*
X131598830Y-47469368D01*
X131589651Y-47449962D01*
X131582419Y-47429750D01*
X131577203Y-47408926D01*
X131574053Y-47387691D01*
X131573000Y-47366250D01*
X131573000Y-46853750D01*
X131574053Y-46832309D01*
X131577203Y-46811074D01*
X131582419Y-46790250D01*
X131589651Y-46770038D01*
X131598830Y-46750632D01*
X131609866Y-46732219D01*
X131622654Y-46714976D01*
X131637070Y-46699070D01*
X131652976Y-46684654D01*
X131670219Y-46671866D01*
X131688632Y-46660830D01*
X131708038Y-46651651D01*
X131728250Y-46644419D01*
X131749074Y-46639203D01*
X131770309Y-46636053D01*
X131791750Y-46635000D01*
X132229250Y-46635000D01*
X132250691Y-46636053D01*
X132250691Y-46636053D01*
G37*
D11*
X132010500Y-47110000D03*
D10*
G36*
X140887691Y-55493553D02*
G01*
X140908926Y-55496703D01*
X140929750Y-55501919D01*
X140949962Y-55509151D01*
X140969368Y-55518330D01*
X140987781Y-55529366D01*
X141005024Y-55542154D01*
X141020930Y-55556570D01*
X141035346Y-55572476D01*
X141048134Y-55589719D01*
X141059170Y-55608132D01*
X141068349Y-55627538D01*
X141075581Y-55647750D01*
X141080797Y-55668574D01*
X141083947Y-55689809D01*
X141085000Y-55711250D01*
X141085000Y-56148750D01*
X141083947Y-56170191D01*
X141080797Y-56191426D01*
X141075581Y-56212250D01*
X141068349Y-56232462D01*
X141059170Y-56251868D01*
X141048134Y-56270281D01*
X141035346Y-56287524D01*
X141020930Y-56303430D01*
X141005024Y-56317846D01*
X140987781Y-56330634D01*
X140969368Y-56341670D01*
X140949962Y-56350849D01*
X140929750Y-56358081D01*
X140908926Y-56363297D01*
X140887691Y-56366447D01*
X140866250Y-56367500D01*
X140353750Y-56367500D01*
X140332309Y-56366447D01*
X140311074Y-56363297D01*
X140290250Y-56358081D01*
X140270038Y-56350849D01*
X140250632Y-56341670D01*
X140232219Y-56330634D01*
X140214976Y-56317846D01*
X140199070Y-56303430D01*
X140184654Y-56287524D01*
X140171866Y-56270281D01*
X140160830Y-56251868D01*
X140151651Y-56232462D01*
X140144419Y-56212250D01*
X140139203Y-56191426D01*
X140136053Y-56170191D01*
X140135000Y-56148750D01*
X140135000Y-55711250D01*
X140136053Y-55689809D01*
X140139203Y-55668574D01*
X140144419Y-55647750D01*
X140151651Y-55627538D01*
X140160830Y-55608132D01*
X140171866Y-55589719D01*
X140184654Y-55572476D01*
X140199070Y-55556570D01*
X140214976Y-55542154D01*
X140232219Y-55529366D01*
X140250632Y-55518330D01*
X140270038Y-55509151D01*
X140290250Y-55501919D01*
X140311074Y-55496703D01*
X140332309Y-55493553D01*
X140353750Y-55492500D01*
X140866250Y-55492500D01*
X140887691Y-55493553D01*
X140887691Y-55493553D01*
G37*
D11*
X140610000Y-55930000D03*
D10*
G36*
X140887691Y-53918553D02*
G01*
X140908926Y-53921703D01*
X140929750Y-53926919D01*
X140949962Y-53934151D01*
X140969368Y-53943330D01*
X140987781Y-53954366D01*
X141005024Y-53967154D01*
X141020930Y-53981570D01*
X141035346Y-53997476D01*
X141048134Y-54014719D01*
X141059170Y-54033132D01*
X141068349Y-54052538D01*
X141075581Y-54072750D01*
X141080797Y-54093574D01*
X141083947Y-54114809D01*
X141085000Y-54136250D01*
X141085000Y-54573750D01*
X141083947Y-54595191D01*
X141080797Y-54616426D01*
X141075581Y-54637250D01*
X141068349Y-54657462D01*
X141059170Y-54676868D01*
X141048134Y-54695281D01*
X141035346Y-54712524D01*
X141020930Y-54728430D01*
X141005024Y-54742846D01*
X140987781Y-54755634D01*
X140969368Y-54766670D01*
X140949962Y-54775849D01*
X140929750Y-54783081D01*
X140908926Y-54788297D01*
X140887691Y-54791447D01*
X140866250Y-54792500D01*
X140353750Y-54792500D01*
X140332309Y-54791447D01*
X140311074Y-54788297D01*
X140290250Y-54783081D01*
X140270038Y-54775849D01*
X140250632Y-54766670D01*
X140232219Y-54755634D01*
X140214976Y-54742846D01*
X140199070Y-54728430D01*
X140184654Y-54712524D01*
X140171866Y-54695281D01*
X140160830Y-54676868D01*
X140151651Y-54657462D01*
X140144419Y-54637250D01*
X140139203Y-54616426D01*
X140136053Y-54595191D01*
X140135000Y-54573750D01*
X140135000Y-54136250D01*
X140136053Y-54114809D01*
X140139203Y-54093574D01*
X140144419Y-54072750D01*
X140151651Y-54052538D01*
X140160830Y-54033132D01*
X140171866Y-54014719D01*
X140184654Y-53997476D01*
X140199070Y-53981570D01*
X140214976Y-53967154D01*
X140232219Y-53954366D01*
X140250632Y-53943330D01*
X140270038Y-53934151D01*
X140290250Y-53926919D01*
X140311074Y-53921703D01*
X140332309Y-53918553D01*
X140353750Y-53917500D01*
X140866250Y-53917500D01*
X140887691Y-53918553D01*
X140887691Y-53918553D01*
G37*
D11*
X140610000Y-54355000D03*
D10*
G36*
X133277691Y-51698553D02*
G01*
X133298926Y-51701703D01*
X133319750Y-51706919D01*
X133339962Y-51714151D01*
X133359368Y-51723330D01*
X133377781Y-51734366D01*
X133395024Y-51747154D01*
X133410930Y-51761570D01*
X133425346Y-51777476D01*
X133438134Y-51794719D01*
X133449170Y-51813132D01*
X133458349Y-51832538D01*
X133465581Y-51852750D01*
X133470797Y-51873574D01*
X133473947Y-51894809D01*
X133475000Y-51916250D01*
X133475000Y-52353750D01*
X133473947Y-52375191D01*
X133470797Y-52396426D01*
X133465581Y-52417250D01*
X133458349Y-52437462D01*
X133449170Y-52456868D01*
X133438134Y-52475281D01*
X133425346Y-52492524D01*
X133410930Y-52508430D01*
X133395024Y-52522846D01*
X133377781Y-52535634D01*
X133359368Y-52546670D01*
X133339962Y-52555849D01*
X133319750Y-52563081D01*
X133298926Y-52568297D01*
X133277691Y-52571447D01*
X133256250Y-52572500D01*
X132743750Y-52572500D01*
X132722309Y-52571447D01*
X132701074Y-52568297D01*
X132680250Y-52563081D01*
X132660038Y-52555849D01*
X132640632Y-52546670D01*
X132622219Y-52535634D01*
X132604976Y-52522846D01*
X132589070Y-52508430D01*
X132574654Y-52492524D01*
X132561866Y-52475281D01*
X132550830Y-52456868D01*
X132541651Y-52437462D01*
X132534419Y-52417250D01*
X132529203Y-52396426D01*
X132526053Y-52375191D01*
X132525000Y-52353750D01*
X132525000Y-51916250D01*
X132526053Y-51894809D01*
X132529203Y-51873574D01*
X132534419Y-51852750D01*
X132541651Y-51832538D01*
X132550830Y-51813132D01*
X132561866Y-51794719D01*
X132574654Y-51777476D01*
X132589070Y-51761570D01*
X132604976Y-51747154D01*
X132622219Y-51734366D01*
X132640632Y-51723330D01*
X132660038Y-51714151D01*
X132680250Y-51706919D01*
X132701074Y-51701703D01*
X132722309Y-51698553D01*
X132743750Y-51697500D01*
X133256250Y-51697500D01*
X133277691Y-51698553D01*
X133277691Y-51698553D01*
G37*
D11*
X133000000Y-52135000D03*
D10*
G36*
X133277691Y-50123553D02*
G01*
X133298926Y-50126703D01*
X133319750Y-50131919D01*
X133339962Y-50139151D01*
X133359368Y-50148330D01*
X133377781Y-50159366D01*
X133395024Y-50172154D01*
X133410930Y-50186570D01*
X133425346Y-50202476D01*
X133438134Y-50219719D01*
X133449170Y-50238132D01*
X133458349Y-50257538D01*
X133465581Y-50277750D01*
X133470797Y-50298574D01*
X133473947Y-50319809D01*
X133475000Y-50341250D01*
X133475000Y-50778750D01*
X133473947Y-50800191D01*
X133470797Y-50821426D01*
X133465581Y-50842250D01*
X133458349Y-50862462D01*
X133449170Y-50881868D01*
X133438134Y-50900281D01*
X133425346Y-50917524D01*
X133410930Y-50933430D01*
X133395024Y-50947846D01*
X133377781Y-50960634D01*
X133359368Y-50971670D01*
X133339962Y-50980849D01*
X133319750Y-50988081D01*
X133298926Y-50993297D01*
X133277691Y-50996447D01*
X133256250Y-50997500D01*
X132743750Y-50997500D01*
X132722309Y-50996447D01*
X132701074Y-50993297D01*
X132680250Y-50988081D01*
X132660038Y-50980849D01*
X132640632Y-50971670D01*
X132622219Y-50960634D01*
X132604976Y-50947846D01*
X132589070Y-50933430D01*
X132574654Y-50917524D01*
X132561866Y-50900281D01*
X132550830Y-50881868D01*
X132541651Y-50862462D01*
X132534419Y-50842250D01*
X132529203Y-50821426D01*
X132526053Y-50800191D01*
X132525000Y-50778750D01*
X132525000Y-50341250D01*
X132526053Y-50319809D01*
X132529203Y-50298574D01*
X132534419Y-50277750D01*
X132541651Y-50257538D01*
X132550830Y-50238132D01*
X132561866Y-50219719D01*
X132574654Y-50202476D01*
X132589070Y-50186570D01*
X132604976Y-50172154D01*
X132622219Y-50159366D01*
X132640632Y-50148330D01*
X132660038Y-50139151D01*
X132680250Y-50131919D01*
X132701074Y-50126703D01*
X132722309Y-50123553D01*
X132743750Y-50122500D01*
X133256250Y-50122500D01*
X133277691Y-50123553D01*
X133277691Y-50123553D01*
G37*
D11*
X133000000Y-50560000D03*
D10*
G36*
X138547691Y-50153553D02*
G01*
X138568926Y-50156703D01*
X138589750Y-50161919D01*
X138609962Y-50169151D01*
X138629368Y-50178330D01*
X138647781Y-50189366D01*
X138665024Y-50202154D01*
X138680930Y-50216570D01*
X138695346Y-50232476D01*
X138708134Y-50249719D01*
X138719170Y-50268132D01*
X138728349Y-50287538D01*
X138735581Y-50307750D01*
X138740797Y-50328574D01*
X138743947Y-50349809D01*
X138745000Y-50371250D01*
X138745000Y-50808750D01*
X138743947Y-50830191D01*
X138740797Y-50851426D01*
X138735581Y-50872250D01*
X138728349Y-50892462D01*
X138719170Y-50911868D01*
X138708134Y-50930281D01*
X138695346Y-50947524D01*
X138680930Y-50963430D01*
X138665024Y-50977846D01*
X138647781Y-50990634D01*
X138629368Y-51001670D01*
X138609962Y-51010849D01*
X138589750Y-51018081D01*
X138568926Y-51023297D01*
X138547691Y-51026447D01*
X138526250Y-51027500D01*
X138013750Y-51027500D01*
X137992309Y-51026447D01*
X137971074Y-51023297D01*
X137950250Y-51018081D01*
X137930038Y-51010849D01*
X137910632Y-51001670D01*
X137892219Y-50990634D01*
X137874976Y-50977846D01*
X137859070Y-50963430D01*
X137844654Y-50947524D01*
X137831866Y-50930281D01*
X137820830Y-50911868D01*
X137811651Y-50892462D01*
X137804419Y-50872250D01*
X137799203Y-50851426D01*
X137796053Y-50830191D01*
X137795000Y-50808750D01*
X137795000Y-50371250D01*
X137796053Y-50349809D01*
X137799203Y-50328574D01*
X137804419Y-50307750D01*
X137811651Y-50287538D01*
X137820830Y-50268132D01*
X137831866Y-50249719D01*
X137844654Y-50232476D01*
X137859070Y-50216570D01*
X137874976Y-50202154D01*
X137892219Y-50189366D01*
X137910632Y-50178330D01*
X137930038Y-50169151D01*
X137950250Y-50161919D01*
X137971074Y-50156703D01*
X137992309Y-50153553D01*
X138013750Y-50152500D01*
X138526250Y-50152500D01*
X138547691Y-50153553D01*
X138547691Y-50153553D01*
G37*
D11*
X138270000Y-50590000D03*
D10*
G36*
X138547691Y-51728553D02*
G01*
X138568926Y-51731703D01*
X138589750Y-51736919D01*
X138609962Y-51744151D01*
X138629368Y-51753330D01*
X138647781Y-51764366D01*
X138665024Y-51777154D01*
X138680930Y-51791570D01*
X138695346Y-51807476D01*
X138708134Y-51824719D01*
X138719170Y-51843132D01*
X138728349Y-51862538D01*
X138735581Y-51882750D01*
X138740797Y-51903574D01*
X138743947Y-51924809D01*
X138745000Y-51946250D01*
X138745000Y-52383750D01*
X138743947Y-52405191D01*
X138740797Y-52426426D01*
X138735581Y-52447250D01*
X138728349Y-52467462D01*
X138719170Y-52486868D01*
X138708134Y-52505281D01*
X138695346Y-52522524D01*
X138680930Y-52538430D01*
X138665024Y-52552846D01*
X138647781Y-52565634D01*
X138629368Y-52576670D01*
X138609962Y-52585849D01*
X138589750Y-52593081D01*
X138568926Y-52598297D01*
X138547691Y-52601447D01*
X138526250Y-52602500D01*
X138013750Y-52602500D01*
X137992309Y-52601447D01*
X137971074Y-52598297D01*
X137950250Y-52593081D01*
X137930038Y-52585849D01*
X137910632Y-52576670D01*
X137892219Y-52565634D01*
X137874976Y-52552846D01*
X137859070Y-52538430D01*
X137844654Y-52522524D01*
X137831866Y-52505281D01*
X137820830Y-52486868D01*
X137811651Y-52467462D01*
X137804419Y-52447250D01*
X137799203Y-52426426D01*
X137796053Y-52405191D01*
X137795000Y-52383750D01*
X137795000Y-51946250D01*
X137796053Y-51924809D01*
X137799203Y-51903574D01*
X137804419Y-51882750D01*
X137811651Y-51862538D01*
X137820830Y-51843132D01*
X137831866Y-51824719D01*
X137844654Y-51807476D01*
X137859070Y-51791570D01*
X137874976Y-51777154D01*
X137892219Y-51764366D01*
X137910632Y-51753330D01*
X137930038Y-51744151D01*
X137950250Y-51736919D01*
X137971074Y-51731703D01*
X137992309Y-51728553D01*
X138013750Y-51727500D01*
X138526250Y-51727500D01*
X138547691Y-51728553D01*
X138547691Y-51728553D01*
G37*
D11*
X138270000Y-52165000D03*
D10*
G36*
X143607691Y-51498553D02*
G01*
X143628926Y-51501703D01*
X143649750Y-51506919D01*
X143669962Y-51514151D01*
X143689368Y-51523330D01*
X143707781Y-51534366D01*
X143725024Y-51547154D01*
X143740930Y-51561570D01*
X143755346Y-51577476D01*
X143768134Y-51594719D01*
X143779170Y-51613132D01*
X143788349Y-51632538D01*
X143795581Y-51652750D01*
X143800797Y-51673574D01*
X143803947Y-51694809D01*
X143805000Y-51716250D01*
X143805000Y-52153750D01*
X143803947Y-52175191D01*
X143800797Y-52196426D01*
X143795581Y-52217250D01*
X143788349Y-52237462D01*
X143779170Y-52256868D01*
X143768134Y-52275281D01*
X143755346Y-52292524D01*
X143740930Y-52308430D01*
X143725024Y-52322846D01*
X143707781Y-52335634D01*
X143689368Y-52346670D01*
X143669962Y-52355849D01*
X143649750Y-52363081D01*
X143628926Y-52368297D01*
X143607691Y-52371447D01*
X143586250Y-52372500D01*
X143073750Y-52372500D01*
X143052309Y-52371447D01*
X143031074Y-52368297D01*
X143010250Y-52363081D01*
X142990038Y-52355849D01*
X142970632Y-52346670D01*
X142952219Y-52335634D01*
X142934976Y-52322846D01*
X142919070Y-52308430D01*
X142904654Y-52292524D01*
X142891866Y-52275281D01*
X142880830Y-52256868D01*
X142871651Y-52237462D01*
X142864419Y-52217250D01*
X142859203Y-52196426D01*
X142856053Y-52175191D01*
X142855000Y-52153750D01*
X142855000Y-51716250D01*
X142856053Y-51694809D01*
X142859203Y-51673574D01*
X142864419Y-51652750D01*
X142871651Y-51632538D01*
X142880830Y-51613132D01*
X142891866Y-51594719D01*
X142904654Y-51577476D01*
X142919070Y-51561570D01*
X142934976Y-51547154D01*
X142952219Y-51534366D01*
X142970632Y-51523330D01*
X142990038Y-51514151D01*
X143010250Y-51506919D01*
X143031074Y-51501703D01*
X143052309Y-51498553D01*
X143073750Y-51497500D01*
X143586250Y-51497500D01*
X143607691Y-51498553D01*
X143607691Y-51498553D01*
G37*
D11*
X143330000Y-51935000D03*
D10*
G36*
X143607691Y-49923553D02*
G01*
X143628926Y-49926703D01*
X143649750Y-49931919D01*
X143669962Y-49939151D01*
X143689368Y-49948330D01*
X143707781Y-49959366D01*
X143725024Y-49972154D01*
X143740930Y-49986570D01*
X143755346Y-50002476D01*
X143768134Y-50019719D01*
X143779170Y-50038132D01*
X143788349Y-50057538D01*
X143795581Y-50077750D01*
X143800797Y-50098574D01*
X143803947Y-50119809D01*
X143805000Y-50141250D01*
X143805000Y-50578750D01*
X143803947Y-50600191D01*
X143800797Y-50621426D01*
X143795581Y-50642250D01*
X143788349Y-50662462D01*
X143779170Y-50681868D01*
X143768134Y-50700281D01*
X143755346Y-50717524D01*
X143740930Y-50733430D01*
X143725024Y-50747846D01*
X143707781Y-50760634D01*
X143689368Y-50771670D01*
X143669962Y-50780849D01*
X143649750Y-50788081D01*
X143628926Y-50793297D01*
X143607691Y-50796447D01*
X143586250Y-50797500D01*
X143073750Y-50797500D01*
X143052309Y-50796447D01*
X143031074Y-50793297D01*
X143010250Y-50788081D01*
X142990038Y-50780849D01*
X142970632Y-50771670D01*
X142952219Y-50760634D01*
X142934976Y-50747846D01*
X142919070Y-50733430D01*
X142904654Y-50717524D01*
X142891866Y-50700281D01*
X142880830Y-50681868D01*
X142871651Y-50662462D01*
X142864419Y-50642250D01*
X142859203Y-50621426D01*
X142856053Y-50600191D01*
X142855000Y-50578750D01*
X142855000Y-50141250D01*
X142856053Y-50119809D01*
X142859203Y-50098574D01*
X142864419Y-50077750D01*
X142871651Y-50057538D01*
X142880830Y-50038132D01*
X142891866Y-50019719D01*
X142904654Y-50002476D01*
X142919070Y-49986570D01*
X142934976Y-49972154D01*
X142952219Y-49959366D01*
X142970632Y-49948330D01*
X142990038Y-49939151D01*
X143010250Y-49931919D01*
X143031074Y-49926703D01*
X143052309Y-49923553D01*
X143073750Y-49922500D01*
X143586250Y-49922500D01*
X143607691Y-49923553D01*
X143607691Y-49923553D01*
G37*
D11*
X143330000Y-50360000D03*
D15*
X157265000Y-46590000D03*
X153095000Y-46590000D03*
X157265000Y-44590000D03*
X153095000Y-44590000D03*
X157265000Y-42590000D03*
X153095000Y-42590000D03*
X126615000Y-75510000D03*
X130785000Y-75510000D03*
X126615000Y-77510000D03*
X130785000Y-77510000D03*
X126615000Y-79510000D03*
X130785000Y-79510000D03*
D10*
G36*
X134957691Y-51698553D02*
G01*
X134978926Y-51701703D01*
X134999750Y-51706919D01*
X135019962Y-51714151D01*
X135039368Y-51723330D01*
X135057781Y-51734366D01*
X135075024Y-51747154D01*
X135090930Y-51761570D01*
X135105346Y-51777476D01*
X135118134Y-51794719D01*
X135129170Y-51813132D01*
X135138349Y-51832538D01*
X135145581Y-51852750D01*
X135150797Y-51873574D01*
X135153947Y-51894809D01*
X135155000Y-51916250D01*
X135155000Y-52353750D01*
X135153947Y-52375191D01*
X135150797Y-52396426D01*
X135145581Y-52417250D01*
X135138349Y-52437462D01*
X135129170Y-52456868D01*
X135118134Y-52475281D01*
X135105346Y-52492524D01*
X135090930Y-52508430D01*
X135075024Y-52522846D01*
X135057781Y-52535634D01*
X135039368Y-52546670D01*
X135019962Y-52555849D01*
X134999750Y-52563081D01*
X134978926Y-52568297D01*
X134957691Y-52571447D01*
X134936250Y-52572500D01*
X134423750Y-52572500D01*
X134402309Y-52571447D01*
X134381074Y-52568297D01*
X134360250Y-52563081D01*
X134340038Y-52555849D01*
X134320632Y-52546670D01*
X134302219Y-52535634D01*
X134284976Y-52522846D01*
X134269070Y-52508430D01*
X134254654Y-52492524D01*
X134241866Y-52475281D01*
X134230830Y-52456868D01*
X134221651Y-52437462D01*
X134214419Y-52417250D01*
X134209203Y-52396426D01*
X134206053Y-52375191D01*
X134205000Y-52353750D01*
X134205000Y-51916250D01*
X134206053Y-51894809D01*
X134209203Y-51873574D01*
X134214419Y-51852750D01*
X134221651Y-51832538D01*
X134230830Y-51813132D01*
X134241866Y-51794719D01*
X134254654Y-51777476D01*
X134269070Y-51761570D01*
X134284976Y-51747154D01*
X134302219Y-51734366D01*
X134320632Y-51723330D01*
X134340038Y-51714151D01*
X134360250Y-51706919D01*
X134381074Y-51701703D01*
X134402309Y-51698553D01*
X134423750Y-51697500D01*
X134936250Y-51697500D01*
X134957691Y-51698553D01*
X134957691Y-51698553D01*
G37*
D11*
X134680000Y-52135000D03*
D10*
G36*
X134957691Y-50123553D02*
G01*
X134978926Y-50126703D01*
X134999750Y-50131919D01*
X135019962Y-50139151D01*
X135039368Y-50148330D01*
X135057781Y-50159366D01*
X135075024Y-50172154D01*
X135090930Y-50186570D01*
X135105346Y-50202476D01*
X135118134Y-50219719D01*
X135129170Y-50238132D01*
X135138349Y-50257538D01*
X135145581Y-50277750D01*
X135150797Y-50298574D01*
X135153947Y-50319809D01*
X135155000Y-50341250D01*
X135155000Y-50778750D01*
X135153947Y-50800191D01*
X135150797Y-50821426D01*
X135145581Y-50842250D01*
X135138349Y-50862462D01*
X135129170Y-50881868D01*
X135118134Y-50900281D01*
X135105346Y-50917524D01*
X135090930Y-50933430D01*
X135075024Y-50947846D01*
X135057781Y-50960634D01*
X135039368Y-50971670D01*
X135019962Y-50980849D01*
X134999750Y-50988081D01*
X134978926Y-50993297D01*
X134957691Y-50996447D01*
X134936250Y-50997500D01*
X134423750Y-50997500D01*
X134402309Y-50996447D01*
X134381074Y-50993297D01*
X134360250Y-50988081D01*
X134340038Y-50980849D01*
X134320632Y-50971670D01*
X134302219Y-50960634D01*
X134284976Y-50947846D01*
X134269070Y-50933430D01*
X134254654Y-50917524D01*
X134241866Y-50900281D01*
X134230830Y-50881868D01*
X134221651Y-50862462D01*
X134214419Y-50842250D01*
X134209203Y-50821426D01*
X134206053Y-50800191D01*
X134205000Y-50778750D01*
X134205000Y-50341250D01*
X134206053Y-50319809D01*
X134209203Y-50298574D01*
X134214419Y-50277750D01*
X134221651Y-50257538D01*
X134230830Y-50238132D01*
X134241866Y-50219719D01*
X134254654Y-50202476D01*
X134269070Y-50186570D01*
X134284976Y-50172154D01*
X134302219Y-50159366D01*
X134320632Y-50148330D01*
X134340038Y-50139151D01*
X134360250Y-50131919D01*
X134381074Y-50126703D01*
X134402309Y-50123553D01*
X134423750Y-50122500D01*
X134936250Y-50122500D01*
X134957691Y-50123553D01*
X134957691Y-50123553D01*
G37*
D11*
X134680000Y-50560000D03*
D10*
G36*
X140257691Y-50186053D02*
G01*
X140278926Y-50189203D01*
X140299750Y-50194419D01*
X140319962Y-50201651D01*
X140339368Y-50210830D01*
X140357781Y-50221866D01*
X140375024Y-50234654D01*
X140390930Y-50249070D01*
X140405346Y-50264976D01*
X140418134Y-50282219D01*
X140429170Y-50300632D01*
X140438349Y-50320038D01*
X140445581Y-50340250D01*
X140450797Y-50361074D01*
X140453947Y-50382309D01*
X140455000Y-50403750D01*
X140455000Y-50841250D01*
X140453947Y-50862691D01*
X140450797Y-50883926D01*
X140445581Y-50904750D01*
X140438349Y-50924962D01*
X140429170Y-50944368D01*
X140418134Y-50962781D01*
X140405346Y-50980024D01*
X140390930Y-50995930D01*
X140375024Y-51010346D01*
X140357781Y-51023134D01*
X140339368Y-51034170D01*
X140319962Y-51043349D01*
X140299750Y-51050581D01*
X140278926Y-51055797D01*
X140257691Y-51058947D01*
X140236250Y-51060000D01*
X139723750Y-51060000D01*
X139702309Y-51058947D01*
X139681074Y-51055797D01*
X139660250Y-51050581D01*
X139640038Y-51043349D01*
X139620632Y-51034170D01*
X139602219Y-51023134D01*
X139584976Y-51010346D01*
X139569070Y-50995930D01*
X139554654Y-50980024D01*
X139541866Y-50962781D01*
X139530830Y-50944368D01*
X139521651Y-50924962D01*
X139514419Y-50904750D01*
X139509203Y-50883926D01*
X139506053Y-50862691D01*
X139505000Y-50841250D01*
X139505000Y-50403750D01*
X139506053Y-50382309D01*
X139509203Y-50361074D01*
X139514419Y-50340250D01*
X139521651Y-50320038D01*
X139530830Y-50300632D01*
X139541866Y-50282219D01*
X139554654Y-50264976D01*
X139569070Y-50249070D01*
X139584976Y-50234654D01*
X139602219Y-50221866D01*
X139620632Y-50210830D01*
X139640038Y-50201651D01*
X139660250Y-50194419D01*
X139681074Y-50189203D01*
X139702309Y-50186053D01*
X139723750Y-50185000D01*
X140236250Y-50185000D01*
X140257691Y-50186053D01*
X140257691Y-50186053D01*
G37*
D11*
X139980000Y-50622500D03*
D10*
G36*
X140257691Y-51761053D02*
G01*
X140278926Y-51764203D01*
X140299750Y-51769419D01*
X140319962Y-51776651D01*
X140339368Y-51785830D01*
X140357781Y-51796866D01*
X140375024Y-51809654D01*
X140390930Y-51824070D01*
X140405346Y-51839976D01*
X140418134Y-51857219D01*
X140429170Y-51875632D01*
X140438349Y-51895038D01*
X140445581Y-51915250D01*
X140450797Y-51936074D01*
X140453947Y-51957309D01*
X140455000Y-51978750D01*
X140455000Y-52416250D01*
X140453947Y-52437691D01*
X140450797Y-52458926D01*
X140445581Y-52479750D01*
X140438349Y-52499962D01*
X140429170Y-52519368D01*
X140418134Y-52537781D01*
X140405346Y-52555024D01*
X140390930Y-52570930D01*
X140375024Y-52585346D01*
X140357781Y-52598134D01*
X140339368Y-52609170D01*
X140319962Y-52618349D01*
X140299750Y-52625581D01*
X140278926Y-52630797D01*
X140257691Y-52633947D01*
X140236250Y-52635000D01*
X139723750Y-52635000D01*
X139702309Y-52633947D01*
X139681074Y-52630797D01*
X139660250Y-52625581D01*
X139640038Y-52618349D01*
X139620632Y-52609170D01*
X139602219Y-52598134D01*
X139584976Y-52585346D01*
X139569070Y-52570930D01*
X139554654Y-52555024D01*
X139541866Y-52537781D01*
X139530830Y-52519368D01*
X139521651Y-52499962D01*
X139514419Y-52479750D01*
X139509203Y-52458926D01*
X139506053Y-52437691D01*
X139505000Y-52416250D01*
X139505000Y-51978750D01*
X139506053Y-51957309D01*
X139509203Y-51936074D01*
X139514419Y-51915250D01*
X139521651Y-51895038D01*
X139530830Y-51875632D01*
X139541866Y-51857219D01*
X139554654Y-51839976D01*
X139569070Y-51824070D01*
X139584976Y-51809654D01*
X139602219Y-51796866D01*
X139620632Y-51785830D01*
X139640038Y-51776651D01*
X139660250Y-51769419D01*
X139681074Y-51764203D01*
X139702309Y-51761053D01*
X139723750Y-51760000D01*
X140236250Y-51760000D01*
X140257691Y-51761053D01*
X140257691Y-51761053D01*
G37*
D11*
X139980000Y-52197500D03*
D10*
G36*
X145157691Y-49843553D02*
G01*
X145178926Y-49846703D01*
X145199750Y-49851919D01*
X145219962Y-49859151D01*
X145239368Y-49868330D01*
X145257781Y-49879366D01*
X145275024Y-49892154D01*
X145290930Y-49906570D01*
X145305346Y-49922476D01*
X145318134Y-49939719D01*
X145329170Y-49958132D01*
X145338349Y-49977538D01*
X145345581Y-49997750D01*
X145350797Y-50018574D01*
X145353947Y-50039809D01*
X145355000Y-50061250D01*
X145355000Y-50498750D01*
X145353947Y-50520191D01*
X145350797Y-50541426D01*
X145345581Y-50562250D01*
X145338349Y-50582462D01*
X145329170Y-50601868D01*
X145318134Y-50620281D01*
X145305346Y-50637524D01*
X145290930Y-50653430D01*
X145275024Y-50667846D01*
X145257781Y-50680634D01*
X145239368Y-50691670D01*
X145219962Y-50700849D01*
X145199750Y-50708081D01*
X145178926Y-50713297D01*
X145157691Y-50716447D01*
X145136250Y-50717500D01*
X144623750Y-50717500D01*
X144602309Y-50716447D01*
X144581074Y-50713297D01*
X144560250Y-50708081D01*
X144540038Y-50700849D01*
X144520632Y-50691670D01*
X144502219Y-50680634D01*
X144484976Y-50667846D01*
X144469070Y-50653430D01*
X144454654Y-50637524D01*
X144441866Y-50620281D01*
X144430830Y-50601868D01*
X144421651Y-50582462D01*
X144414419Y-50562250D01*
X144409203Y-50541426D01*
X144406053Y-50520191D01*
X144405000Y-50498750D01*
X144405000Y-50061250D01*
X144406053Y-50039809D01*
X144409203Y-50018574D01*
X144414419Y-49997750D01*
X144421651Y-49977538D01*
X144430830Y-49958132D01*
X144441866Y-49939719D01*
X144454654Y-49922476D01*
X144469070Y-49906570D01*
X144484976Y-49892154D01*
X144502219Y-49879366D01*
X144520632Y-49868330D01*
X144540038Y-49859151D01*
X144560250Y-49851919D01*
X144581074Y-49846703D01*
X144602309Y-49843553D01*
X144623750Y-49842500D01*
X145136250Y-49842500D01*
X145157691Y-49843553D01*
X145157691Y-49843553D01*
G37*
D11*
X144880000Y-50280000D03*
D10*
G36*
X145157691Y-51418553D02*
G01*
X145178926Y-51421703D01*
X145199750Y-51426919D01*
X145219962Y-51434151D01*
X145239368Y-51443330D01*
X145257781Y-51454366D01*
X145275024Y-51467154D01*
X145290930Y-51481570D01*
X145305346Y-51497476D01*
X145318134Y-51514719D01*
X145329170Y-51533132D01*
X145338349Y-51552538D01*
X145345581Y-51572750D01*
X145350797Y-51593574D01*
X145353947Y-51614809D01*
X145355000Y-51636250D01*
X145355000Y-52073750D01*
X145353947Y-52095191D01*
X145350797Y-52116426D01*
X145345581Y-52137250D01*
X145338349Y-52157462D01*
X145329170Y-52176868D01*
X145318134Y-52195281D01*
X145305346Y-52212524D01*
X145290930Y-52228430D01*
X145275024Y-52242846D01*
X145257781Y-52255634D01*
X145239368Y-52266670D01*
X145219962Y-52275849D01*
X145199750Y-52283081D01*
X145178926Y-52288297D01*
X145157691Y-52291447D01*
X145136250Y-52292500D01*
X144623750Y-52292500D01*
X144602309Y-52291447D01*
X144581074Y-52288297D01*
X144560250Y-52283081D01*
X144540038Y-52275849D01*
X144520632Y-52266670D01*
X144502219Y-52255634D01*
X144484976Y-52242846D01*
X144469070Y-52228430D01*
X144454654Y-52212524D01*
X144441866Y-52195281D01*
X144430830Y-52176868D01*
X144421651Y-52157462D01*
X144414419Y-52137250D01*
X144409203Y-52116426D01*
X144406053Y-52095191D01*
X144405000Y-52073750D01*
X144405000Y-51636250D01*
X144406053Y-51614809D01*
X144409203Y-51593574D01*
X144414419Y-51572750D01*
X144421651Y-51552538D01*
X144430830Y-51533132D01*
X144441866Y-51514719D01*
X144454654Y-51497476D01*
X144469070Y-51481570D01*
X144484976Y-51467154D01*
X144502219Y-51454366D01*
X144520632Y-51443330D01*
X144540038Y-51434151D01*
X144560250Y-51426919D01*
X144581074Y-51421703D01*
X144602309Y-51418553D01*
X144623750Y-51417500D01*
X145136250Y-51417500D01*
X145157691Y-51418553D01*
X145157691Y-51418553D01*
G37*
D11*
X144880000Y-51855000D03*
D10*
G36*
X130919691Y-60246053D02*
G01*
X130940926Y-60249203D01*
X130961750Y-60254419D01*
X130981962Y-60261651D01*
X131001368Y-60270830D01*
X131019781Y-60281866D01*
X131037024Y-60294654D01*
X131052930Y-60309070D01*
X131067346Y-60324976D01*
X131080134Y-60342219D01*
X131091170Y-60360632D01*
X131100349Y-60380038D01*
X131107581Y-60400250D01*
X131112797Y-60421074D01*
X131115947Y-60442309D01*
X131117000Y-60463750D01*
X131117000Y-60976250D01*
X131115947Y-60997691D01*
X131112797Y-61018926D01*
X131107581Y-61039750D01*
X131100349Y-61059962D01*
X131091170Y-61079368D01*
X131080134Y-61097781D01*
X131067346Y-61115024D01*
X131052930Y-61130930D01*
X131037024Y-61145346D01*
X131019781Y-61158134D01*
X131001368Y-61169170D01*
X130981962Y-61178349D01*
X130961750Y-61185581D01*
X130940926Y-61190797D01*
X130919691Y-61193947D01*
X130898250Y-61195000D01*
X130460750Y-61195000D01*
X130439309Y-61193947D01*
X130418074Y-61190797D01*
X130397250Y-61185581D01*
X130377038Y-61178349D01*
X130357632Y-61169170D01*
X130339219Y-61158134D01*
X130321976Y-61145346D01*
X130306070Y-61130930D01*
X130291654Y-61115024D01*
X130278866Y-61097781D01*
X130267830Y-61079368D01*
X130258651Y-61059962D01*
X130251419Y-61039750D01*
X130246203Y-61018926D01*
X130243053Y-60997691D01*
X130242000Y-60976250D01*
X130242000Y-60463750D01*
X130243053Y-60442309D01*
X130246203Y-60421074D01*
X130251419Y-60400250D01*
X130258651Y-60380038D01*
X130267830Y-60360632D01*
X130278866Y-60342219D01*
X130291654Y-60324976D01*
X130306070Y-60309070D01*
X130321976Y-60294654D01*
X130339219Y-60281866D01*
X130357632Y-60270830D01*
X130377038Y-60261651D01*
X130397250Y-60254419D01*
X130418074Y-60249203D01*
X130439309Y-60246053D01*
X130460750Y-60245000D01*
X130898250Y-60245000D01*
X130919691Y-60246053D01*
X130919691Y-60246053D01*
G37*
D11*
X130679500Y-60720000D03*
D10*
G36*
X129344691Y-60246053D02*
G01*
X129365926Y-60249203D01*
X129386750Y-60254419D01*
X129406962Y-60261651D01*
X129426368Y-60270830D01*
X129444781Y-60281866D01*
X129462024Y-60294654D01*
X129477930Y-60309070D01*
X129492346Y-60324976D01*
X129505134Y-60342219D01*
X129516170Y-60360632D01*
X129525349Y-60380038D01*
X129532581Y-60400250D01*
X129537797Y-60421074D01*
X129540947Y-60442309D01*
X129542000Y-60463750D01*
X129542000Y-60976250D01*
X129540947Y-60997691D01*
X129537797Y-61018926D01*
X129532581Y-61039750D01*
X129525349Y-61059962D01*
X129516170Y-61079368D01*
X129505134Y-61097781D01*
X129492346Y-61115024D01*
X129477930Y-61130930D01*
X129462024Y-61145346D01*
X129444781Y-61158134D01*
X129426368Y-61169170D01*
X129406962Y-61178349D01*
X129386750Y-61185581D01*
X129365926Y-61190797D01*
X129344691Y-61193947D01*
X129323250Y-61195000D01*
X128885750Y-61195000D01*
X128864309Y-61193947D01*
X128843074Y-61190797D01*
X128822250Y-61185581D01*
X128802038Y-61178349D01*
X128782632Y-61169170D01*
X128764219Y-61158134D01*
X128746976Y-61145346D01*
X128731070Y-61130930D01*
X128716654Y-61115024D01*
X128703866Y-61097781D01*
X128692830Y-61079368D01*
X128683651Y-61059962D01*
X128676419Y-61039750D01*
X128671203Y-61018926D01*
X128668053Y-60997691D01*
X128667000Y-60976250D01*
X128667000Y-60463750D01*
X128668053Y-60442309D01*
X128671203Y-60421074D01*
X128676419Y-60400250D01*
X128683651Y-60380038D01*
X128692830Y-60360632D01*
X128703866Y-60342219D01*
X128716654Y-60324976D01*
X128731070Y-60309070D01*
X128746976Y-60294654D01*
X128764219Y-60281866D01*
X128782632Y-60270830D01*
X128802038Y-60261651D01*
X128822250Y-60254419D01*
X128843074Y-60249203D01*
X128864309Y-60246053D01*
X128885750Y-60245000D01*
X129323250Y-60245000D01*
X129344691Y-60246053D01*
X129344691Y-60246053D01*
G37*
D11*
X129104500Y-60720000D03*
D10*
G36*
X122325691Y-74866053D02*
G01*
X122346926Y-74869203D01*
X122367750Y-74874419D01*
X122387962Y-74881651D01*
X122407368Y-74890830D01*
X122425781Y-74901866D01*
X122443024Y-74914654D01*
X122458930Y-74929070D01*
X122473346Y-74944976D01*
X122486134Y-74962219D01*
X122497170Y-74980632D01*
X122506349Y-75000038D01*
X122513581Y-75020250D01*
X122518797Y-75041074D01*
X122521947Y-75062309D01*
X122523000Y-75083750D01*
X122523000Y-75596250D01*
X122521947Y-75617691D01*
X122518797Y-75638926D01*
X122513581Y-75659750D01*
X122506349Y-75679962D01*
X122497170Y-75699368D01*
X122486134Y-75717781D01*
X122473346Y-75735024D01*
X122458930Y-75750930D01*
X122443024Y-75765346D01*
X122425781Y-75778134D01*
X122407368Y-75789170D01*
X122387962Y-75798349D01*
X122367750Y-75805581D01*
X122346926Y-75810797D01*
X122325691Y-75813947D01*
X122304250Y-75815000D01*
X121866750Y-75815000D01*
X121845309Y-75813947D01*
X121824074Y-75810797D01*
X121803250Y-75805581D01*
X121783038Y-75798349D01*
X121763632Y-75789170D01*
X121745219Y-75778134D01*
X121727976Y-75765346D01*
X121712070Y-75750930D01*
X121697654Y-75735024D01*
X121684866Y-75717781D01*
X121673830Y-75699368D01*
X121664651Y-75679962D01*
X121657419Y-75659750D01*
X121652203Y-75638926D01*
X121649053Y-75617691D01*
X121648000Y-75596250D01*
X121648000Y-75083750D01*
X121649053Y-75062309D01*
X121652203Y-75041074D01*
X121657419Y-75020250D01*
X121664651Y-75000038D01*
X121673830Y-74980632D01*
X121684866Y-74962219D01*
X121697654Y-74944976D01*
X121712070Y-74929070D01*
X121727976Y-74914654D01*
X121745219Y-74901866D01*
X121763632Y-74890830D01*
X121783038Y-74881651D01*
X121803250Y-74874419D01*
X121824074Y-74869203D01*
X121845309Y-74866053D01*
X121866750Y-74865000D01*
X122304250Y-74865000D01*
X122325691Y-74866053D01*
X122325691Y-74866053D01*
G37*
D11*
X122085500Y-75340000D03*
D10*
G36*
X120750691Y-74866053D02*
G01*
X120771926Y-74869203D01*
X120792750Y-74874419D01*
X120812962Y-74881651D01*
X120832368Y-74890830D01*
X120850781Y-74901866D01*
X120868024Y-74914654D01*
X120883930Y-74929070D01*
X120898346Y-74944976D01*
X120911134Y-74962219D01*
X120922170Y-74980632D01*
X120931349Y-75000038D01*
X120938581Y-75020250D01*
X120943797Y-75041074D01*
X120946947Y-75062309D01*
X120948000Y-75083750D01*
X120948000Y-75596250D01*
X120946947Y-75617691D01*
X120943797Y-75638926D01*
X120938581Y-75659750D01*
X120931349Y-75679962D01*
X120922170Y-75699368D01*
X120911134Y-75717781D01*
X120898346Y-75735024D01*
X120883930Y-75750930D01*
X120868024Y-75765346D01*
X120850781Y-75778134D01*
X120832368Y-75789170D01*
X120812962Y-75798349D01*
X120792750Y-75805581D01*
X120771926Y-75810797D01*
X120750691Y-75813947D01*
X120729250Y-75815000D01*
X120291750Y-75815000D01*
X120270309Y-75813947D01*
X120249074Y-75810797D01*
X120228250Y-75805581D01*
X120208038Y-75798349D01*
X120188632Y-75789170D01*
X120170219Y-75778134D01*
X120152976Y-75765346D01*
X120137070Y-75750930D01*
X120122654Y-75735024D01*
X120109866Y-75717781D01*
X120098830Y-75699368D01*
X120089651Y-75679962D01*
X120082419Y-75659750D01*
X120077203Y-75638926D01*
X120074053Y-75617691D01*
X120073000Y-75596250D01*
X120073000Y-75083750D01*
X120074053Y-75062309D01*
X120077203Y-75041074D01*
X120082419Y-75020250D01*
X120089651Y-75000038D01*
X120098830Y-74980632D01*
X120109866Y-74962219D01*
X120122654Y-74944976D01*
X120137070Y-74929070D01*
X120152976Y-74914654D01*
X120170219Y-74901866D01*
X120188632Y-74890830D01*
X120208038Y-74881651D01*
X120228250Y-74874419D01*
X120249074Y-74869203D01*
X120270309Y-74866053D01*
X120291750Y-74865000D01*
X120729250Y-74865000D01*
X120750691Y-74866053D01*
X120750691Y-74866053D01*
G37*
D11*
X120510500Y-75340000D03*
D16*
X133810000Y-43070000D03*
X132860000Y-43070000D03*
X131910000Y-43070000D03*
X131910000Y-45270000D03*
X133810000Y-45270000D03*
D10*
G36*
X139497839Y-60605999D02*
G01*
X139517981Y-60608987D01*
X139537734Y-60613935D01*
X139556907Y-60620795D01*
X139575315Y-60629501D01*
X139592781Y-60639970D01*
X139609137Y-60652100D01*
X139624225Y-60665775D01*
X139637900Y-60680863D01*
X139650030Y-60697219D01*
X139660499Y-60714685D01*
X139669205Y-60733093D01*
X139676065Y-60752266D01*
X139681013Y-60772019D01*
X139684001Y-60792161D01*
X139685000Y-60812500D01*
X139685000Y-61227500D01*
X139684001Y-61247839D01*
X139681013Y-61267981D01*
X139676065Y-61287734D01*
X139669205Y-61306907D01*
X139660499Y-61325315D01*
X139650030Y-61342781D01*
X139637900Y-61359137D01*
X139624225Y-61374225D01*
X139609137Y-61387900D01*
X139592781Y-61400030D01*
X139575315Y-61410499D01*
X139556907Y-61419205D01*
X139537734Y-61426065D01*
X139517981Y-61431013D01*
X139497839Y-61434001D01*
X139477500Y-61435000D01*
X139062500Y-61435000D01*
X139042161Y-61434001D01*
X139022019Y-61431013D01*
X139002266Y-61426065D01*
X138983093Y-61419205D01*
X138964685Y-61410499D01*
X138947219Y-61400030D01*
X138930863Y-61387900D01*
X138915775Y-61374225D01*
X138902100Y-61359137D01*
X138889970Y-61342781D01*
X138879501Y-61325315D01*
X138870795Y-61306907D01*
X138863935Y-61287734D01*
X138858987Y-61267981D01*
X138855999Y-61247839D01*
X138855000Y-61227500D01*
X138855000Y-60812500D01*
X138855999Y-60792161D01*
X138858987Y-60772019D01*
X138863935Y-60752266D01*
X138870795Y-60733093D01*
X138879501Y-60714685D01*
X138889970Y-60697219D01*
X138902100Y-60680863D01*
X138915775Y-60665775D01*
X138930863Y-60652100D01*
X138947219Y-60639970D01*
X138964685Y-60629501D01*
X138983093Y-60620795D01*
X139002266Y-60613935D01*
X139022019Y-60608987D01*
X139042161Y-60605999D01*
X139062500Y-60605000D01*
X139477500Y-60605000D01*
X139497839Y-60605999D01*
X139497839Y-60605999D01*
G37*
D17*
X139270000Y-61020000D03*
D10*
G36*
X140527839Y-60605999D02*
G01*
X140547981Y-60608987D01*
X140567734Y-60613935D01*
X140586907Y-60620795D01*
X140605315Y-60629501D01*
X140622781Y-60639970D01*
X140639137Y-60652100D01*
X140654225Y-60665775D01*
X140667900Y-60680863D01*
X140680030Y-60697219D01*
X140690499Y-60714685D01*
X140699205Y-60733093D01*
X140706065Y-60752266D01*
X140711013Y-60772019D01*
X140714001Y-60792161D01*
X140715000Y-60812500D01*
X140715000Y-61227500D01*
X140714001Y-61247839D01*
X140711013Y-61267981D01*
X140706065Y-61287734D01*
X140699205Y-61306907D01*
X140690499Y-61325315D01*
X140680030Y-61342781D01*
X140667900Y-61359137D01*
X140654225Y-61374225D01*
X140639137Y-61387900D01*
X140622781Y-61400030D01*
X140605315Y-61410499D01*
X140586907Y-61419205D01*
X140567734Y-61426065D01*
X140547981Y-61431013D01*
X140527839Y-61434001D01*
X140507500Y-61435000D01*
X140092500Y-61435000D01*
X140072161Y-61434001D01*
X140052019Y-61431013D01*
X140032266Y-61426065D01*
X140013093Y-61419205D01*
X139994685Y-61410499D01*
X139977219Y-61400030D01*
X139960863Y-61387900D01*
X139945775Y-61374225D01*
X139932100Y-61359137D01*
X139919970Y-61342781D01*
X139909501Y-61325315D01*
X139900795Y-61306907D01*
X139893935Y-61287734D01*
X139888987Y-61267981D01*
X139885999Y-61247839D01*
X139885000Y-61227500D01*
X139885000Y-60812500D01*
X139885999Y-60792161D01*
X139888987Y-60772019D01*
X139893935Y-60752266D01*
X139900795Y-60733093D01*
X139909501Y-60714685D01*
X139919970Y-60697219D01*
X139932100Y-60680863D01*
X139945775Y-60665775D01*
X139960863Y-60652100D01*
X139977219Y-60639970D01*
X139994685Y-60629501D01*
X140013093Y-60620795D01*
X140032266Y-60613935D01*
X140052019Y-60608987D01*
X140072161Y-60605999D01*
X140092500Y-60605000D01*
X140507500Y-60605000D01*
X140527839Y-60605999D01*
X140527839Y-60605999D01*
G37*
D17*
X140300000Y-61020000D03*
D10*
G36*
X141557839Y-60605999D02*
G01*
X141577981Y-60608987D01*
X141597734Y-60613935D01*
X141616907Y-60620795D01*
X141635315Y-60629501D01*
X141652781Y-60639970D01*
X141669137Y-60652100D01*
X141684225Y-60665775D01*
X141697900Y-60680863D01*
X141710030Y-60697219D01*
X141720499Y-60714685D01*
X141729205Y-60733093D01*
X141736065Y-60752266D01*
X141741013Y-60772019D01*
X141744001Y-60792161D01*
X141745000Y-60812500D01*
X141745000Y-61227500D01*
X141744001Y-61247839D01*
X141741013Y-61267981D01*
X141736065Y-61287734D01*
X141729205Y-61306907D01*
X141720499Y-61325315D01*
X141710030Y-61342781D01*
X141697900Y-61359137D01*
X141684225Y-61374225D01*
X141669137Y-61387900D01*
X141652781Y-61400030D01*
X141635315Y-61410499D01*
X141616907Y-61419205D01*
X141597734Y-61426065D01*
X141577981Y-61431013D01*
X141557839Y-61434001D01*
X141537500Y-61435000D01*
X141122500Y-61435000D01*
X141102161Y-61434001D01*
X141082019Y-61431013D01*
X141062266Y-61426065D01*
X141043093Y-61419205D01*
X141024685Y-61410499D01*
X141007219Y-61400030D01*
X140990863Y-61387900D01*
X140975775Y-61374225D01*
X140962100Y-61359137D01*
X140949970Y-61342781D01*
X140939501Y-61325315D01*
X140930795Y-61306907D01*
X140923935Y-61287734D01*
X140918987Y-61267981D01*
X140915999Y-61247839D01*
X140915000Y-61227500D01*
X140915000Y-60812500D01*
X140915999Y-60792161D01*
X140918987Y-60772019D01*
X140923935Y-60752266D01*
X140930795Y-60733093D01*
X140939501Y-60714685D01*
X140949970Y-60697219D01*
X140962100Y-60680863D01*
X140975775Y-60665775D01*
X140990863Y-60652100D01*
X141007219Y-60639970D01*
X141024685Y-60629501D01*
X141043093Y-60620795D01*
X141062266Y-60613935D01*
X141082019Y-60608987D01*
X141102161Y-60605999D01*
X141122500Y-60605000D01*
X141537500Y-60605000D01*
X141557839Y-60605999D01*
X141557839Y-60605999D01*
G37*
D17*
X141330000Y-61020000D03*
D10*
G36*
X139497839Y-59575999D02*
G01*
X139517981Y-59578987D01*
X139537734Y-59583935D01*
X139556907Y-59590795D01*
X139575315Y-59599501D01*
X139592781Y-59609970D01*
X139609137Y-59622100D01*
X139624225Y-59635775D01*
X139637900Y-59650863D01*
X139650030Y-59667219D01*
X139660499Y-59684685D01*
X139669205Y-59703093D01*
X139676065Y-59722266D01*
X139681013Y-59742019D01*
X139684001Y-59762161D01*
X139685000Y-59782500D01*
X139685000Y-60197500D01*
X139684001Y-60217839D01*
X139681013Y-60237981D01*
X139676065Y-60257734D01*
X139669205Y-60276907D01*
X139660499Y-60295315D01*
X139650030Y-60312781D01*
X139637900Y-60329137D01*
X139624225Y-60344225D01*
X139609137Y-60357900D01*
X139592781Y-60370030D01*
X139575315Y-60380499D01*
X139556907Y-60389205D01*
X139537734Y-60396065D01*
X139517981Y-60401013D01*
X139497839Y-60404001D01*
X139477500Y-60405000D01*
X139062500Y-60405000D01*
X139042161Y-60404001D01*
X139022019Y-60401013D01*
X139002266Y-60396065D01*
X138983093Y-60389205D01*
X138964685Y-60380499D01*
X138947219Y-60370030D01*
X138930863Y-60357900D01*
X138915775Y-60344225D01*
X138902100Y-60329137D01*
X138889970Y-60312781D01*
X138879501Y-60295315D01*
X138870795Y-60276907D01*
X138863935Y-60257734D01*
X138858987Y-60237981D01*
X138855999Y-60217839D01*
X138855000Y-60197500D01*
X138855000Y-59782500D01*
X138855999Y-59762161D01*
X138858987Y-59742019D01*
X138863935Y-59722266D01*
X138870795Y-59703093D01*
X138879501Y-59684685D01*
X138889970Y-59667219D01*
X138902100Y-59650863D01*
X138915775Y-59635775D01*
X138930863Y-59622100D01*
X138947219Y-59609970D01*
X138964685Y-59599501D01*
X138983093Y-59590795D01*
X139002266Y-59583935D01*
X139022019Y-59578987D01*
X139042161Y-59575999D01*
X139062500Y-59575000D01*
X139477500Y-59575000D01*
X139497839Y-59575999D01*
X139497839Y-59575999D01*
G37*
D17*
X139270000Y-59990000D03*
D10*
G36*
X140527839Y-59575999D02*
G01*
X140547981Y-59578987D01*
X140567734Y-59583935D01*
X140586907Y-59590795D01*
X140605315Y-59599501D01*
X140622781Y-59609970D01*
X140639137Y-59622100D01*
X140654225Y-59635775D01*
X140667900Y-59650863D01*
X140680030Y-59667219D01*
X140690499Y-59684685D01*
X140699205Y-59703093D01*
X140706065Y-59722266D01*
X140711013Y-59742019D01*
X140714001Y-59762161D01*
X140715000Y-59782500D01*
X140715000Y-60197500D01*
X140714001Y-60217839D01*
X140711013Y-60237981D01*
X140706065Y-60257734D01*
X140699205Y-60276907D01*
X140690499Y-60295315D01*
X140680030Y-60312781D01*
X140667900Y-60329137D01*
X140654225Y-60344225D01*
X140639137Y-60357900D01*
X140622781Y-60370030D01*
X140605315Y-60380499D01*
X140586907Y-60389205D01*
X140567734Y-60396065D01*
X140547981Y-60401013D01*
X140527839Y-60404001D01*
X140507500Y-60405000D01*
X140092500Y-60405000D01*
X140072161Y-60404001D01*
X140052019Y-60401013D01*
X140032266Y-60396065D01*
X140013093Y-60389205D01*
X139994685Y-60380499D01*
X139977219Y-60370030D01*
X139960863Y-60357900D01*
X139945775Y-60344225D01*
X139932100Y-60329137D01*
X139919970Y-60312781D01*
X139909501Y-60295315D01*
X139900795Y-60276907D01*
X139893935Y-60257734D01*
X139888987Y-60237981D01*
X139885999Y-60217839D01*
X139885000Y-60197500D01*
X139885000Y-59782500D01*
X139885999Y-59762161D01*
X139888987Y-59742019D01*
X139893935Y-59722266D01*
X139900795Y-59703093D01*
X139909501Y-59684685D01*
X139919970Y-59667219D01*
X139932100Y-59650863D01*
X139945775Y-59635775D01*
X139960863Y-59622100D01*
X139977219Y-59609970D01*
X139994685Y-59599501D01*
X140013093Y-59590795D01*
X140032266Y-59583935D01*
X140052019Y-59578987D01*
X140072161Y-59575999D01*
X140092500Y-59575000D01*
X140507500Y-59575000D01*
X140527839Y-59575999D01*
X140527839Y-59575999D01*
G37*
D17*
X140300000Y-59990000D03*
D10*
G36*
X141557839Y-59575999D02*
G01*
X141577981Y-59578987D01*
X141597734Y-59583935D01*
X141616907Y-59590795D01*
X141635315Y-59599501D01*
X141652781Y-59609970D01*
X141669137Y-59622100D01*
X141684225Y-59635775D01*
X141697900Y-59650863D01*
X141710030Y-59667219D01*
X141720499Y-59684685D01*
X141729205Y-59703093D01*
X141736065Y-59722266D01*
X141741013Y-59742019D01*
X141744001Y-59762161D01*
X141745000Y-59782500D01*
X141745000Y-60197500D01*
X141744001Y-60217839D01*
X141741013Y-60237981D01*
X141736065Y-60257734D01*
X141729205Y-60276907D01*
X141720499Y-60295315D01*
X141710030Y-60312781D01*
X141697900Y-60329137D01*
X141684225Y-60344225D01*
X141669137Y-60357900D01*
X141652781Y-60370030D01*
X141635315Y-60380499D01*
X141616907Y-60389205D01*
X141597734Y-60396065D01*
X141577981Y-60401013D01*
X141557839Y-60404001D01*
X141537500Y-60405000D01*
X141122500Y-60405000D01*
X141102161Y-60404001D01*
X141082019Y-60401013D01*
X141062266Y-60396065D01*
X141043093Y-60389205D01*
X141024685Y-60380499D01*
X141007219Y-60370030D01*
X140990863Y-60357900D01*
X140975775Y-60344225D01*
X140962100Y-60329137D01*
X140949970Y-60312781D01*
X140939501Y-60295315D01*
X140930795Y-60276907D01*
X140923935Y-60257734D01*
X140918987Y-60237981D01*
X140915999Y-60217839D01*
X140915000Y-60197500D01*
X140915000Y-59782500D01*
X140915999Y-59762161D01*
X140918987Y-59742019D01*
X140923935Y-59722266D01*
X140930795Y-59703093D01*
X140939501Y-59684685D01*
X140949970Y-59667219D01*
X140962100Y-59650863D01*
X140975775Y-59635775D01*
X140990863Y-59622100D01*
X141007219Y-59609970D01*
X141024685Y-59599501D01*
X141043093Y-59590795D01*
X141062266Y-59583935D01*
X141082019Y-59578987D01*
X141102161Y-59575999D01*
X141122500Y-59575000D01*
X141537500Y-59575000D01*
X141557839Y-59575999D01*
X141557839Y-59575999D01*
G37*
D17*
X141330000Y-59990000D03*
D10*
G36*
X139497839Y-58545999D02*
G01*
X139517981Y-58548987D01*
X139537734Y-58553935D01*
X139556907Y-58560795D01*
X139575315Y-58569501D01*
X139592781Y-58579970D01*
X139609137Y-58592100D01*
X139624225Y-58605775D01*
X139637900Y-58620863D01*
X139650030Y-58637219D01*
X139660499Y-58654685D01*
X139669205Y-58673093D01*
X139676065Y-58692266D01*
X139681013Y-58712019D01*
X139684001Y-58732161D01*
X139685000Y-58752500D01*
X139685000Y-59167500D01*
X139684001Y-59187839D01*
X139681013Y-59207981D01*
X139676065Y-59227734D01*
X139669205Y-59246907D01*
X139660499Y-59265315D01*
X139650030Y-59282781D01*
X139637900Y-59299137D01*
X139624225Y-59314225D01*
X139609137Y-59327900D01*
X139592781Y-59340030D01*
X139575315Y-59350499D01*
X139556907Y-59359205D01*
X139537734Y-59366065D01*
X139517981Y-59371013D01*
X139497839Y-59374001D01*
X139477500Y-59375000D01*
X139062500Y-59375000D01*
X139042161Y-59374001D01*
X139022019Y-59371013D01*
X139002266Y-59366065D01*
X138983093Y-59359205D01*
X138964685Y-59350499D01*
X138947219Y-59340030D01*
X138930863Y-59327900D01*
X138915775Y-59314225D01*
X138902100Y-59299137D01*
X138889970Y-59282781D01*
X138879501Y-59265315D01*
X138870795Y-59246907D01*
X138863935Y-59227734D01*
X138858987Y-59207981D01*
X138855999Y-59187839D01*
X138855000Y-59167500D01*
X138855000Y-58752500D01*
X138855999Y-58732161D01*
X138858987Y-58712019D01*
X138863935Y-58692266D01*
X138870795Y-58673093D01*
X138879501Y-58654685D01*
X138889970Y-58637219D01*
X138902100Y-58620863D01*
X138915775Y-58605775D01*
X138930863Y-58592100D01*
X138947219Y-58579970D01*
X138964685Y-58569501D01*
X138983093Y-58560795D01*
X139002266Y-58553935D01*
X139022019Y-58548987D01*
X139042161Y-58545999D01*
X139062500Y-58545000D01*
X139477500Y-58545000D01*
X139497839Y-58545999D01*
X139497839Y-58545999D01*
G37*
D17*
X139270000Y-58960000D03*
D10*
G36*
X140527839Y-58545999D02*
G01*
X140547981Y-58548987D01*
X140567734Y-58553935D01*
X140586907Y-58560795D01*
X140605315Y-58569501D01*
X140622781Y-58579970D01*
X140639137Y-58592100D01*
X140654225Y-58605775D01*
X140667900Y-58620863D01*
X140680030Y-58637219D01*
X140690499Y-58654685D01*
X140699205Y-58673093D01*
X140706065Y-58692266D01*
X140711013Y-58712019D01*
X140714001Y-58732161D01*
X140715000Y-58752500D01*
X140715000Y-59167500D01*
X140714001Y-59187839D01*
X140711013Y-59207981D01*
X140706065Y-59227734D01*
X140699205Y-59246907D01*
X140690499Y-59265315D01*
X140680030Y-59282781D01*
X140667900Y-59299137D01*
X140654225Y-59314225D01*
X140639137Y-59327900D01*
X140622781Y-59340030D01*
X140605315Y-59350499D01*
X140586907Y-59359205D01*
X140567734Y-59366065D01*
X140547981Y-59371013D01*
X140527839Y-59374001D01*
X140507500Y-59375000D01*
X140092500Y-59375000D01*
X140072161Y-59374001D01*
X140052019Y-59371013D01*
X140032266Y-59366065D01*
X140013093Y-59359205D01*
X139994685Y-59350499D01*
X139977219Y-59340030D01*
X139960863Y-59327900D01*
X139945775Y-59314225D01*
X139932100Y-59299137D01*
X139919970Y-59282781D01*
X139909501Y-59265315D01*
X139900795Y-59246907D01*
X139893935Y-59227734D01*
X139888987Y-59207981D01*
X139885999Y-59187839D01*
X139885000Y-59167500D01*
X139885000Y-58752500D01*
X139885999Y-58732161D01*
X139888987Y-58712019D01*
X139893935Y-58692266D01*
X139900795Y-58673093D01*
X139909501Y-58654685D01*
X139919970Y-58637219D01*
X139932100Y-58620863D01*
X139945775Y-58605775D01*
X139960863Y-58592100D01*
X139977219Y-58579970D01*
X139994685Y-58569501D01*
X140013093Y-58560795D01*
X140032266Y-58553935D01*
X140052019Y-58548987D01*
X140072161Y-58545999D01*
X140092500Y-58545000D01*
X140507500Y-58545000D01*
X140527839Y-58545999D01*
X140527839Y-58545999D01*
G37*
D17*
X140300000Y-58960000D03*
D10*
G36*
X141557839Y-58545999D02*
G01*
X141577981Y-58548987D01*
X141597734Y-58553935D01*
X141616907Y-58560795D01*
X141635315Y-58569501D01*
X141652781Y-58579970D01*
X141669137Y-58592100D01*
X141684225Y-58605775D01*
X141697900Y-58620863D01*
X141710030Y-58637219D01*
X141720499Y-58654685D01*
X141729205Y-58673093D01*
X141736065Y-58692266D01*
X141741013Y-58712019D01*
X141744001Y-58732161D01*
X141745000Y-58752500D01*
X141745000Y-59167500D01*
X141744001Y-59187839D01*
X141741013Y-59207981D01*
X141736065Y-59227734D01*
X141729205Y-59246907D01*
X141720499Y-59265315D01*
X141710030Y-59282781D01*
X141697900Y-59299137D01*
X141684225Y-59314225D01*
X141669137Y-59327900D01*
X141652781Y-59340030D01*
X141635315Y-59350499D01*
X141616907Y-59359205D01*
X141597734Y-59366065D01*
X141577981Y-59371013D01*
X141557839Y-59374001D01*
X141537500Y-59375000D01*
X141122500Y-59375000D01*
X141102161Y-59374001D01*
X141082019Y-59371013D01*
X141062266Y-59366065D01*
X141043093Y-59359205D01*
X141024685Y-59350499D01*
X141007219Y-59340030D01*
X140990863Y-59327900D01*
X140975775Y-59314225D01*
X140962100Y-59299137D01*
X140949970Y-59282781D01*
X140939501Y-59265315D01*
X140930795Y-59246907D01*
X140923935Y-59227734D01*
X140918987Y-59207981D01*
X140915999Y-59187839D01*
X140915000Y-59167500D01*
X140915000Y-58752500D01*
X140915999Y-58732161D01*
X140918987Y-58712019D01*
X140923935Y-58692266D01*
X140930795Y-58673093D01*
X140939501Y-58654685D01*
X140949970Y-58637219D01*
X140962100Y-58620863D01*
X140975775Y-58605775D01*
X140990863Y-58592100D01*
X141007219Y-58579970D01*
X141024685Y-58569501D01*
X141043093Y-58560795D01*
X141062266Y-58553935D01*
X141082019Y-58548987D01*
X141102161Y-58545999D01*
X141122500Y-58545000D01*
X141537500Y-58545000D01*
X141557839Y-58545999D01*
X141557839Y-58545999D01*
G37*
D17*
X141330000Y-58960000D03*
D10*
G36*
X138618626Y-61990301D02*
G01*
X138624693Y-61991201D01*
X138630643Y-61992691D01*
X138636418Y-61994758D01*
X138641962Y-61997380D01*
X138647223Y-62000533D01*
X138652150Y-62004187D01*
X138656694Y-62008306D01*
X138660813Y-62012850D01*
X138664467Y-62017777D01*
X138667620Y-62023038D01*
X138670242Y-62028582D01*
X138672309Y-62034357D01*
X138673799Y-62040307D01*
X138674699Y-62046374D01*
X138675000Y-62052500D01*
X138675000Y-62802500D01*
X138674699Y-62808626D01*
X138673799Y-62814693D01*
X138672309Y-62820643D01*
X138670242Y-62826418D01*
X138667620Y-62831962D01*
X138664467Y-62837223D01*
X138660813Y-62842150D01*
X138656694Y-62846694D01*
X138652150Y-62850813D01*
X138647223Y-62854467D01*
X138641962Y-62857620D01*
X138636418Y-62860242D01*
X138630643Y-62862309D01*
X138624693Y-62863799D01*
X138618626Y-62864699D01*
X138612500Y-62865000D01*
X138487500Y-62865000D01*
X138481374Y-62864699D01*
X138475307Y-62863799D01*
X138469357Y-62862309D01*
X138463582Y-62860242D01*
X138458038Y-62857620D01*
X138452777Y-62854467D01*
X138447850Y-62850813D01*
X138443306Y-62846694D01*
X138439187Y-62842150D01*
X138435533Y-62837223D01*
X138432380Y-62831962D01*
X138429758Y-62826418D01*
X138427691Y-62820643D01*
X138426201Y-62814693D01*
X138425301Y-62808626D01*
X138425000Y-62802500D01*
X138425000Y-62052500D01*
X138425301Y-62046374D01*
X138426201Y-62040307D01*
X138427691Y-62034357D01*
X138429758Y-62028582D01*
X138432380Y-62023038D01*
X138435533Y-62017777D01*
X138439187Y-62012850D01*
X138443306Y-62008306D01*
X138447850Y-62004187D01*
X138452777Y-62000533D01*
X138458038Y-61997380D01*
X138463582Y-61994758D01*
X138469357Y-61992691D01*
X138475307Y-61991201D01*
X138481374Y-61990301D01*
X138487500Y-61990000D01*
X138612500Y-61990000D01*
X138618626Y-61990301D01*
X138618626Y-61990301D01*
G37*
D18*
X138550000Y-62427500D03*
D10*
G36*
X139118626Y-61990301D02*
G01*
X139124693Y-61991201D01*
X139130643Y-61992691D01*
X139136418Y-61994758D01*
X139141962Y-61997380D01*
X139147223Y-62000533D01*
X139152150Y-62004187D01*
X139156694Y-62008306D01*
X139160813Y-62012850D01*
X139164467Y-62017777D01*
X139167620Y-62023038D01*
X139170242Y-62028582D01*
X139172309Y-62034357D01*
X139173799Y-62040307D01*
X139174699Y-62046374D01*
X139175000Y-62052500D01*
X139175000Y-62802500D01*
X139174699Y-62808626D01*
X139173799Y-62814693D01*
X139172309Y-62820643D01*
X139170242Y-62826418D01*
X139167620Y-62831962D01*
X139164467Y-62837223D01*
X139160813Y-62842150D01*
X139156694Y-62846694D01*
X139152150Y-62850813D01*
X139147223Y-62854467D01*
X139141962Y-62857620D01*
X139136418Y-62860242D01*
X139130643Y-62862309D01*
X139124693Y-62863799D01*
X139118626Y-62864699D01*
X139112500Y-62865000D01*
X138987500Y-62865000D01*
X138981374Y-62864699D01*
X138975307Y-62863799D01*
X138969357Y-62862309D01*
X138963582Y-62860242D01*
X138958038Y-62857620D01*
X138952777Y-62854467D01*
X138947850Y-62850813D01*
X138943306Y-62846694D01*
X138939187Y-62842150D01*
X138935533Y-62837223D01*
X138932380Y-62831962D01*
X138929758Y-62826418D01*
X138927691Y-62820643D01*
X138926201Y-62814693D01*
X138925301Y-62808626D01*
X138925000Y-62802500D01*
X138925000Y-62052500D01*
X138925301Y-62046374D01*
X138926201Y-62040307D01*
X138927691Y-62034357D01*
X138929758Y-62028582D01*
X138932380Y-62023038D01*
X138935533Y-62017777D01*
X138939187Y-62012850D01*
X138943306Y-62008306D01*
X138947850Y-62004187D01*
X138952777Y-62000533D01*
X138958038Y-61997380D01*
X138963582Y-61994758D01*
X138969357Y-61992691D01*
X138975307Y-61991201D01*
X138981374Y-61990301D01*
X138987500Y-61990000D01*
X139112500Y-61990000D01*
X139118626Y-61990301D01*
X139118626Y-61990301D01*
G37*
D18*
X139050000Y-62427500D03*
D10*
G36*
X139618626Y-61990301D02*
G01*
X139624693Y-61991201D01*
X139630643Y-61992691D01*
X139636418Y-61994758D01*
X139641962Y-61997380D01*
X139647223Y-62000533D01*
X139652150Y-62004187D01*
X139656694Y-62008306D01*
X139660813Y-62012850D01*
X139664467Y-62017777D01*
X139667620Y-62023038D01*
X139670242Y-62028582D01*
X139672309Y-62034357D01*
X139673799Y-62040307D01*
X139674699Y-62046374D01*
X139675000Y-62052500D01*
X139675000Y-62802500D01*
X139674699Y-62808626D01*
X139673799Y-62814693D01*
X139672309Y-62820643D01*
X139670242Y-62826418D01*
X139667620Y-62831962D01*
X139664467Y-62837223D01*
X139660813Y-62842150D01*
X139656694Y-62846694D01*
X139652150Y-62850813D01*
X139647223Y-62854467D01*
X139641962Y-62857620D01*
X139636418Y-62860242D01*
X139630643Y-62862309D01*
X139624693Y-62863799D01*
X139618626Y-62864699D01*
X139612500Y-62865000D01*
X139487500Y-62865000D01*
X139481374Y-62864699D01*
X139475307Y-62863799D01*
X139469357Y-62862309D01*
X139463582Y-62860242D01*
X139458038Y-62857620D01*
X139452777Y-62854467D01*
X139447850Y-62850813D01*
X139443306Y-62846694D01*
X139439187Y-62842150D01*
X139435533Y-62837223D01*
X139432380Y-62831962D01*
X139429758Y-62826418D01*
X139427691Y-62820643D01*
X139426201Y-62814693D01*
X139425301Y-62808626D01*
X139425000Y-62802500D01*
X139425000Y-62052500D01*
X139425301Y-62046374D01*
X139426201Y-62040307D01*
X139427691Y-62034357D01*
X139429758Y-62028582D01*
X139432380Y-62023038D01*
X139435533Y-62017777D01*
X139439187Y-62012850D01*
X139443306Y-62008306D01*
X139447850Y-62004187D01*
X139452777Y-62000533D01*
X139458038Y-61997380D01*
X139463582Y-61994758D01*
X139469357Y-61992691D01*
X139475307Y-61991201D01*
X139481374Y-61990301D01*
X139487500Y-61990000D01*
X139612500Y-61990000D01*
X139618626Y-61990301D01*
X139618626Y-61990301D01*
G37*
D18*
X139550000Y-62427500D03*
D10*
G36*
X140118626Y-61990301D02*
G01*
X140124693Y-61991201D01*
X140130643Y-61992691D01*
X140136418Y-61994758D01*
X140141962Y-61997380D01*
X140147223Y-62000533D01*
X140152150Y-62004187D01*
X140156694Y-62008306D01*
X140160813Y-62012850D01*
X140164467Y-62017777D01*
X140167620Y-62023038D01*
X140170242Y-62028582D01*
X140172309Y-62034357D01*
X140173799Y-62040307D01*
X140174699Y-62046374D01*
X140175000Y-62052500D01*
X140175000Y-62802500D01*
X140174699Y-62808626D01*
X140173799Y-62814693D01*
X140172309Y-62820643D01*
X140170242Y-62826418D01*
X140167620Y-62831962D01*
X140164467Y-62837223D01*
X140160813Y-62842150D01*
X140156694Y-62846694D01*
X140152150Y-62850813D01*
X140147223Y-62854467D01*
X140141962Y-62857620D01*
X140136418Y-62860242D01*
X140130643Y-62862309D01*
X140124693Y-62863799D01*
X140118626Y-62864699D01*
X140112500Y-62865000D01*
X139987500Y-62865000D01*
X139981374Y-62864699D01*
X139975307Y-62863799D01*
X139969357Y-62862309D01*
X139963582Y-62860242D01*
X139958038Y-62857620D01*
X139952777Y-62854467D01*
X139947850Y-62850813D01*
X139943306Y-62846694D01*
X139939187Y-62842150D01*
X139935533Y-62837223D01*
X139932380Y-62831962D01*
X139929758Y-62826418D01*
X139927691Y-62820643D01*
X139926201Y-62814693D01*
X139925301Y-62808626D01*
X139925000Y-62802500D01*
X139925000Y-62052500D01*
X139925301Y-62046374D01*
X139926201Y-62040307D01*
X139927691Y-62034357D01*
X139929758Y-62028582D01*
X139932380Y-62023038D01*
X139935533Y-62017777D01*
X139939187Y-62012850D01*
X139943306Y-62008306D01*
X139947850Y-62004187D01*
X139952777Y-62000533D01*
X139958038Y-61997380D01*
X139963582Y-61994758D01*
X139969357Y-61992691D01*
X139975307Y-61991201D01*
X139981374Y-61990301D01*
X139987500Y-61990000D01*
X140112500Y-61990000D01*
X140118626Y-61990301D01*
X140118626Y-61990301D01*
G37*
D18*
X140050000Y-62427500D03*
D10*
G36*
X140618626Y-61990301D02*
G01*
X140624693Y-61991201D01*
X140630643Y-61992691D01*
X140636418Y-61994758D01*
X140641962Y-61997380D01*
X140647223Y-62000533D01*
X140652150Y-62004187D01*
X140656694Y-62008306D01*
X140660813Y-62012850D01*
X140664467Y-62017777D01*
X140667620Y-62023038D01*
X140670242Y-62028582D01*
X140672309Y-62034357D01*
X140673799Y-62040307D01*
X140674699Y-62046374D01*
X140675000Y-62052500D01*
X140675000Y-62802500D01*
X140674699Y-62808626D01*
X140673799Y-62814693D01*
X140672309Y-62820643D01*
X140670242Y-62826418D01*
X140667620Y-62831962D01*
X140664467Y-62837223D01*
X140660813Y-62842150D01*
X140656694Y-62846694D01*
X140652150Y-62850813D01*
X140647223Y-62854467D01*
X140641962Y-62857620D01*
X140636418Y-62860242D01*
X140630643Y-62862309D01*
X140624693Y-62863799D01*
X140618626Y-62864699D01*
X140612500Y-62865000D01*
X140487500Y-62865000D01*
X140481374Y-62864699D01*
X140475307Y-62863799D01*
X140469357Y-62862309D01*
X140463582Y-62860242D01*
X140458038Y-62857620D01*
X140452777Y-62854467D01*
X140447850Y-62850813D01*
X140443306Y-62846694D01*
X140439187Y-62842150D01*
X140435533Y-62837223D01*
X140432380Y-62831962D01*
X140429758Y-62826418D01*
X140427691Y-62820643D01*
X140426201Y-62814693D01*
X140425301Y-62808626D01*
X140425000Y-62802500D01*
X140425000Y-62052500D01*
X140425301Y-62046374D01*
X140426201Y-62040307D01*
X140427691Y-62034357D01*
X140429758Y-62028582D01*
X140432380Y-62023038D01*
X140435533Y-62017777D01*
X140439187Y-62012850D01*
X140443306Y-62008306D01*
X140447850Y-62004187D01*
X140452777Y-62000533D01*
X140458038Y-61997380D01*
X140463582Y-61994758D01*
X140469357Y-61992691D01*
X140475307Y-61991201D01*
X140481374Y-61990301D01*
X140487500Y-61990000D01*
X140612500Y-61990000D01*
X140618626Y-61990301D01*
X140618626Y-61990301D01*
G37*
D18*
X140550000Y-62427500D03*
D10*
G36*
X141118626Y-61990301D02*
G01*
X141124693Y-61991201D01*
X141130643Y-61992691D01*
X141136418Y-61994758D01*
X141141962Y-61997380D01*
X141147223Y-62000533D01*
X141152150Y-62004187D01*
X141156694Y-62008306D01*
X141160813Y-62012850D01*
X141164467Y-62017777D01*
X141167620Y-62023038D01*
X141170242Y-62028582D01*
X141172309Y-62034357D01*
X141173799Y-62040307D01*
X141174699Y-62046374D01*
X141175000Y-62052500D01*
X141175000Y-62802500D01*
X141174699Y-62808626D01*
X141173799Y-62814693D01*
X141172309Y-62820643D01*
X141170242Y-62826418D01*
X141167620Y-62831962D01*
X141164467Y-62837223D01*
X141160813Y-62842150D01*
X141156694Y-62846694D01*
X141152150Y-62850813D01*
X141147223Y-62854467D01*
X141141962Y-62857620D01*
X141136418Y-62860242D01*
X141130643Y-62862309D01*
X141124693Y-62863799D01*
X141118626Y-62864699D01*
X141112500Y-62865000D01*
X140987500Y-62865000D01*
X140981374Y-62864699D01*
X140975307Y-62863799D01*
X140969357Y-62862309D01*
X140963582Y-62860242D01*
X140958038Y-62857620D01*
X140952777Y-62854467D01*
X140947850Y-62850813D01*
X140943306Y-62846694D01*
X140939187Y-62842150D01*
X140935533Y-62837223D01*
X140932380Y-62831962D01*
X140929758Y-62826418D01*
X140927691Y-62820643D01*
X140926201Y-62814693D01*
X140925301Y-62808626D01*
X140925000Y-62802500D01*
X140925000Y-62052500D01*
X140925301Y-62046374D01*
X140926201Y-62040307D01*
X140927691Y-62034357D01*
X140929758Y-62028582D01*
X140932380Y-62023038D01*
X140935533Y-62017777D01*
X140939187Y-62012850D01*
X140943306Y-62008306D01*
X140947850Y-62004187D01*
X140952777Y-62000533D01*
X140958038Y-61997380D01*
X140963582Y-61994758D01*
X140969357Y-61992691D01*
X140975307Y-61991201D01*
X140981374Y-61990301D01*
X140987500Y-61990000D01*
X141112500Y-61990000D01*
X141118626Y-61990301D01*
X141118626Y-61990301D01*
G37*
D18*
X141050000Y-62427500D03*
D10*
G36*
X141618626Y-61990301D02*
G01*
X141624693Y-61991201D01*
X141630643Y-61992691D01*
X141636418Y-61994758D01*
X141641962Y-61997380D01*
X141647223Y-62000533D01*
X141652150Y-62004187D01*
X141656694Y-62008306D01*
X141660813Y-62012850D01*
X141664467Y-62017777D01*
X141667620Y-62023038D01*
X141670242Y-62028582D01*
X141672309Y-62034357D01*
X141673799Y-62040307D01*
X141674699Y-62046374D01*
X141675000Y-62052500D01*
X141675000Y-62802500D01*
X141674699Y-62808626D01*
X141673799Y-62814693D01*
X141672309Y-62820643D01*
X141670242Y-62826418D01*
X141667620Y-62831962D01*
X141664467Y-62837223D01*
X141660813Y-62842150D01*
X141656694Y-62846694D01*
X141652150Y-62850813D01*
X141647223Y-62854467D01*
X141641962Y-62857620D01*
X141636418Y-62860242D01*
X141630643Y-62862309D01*
X141624693Y-62863799D01*
X141618626Y-62864699D01*
X141612500Y-62865000D01*
X141487500Y-62865000D01*
X141481374Y-62864699D01*
X141475307Y-62863799D01*
X141469357Y-62862309D01*
X141463582Y-62860242D01*
X141458038Y-62857620D01*
X141452777Y-62854467D01*
X141447850Y-62850813D01*
X141443306Y-62846694D01*
X141439187Y-62842150D01*
X141435533Y-62837223D01*
X141432380Y-62831962D01*
X141429758Y-62826418D01*
X141427691Y-62820643D01*
X141426201Y-62814693D01*
X141425301Y-62808626D01*
X141425000Y-62802500D01*
X141425000Y-62052500D01*
X141425301Y-62046374D01*
X141426201Y-62040307D01*
X141427691Y-62034357D01*
X141429758Y-62028582D01*
X141432380Y-62023038D01*
X141435533Y-62017777D01*
X141439187Y-62012850D01*
X141443306Y-62008306D01*
X141447850Y-62004187D01*
X141452777Y-62000533D01*
X141458038Y-61997380D01*
X141463582Y-61994758D01*
X141469357Y-61992691D01*
X141475307Y-61991201D01*
X141481374Y-61990301D01*
X141487500Y-61990000D01*
X141612500Y-61990000D01*
X141618626Y-61990301D01*
X141618626Y-61990301D01*
G37*
D18*
X141550000Y-62427500D03*
D10*
G36*
X142118626Y-61990301D02*
G01*
X142124693Y-61991201D01*
X142130643Y-61992691D01*
X142136418Y-61994758D01*
X142141962Y-61997380D01*
X142147223Y-62000533D01*
X142152150Y-62004187D01*
X142156694Y-62008306D01*
X142160813Y-62012850D01*
X142164467Y-62017777D01*
X142167620Y-62023038D01*
X142170242Y-62028582D01*
X142172309Y-62034357D01*
X142173799Y-62040307D01*
X142174699Y-62046374D01*
X142175000Y-62052500D01*
X142175000Y-62802500D01*
X142174699Y-62808626D01*
X142173799Y-62814693D01*
X142172309Y-62820643D01*
X142170242Y-62826418D01*
X142167620Y-62831962D01*
X142164467Y-62837223D01*
X142160813Y-62842150D01*
X142156694Y-62846694D01*
X142152150Y-62850813D01*
X142147223Y-62854467D01*
X142141962Y-62857620D01*
X142136418Y-62860242D01*
X142130643Y-62862309D01*
X142124693Y-62863799D01*
X142118626Y-62864699D01*
X142112500Y-62865000D01*
X141987500Y-62865000D01*
X141981374Y-62864699D01*
X141975307Y-62863799D01*
X141969357Y-62862309D01*
X141963582Y-62860242D01*
X141958038Y-62857620D01*
X141952777Y-62854467D01*
X141947850Y-62850813D01*
X141943306Y-62846694D01*
X141939187Y-62842150D01*
X141935533Y-62837223D01*
X141932380Y-62831962D01*
X141929758Y-62826418D01*
X141927691Y-62820643D01*
X141926201Y-62814693D01*
X141925301Y-62808626D01*
X141925000Y-62802500D01*
X141925000Y-62052500D01*
X141925301Y-62046374D01*
X141926201Y-62040307D01*
X141927691Y-62034357D01*
X141929758Y-62028582D01*
X141932380Y-62023038D01*
X141935533Y-62017777D01*
X141939187Y-62012850D01*
X141943306Y-62008306D01*
X141947850Y-62004187D01*
X141952777Y-62000533D01*
X141958038Y-61997380D01*
X141963582Y-61994758D01*
X141969357Y-61992691D01*
X141975307Y-61991201D01*
X141981374Y-61990301D01*
X141987500Y-61990000D01*
X142112500Y-61990000D01*
X142118626Y-61990301D01*
X142118626Y-61990301D01*
G37*
D18*
X142050000Y-62427500D03*
D10*
G36*
X143118626Y-61615301D02*
G01*
X143124693Y-61616201D01*
X143130643Y-61617691D01*
X143136418Y-61619758D01*
X143141962Y-61622380D01*
X143147223Y-61625533D01*
X143152150Y-61629187D01*
X143156694Y-61633306D01*
X143160813Y-61637850D01*
X143164467Y-61642777D01*
X143167620Y-61648038D01*
X143170242Y-61653582D01*
X143172309Y-61659357D01*
X143173799Y-61665307D01*
X143174699Y-61671374D01*
X143175000Y-61677500D01*
X143175000Y-61802500D01*
X143174699Y-61808626D01*
X143173799Y-61814693D01*
X143172309Y-61820643D01*
X143170242Y-61826418D01*
X143167620Y-61831962D01*
X143164467Y-61837223D01*
X143160813Y-61842150D01*
X143156694Y-61846694D01*
X143152150Y-61850813D01*
X143147223Y-61854467D01*
X143141962Y-61857620D01*
X143136418Y-61860242D01*
X143130643Y-61862309D01*
X143124693Y-61863799D01*
X143118626Y-61864699D01*
X143112500Y-61865000D01*
X142362500Y-61865000D01*
X142356374Y-61864699D01*
X142350307Y-61863799D01*
X142344357Y-61862309D01*
X142338582Y-61860242D01*
X142333038Y-61857620D01*
X142327777Y-61854467D01*
X142322850Y-61850813D01*
X142318306Y-61846694D01*
X142314187Y-61842150D01*
X142310533Y-61837223D01*
X142307380Y-61831962D01*
X142304758Y-61826418D01*
X142302691Y-61820643D01*
X142301201Y-61814693D01*
X142300301Y-61808626D01*
X142300000Y-61802500D01*
X142300000Y-61677500D01*
X142300301Y-61671374D01*
X142301201Y-61665307D01*
X142302691Y-61659357D01*
X142304758Y-61653582D01*
X142307380Y-61648038D01*
X142310533Y-61642777D01*
X142314187Y-61637850D01*
X142318306Y-61633306D01*
X142322850Y-61629187D01*
X142327777Y-61625533D01*
X142333038Y-61622380D01*
X142338582Y-61619758D01*
X142344357Y-61617691D01*
X142350307Y-61616201D01*
X142356374Y-61615301D01*
X142362500Y-61615000D01*
X143112500Y-61615000D01*
X143118626Y-61615301D01*
X143118626Y-61615301D01*
G37*
D18*
X142737500Y-61740000D03*
D10*
G36*
X143118626Y-61115301D02*
G01*
X143124693Y-61116201D01*
X143130643Y-61117691D01*
X143136418Y-61119758D01*
X143141962Y-61122380D01*
X143147223Y-61125533D01*
X143152150Y-61129187D01*
X143156694Y-61133306D01*
X143160813Y-61137850D01*
X143164467Y-61142777D01*
X143167620Y-61148038D01*
X143170242Y-61153582D01*
X143172309Y-61159357D01*
X143173799Y-61165307D01*
X143174699Y-61171374D01*
X143175000Y-61177500D01*
X143175000Y-61302500D01*
X143174699Y-61308626D01*
X143173799Y-61314693D01*
X143172309Y-61320643D01*
X143170242Y-61326418D01*
X143167620Y-61331962D01*
X143164467Y-61337223D01*
X143160813Y-61342150D01*
X143156694Y-61346694D01*
X143152150Y-61350813D01*
X143147223Y-61354467D01*
X143141962Y-61357620D01*
X143136418Y-61360242D01*
X143130643Y-61362309D01*
X143124693Y-61363799D01*
X143118626Y-61364699D01*
X143112500Y-61365000D01*
X142362500Y-61365000D01*
X142356374Y-61364699D01*
X142350307Y-61363799D01*
X142344357Y-61362309D01*
X142338582Y-61360242D01*
X142333038Y-61357620D01*
X142327777Y-61354467D01*
X142322850Y-61350813D01*
X142318306Y-61346694D01*
X142314187Y-61342150D01*
X142310533Y-61337223D01*
X142307380Y-61331962D01*
X142304758Y-61326418D01*
X142302691Y-61320643D01*
X142301201Y-61314693D01*
X142300301Y-61308626D01*
X142300000Y-61302500D01*
X142300000Y-61177500D01*
X142300301Y-61171374D01*
X142301201Y-61165307D01*
X142302691Y-61159357D01*
X142304758Y-61153582D01*
X142307380Y-61148038D01*
X142310533Y-61142777D01*
X142314187Y-61137850D01*
X142318306Y-61133306D01*
X142322850Y-61129187D01*
X142327777Y-61125533D01*
X142333038Y-61122380D01*
X142338582Y-61119758D01*
X142344357Y-61117691D01*
X142350307Y-61116201D01*
X142356374Y-61115301D01*
X142362500Y-61115000D01*
X143112500Y-61115000D01*
X143118626Y-61115301D01*
X143118626Y-61115301D01*
G37*
D18*
X142737500Y-61240000D03*
D10*
G36*
X143118626Y-60615301D02*
G01*
X143124693Y-60616201D01*
X143130643Y-60617691D01*
X143136418Y-60619758D01*
X143141962Y-60622380D01*
X143147223Y-60625533D01*
X143152150Y-60629187D01*
X143156694Y-60633306D01*
X143160813Y-60637850D01*
X143164467Y-60642777D01*
X143167620Y-60648038D01*
X143170242Y-60653582D01*
X143172309Y-60659357D01*
X143173799Y-60665307D01*
X143174699Y-60671374D01*
X143175000Y-60677500D01*
X143175000Y-60802500D01*
X143174699Y-60808626D01*
X143173799Y-60814693D01*
X143172309Y-60820643D01*
X143170242Y-60826418D01*
X143167620Y-60831962D01*
X143164467Y-60837223D01*
X143160813Y-60842150D01*
X143156694Y-60846694D01*
X143152150Y-60850813D01*
X143147223Y-60854467D01*
X143141962Y-60857620D01*
X143136418Y-60860242D01*
X143130643Y-60862309D01*
X143124693Y-60863799D01*
X143118626Y-60864699D01*
X143112500Y-60865000D01*
X142362500Y-60865000D01*
X142356374Y-60864699D01*
X142350307Y-60863799D01*
X142344357Y-60862309D01*
X142338582Y-60860242D01*
X142333038Y-60857620D01*
X142327777Y-60854467D01*
X142322850Y-60850813D01*
X142318306Y-60846694D01*
X142314187Y-60842150D01*
X142310533Y-60837223D01*
X142307380Y-60831962D01*
X142304758Y-60826418D01*
X142302691Y-60820643D01*
X142301201Y-60814693D01*
X142300301Y-60808626D01*
X142300000Y-60802500D01*
X142300000Y-60677500D01*
X142300301Y-60671374D01*
X142301201Y-60665307D01*
X142302691Y-60659357D01*
X142304758Y-60653582D01*
X142307380Y-60648038D01*
X142310533Y-60642777D01*
X142314187Y-60637850D01*
X142318306Y-60633306D01*
X142322850Y-60629187D01*
X142327777Y-60625533D01*
X142333038Y-60622380D01*
X142338582Y-60619758D01*
X142344357Y-60617691D01*
X142350307Y-60616201D01*
X142356374Y-60615301D01*
X142362500Y-60615000D01*
X143112500Y-60615000D01*
X143118626Y-60615301D01*
X143118626Y-60615301D01*
G37*
D18*
X142737500Y-60740000D03*
D10*
G36*
X143118626Y-60115301D02*
G01*
X143124693Y-60116201D01*
X143130643Y-60117691D01*
X143136418Y-60119758D01*
X143141962Y-60122380D01*
X143147223Y-60125533D01*
X143152150Y-60129187D01*
X143156694Y-60133306D01*
X143160813Y-60137850D01*
X143164467Y-60142777D01*
X143167620Y-60148038D01*
X143170242Y-60153582D01*
X143172309Y-60159357D01*
X143173799Y-60165307D01*
X143174699Y-60171374D01*
X143175000Y-60177500D01*
X143175000Y-60302500D01*
X143174699Y-60308626D01*
X143173799Y-60314693D01*
X143172309Y-60320643D01*
X143170242Y-60326418D01*
X143167620Y-60331962D01*
X143164467Y-60337223D01*
X143160813Y-60342150D01*
X143156694Y-60346694D01*
X143152150Y-60350813D01*
X143147223Y-60354467D01*
X143141962Y-60357620D01*
X143136418Y-60360242D01*
X143130643Y-60362309D01*
X143124693Y-60363799D01*
X143118626Y-60364699D01*
X143112500Y-60365000D01*
X142362500Y-60365000D01*
X142356374Y-60364699D01*
X142350307Y-60363799D01*
X142344357Y-60362309D01*
X142338582Y-60360242D01*
X142333038Y-60357620D01*
X142327777Y-60354467D01*
X142322850Y-60350813D01*
X142318306Y-60346694D01*
X142314187Y-60342150D01*
X142310533Y-60337223D01*
X142307380Y-60331962D01*
X142304758Y-60326418D01*
X142302691Y-60320643D01*
X142301201Y-60314693D01*
X142300301Y-60308626D01*
X142300000Y-60302500D01*
X142300000Y-60177500D01*
X142300301Y-60171374D01*
X142301201Y-60165307D01*
X142302691Y-60159357D01*
X142304758Y-60153582D01*
X142307380Y-60148038D01*
X142310533Y-60142777D01*
X142314187Y-60137850D01*
X142318306Y-60133306D01*
X142322850Y-60129187D01*
X142327777Y-60125533D01*
X142333038Y-60122380D01*
X142338582Y-60119758D01*
X142344357Y-60117691D01*
X142350307Y-60116201D01*
X142356374Y-60115301D01*
X142362500Y-60115000D01*
X143112500Y-60115000D01*
X143118626Y-60115301D01*
X143118626Y-60115301D01*
G37*
D18*
X142737500Y-60240000D03*
D10*
G36*
X143118626Y-59615301D02*
G01*
X143124693Y-59616201D01*
X143130643Y-59617691D01*
X143136418Y-59619758D01*
X143141962Y-59622380D01*
X143147223Y-59625533D01*
X143152150Y-59629187D01*
X143156694Y-59633306D01*
X143160813Y-59637850D01*
X143164467Y-59642777D01*
X143167620Y-59648038D01*
X143170242Y-59653582D01*
X143172309Y-59659357D01*
X143173799Y-59665307D01*
X143174699Y-59671374D01*
X143175000Y-59677500D01*
X143175000Y-59802500D01*
X143174699Y-59808626D01*
X143173799Y-59814693D01*
X143172309Y-59820643D01*
X143170242Y-59826418D01*
X143167620Y-59831962D01*
X143164467Y-59837223D01*
X143160813Y-59842150D01*
X143156694Y-59846694D01*
X143152150Y-59850813D01*
X143147223Y-59854467D01*
X143141962Y-59857620D01*
X143136418Y-59860242D01*
X143130643Y-59862309D01*
X143124693Y-59863799D01*
X143118626Y-59864699D01*
X143112500Y-59865000D01*
X142362500Y-59865000D01*
X142356374Y-59864699D01*
X142350307Y-59863799D01*
X142344357Y-59862309D01*
X142338582Y-59860242D01*
X142333038Y-59857620D01*
X142327777Y-59854467D01*
X142322850Y-59850813D01*
X142318306Y-59846694D01*
X142314187Y-59842150D01*
X142310533Y-59837223D01*
X142307380Y-59831962D01*
X142304758Y-59826418D01*
X142302691Y-59820643D01*
X142301201Y-59814693D01*
X142300301Y-59808626D01*
X142300000Y-59802500D01*
X142300000Y-59677500D01*
X142300301Y-59671374D01*
X142301201Y-59665307D01*
X142302691Y-59659357D01*
X142304758Y-59653582D01*
X142307380Y-59648038D01*
X142310533Y-59642777D01*
X142314187Y-59637850D01*
X142318306Y-59633306D01*
X142322850Y-59629187D01*
X142327777Y-59625533D01*
X142333038Y-59622380D01*
X142338582Y-59619758D01*
X142344357Y-59617691D01*
X142350307Y-59616201D01*
X142356374Y-59615301D01*
X142362500Y-59615000D01*
X143112500Y-59615000D01*
X143118626Y-59615301D01*
X143118626Y-59615301D01*
G37*
D18*
X142737500Y-59740000D03*
D10*
G36*
X143118626Y-59115301D02*
G01*
X143124693Y-59116201D01*
X143130643Y-59117691D01*
X143136418Y-59119758D01*
X143141962Y-59122380D01*
X143147223Y-59125533D01*
X143152150Y-59129187D01*
X143156694Y-59133306D01*
X143160813Y-59137850D01*
X143164467Y-59142777D01*
X143167620Y-59148038D01*
X143170242Y-59153582D01*
X143172309Y-59159357D01*
X143173799Y-59165307D01*
X143174699Y-59171374D01*
X143175000Y-59177500D01*
X143175000Y-59302500D01*
X143174699Y-59308626D01*
X143173799Y-59314693D01*
X143172309Y-59320643D01*
X143170242Y-59326418D01*
X143167620Y-59331962D01*
X143164467Y-59337223D01*
X143160813Y-59342150D01*
X143156694Y-59346694D01*
X143152150Y-59350813D01*
X143147223Y-59354467D01*
X143141962Y-59357620D01*
X143136418Y-59360242D01*
X143130643Y-59362309D01*
X143124693Y-59363799D01*
X143118626Y-59364699D01*
X143112500Y-59365000D01*
X142362500Y-59365000D01*
X142356374Y-59364699D01*
X142350307Y-59363799D01*
X142344357Y-59362309D01*
X142338582Y-59360242D01*
X142333038Y-59357620D01*
X142327777Y-59354467D01*
X142322850Y-59350813D01*
X142318306Y-59346694D01*
X142314187Y-59342150D01*
X142310533Y-59337223D01*
X142307380Y-59331962D01*
X142304758Y-59326418D01*
X142302691Y-59320643D01*
X142301201Y-59314693D01*
X142300301Y-59308626D01*
X142300000Y-59302500D01*
X142300000Y-59177500D01*
X142300301Y-59171374D01*
X142301201Y-59165307D01*
X142302691Y-59159357D01*
X142304758Y-59153582D01*
X142307380Y-59148038D01*
X142310533Y-59142777D01*
X142314187Y-59137850D01*
X142318306Y-59133306D01*
X142322850Y-59129187D01*
X142327777Y-59125533D01*
X142333038Y-59122380D01*
X142338582Y-59119758D01*
X142344357Y-59117691D01*
X142350307Y-59116201D01*
X142356374Y-59115301D01*
X142362500Y-59115000D01*
X143112500Y-59115000D01*
X143118626Y-59115301D01*
X143118626Y-59115301D01*
G37*
D18*
X142737500Y-59240000D03*
D10*
G36*
X143118626Y-58615301D02*
G01*
X143124693Y-58616201D01*
X143130643Y-58617691D01*
X143136418Y-58619758D01*
X143141962Y-58622380D01*
X143147223Y-58625533D01*
X143152150Y-58629187D01*
X143156694Y-58633306D01*
X143160813Y-58637850D01*
X143164467Y-58642777D01*
X143167620Y-58648038D01*
X143170242Y-58653582D01*
X143172309Y-58659357D01*
X143173799Y-58665307D01*
X143174699Y-58671374D01*
X143175000Y-58677500D01*
X143175000Y-58802500D01*
X143174699Y-58808626D01*
X143173799Y-58814693D01*
X143172309Y-58820643D01*
X143170242Y-58826418D01*
X143167620Y-58831962D01*
X143164467Y-58837223D01*
X143160813Y-58842150D01*
X143156694Y-58846694D01*
X143152150Y-58850813D01*
X143147223Y-58854467D01*
X143141962Y-58857620D01*
X143136418Y-58860242D01*
X143130643Y-58862309D01*
X143124693Y-58863799D01*
X143118626Y-58864699D01*
X143112500Y-58865000D01*
X142362500Y-58865000D01*
X142356374Y-58864699D01*
X142350307Y-58863799D01*
X142344357Y-58862309D01*
X142338582Y-58860242D01*
X142333038Y-58857620D01*
X142327777Y-58854467D01*
X142322850Y-58850813D01*
X142318306Y-58846694D01*
X142314187Y-58842150D01*
X142310533Y-58837223D01*
X142307380Y-58831962D01*
X142304758Y-58826418D01*
X142302691Y-58820643D01*
X142301201Y-58814693D01*
X142300301Y-58808626D01*
X142300000Y-58802500D01*
X142300000Y-58677500D01*
X142300301Y-58671374D01*
X142301201Y-58665307D01*
X142302691Y-58659357D01*
X142304758Y-58653582D01*
X142307380Y-58648038D01*
X142310533Y-58642777D01*
X142314187Y-58637850D01*
X142318306Y-58633306D01*
X142322850Y-58629187D01*
X142327777Y-58625533D01*
X142333038Y-58622380D01*
X142338582Y-58619758D01*
X142344357Y-58617691D01*
X142350307Y-58616201D01*
X142356374Y-58615301D01*
X142362500Y-58615000D01*
X143112500Y-58615000D01*
X143118626Y-58615301D01*
X143118626Y-58615301D01*
G37*
D18*
X142737500Y-58740000D03*
D10*
G36*
X143118626Y-58115301D02*
G01*
X143124693Y-58116201D01*
X143130643Y-58117691D01*
X143136418Y-58119758D01*
X143141962Y-58122380D01*
X143147223Y-58125533D01*
X143152150Y-58129187D01*
X143156694Y-58133306D01*
X143160813Y-58137850D01*
X143164467Y-58142777D01*
X143167620Y-58148038D01*
X143170242Y-58153582D01*
X143172309Y-58159357D01*
X143173799Y-58165307D01*
X143174699Y-58171374D01*
X143175000Y-58177500D01*
X143175000Y-58302500D01*
X143174699Y-58308626D01*
X143173799Y-58314693D01*
X143172309Y-58320643D01*
X143170242Y-58326418D01*
X143167620Y-58331962D01*
X143164467Y-58337223D01*
X143160813Y-58342150D01*
X143156694Y-58346694D01*
X143152150Y-58350813D01*
X143147223Y-58354467D01*
X143141962Y-58357620D01*
X143136418Y-58360242D01*
X143130643Y-58362309D01*
X143124693Y-58363799D01*
X143118626Y-58364699D01*
X143112500Y-58365000D01*
X142362500Y-58365000D01*
X142356374Y-58364699D01*
X142350307Y-58363799D01*
X142344357Y-58362309D01*
X142338582Y-58360242D01*
X142333038Y-58357620D01*
X142327777Y-58354467D01*
X142322850Y-58350813D01*
X142318306Y-58346694D01*
X142314187Y-58342150D01*
X142310533Y-58337223D01*
X142307380Y-58331962D01*
X142304758Y-58326418D01*
X142302691Y-58320643D01*
X142301201Y-58314693D01*
X142300301Y-58308626D01*
X142300000Y-58302500D01*
X142300000Y-58177500D01*
X142300301Y-58171374D01*
X142301201Y-58165307D01*
X142302691Y-58159357D01*
X142304758Y-58153582D01*
X142307380Y-58148038D01*
X142310533Y-58142777D01*
X142314187Y-58137850D01*
X142318306Y-58133306D01*
X142322850Y-58129187D01*
X142327777Y-58125533D01*
X142333038Y-58122380D01*
X142338582Y-58119758D01*
X142344357Y-58117691D01*
X142350307Y-58116201D01*
X142356374Y-58115301D01*
X142362500Y-58115000D01*
X143112500Y-58115000D01*
X143118626Y-58115301D01*
X143118626Y-58115301D01*
G37*
D18*
X142737500Y-58240000D03*
D10*
G36*
X142118626Y-57115301D02*
G01*
X142124693Y-57116201D01*
X142130643Y-57117691D01*
X142136418Y-57119758D01*
X142141962Y-57122380D01*
X142147223Y-57125533D01*
X142152150Y-57129187D01*
X142156694Y-57133306D01*
X142160813Y-57137850D01*
X142164467Y-57142777D01*
X142167620Y-57148038D01*
X142170242Y-57153582D01*
X142172309Y-57159357D01*
X142173799Y-57165307D01*
X142174699Y-57171374D01*
X142175000Y-57177500D01*
X142175000Y-57927500D01*
X142174699Y-57933626D01*
X142173799Y-57939693D01*
X142172309Y-57945643D01*
X142170242Y-57951418D01*
X142167620Y-57956962D01*
X142164467Y-57962223D01*
X142160813Y-57967150D01*
X142156694Y-57971694D01*
X142152150Y-57975813D01*
X142147223Y-57979467D01*
X142141962Y-57982620D01*
X142136418Y-57985242D01*
X142130643Y-57987309D01*
X142124693Y-57988799D01*
X142118626Y-57989699D01*
X142112500Y-57990000D01*
X141987500Y-57990000D01*
X141981374Y-57989699D01*
X141975307Y-57988799D01*
X141969357Y-57987309D01*
X141963582Y-57985242D01*
X141958038Y-57982620D01*
X141952777Y-57979467D01*
X141947850Y-57975813D01*
X141943306Y-57971694D01*
X141939187Y-57967150D01*
X141935533Y-57962223D01*
X141932380Y-57956962D01*
X141929758Y-57951418D01*
X141927691Y-57945643D01*
X141926201Y-57939693D01*
X141925301Y-57933626D01*
X141925000Y-57927500D01*
X141925000Y-57177500D01*
X141925301Y-57171374D01*
X141926201Y-57165307D01*
X141927691Y-57159357D01*
X141929758Y-57153582D01*
X141932380Y-57148038D01*
X141935533Y-57142777D01*
X141939187Y-57137850D01*
X141943306Y-57133306D01*
X141947850Y-57129187D01*
X141952777Y-57125533D01*
X141958038Y-57122380D01*
X141963582Y-57119758D01*
X141969357Y-57117691D01*
X141975307Y-57116201D01*
X141981374Y-57115301D01*
X141987500Y-57115000D01*
X142112500Y-57115000D01*
X142118626Y-57115301D01*
X142118626Y-57115301D01*
G37*
D18*
X142050000Y-57552500D03*
D10*
G36*
X141618626Y-57115301D02*
G01*
X141624693Y-57116201D01*
X141630643Y-57117691D01*
X141636418Y-57119758D01*
X141641962Y-57122380D01*
X141647223Y-57125533D01*
X141652150Y-57129187D01*
X141656694Y-57133306D01*
X141660813Y-57137850D01*
X141664467Y-57142777D01*
X141667620Y-57148038D01*
X141670242Y-57153582D01*
X141672309Y-57159357D01*
X141673799Y-57165307D01*
X141674699Y-57171374D01*
X141675000Y-57177500D01*
X141675000Y-57927500D01*
X141674699Y-57933626D01*
X141673799Y-57939693D01*
X141672309Y-57945643D01*
X141670242Y-57951418D01*
X141667620Y-57956962D01*
X141664467Y-57962223D01*
X141660813Y-57967150D01*
X141656694Y-57971694D01*
X141652150Y-57975813D01*
X141647223Y-57979467D01*
X141641962Y-57982620D01*
X141636418Y-57985242D01*
X141630643Y-57987309D01*
X141624693Y-57988799D01*
X141618626Y-57989699D01*
X141612500Y-57990000D01*
X141487500Y-57990000D01*
X141481374Y-57989699D01*
X141475307Y-57988799D01*
X141469357Y-57987309D01*
X141463582Y-57985242D01*
X141458038Y-57982620D01*
X141452777Y-57979467D01*
X141447850Y-57975813D01*
X141443306Y-57971694D01*
X141439187Y-57967150D01*
X141435533Y-57962223D01*
X141432380Y-57956962D01*
X141429758Y-57951418D01*
X141427691Y-57945643D01*
X141426201Y-57939693D01*
X141425301Y-57933626D01*
X141425000Y-57927500D01*
X141425000Y-57177500D01*
X141425301Y-57171374D01*
X141426201Y-57165307D01*
X141427691Y-57159357D01*
X141429758Y-57153582D01*
X141432380Y-57148038D01*
X141435533Y-57142777D01*
X141439187Y-57137850D01*
X141443306Y-57133306D01*
X141447850Y-57129187D01*
X141452777Y-57125533D01*
X141458038Y-57122380D01*
X141463582Y-57119758D01*
X141469357Y-57117691D01*
X141475307Y-57116201D01*
X141481374Y-57115301D01*
X141487500Y-57115000D01*
X141612500Y-57115000D01*
X141618626Y-57115301D01*
X141618626Y-57115301D01*
G37*
D18*
X141550000Y-57552500D03*
D10*
G36*
X141118626Y-57115301D02*
G01*
X141124693Y-57116201D01*
X141130643Y-57117691D01*
X141136418Y-57119758D01*
X141141962Y-57122380D01*
X141147223Y-57125533D01*
X141152150Y-57129187D01*
X141156694Y-57133306D01*
X141160813Y-57137850D01*
X141164467Y-57142777D01*
X141167620Y-57148038D01*
X141170242Y-57153582D01*
X141172309Y-57159357D01*
X141173799Y-57165307D01*
X141174699Y-57171374D01*
X141175000Y-57177500D01*
X141175000Y-57927500D01*
X141174699Y-57933626D01*
X141173799Y-57939693D01*
X141172309Y-57945643D01*
X141170242Y-57951418D01*
X141167620Y-57956962D01*
X141164467Y-57962223D01*
X141160813Y-57967150D01*
X141156694Y-57971694D01*
X141152150Y-57975813D01*
X141147223Y-57979467D01*
X141141962Y-57982620D01*
X141136418Y-57985242D01*
X141130643Y-57987309D01*
X141124693Y-57988799D01*
X141118626Y-57989699D01*
X141112500Y-57990000D01*
X140987500Y-57990000D01*
X140981374Y-57989699D01*
X140975307Y-57988799D01*
X140969357Y-57987309D01*
X140963582Y-57985242D01*
X140958038Y-57982620D01*
X140952777Y-57979467D01*
X140947850Y-57975813D01*
X140943306Y-57971694D01*
X140939187Y-57967150D01*
X140935533Y-57962223D01*
X140932380Y-57956962D01*
X140929758Y-57951418D01*
X140927691Y-57945643D01*
X140926201Y-57939693D01*
X140925301Y-57933626D01*
X140925000Y-57927500D01*
X140925000Y-57177500D01*
X140925301Y-57171374D01*
X140926201Y-57165307D01*
X140927691Y-57159357D01*
X140929758Y-57153582D01*
X140932380Y-57148038D01*
X140935533Y-57142777D01*
X140939187Y-57137850D01*
X140943306Y-57133306D01*
X140947850Y-57129187D01*
X140952777Y-57125533D01*
X140958038Y-57122380D01*
X140963582Y-57119758D01*
X140969357Y-57117691D01*
X140975307Y-57116201D01*
X140981374Y-57115301D01*
X140987500Y-57115000D01*
X141112500Y-57115000D01*
X141118626Y-57115301D01*
X141118626Y-57115301D01*
G37*
D18*
X141050000Y-57552500D03*
D10*
G36*
X140618626Y-57115301D02*
G01*
X140624693Y-57116201D01*
X140630643Y-57117691D01*
X140636418Y-57119758D01*
X140641962Y-57122380D01*
X140647223Y-57125533D01*
X140652150Y-57129187D01*
X140656694Y-57133306D01*
X140660813Y-57137850D01*
X140664467Y-57142777D01*
X140667620Y-57148038D01*
X140670242Y-57153582D01*
X140672309Y-57159357D01*
X140673799Y-57165307D01*
X140674699Y-57171374D01*
X140675000Y-57177500D01*
X140675000Y-57927500D01*
X140674699Y-57933626D01*
X140673799Y-57939693D01*
X140672309Y-57945643D01*
X140670242Y-57951418D01*
X140667620Y-57956962D01*
X140664467Y-57962223D01*
X140660813Y-57967150D01*
X140656694Y-57971694D01*
X140652150Y-57975813D01*
X140647223Y-57979467D01*
X140641962Y-57982620D01*
X140636418Y-57985242D01*
X140630643Y-57987309D01*
X140624693Y-57988799D01*
X140618626Y-57989699D01*
X140612500Y-57990000D01*
X140487500Y-57990000D01*
X140481374Y-57989699D01*
X140475307Y-57988799D01*
X140469357Y-57987309D01*
X140463582Y-57985242D01*
X140458038Y-57982620D01*
X140452777Y-57979467D01*
X140447850Y-57975813D01*
X140443306Y-57971694D01*
X140439187Y-57967150D01*
X140435533Y-57962223D01*
X140432380Y-57956962D01*
X140429758Y-57951418D01*
X140427691Y-57945643D01*
X140426201Y-57939693D01*
X140425301Y-57933626D01*
X140425000Y-57927500D01*
X140425000Y-57177500D01*
X140425301Y-57171374D01*
X140426201Y-57165307D01*
X140427691Y-57159357D01*
X140429758Y-57153582D01*
X140432380Y-57148038D01*
X140435533Y-57142777D01*
X140439187Y-57137850D01*
X140443306Y-57133306D01*
X140447850Y-57129187D01*
X140452777Y-57125533D01*
X140458038Y-57122380D01*
X140463582Y-57119758D01*
X140469357Y-57117691D01*
X140475307Y-57116201D01*
X140481374Y-57115301D01*
X140487500Y-57115000D01*
X140612500Y-57115000D01*
X140618626Y-57115301D01*
X140618626Y-57115301D01*
G37*
D18*
X140550000Y-57552500D03*
D10*
G36*
X140118626Y-57115301D02*
G01*
X140124693Y-57116201D01*
X140130643Y-57117691D01*
X140136418Y-57119758D01*
X140141962Y-57122380D01*
X140147223Y-57125533D01*
X140152150Y-57129187D01*
X140156694Y-57133306D01*
X140160813Y-57137850D01*
X140164467Y-57142777D01*
X140167620Y-57148038D01*
X140170242Y-57153582D01*
X140172309Y-57159357D01*
X140173799Y-57165307D01*
X140174699Y-57171374D01*
X140175000Y-57177500D01*
X140175000Y-57927500D01*
X140174699Y-57933626D01*
X140173799Y-57939693D01*
X140172309Y-57945643D01*
X140170242Y-57951418D01*
X140167620Y-57956962D01*
X140164467Y-57962223D01*
X140160813Y-57967150D01*
X140156694Y-57971694D01*
X140152150Y-57975813D01*
X140147223Y-57979467D01*
X140141962Y-57982620D01*
X140136418Y-57985242D01*
X140130643Y-57987309D01*
X140124693Y-57988799D01*
X140118626Y-57989699D01*
X140112500Y-57990000D01*
X139987500Y-57990000D01*
X139981374Y-57989699D01*
X139975307Y-57988799D01*
X139969357Y-57987309D01*
X139963582Y-57985242D01*
X139958038Y-57982620D01*
X139952777Y-57979467D01*
X139947850Y-57975813D01*
X139943306Y-57971694D01*
X139939187Y-57967150D01*
X139935533Y-57962223D01*
X139932380Y-57956962D01*
X139929758Y-57951418D01*
X139927691Y-57945643D01*
X139926201Y-57939693D01*
X139925301Y-57933626D01*
X139925000Y-57927500D01*
X139925000Y-57177500D01*
X139925301Y-57171374D01*
X139926201Y-57165307D01*
X139927691Y-57159357D01*
X139929758Y-57153582D01*
X139932380Y-57148038D01*
X139935533Y-57142777D01*
X139939187Y-57137850D01*
X139943306Y-57133306D01*
X139947850Y-57129187D01*
X139952777Y-57125533D01*
X139958038Y-57122380D01*
X139963582Y-57119758D01*
X139969357Y-57117691D01*
X139975307Y-57116201D01*
X139981374Y-57115301D01*
X139987500Y-57115000D01*
X140112500Y-57115000D01*
X140118626Y-57115301D01*
X140118626Y-57115301D01*
G37*
D18*
X140050000Y-57552500D03*
D10*
G36*
X139618626Y-57115301D02*
G01*
X139624693Y-57116201D01*
X139630643Y-57117691D01*
X139636418Y-57119758D01*
X139641962Y-57122380D01*
X139647223Y-57125533D01*
X139652150Y-57129187D01*
X139656694Y-57133306D01*
X139660813Y-57137850D01*
X139664467Y-57142777D01*
X139667620Y-57148038D01*
X139670242Y-57153582D01*
X139672309Y-57159357D01*
X139673799Y-57165307D01*
X139674699Y-57171374D01*
X139675000Y-57177500D01*
X139675000Y-57927500D01*
X139674699Y-57933626D01*
X139673799Y-57939693D01*
X139672309Y-57945643D01*
X139670242Y-57951418D01*
X139667620Y-57956962D01*
X139664467Y-57962223D01*
X139660813Y-57967150D01*
X139656694Y-57971694D01*
X139652150Y-57975813D01*
X139647223Y-57979467D01*
X139641962Y-57982620D01*
X139636418Y-57985242D01*
X139630643Y-57987309D01*
X139624693Y-57988799D01*
X139618626Y-57989699D01*
X139612500Y-57990000D01*
X139487500Y-57990000D01*
X139481374Y-57989699D01*
X139475307Y-57988799D01*
X139469357Y-57987309D01*
X139463582Y-57985242D01*
X139458038Y-57982620D01*
X139452777Y-57979467D01*
X139447850Y-57975813D01*
X139443306Y-57971694D01*
X139439187Y-57967150D01*
X139435533Y-57962223D01*
X139432380Y-57956962D01*
X139429758Y-57951418D01*
X139427691Y-57945643D01*
X139426201Y-57939693D01*
X139425301Y-57933626D01*
X139425000Y-57927500D01*
X139425000Y-57177500D01*
X139425301Y-57171374D01*
X139426201Y-57165307D01*
X139427691Y-57159357D01*
X139429758Y-57153582D01*
X139432380Y-57148038D01*
X139435533Y-57142777D01*
X139439187Y-57137850D01*
X139443306Y-57133306D01*
X139447850Y-57129187D01*
X139452777Y-57125533D01*
X139458038Y-57122380D01*
X139463582Y-57119758D01*
X139469357Y-57117691D01*
X139475307Y-57116201D01*
X139481374Y-57115301D01*
X139487500Y-57115000D01*
X139612500Y-57115000D01*
X139618626Y-57115301D01*
X139618626Y-57115301D01*
G37*
D18*
X139550000Y-57552500D03*
D10*
G36*
X139118626Y-57115301D02*
G01*
X139124693Y-57116201D01*
X139130643Y-57117691D01*
X139136418Y-57119758D01*
X139141962Y-57122380D01*
X139147223Y-57125533D01*
X139152150Y-57129187D01*
X139156694Y-57133306D01*
X139160813Y-57137850D01*
X139164467Y-57142777D01*
X139167620Y-57148038D01*
X139170242Y-57153582D01*
X139172309Y-57159357D01*
X139173799Y-57165307D01*
X139174699Y-57171374D01*
X139175000Y-57177500D01*
X139175000Y-57927500D01*
X139174699Y-57933626D01*
X139173799Y-57939693D01*
X139172309Y-57945643D01*
X139170242Y-57951418D01*
X139167620Y-57956962D01*
X139164467Y-57962223D01*
X139160813Y-57967150D01*
X139156694Y-57971694D01*
X139152150Y-57975813D01*
X139147223Y-57979467D01*
X139141962Y-57982620D01*
X139136418Y-57985242D01*
X139130643Y-57987309D01*
X139124693Y-57988799D01*
X139118626Y-57989699D01*
X139112500Y-57990000D01*
X138987500Y-57990000D01*
X138981374Y-57989699D01*
X138975307Y-57988799D01*
X138969357Y-57987309D01*
X138963582Y-57985242D01*
X138958038Y-57982620D01*
X138952777Y-57979467D01*
X138947850Y-57975813D01*
X138943306Y-57971694D01*
X138939187Y-57967150D01*
X138935533Y-57962223D01*
X138932380Y-57956962D01*
X138929758Y-57951418D01*
X138927691Y-57945643D01*
X138926201Y-57939693D01*
X138925301Y-57933626D01*
X138925000Y-57927500D01*
X138925000Y-57177500D01*
X138925301Y-57171374D01*
X138926201Y-57165307D01*
X138927691Y-57159357D01*
X138929758Y-57153582D01*
X138932380Y-57148038D01*
X138935533Y-57142777D01*
X138939187Y-57137850D01*
X138943306Y-57133306D01*
X138947850Y-57129187D01*
X138952777Y-57125533D01*
X138958038Y-57122380D01*
X138963582Y-57119758D01*
X138969357Y-57117691D01*
X138975307Y-57116201D01*
X138981374Y-57115301D01*
X138987500Y-57115000D01*
X139112500Y-57115000D01*
X139118626Y-57115301D01*
X139118626Y-57115301D01*
G37*
D18*
X139050000Y-57552500D03*
D10*
G36*
X138618626Y-57115301D02*
G01*
X138624693Y-57116201D01*
X138630643Y-57117691D01*
X138636418Y-57119758D01*
X138641962Y-57122380D01*
X138647223Y-57125533D01*
X138652150Y-57129187D01*
X138656694Y-57133306D01*
X138660813Y-57137850D01*
X138664467Y-57142777D01*
X138667620Y-57148038D01*
X138670242Y-57153582D01*
X138672309Y-57159357D01*
X138673799Y-57165307D01*
X138674699Y-57171374D01*
X138675000Y-57177500D01*
X138675000Y-57927500D01*
X138674699Y-57933626D01*
X138673799Y-57939693D01*
X138672309Y-57945643D01*
X138670242Y-57951418D01*
X138667620Y-57956962D01*
X138664467Y-57962223D01*
X138660813Y-57967150D01*
X138656694Y-57971694D01*
X138652150Y-57975813D01*
X138647223Y-57979467D01*
X138641962Y-57982620D01*
X138636418Y-57985242D01*
X138630643Y-57987309D01*
X138624693Y-57988799D01*
X138618626Y-57989699D01*
X138612500Y-57990000D01*
X138487500Y-57990000D01*
X138481374Y-57989699D01*
X138475307Y-57988799D01*
X138469357Y-57987309D01*
X138463582Y-57985242D01*
X138458038Y-57982620D01*
X138452777Y-57979467D01*
X138447850Y-57975813D01*
X138443306Y-57971694D01*
X138439187Y-57967150D01*
X138435533Y-57962223D01*
X138432380Y-57956962D01*
X138429758Y-57951418D01*
X138427691Y-57945643D01*
X138426201Y-57939693D01*
X138425301Y-57933626D01*
X138425000Y-57927500D01*
X138425000Y-57177500D01*
X138425301Y-57171374D01*
X138426201Y-57165307D01*
X138427691Y-57159357D01*
X138429758Y-57153582D01*
X138432380Y-57148038D01*
X138435533Y-57142777D01*
X138439187Y-57137850D01*
X138443306Y-57133306D01*
X138447850Y-57129187D01*
X138452777Y-57125533D01*
X138458038Y-57122380D01*
X138463582Y-57119758D01*
X138469357Y-57117691D01*
X138475307Y-57116201D01*
X138481374Y-57115301D01*
X138487500Y-57115000D01*
X138612500Y-57115000D01*
X138618626Y-57115301D01*
X138618626Y-57115301D01*
G37*
D18*
X138550000Y-57552500D03*
D10*
G36*
X138243626Y-58115301D02*
G01*
X138249693Y-58116201D01*
X138255643Y-58117691D01*
X138261418Y-58119758D01*
X138266962Y-58122380D01*
X138272223Y-58125533D01*
X138277150Y-58129187D01*
X138281694Y-58133306D01*
X138285813Y-58137850D01*
X138289467Y-58142777D01*
X138292620Y-58148038D01*
X138295242Y-58153582D01*
X138297309Y-58159357D01*
X138298799Y-58165307D01*
X138299699Y-58171374D01*
X138300000Y-58177500D01*
X138300000Y-58302500D01*
X138299699Y-58308626D01*
X138298799Y-58314693D01*
X138297309Y-58320643D01*
X138295242Y-58326418D01*
X138292620Y-58331962D01*
X138289467Y-58337223D01*
X138285813Y-58342150D01*
X138281694Y-58346694D01*
X138277150Y-58350813D01*
X138272223Y-58354467D01*
X138266962Y-58357620D01*
X138261418Y-58360242D01*
X138255643Y-58362309D01*
X138249693Y-58363799D01*
X138243626Y-58364699D01*
X138237500Y-58365000D01*
X137487500Y-58365000D01*
X137481374Y-58364699D01*
X137475307Y-58363799D01*
X137469357Y-58362309D01*
X137463582Y-58360242D01*
X137458038Y-58357620D01*
X137452777Y-58354467D01*
X137447850Y-58350813D01*
X137443306Y-58346694D01*
X137439187Y-58342150D01*
X137435533Y-58337223D01*
X137432380Y-58331962D01*
X137429758Y-58326418D01*
X137427691Y-58320643D01*
X137426201Y-58314693D01*
X137425301Y-58308626D01*
X137425000Y-58302500D01*
X137425000Y-58177500D01*
X137425301Y-58171374D01*
X137426201Y-58165307D01*
X137427691Y-58159357D01*
X137429758Y-58153582D01*
X137432380Y-58148038D01*
X137435533Y-58142777D01*
X137439187Y-58137850D01*
X137443306Y-58133306D01*
X137447850Y-58129187D01*
X137452777Y-58125533D01*
X137458038Y-58122380D01*
X137463582Y-58119758D01*
X137469357Y-58117691D01*
X137475307Y-58116201D01*
X137481374Y-58115301D01*
X137487500Y-58115000D01*
X138237500Y-58115000D01*
X138243626Y-58115301D01*
X138243626Y-58115301D01*
G37*
D18*
X137862500Y-58240000D03*
D10*
G36*
X138243626Y-58615301D02*
G01*
X138249693Y-58616201D01*
X138255643Y-58617691D01*
X138261418Y-58619758D01*
X138266962Y-58622380D01*
X138272223Y-58625533D01*
X138277150Y-58629187D01*
X138281694Y-58633306D01*
X138285813Y-58637850D01*
X138289467Y-58642777D01*
X138292620Y-58648038D01*
X138295242Y-58653582D01*
X138297309Y-58659357D01*
X138298799Y-58665307D01*
X138299699Y-58671374D01*
X138300000Y-58677500D01*
X138300000Y-58802500D01*
X138299699Y-58808626D01*
X138298799Y-58814693D01*
X138297309Y-58820643D01*
X138295242Y-58826418D01*
X138292620Y-58831962D01*
X138289467Y-58837223D01*
X138285813Y-58842150D01*
X138281694Y-58846694D01*
X138277150Y-58850813D01*
X138272223Y-58854467D01*
X138266962Y-58857620D01*
X138261418Y-58860242D01*
X138255643Y-58862309D01*
X138249693Y-58863799D01*
X138243626Y-58864699D01*
X138237500Y-58865000D01*
X137487500Y-58865000D01*
X137481374Y-58864699D01*
X137475307Y-58863799D01*
X137469357Y-58862309D01*
X137463582Y-58860242D01*
X137458038Y-58857620D01*
X137452777Y-58854467D01*
X137447850Y-58850813D01*
X137443306Y-58846694D01*
X137439187Y-58842150D01*
X137435533Y-58837223D01*
X137432380Y-58831962D01*
X137429758Y-58826418D01*
X137427691Y-58820643D01*
X137426201Y-58814693D01*
X137425301Y-58808626D01*
X137425000Y-58802500D01*
X137425000Y-58677500D01*
X137425301Y-58671374D01*
X137426201Y-58665307D01*
X137427691Y-58659357D01*
X137429758Y-58653582D01*
X137432380Y-58648038D01*
X137435533Y-58642777D01*
X137439187Y-58637850D01*
X137443306Y-58633306D01*
X137447850Y-58629187D01*
X137452777Y-58625533D01*
X137458038Y-58622380D01*
X137463582Y-58619758D01*
X137469357Y-58617691D01*
X137475307Y-58616201D01*
X137481374Y-58615301D01*
X137487500Y-58615000D01*
X138237500Y-58615000D01*
X138243626Y-58615301D01*
X138243626Y-58615301D01*
G37*
D18*
X137862500Y-58740000D03*
D10*
G36*
X138243626Y-59115301D02*
G01*
X138249693Y-59116201D01*
X138255643Y-59117691D01*
X138261418Y-59119758D01*
X138266962Y-59122380D01*
X138272223Y-59125533D01*
X138277150Y-59129187D01*
X138281694Y-59133306D01*
X138285813Y-59137850D01*
X138289467Y-59142777D01*
X138292620Y-59148038D01*
X138295242Y-59153582D01*
X138297309Y-59159357D01*
X138298799Y-59165307D01*
X138299699Y-59171374D01*
X138300000Y-59177500D01*
X138300000Y-59302500D01*
X138299699Y-59308626D01*
X138298799Y-59314693D01*
X138297309Y-59320643D01*
X138295242Y-59326418D01*
X138292620Y-59331962D01*
X138289467Y-59337223D01*
X138285813Y-59342150D01*
X138281694Y-59346694D01*
X138277150Y-59350813D01*
X138272223Y-59354467D01*
X138266962Y-59357620D01*
X138261418Y-59360242D01*
X138255643Y-59362309D01*
X138249693Y-59363799D01*
X138243626Y-59364699D01*
X138237500Y-59365000D01*
X137487500Y-59365000D01*
X137481374Y-59364699D01*
X137475307Y-59363799D01*
X137469357Y-59362309D01*
X137463582Y-59360242D01*
X137458038Y-59357620D01*
X137452777Y-59354467D01*
X137447850Y-59350813D01*
X137443306Y-59346694D01*
X137439187Y-59342150D01*
X137435533Y-59337223D01*
X137432380Y-59331962D01*
X137429758Y-59326418D01*
X137427691Y-59320643D01*
X137426201Y-59314693D01*
X137425301Y-59308626D01*
X137425000Y-59302500D01*
X137425000Y-59177500D01*
X137425301Y-59171374D01*
X137426201Y-59165307D01*
X137427691Y-59159357D01*
X137429758Y-59153582D01*
X137432380Y-59148038D01*
X137435533Y-59142777D01*
X137439187Y-59137850D01*
X137443306Y-59133306D01*
X137447850Y-59129187D01*
X137452777Y-59125533D01*
X137458038Y-59122380D01*
X137463582Y-59119758D01*
X137469357Y-59117691D01*
X137475307Y-59116201D01*
X137481374Y-59115301D01*
X137487500Y-59115000D01*
X138237500Y-59115000D01*
X138243626Y-59115301D01*
X138243626Y-59115301D01*
G37*
D18*
X137862500Y-59240000D03*
D10*
G36*
X138243626Y-59615301D02*
G01*
X138249693Y-59616201D01*
X138255643Y-59617691D01*
X138261418Y-59619758D01*
X138266962Y-59622380D01*
X138272223Y-59625533D01*
X138277150Y-59629187D01*
X138281694Y-59633306D01*
X138285813Y-59637850D01*
X138289467Y-59642777D01*
X138292620Y-59648038D01*
X138295242Y-59653582D01*
X138297309Y-59659357D01*
X138298799Y-59665307D01*
X138299699Y-59671374D01*
X138300000Y-59677500D01*
X138300000Y-59802500D01*
X138299699Y-59808626D01*
X138298799Y-59814693D01*
X138297309Y-59820643D01*
X138295242Y-59826418D01*
X138292620Y-59831962D01*
X138289467Y-59837223D01*
X138285813Y-59842150D01*
X138281694Y-59846694D01*
X138277150Y-59850813D01*
X138272223Y-59854467D01*
X138266962Y-59857620D01*
X138261418Y-59860242D01*
X138255643Y-59862309D01*
X138249693Y-59863799D01*
X138243626Y-59864699D01*
X138237500Y-59865000D01*
X137487500Y-59865000D01*
X137481374Y-59864699D01*
X137475307Y-59863799D01*
X137469357Y-59862309D01*
X137463582Y-59860242D01*
X137458038Y-59857620D01*
X137452777Y-59854467D01*
X137447850Y-59850813D01*
X137443306Y-59846694D01*
X137439187Y-59842150D01*
X137435533Y-59837223D01*
X137432380Y-59831962D01*
X137429758Y-59826418D01*
X137427691Y-59820643D01*
X137426201Y-59814693D01*
X137425301Y-59808626D01*
X137425000Y-59802500D01*
X137425000Y-59677500D01*
X137425301Y-59671374D01*
X137426201Y-59665307D01*
X137427691Y-59659357D01*
X137429758Y-59653582D01*
X137432380Y-59648038D01*
X137435533Y-59642777D01*
X137439187Y-59637850D01*
X137443306Y-59633306D01*
X137447850Y-59629187D01*
X137452777Y-59625533D01*
X137458038Y-59622380D01*
X137463582Y-59619758D01*
X137469357Y-59617691D01*
X137475307Y-59616201D01*
X137481374Y-59615301D01*
X137487500Y-59615000D01*
X138237500Y-59615000D01*
X138243626Y-59615301D01*
X138243626Y-59615301D01*
G37*
D18*
X137862500Y-59740000D03*
D10*
G36*
X138243626Y-60115301D02*
G01*
X138249693Y-60116201D01*
X138255643Y-60117691D01*
X138261418Y-60119758D01*
X138266962Y-60122380D01*
X138272223Y-60125533D01*
X138277150Y-60129187D01*
X138281694Y-60133306D01*
X138285813Y-60137850D01*
X138289467Y-60142777D01*
X138292620Y-60148038D01*
X138295242Y-60153582D01*
X138297309Y-60159357D01*
X138298799Y-60165307D01*
X138299699Y-60171374D01*
X138300000Y-60177500D01*
X138300000Y-60302500D01*
X138299699Y-60308626D01*
X138298799Y-60314693D01*
X138297309Y-60320643D01*
X138295242Y-60326418D01*
X138292620Y-60331962D01*
X138289467Y-60337223D01*
X138285813Y-60342150D01*
X138281694Y-60346694D01*
X138277150Y-60350813D01*
X138272223Y-60354467D01*
X138266962Y-60357620D01*
X138261418Y-60360242D01*
X138255643Y-60362309D01*
X138249693Y-60363799D01*
X138243626Y-60364699D01*
X138237500Y-60365000D01*
X137487500Y-60365000D01*
X137481374Y-60364699D01*
X137475307Y-60363799D01*
X137469357Y-60362309D01*
X137463582Y-60360242D01*
X137458038Y-60357620D01*
X137452777Y-60354467D01*
X137447850Y-60350813D01*
X137443306Y-60346694D01*
X137439187Y-60342150D01*
X137435533Y-60337223D01*
X137432380Y-60331962D01*
X137429758Y-60326418D01*
X137427691Y-60320643D01*
X137426201Y-60314693D01*
X137425301Y-60308626D01*
X137425000Y-60302500D01*
X137425000Y-60177500D01*
X137425301Y-60171374D01*
X137426201Y-60165307D01*
X137427691Y-60159357D01*
X137429758Y-60153582D01*
X137432380Y-60148038D01*
X137435533Y-60142777D01*
X137439187Y-60137850D01*
X137443306Y-60133306D01*
X137447850Y-60129187D01*
X137452777Y-60125533D01*
X137458038Y-60122380D01*
X137463582Y-60119758D01*
X137469357Y-60117691D01*
X137475307Y-60116201D01*
X137481374Y-60115301D01*
X137487500Y-60115000D01*
X138237500Y-60115000D01*
X138243626Y-60115301D01*
X138243626Y-60115301D01*
G37*
D18*
X137862500Y-60240000D03*
D10*
G36*
X138243626Y-60615301D02*
G01*
X138249693Y-60616201D01*
X138255643Y-60617691D01*
X138261418Y-60619758D01*
X138266962Y-60622380D01*
X138272223Y-60625533D01*
X138277150Y-60629187D01*
X138281694Y-60633306D01*
X138285813Y-60637850D01*
X138289467Y-60642777D01*
X138292620Y-60648038D01*
X138295242Y-60653582D01*
X138297309Y-60659357D01*
X138298799Y-60665307D01*
X138299699Y-60671374D01*
X138300000Y-60677500D01*
X138300000Y-60802500D01*
X138299699Y-60808626D01*
X138298799Y-60814693D01*
X138297309Y-60820643D01*
X138295242Y-60826418D01*
X138292620Y-60831962D01*
X138289467Y-60837223D01*
X138285813Y-60842150D01*
X138281694Y-60846694D01*
X138277150Y-60850813D01*
X138272223Y-60854467D01*
X138266962Y-60857620D01*
X138261418Y-60860242D01*
X138255643Y-60862309D01*
X138249693Y-60863799D01*
X138243626Y-60864699D01*
X138237500Y-60865000D01*
X137487500Y-60865000D01*
X137481374Y-60864699D01*
X137475307Y-60863799D01*
X137469357Y-60862309D01*
X137463582Y-60860242D01*
X137458038Y-60857620D01*
X137452777Y-60854467D01*
X137447850Y-60850813D01*
X137443306Y-60846694D01*
X137439187Y-60842150D01*
X137435533Y-60837223D01*
X137432380Y-60831962D01*
X137429758Y-60826418D01*
X137427691Y-60820643D01*
X137426201Y-60814693D01*
X137425301Y-60808626D01*
X137425000Y-60802500D01*
X137425000Y-60677500D01*
X137425301Y-60671374D01*
X137426201Y-60665307D01*
X137427691Y-60659357D01*
X137429758Y-60653582D01*
X137432380Y-60648038D01*
X137435533Y-60642777D01*
X137439187Y-60637850D01*
X137443306Y-60633306D01*
X137447850Y-60629187D01*
X137452777Y-60625533D01*
X137458038Y-60622380D01*
X137463582Y-60619758D01*
X137469357Y-60617691D01*
X137475307Y-60616201D01*
X137481374Y-60615301D01*
X137487500Y-60615000D01*
X138237500Y-60615000D01*
X138243626Y-60615301D01*
X138243626Y-60615301D01*
G37*
D18*
X137862500Y-60740000D03*
D10*
G36*
X138243626Y-61115301D02*
G01*
X138249693Y-61116201D01*
X138255643Y-61117691D01*
X138261418Y-61119758D01*
X138266962Y-61122380D01*
X138272223Y-61125533D01*
X138277150Y-61129187D01*
X138281694Y-61133306D01*
X138285813Y-61137850D01*
X138289467Y-61142777D01*
X138292620Y-61148038D01*
X138295242Y-61153582D01*
X138297309Y-61159357D01*
X138298799Y-61165307D01*
X138299699Y-61171374D01*
X138300000Y-61177500D01*
X138300000Y-61302500D01*
X138299699Y-61308626D01*
X138298799Y-61314693D01*
X138297309Y-61320643D01*
X138295242Y-61326418D01*
X138292620Y-61331962D01*
X138289467Y-61337223D01*
X138285813Y-61342150D01*
X138281694Y-61346694D01*
X138277150Y-61350813D01*
X138272223Y-61354467D01*
X138266962Y-61357620D01*
X138261418Y-61360242D01*
X138255643Y-61362309D01*
X138249693Y-61363799D01*
X138243626Y-61364699D01*
X138237500Y-61365000D01*
X137487500Y-61365000D01*
X137481374Y-61364699D01*
X137475307Y-61363799D01*
X137469357Y-61362309D01*
X137463582Y-61360242D01*
X137458038Y-61357620D01*
X137452777Y-61354467D01*
X137447850Y-61350813D01*
X137443306Y-61346694D01*
X137439187Y-61342150D01*
X137435533Y-61337223D01*
X137432380Y-61331962D01*
X137429758Y-61326418D01*
X137427691Y-61320643D01*
X137426201Y-61314693D01*
X137425301Y-61308626D01*
X137425000Y-61302500D01*
X137425000Y-61177500D01*
X137425301Y-61171374D01*
X137426201Y-61165307D01*
X137427691Y-61159357D01*
X137429758Y-61153582D01*
X137432380Y-61148038D01*
X137435533Y-61142777D01*
X137439187Y-61137850D01*
X137443306Y-61133306D01*
X137447850Y-61129187D01*
X137452777Y-61125533D01*
X137458038Y-61122380D01*
X137463582Y-61119758D01*
X137469357Y-61117691D01*
X137475307Y-61116201D01*
X137481374Y-61115301D01*
X137487500Y-61115000D01*
X138237500Y-61115000D01*
X138243626Y-61115301D01*
X138243626Y-61115301D01*
G37*
D18*
X137862500Y-61240000D03*
D10*
G36*
X138243626Y-61615301D02*
G01*
X138249693Y-61616201D01*
X138255643Y-61617691D01*
X138261418Y-61619758D01*
X138266962Y-61622380D01*
X138272223Y-61625533D01*
X138277150Y-61629187D01*
X138281694Y-61633306D01*
X138285813Y-61637850D01*
X138289467Y-61642777D01*
X138292620Y-61648038D01*
X138295242Y-61653582D01*
X138297309Y-61659357D01*
X138298799Y-61665307D01*
X138299699Y-61671374D01*
X138300000Y-61677500D01*
X138300000Y-61802500D01*
X138299699Y-61808626D01*
X138298799Y-61814693D01*
X138297309Y-61820643D01*
X138295242Y-61826418D01*
X138292620Y-61831962D01*
X138289467Y-61837223D01*
X138285813Y-61842150D01*
X138281694Y-61846694D01*
X138277150Y-61850813D01*
X138272223Y-61854467D01*
X138266962Y-61857620D01*
X138261418Y-61860242D01*
X138255643Y-61862309D01*
X138249693Y-61863799D01*
X138243626Y-61864699D01*
X138237500Y-61865000D01*
X137487500Y-61865000D01*
X137481374Y-61864699D01*
X137475307Y-61863799D01*
X137469357Y-61862309D01*
X137463582Y-61860242D01*
X137458038Y-61857620D01*
X137452777Y-61854467D01*
X137447850Y-61850813D01*
X137443306Y-61846694D01*
X137439187Y-61842150D01*
X137435533Y-61837223D01*
X137432380Y-61831962D01*
X137429758Y-61826418D01*
X137427691Y-61820643D01*
X137426201Y-61814693D01*
X137425301Y-61808626D01*
X137425000Y-61802500D01*
X137425000Y-61677500D01*
X137425301Y-61671374D01*
X137426201Y-61665307D01*
X137427691Y-61659357D01*
X137429758Y-61653582D01*
X137432380Y-61648038D01*
X137435533Y-61642777D01*
X137439187Y-61637850D01*
X137443306Y-61633306D01*
X137447850Y-61629187D01*
X137452777Y-61625533D01*
X137458038Y-61622380D01*
X137463582Y-61619758D01*
X137469357Y-61617691D01*
X137475307Y-61616201D01*
X137481374Y-61615301D01*
X137487500Y-61615000D01*
X138237500Y-61615000D01*
X138243626Y-61615301D01*
X138243626Y-61615301D01*
G37*
D18*
X137862500Y-61740000D03*
D19*
X140870000Y-66080000D03*
X140870000Y-68280000D03*
X142470000Y-68280000D03*
X142470000Y-66080000D03*
M02*
